<?xml version="1.0" encoding="utf-8"?>
<!-- Generator: Adobe Illustrator 26.3.1, SVG Export Plug-In . SVG Version: 6.00 Build 0)  -->
<svg version="1.1" id="Layer_1" xmlns="http://www.w3.org/2000/svg" xmlns:xlink="http://www.w3.org/1999/xlink" x="0px" y="0px"
	 viewBox="0 0 406.6 363" style="enable-background:new 0 0 406.6 363;" xml:space="preserve">
<style type="text/css">
	.st0{display:none;}
	.st1{display:inline;}
	.st2{font-family:'ArialMT';}
	.st3{font-size:20.5px;}
	.st4{fill:none;stroke:#000000;stroke-width:2.9286;}
	.st5{fill:none;}
	.st6{fill:none;stroke:#000000;stroke-width:2.9286;stroke-linecap:round;stroke-linejoin:round;}
	.st7{display:none;enable-background:new    ;}
	.st8{font-family:'Verdana';}
	.st9{display:none;fill:none;stroke:#000000;stroke-width:2.9286;}
	.st10{display:none;fill:none;stroke:#000000;stroke-width:2.9286;stroke-linecap:round;stroke-linejoin:round;}
	.st11{font-size:21.9643px;}
	.st12{fill:#0066CC;}
	.st13{font-family:'Folio-Medium';}
	.st14{font-size:5.504px;}
</style>
<g id="g1">
	<g id="gge5705">
		<g id="gge5707" class="st0">
			<text transform="matrix(1 0 0 1 181.9734 44.8926)" class="st1 st2 st3">SIN(0 1 50) AC 1 0</text>
		</g>
		<g id="gge5709" class="st0">
			<text transform="matrix(1 0 0 1 181.9734 18.0664)" class="st1 st2 st3">V14</text>
		</g>
		<ellipse id="gge5711" class="st4" cx="206.3" cy="83" rx="29.3" ry="29.3"/>
		<g id="gge5712">
			<circle class="st5" cx="264.9" cy="83" r="5.9"/>
			<path class="st6" d="M235.6,83h29.3"/>
			<text transform="matrix(1 0 0 1 216.6765 82.9648)" class="st7 st8 st3">1</text>
			<text transform="matrix(1 0 0 1 247.281 71.25)" class="st7 st8 st3">1</text>
			<circle class="st9" cx="302.9" cy="83" r="8.8"/>
			<path class="st10" d="M294.1,74.2l-8.8,8.8l8.8,8.8"/>
		</g>
		<line id="gge5719" class="st6" x1="223.9" y1="77.1" x2="223.9" y2="88.8"/>
		<line id="gge5720" class="st6" x1="229.7" y1="83" x2="218" y2="83"/>
		<g id="gge5721">
			<circle class="st5" cx="147.7" cy="83" r="5.9"/>
			<path class="st6" d="M177,83h-29.3"/>
			<text transform="matrix(1 0 0 1 188.7087 82.9648)" class="st7 st8 st3">2</text>
			<text transform="matrix(1 0 0 1 152.2478 71.25)" class="st7 st8 st3">2</text>
			<circle class="st9" cx="109.6" cy="83" r="8.8"/>
			<path class="st10" d="M118.4,91.8l8.8-8.8l-8.8-8.8"/>
		</g>
		<line id="gge5728" class="st6" x1="188.7" y1="88.8" x2="188.7" y2="77.1"/>
	</g>
	<g id="gge5729">
		<text transform="matrix(1 0 0 1 162.3523 39.5918)" class="st8 st11">VS(t)</text>
	</g>
	<g id="gge5732">
		<g id="gge5734" class="st0">
			<text transform="matrix(1 0 0 1 181.2116 264.5361)" class="st1 st2 st3">1k</text>
		</g>
		<g id="gge5736" class="st0">
			<text transform="matrix(1 0 0 1 181.2116 237.71)" class="st1 st2 st3">R84</text>
		</g>
		<line id="gge5738" class="st6" x1="162.4" y1="288" x2="171.1" y2="273.3"/>
		<line id="gge5739" class="st6" x1="185.8" y1="302.6" x2="200.4" y2="273.3"/>
		<line id="gge5740" class="st6" x1="171.1" y1="273.3" x2="185.8" y2="302.6"/>
		<g id="gge5741">
			<circle class="st5" cx="147.7" cy="288" r="5.9"/>
			<path class="st6" d="M147.7,288h14.6"/>
			<text transform="matrix(1 0 0 1 174.0661 287.9639)" class="st7 st8 st3">2</text>
			<text transform="matrix(1 0 0 1 137.6052 276.25)" class="st7 st8 st3">2</text>
			<circle class="st9" cx="153.6" cy="288" r="8.8"/>
			<path class="st10" d="M162.4,296.8l8.8-8.8l-8.8-8.8"/>
		</g>
		<line id="gge5748" class="st6" x1="226.8" y1="273.3" x2="241.4" y2="302.6"/>
		<line id="gge5749" class="st6" x1="200.4" y1="273.3" x2="212.1" y2="302.6"/>
		<line id="gge5750" class="st6" x1="212.1" y1="302.6" x2="226.8" y2="273.3"/>
		<line id="gge5751" class="st6" x1="241.4" y1="302.6" x2="250.2" y2="288"/>
		<g id="gge5752">
			<circle class="st5" cx="264.9" cy="288" r="5.9"/>
			<path class="st6" d="M264.9,288h-14.6"/>
			<text transform="matrix(1 0 0 1 225.4626 287.9639)" class="st7 st8 st3">1</text>
			<text transform="matrix(1 0 0 1 261.9236 276.25)" class="st7 st8 st3">1</text>
			<circle class="st9" cx="259" cy="288" r="8.8"/>
			<path class="st10" d="M250.2,279.2l-8.8,8.8l8.8,8.8"/>
		</g>
	</g>
	<g id="gge5760">
		<g id="gge5762" class="st0">
			<text transform="matrix(1 0 0 1 133.0661 221.7783)" class="st1 st2 st3">1u</text>
		</g>
		<g id="gge5764" class="st0">
			<text transform="matrix(1 0 0 1 133.0661 194.9531)" class="st1 st2 st3">C9</text>
		</g>
		<line id="gge5766" class="st6" x1="80.4" y1="179.6" x2="127.2" y2="179.6"/>
		<g id="gge5767">
			<circle class="st5" cx="103.8" cy="126.9" r="5.9"/>
			<path class="st6" d="M103.8,156.2v-29.3"/>
			<text transform="matrix(-1.836970e-16 -1 1 -1.836970e-16 103.78 180.9258)" class="st7 st8 st3">1</text>
			<text transform="matrix(-1.836970e-16 -1 1 -1.836970e-16 92.0652 144.4629)" class="st7 st8 st3">1</text>
			<circle class="st9" cx="103.8" cy="88.8" r="8.8"/>
			<path class="st10" d="M95,97.6l8.8,8.8l8.8-8.8"/>
		</g>
		<line id="gge5774" class="st6" x1="103.8" y1="214.8" x2="103.8" y2="191.3"/>
		<line id="gge5775" class="st6" x1="127.2" y1="191.3" x2="80.4" y2="191.3"/>
		<g id="gge5776">
			<circle class="st5" cx="103.8" cy="244" r="5.9"/>
			<path class="st6" d="M103.8,214.8V244"/>
			<text transform="matrix(-1.836970e-16 -1 1 -1.836970e-16 103.78 203.0352)" class="st7 st8 st3">2</text>
			<text transform="matrix(-1.836970e-16 -1 1 -1.836970e-16 92.0652 239.4961)" class="st7 st8 st3">2</text>
			<circle class="st9" cx="103.8" cy="282.1" r="8.8"/>
			<path class="st10" d="M112.6,273.3l-8.8-8.8l-8.8,8.8"/>
		</g>
		<line id="gge5783" class="st6" x1="103.8" y1="179.6" x2="103.8" y2="156.2"/>
	</g>
	<g id="gge5785">
		<g id="gge5787" class="st0">
			<text transform="matrix(1 0 0 1 327.3181 221.7783)" class="st1 st2 st3">1m</text>
		</g>
		<g id="gge5789" class="st0">
			<text transform="matrix(1 0 0 1 327.3181 194.9531)" class="st1 st2 st3">L8</text>
		</g>
		<g id="gge5791">
			<circle class="st5" cx="308.8" cy="244" r="5.9"/>
			<path class="st6" d="M308.8,244v-8.8"/>
			<text transform="matrix(-1.836970e-16 -1 1 -1.836970e-16 308.78 223.5352)" class="st7 st8 st3">2</text>
			<text transform="matrix(-1.836970e-16 -1 1 -1.836970e-16 297.0661 259.9961)" class="st7 st8 st3">2</text>
			<circle class="st9" cx="308.8" cy="244" r="8.8"/>
			<path class="st10" d="M317.6,235.2l-8.8-8.8l-8.8,8.8"/>
		</g>
		<g id="gge5798">
			<circle class="st5" cx="308.8" cy="126.9" r="5.9"/>
			<path class="st6" d="M308.8,126.9v8.8"/>
			<text transform="matrix(-1.836970e-16 -1 1 -1.836970e-16 308.78 160.4258)" class="st7 st8 st3">1</text>
			<text transform="matrix(-1.836970e-16 -1 1 -1.836970e-16 297.0661 123.9629)" class="st7 st8 st3">1</text>
			<circle class="st9" cx="308.8" cy="126.9" r="8.8"/>
			<path class="st10" d="M300,135.7l8.8,8.8l8.8-8.8"/>
		</g>
		<path id="gge5805" class="st6" d="M309,136c6.3-0.6,11.8,4.1,12.4,10.6c0.6,6.4-4,12.2-10.3,12.8c-0.7,0.1-1.4,0.1-2.1,0"/>
		<path id="gge5806" class="st6" d="M309,160.9c6.3-0.6,11.8,4.1,12.4,10.6c0.6,6.4-4,12.2-10.3,12.8c-0.7,0.1-1.4,0.1-2.1,0"/>
		<path id="gge5807" class="st6" d="M309,185.7c6.3-0.6,11.8,4.1,12.4,10.6c0.6,6.4-4,12.2-10.3,12.8c-0.7,0.1-1.4,0.1-2.1,0"/>
		<path id="gge5808" class="st6" d="M309,210.9c6.3-0.6,11.8,4.1,12.4,10.6s-4,12.2-10.3,12.8c-0.7,0.1-1.4,0.1-2.1,0"/>
	</g>
	<polyline id="gge5809" class="st6" points="308.8,244 308.8,288 264.9,288 	"/>
	<polyline id="gge5810" class="st6" points="264.9,83 308.8,83 308.8,126.9 	"/>
	<polyline id="gge5811" class="st6" points="147.7,83 103.8,83 103.8,126.9 	"/>
	<polyline id="gge5812" class="st6" points="103.8,244 103.8,288 147.7,288 	"/>
	<g id="gge5814">
		<text transform="matrix(1 0 0 1 45.2087 200.6641)" class="st12 st8 st11">C</text>
	</g>
	<g id="gge5817">
		<text transform="matrix(1 0 0 1 191.6374 258.6787)" class="st12 st8 st11">R</text>
	</g>
	<g id="gge5820">
		<text transform="matrix(1 0 0 1 338.0954 200.0781)" class="st12 st8 st11">L</text>
	</g>
	<g id="gge5823">
		<text transform="matrix(1 0 0 1 323.4236 98.1641)" class="st8 st11">i(t)</text>
	</g>
	<g id="gge5826">
		<path d="M308.8,112.2l11.7-5.9L308.8,121l-11.7-14.6L308.8,112.2z"/>
	</g>
</g>
<g>
	<g id="ni34a4_1_">
		
			<image style="overflow:visible;" width="1200" height="423" id="ni34a4_00000114052095137766275830000010247063283131300264_" xlink:href="9A5BDC1769810C2A.png"  transform="matrix(3.635557e-02 0 0 3.635557e-02 316.9655 323.6412)">
		</image>
	</g>
	<g>
		<text transform="matrix(1 0 0 1 316.7732 346.9828)" class="st13 st14">UBC Engineering</text>
	</g>
</g>
</svg>
