<?xml version="1.0" encoding="utf-8"?>
<!-- Generator: Adobe Illustrator 26.3.1, SVG Export Plug-In . SVG Version: 6.00 Build 0)  -->
<svg version="1.1" id="Layer_1" xmlns="http://www.w3.org/2000/svg" xmlns:xlink="http://www.w3.org/1999/xlink" x="0px" y="0px"
	 viewBox="0 0 648.4 284.3" style="enable-background:new 0 0 648.4 284.3;" xml:space="preserve">
<style type="text/css">
	.st0{fill:#FF3366;}
	.st1{font-family:'Verdana';}
	.st2{font-size:15.5625px;}
	.st3{display:none;}
	.st4{display:inline;}
	.st5{font-family:'ArialMT';}
	.st6{font-size:14.525px;}
	.st7{fill:none;stroke:#000000;stroke-width:2.075;}
	.st8{fill:none;}
	.st9{fill:none;stroke:#000000;stroke-width:2.075;stroke-linecap:round;stroke-linejoin:round;}
	.st10{display:none;enable-background:new    ;}
	.st11{display:none;fill:none;stroke:#000000;stroke-width:2.075;}
	.st12{display:none;fill:none;stroke:#000000;stroke-width:2.075;stroke-linecap:round;stroke-linejoin:round;}
	.st13{font-family:'Helvetica';}
	.st14{fill:#0066CC;}
	.st15{fill:none;stroke:#000000;stroke-width:2.075;stroke-linecap:round;}
	.st16{font-family:'Folio-Medium';}
	.st17{font-size:5.504px;}
</style>
<g id="g1">
	<g id="gge2886">
		<text transform="matrix(1 0 0 1 23.3445 152.8369)" class="st0 st1 st2">Vin</text>
	</g>
	<g id="gge2888">
		<g id="gge2890" class="st3">
			<text transform="matrix(1 0 0 1 110.4949 168.1709)" class="st4 st5 st6">SIN(0 1 50) AC 1 0</text>
		</g>
		<g id="gge2892" class="st3">
			<text transform="matrix(1 0 0 1 116.7195 150.0977)" class="st4 st5 st6">V4</text>
		</g>
		<ellipse id="gge2894" class="st7" cx="85.6" cy="142.5" rx="20.8" ry="20.8"/>
		<g id="gge2895">
			<circle class="st8" cx="85.6" cy="101" r="4.2"/>
			<path class="st9" d="M85.6,121.7V101"/>
			<text transform="matrix(-1.836970e-16 -1 1 -1.836970e-16 85.5945 135.0938)" class="st10 st1 st6">1</text>
			<text transform="matrix(-1.836970e-16 -1 1 -1.836970e-16 77.2947 113.4102)" class="st10 st1 st6">1</text>
			<circle class="st11" cx="85.6" cy="74" r="6.2"/>
			<path class="st12" d="M79.4,80.2l6.2,6.2l6.2-6.2"/>
		</g>
		<line id="gge2902" class="st9" x1="81.4" y1="130" x2="89.7" y2="130"/>
		<line id="gge2903" class="st9" x1="85.6" y1="125.9" x2="85.6" y2="134.2"/>
		<g id="gge2904">
			<circle class="st8" cx="85.6" cy="184" r="4.2"/>
			<path class="st9" d="M85.6,163.2V184"/>
			<text transform="matrix(-1.836970e-16 -1 1 -1.836970e-16 85.5945 154.9102)" class="st10 st1 st6">2</text>
			<text transform="matrix(-1.836970e-16 -1 1 -1.836970e-16 77.2947 180.7441)" class="st10 st1 st6">2</text>
			<circle class="st11" cx="85.6" cy="210.9" r="6.2"/>
			<path class="st12" d="M91.8,204.7l-6.2-6.2l-6.2,6.2"/>
		</g>
		<line id="gge2911" class="st9" x1="89.7" y1="154.9" x2="81.4" y2="154.9"/>
	</g>
	<g id="gge2912">
		<g id="gge2914" class="st3">
			<text transform="matrix(1 0 0 1 156.2283 42.8613)" class="st4 st5 st6">1k</text>
		</g>
		<g id="gge2916" class="st3">
			<text transform="matrix(1 0 0 1 156.2283 23.958)" class="st4 st5 st6">R30</text>
		</g>
		<line id="gge2918" class="st9" x1="199.7" y1="59.5" x2="193.5" y2="69.8"/>
		<line id="gge2919" class="st9" x1="183.1" y1="49.1" x2="172.7" y2="69.8"/>
		<line id="gge2920" class="st9" x1="193.5" y1="69.8" x2="183.1" y2="49.1"/>
		<g id="gge2921">
			<circle class="st8" cx="210.1" cy="59.5" r="4.2"/>
			<path class="st9" d="M210.1,59.5h-10.4"/>
			<text transform="matrix(1 0 0 1 182.1853 59.4619)" class="st10 st1 st6">2</text>
			<text transform="matrix(1 0 0 1 208.0203 51.1621)" class="st10 st1 st6">2</text>
			<circle class="st11" cx="205.9" cy="59.5" r="6.2"/>
			<path class="st12" d="M199.7,53.2l-6.2,6.2l6.2,6.2"/>
		</g>
		<line id="gge2928" class="st9" x1="154.1" y1="69.8" x2="143.7" y2="49.1"/>
		<line id="gge2929" class="st9" x1="172.7" y1="69.8" x2="164.4" y2="49.1"/>
		<line id="gge2930" class="st9" x1="164.4" y1="49.1" x2="154.1" y2="69.8"/>
		<line id="gge2931" class="st9" x1="143.7" y1="49.1" x2="137.5" y2="59.5"/>
		<g id="gge2932">
			<circle class="st8" cx="127.1" cy="59.5" r="4.2"/>
			<path class="st9" d="M127.1,59.5h10.4"/>
			<text transform="matrix(1 0 0 1 145.7703 59.4619)" class="st10 st1 st6">1</text>
			<text transform="matrix(1 0 0 1 119.9353 51.1621)" class="st10 st1 st6">1</text>
			<circle class="st11" cx="131.2" cy="59.5" r="6.2"/>
			<path class="st12" d="M137.5,65.7l6.2-6.2l-6.2-6.2"/>
		</g>
	</g>
	<polyline id="gge2939" class="st9" points="210.1,225.5 85.6,225.5 85.6,184 	"/>
	<polyline id="gge2940" class="st9" points="85.6,101 85.6,59.5 127.1,59.5 	"/>
	<polyline id="gge2941" class="st9" points="293.1,59.5 251.6,59.5 210.1,59.5 	"/>
	<g id="gge2942">
		<g id="gge2944" class="st3">
			<text transform="matrix(1 0 0 1 266.1199 168.1299)" class="st4 st5 st6">1k</text>
		</g>
		<g id="gge2946" class="st3">
			<text transform="matrix(1 0 0 1 266.1199 148.998)" class="st4 st5 st6">R39</text>
		</g>
		<line id="gge2948" class="st9" x1="251.6" y1="111.3" x2="262" y2="117.6"/>
		<line id="gge2949" class="st9" x1="241.2" y1="127.9" x2="262" y2="138.3"/>
		<line id="gge2950" class="st9" x1="262" y1="117.6" x2="241.2" y2="127.9"/>
		<g id="gge2951">
			<circle class="st8" cx="251.6" cy="101" r="4.2"/>
			<path class="st9" d="M251.6,101v10.4"/>
			<text transform="matrix(-1.836970e-16 -1 1 -1.836970e-16 251.5945 128.8691)" class="st10 st1 st6">2</text>
			<text transform="matrix(-1.836970e-16 -1 1 -1.836970e-16 243.2947 103.0352)" class="st10 st1 st6">2</text>
			<circle class="st11" cx="251.6" cy="105.1" r="6.2"/>
			<path class="st12" d="M245.4,111.3l6.2,6.2l6.2-6.2"/>
		</g>
		<line id="gge2958" class="st9" x1="262" y1="157" x2="241.2" y2="167.4"/>
		<line id="gge2959" class="st9" x1="262" y1="138.3" x2="241.2" y2="146.6"/>
		<line id="gge2960" class="st9" x1="241.2" y1="146.6" x2="262" y2="157"/>
		<line id="gge2961" class="st9" x1="241.2" y1="167.4" x2="251.6" y2="173.6"/>
		<g id="gge2962">
			<circle class="st8" cx="251.6" cy="184" r="4.2"/>
			<path class="st9" d="M251.6,184v-10.4"/>
			<text transform="matrix(-1.836970e-16 -1 1 -1.836970e-16 251.5945 165.2852)" class="st10 st1 st6">1</text>
			<text transform="matrix(-1.836970e-16 -1 1 -1.836970e-16 243.2947 191.1191)" class="st10 st1 st6">1</text>
			<circle class="st11" cx="251.6" cy="179.8" r="6.2"/>
			<path class="st12" d="M257.8,173.6l-6.2-6.2l-6.2,6.2"/>
		</g>
	</g>
	<g id="gge2969">
		<g id="gge2971" class="st3">
			<text transform="matrix(1 0 0 1 316.8328 42.8613)" class="st4 st5 st6">1k</text>
		</g>
		<g id="gge2973" class="st3">
			<text transform="matrix(1 0 0 1 316.8328 23.7305)" class="st4 st5 st6">R42</text>
		</g>
		<line id="gge2975" class="st9" x1="303.5" y1="59.5" x2="309.7" y2="49.1"/>
		<line id="gge2976" class="st9" x1="320.1" y1="69.8" x2="330.4" y2="49.1"/>
		<line id="gge2977" class="st9" x1="309.7" y1="49.1" x2="320.1" y2="69.8"/>
		<g id="gge2978">
			<circle class="st8" cx="293.1" cy="59.5" r="4.2"/>
			<path class="st9" d="M293.1,59.5h10.4"/>
			<text transform="matrix(1 0 0 1 311.7703 59.4619)" class="st10 st1 st6">2</text>
			<text transform="matrix(1 0 0 1 285.9353 51.1621)" class="st10 st1 st6">2</text>
			<circle class="st11" cx="297.2" cy="59.5" r="6.2"/>
			<path class="st12" d="M303.5,65.7l6.2-6.2l-6.2-6.2"/>
		</g>
		<line id="gge2985" class="st9" x1="349.1" y1="49.1" x2="359.5" y2="69.8"/>
		<line id="gge2986" class="st9" x1="330.4" y1="49.1" x2="338.7" y2="69.8"/>
		<line id="gge2987" class="st9" x1="338.7" y1="69.8" x2="349.1" y2="49.1"/>
		<line id="gge2988" class="st9" x1="359.5" y1="69.8" x2="365.7" y2="59.5"/>
		<g id="gge2989">
			<circle class="st8" cx="376.1" cy="59.5" r="4.2"/>
			<path class="st9" d="M376.1,59.5h-10.4"/>
			<text transform="matrix(1 0 0 1 348.1853 59.4619)" class="st10 st1 st6">1</text>
			<text transform="matrix(1 0 0 1 374.0203 51.1621)" class="st10 st1 st6">1</text>
			<circle class="st11" cx="371.9" cy="59.5" r="6.2"/>
			<path class="st12" d="M365.7,53.2l-6.2,6.2l6.2,6.2"/>
		</g>
	</g>
	<g id="gge2996">
		<g id="gge2998" class="st3">
			<text transform="matrix(1 0 0 1 432.1199 168.1299)" class="st4 st5 st6">1k</text>
		</g>
		<g id="gge3000" class="st3">
			<text transform="matrix(1 0 0 1 432.1199 148.998)" class="st4 st5 st6">R43</text>
		</g>
		<line id="gge3002" class="st9" x1="417.6" y1="173.6" x2="407.2" y2="167.4"/>
		<line id="gge3003" class="st9" x1="428" y1="157" x2="407.2" y2="146.6"/>
		<line id="gge3004" class="st9" x1="407.2" y1="167.4" x2="428" y2="157"/>
		<g id="gge3005">
			<circle class="st8" cx="417.6" cy="184" r="4.2"/>
			<path class="st9" d="M417.6,184v-10.4"/>
			<text transform="matrix(-1.836970e-16 -1 1 -1.836970e-16 417.5945 165.2852)" class="st10 st1 st6">2</text>
			<text transform="matrix(-1.836970e-16 -1 1 -1.836970e-16 409.2947 191.1191)" class="st10 st1 st6">2</text>
			<circle class="st11" cx="417.6" cy="179.8" r="6.2"/>
			<path class="st12" d="M423.8,173.6l-6.2-6.2l-6.2,6.2"/>
		</g>
		<line id="gge3012" class="st9" x1="407.2" y1="127.9" x2="428" y2="117.6"/>
		<line id="gge3013" class="st9" x1="407.2" y1="146.6" x2="428" y2="138.3"/>
		<line id="gge3014" class="st9" x1="428" y1="138.3" x2="407.2" y2="127.9"/>
		<line id="gge3015" class="st9" x1="428" y1="117.6" x2="417.6" y2="111.3"/>
		<g id="gge3016">
			<circle class="st8" cx="417.6" cy="101" r="4.2"/>
			<path class="st9" d="M417.6,101v10.4"/>
			<text transform="matrix(-1.836970e-16 -1 1 -1.836970e-16 417.5945 128.8691)" class="st10 st1 st6">1</text>
			<text transform="matrix(-1.836970e-16 -1 1 -1.836970e-16 409.2947 103.0352)" class="st10 st1 st6">1</text>
			<circle class="st11" cx="417.6" cy="105.1" r="6.2"/>
			<path class="st12" d="M411.4,111.3l6.2,6.2l6.2-6.2"/>
		</g>
	</g>
	<g id="gge3023">
		<g id="gge3025" class="st3">
			<text transform="matrix(1 0 0 1 482.8328 42.8613)" class="st4 st5 st6">1k</text>
		</g>
		<g id="gge3027" class="st3">
			<text transform="matrix(1 0 0 1 482.8328 23.7305)" class="st4 st5 st6">R44</text>
		</g>
		<line id="gge3029" class="st9" x1="531.7" y1="59.5" x2="525.5" y2="69.8"/>
		<line id="gge3030" class="st9" x1="515.1" y1="49.1" x2="504.7" y2="69.8"/>
		<line id="gge3031" class="st9" x1="525.5" y1="69.8" x2="515.1" y2="49.1"/>
		<g id="gge3032">
			<circle class="st8" cx="542.1" cy="59.5" r="4.2"/>
			<path class="st9" d="M542.1,59.5h-10.4"/>
			<text transform="matrix(1 0 0 1 514.1854 59.4619)" class="st10 st1 st6">2</text>
			<text transform="matrix(1 0 0 1 540.0203 51.1621)" class="st10 st1 st6">2</text>
			<circle class="st11" cx="537.9" cy="59.5" r="6.2"/>
			<path class="st12" d="M531.7,53.2l-6.2,6.2l6.2,6.2"/>
		</g>
		<line id="gge3039" class="st9" x1="486.1" y1="69.8" x2="475.7" y2="49.1"/>
		<line id="gge3040" class="st9" x1="504.7" y1="69.8" x2="496.4" y2="49.1"/>
		<line id="gge3041" class="st9" x1="496.4" y1="49.1" x2="486.1" y2="69.8"/>
		<line id="gge3042" class="st9" x1="475.7" y1="49.1" x2="469.5" y2="59.5"/>
		<g id="gge3043">
			<circle class="st8" cx="459.1" cy="59.5" r="4.2"/>
			<path class="st9" d="M459.1,59.5h10.4"/>
			<text transform="matrix(1 0 0 1 477.7703 59.4619)" class="st10 st1 st6">1</text>
			<text transform="matrix(1 0 0 1 451.9353 51.1621)" class="st10 st1 st6">1</text>
			<circle class="st11" cx="463.2" cy="59.5" r="6.2"/>
			<path class="st12" d="M469.5,65.7l6.2-6.2l-6.2-6.2"/>
		</g>
	</g>
	<g id="gge3050">
		<g id="gge3052" class="st3">
			<text transform="matrix(1 0 0 1 598.1199 168.1299)" class="st4 st5 st6">1k</text>
		</g>
		<g id="gge3054" class="st3">
			<text transform="matrix(1 0 0 1 598.1199 148.998)" class="st4 st5 st6">R45</text>
		</g>
		<line id="gge3056" class="st9" x1="583.6" y1="111.3" x2="594" y2="117.6"/>
		<line id="gge3057" class="st9" x1="573.2" y1="127.9" x2="594" y2="138.3"/>
		<line id="gge3058" class="st9" x1="594" y1="117.6" x2="573.2" y2="127.9"/>
		<g id="gge3059">
			<circle class="st8" cx="583.6" cy="101" r="4.2"/>
			<path class="st9" d="M583.6,101v10.4"/>
			<text transform="matrix(-1.836970e-16 -1 1 -1.836970e-16 583.5945 128.8691)" class="st10 st1 st6">2</text>
			<text transform="matrix(-1.836970e-16 -1 1 -1.836970e-16 575.2947 103.0352)" class="st10 st1 st6">2</text>
			<circle class="st11" cx="583.6" cy="105.1" r="6.2"/>
			<path class="st12" d="M577.4,111.3l6.2,6.2l6.2-6.2"/>
		</g>
		<line id="gge3066" class="st9" x1="594" y1="157" x2="573.2" y2="167.4"/>
		<line id="gge3067" class="st9" x1="594" y1="138.3" x2="573.2" y2="146.6"/>
		<line id="gge3068" class="st9" x1="573.2" y1="146.6" x2="594" y2="157"/>
		<line id="gge3069" class="st9" x1="573.2" y1="167.4" x2="583.6" y2="173.6"/>
		<g id="gge3070">
			<circle class="st8" cx="583.6" cy="184" r="4.2"/>
			<path class="st9" d="M583.6,184v-10.4"/>
			<text transform="matrix(-1.836970e-16 -1 1 -1.836970e-16 583.5945 165.2852)" class="st10 st1 st6">1</text>
			<text transform="matrix(-1.836970e-16 -1 1 -1.836970e-16 575.2947 191.1191)" class="st10 st1 st6">1</text>
			<circle class="st11" cx="583.6" cy="179.8" r="6.2"/>
			<path class="st12" d="M589.8,173.6l-6.2-6.2l-6.2,6.2"/>
		</g>
	</g>
	<polyline id="gge3077" class="st9" points="542.1,59.5 583.6,59.5 583.6,101 	"/>
	<line id="gge3078" class="st9" x1="459.1" y1="59.5" x2="376.1" y2="59.5"/>
	<line id="gge3079" class="st9" x1="251.6" y1="101" x2="251.6" y2="59.5"/>
	<polyline id="gge3080" class="st9" points="251.6,184 251.6,225.5 376.1,225.5 	"/>
	<line id="gge3081" class="st9" x1="210.1" y1="225.5" x2="251.6" y2="225.5"/>
	<polyline id="gge3082" class="st9" points="376.1,225.5 417.6,225.5 417.6,184 	"/>
	<line id="gge3083" class="st9" x1="417.6" y1="101" x2="417.6" y2="59.5"/>
	<g id="gge3084">
		<g id="gge3086" class="st3">
			<text transform="matrix(1 0 0 1 372.9412 168.1709)" class="st4 st5 st6">1k</text>
		</g>
		<g id="gge3088" class="st3">
			<text transform="matrix(1 0 0 1 372.9412 149.2881)" class="st4 st5 st6">R46</text>
		</g>
		<polyline id="gge3090" class="st9" points="365.7,111.3 356.8,119.7 360.5,131 337.8,124.9 345.4,146.6 323.5,138.8 331.6,160.3 
			309.8,155 312,164.1 303.5,173.6 		"/>
		<g id="gge3091">
			<circle class="st8" cx="365.7" cy="111.3" r="4.2"/>
			<path class="st9" d="M365.7,111.3L365.7,111.3"/>
			<text transform="matrix(-1.836970e-16 -1 1 -1.836970e-16 371.9451 124.7188)" class="st10 st1 st6">1</text>
			<text transform="matrix(-1.836970e-16 -1 1 -1.836970e-16 363.6453 100.9609)" class="st10 st1 st6">1</text>
			<circle class="st11" cx="365.7" cy="105.1" r="6.2"/>
			<path class="st12" d="M359.5,111.3l6.2,6.2l6.2-6.2"/>
		</g>
		<g id="gge3098">
			<circle class="st8" cx="303.5" cy="173.6" r="4.2"/>
			<path class="st9" d="M303.5,173.6L303.5,173.6"/>
			<text transform="matrix(-1.836970e-16 -1 1 -1.836970e-16 309.6951 169.4355)" class="st10 st1 st6">2</text>
			<text transform="matrix(-1.836970e-16 -1 1 -1.836970e-16 301.3953 193.1953)" class="st10 st1 st6">2</text>
			<circle class="st11" cx="303.5" cy="179.8" r="6.2"/>
			<path class="st12" d="M309.7,173.6l-6.2-6.2l-6.2,6.2"/>
		</g>
	</g>
	<g id="gge3131">
		<text transform="matrix(1 0 0 1 313.8445 38.7119)" class="st13 st2">2kΩ</text>
	</g>
	<g id="gge3133">
		<text transform="matrix(1 0 0 1 479.8445 38.7119)" class="st13 st2">12kΩ</text>
	</g>
	<g id="gge3135">
		<text transform="matrix(1 0 0 1 199.7195 151.1973)" class="st13 st2">4kΩ</text>
	</g>
	<g id="gge3137">
		<text transform="matrix(1 0 0 1 334.5945 171.9473)" class="st13 st2">8kΩ</text>
	</g>
	<g id="gge3139">
		<text transform="matrix(1 0 0 1 427.9695 142.4619)" class="st13 st2">12kΩ</text>
	</g>
	<g id="gge3146">
		<g id="gge3148" class="st3">
			<text transform="matrix(1 0 0 1 482.8328 208.8613)" class="st4 st5 st6">1k</text>
		</g>
		<g id="gge3150" class="st3">
			<text transform="matrix(1 0 0 1 482.8328 189.7305)" class="st4 st5 st6">R47</text>
		</g>
		<line id="gge3152" class="st9" x1="531.7" y1="225.5" x2="525.5" y2="235.8"/>
		<line id="gge3153" class="st9" x1="515.1" y1="215.1" x2="504.7" y2="235.8"/>
		<line id="gge3154" class="st9" x1="525.5" y1="235.8" x2="515.1" y2="215.1"/>
		<g id="gge3155">
			<circle class="st8" cx="542.1" cy="225.5" r="4.2"/>
			<path class="st9" d="M542.1,225.5h-10.4"/>
			<text transform="matrix(1 0 0 1 514.1854 225.4619)" class="st10 st1 st6">2</text>
			<text transform="matrix(1 0 0 1 540.0203 217.1621)" class="st10 st1 st6">2</text>
			<circle class="st11" cx="537.9" cy="225.5" r="6.2"/>
			<path class="st12" d="M531.7,219.2l-6.2,6.2l6.2,6.2"/>
		</g>
		<line id="gge3162" class="st9" x1="486.1" y1="235.8" x2="475.7" y2="215.1"/>
		<line id="gge3163" class="st9" x1="504.7" y1="235.8" x2="496.4" y2="215.1"/>
		<line id="gge3164" class="st9" x1="496.4" y1="215.1" x2="486.1" y2="235.8"/>
		<line id="gge3165" class="st9" x1="475.7" y1="215.1" x2="469.5" y2="225.5"/>
		<g id="gge3166">
			<circle class="st8" cx="459.1" cy="225.5" r="4.2"/>
			<path class="st9" d="M459.1,225.5h10.4"/>
			<text transform="matrix(1 0 0 1 477.7703 225.4619)" class="st10 st1 st6">1</text>
			<text transform="matrix(1 0 0 1 451.9353 217.1621)" class="st10 st1 st6">1</text>
			<circle class="st11" cx="463.2" cy="225.5" r="6.2"/>
			<path class="st12" d="M469.5,231.7l6.2-6.2l-6.2-6.2"/>
		</g>
	</g>
	<line id="gge3173" class="st9" x1="459.1" y1="225.5" x2="417.6" y2="225.5"/>
	<polyline id="gge3174" class="st9" points="583.6,184 583.6,225.5 542.1,225.5 	"/>
	<g id="gge3175">
		<text transform="matrix(1 0 0 1 479.8445 256.5869)" class="st13 st2">6kΩ</text>
	</g>
	<g id="gge3177">
		<text transform="matrix(1 0 0 1 593.9695 152.8369)" class="st13 st2">6kΩ</text>
	</g>
	<g id="gge3181">
		<text transform="matrix(1 0 0 1 272.3445 183.9619)" class="st14 st1 st2">I1</text>
	</g>
	<g id="gge3209">
		<circle class="st8" cx="251.6" cy="225.5" r="4.2"/>
		<circle class="st8" cx="272.3" cy="204.7" r="4.2"/>
		<line class="st15" x1="251.6" y1="225.5" x2="272.3" y2="204.7"/>
	</g>
	<g id="gge3213">
		<circle class="st8" cx="272.3" cy="204.7" r="4.2"/>
		<circle class="st8" cx="293.1" cy="184" r="4.2"/>
		<line class="st15" x1="272.3" y1="204.7" x2="293.1" y2="184"/>
	</g>
	<g id="gge3217">
		<circle class="st8" cx="282.7" cy="194.3" r="4.2"/>
		<circle class="st8" cx="303.5" cy="173.6" r="4.2"/>
		<line class="st15" x1="282.7" y1="194.3" x2="303.5" y2="173.6"/>
	</g>
	<g id="gge3221">
		<circle class="st8" cx="365.7" cy="111.3" r="4.2"/>
		<circle class="st8" cx="386.5" cy="90.6" r="4.2"/>
		<line class="st15" x1="365.7" y1="111.3" x2="386.5" y2="90.6"/>
	</g>
	<g id="gge3225">
		<circle class="st8" cx="386.5" cy="90.6" r="4.2"/>
		<circle class="st8" cx="407.2" cy="69.8" r="4.2"/>
		<line class="st15" x1="386.5" y1="90.6" x2="407.2" y2="69.8"/>
	</g>
	<g id="gge3229">
		<circle class="st8" cx="396.8" cy="80.2" r="4.2"/>
		<circle class="st8" cx="417.6" cy="59.5" r="4.2"/>
		<line class="st15" x1="396.8" y1="80.2" x2="417.6" y2="59.5"/>
	</g>
	<g id="gge3234">
		<text transform="matrix(1 0 0 1 158.2195 38.7119)" class="st14 st1 st2">R1</text>
	</g>
	<g id="gge3204">
		<circle class="st8" cx="417.6" cy="59.5" r="4.2"/>
		<circle cx="417.6" cy="59.5" r="5.2"/>
	</g>
	<g id="gge3201">
		<circle class="st8" cx="251.6" cy="225.5" r="4.2"/>
		<circle cx="251.6" cy="225.5" r="5.2"/>
	</g>
	<g id="gge3198">
		<circle class="st8" cx="251.6" cy="59.5" r="4.2"/>
		<circle cx="251.6" cy="59.5" r="5.2"/>
	</g>
	<g id="gge3195">
		<circle class="st8" cx="417.6" cy="225.5" r="4.2"/>
		<circle cx="417.6" cy="225.5" r="5.2"/>
	</g>
	<g id="gge3180">
		<path d="M282.7,194.3l8.8,2.9l-13.2,1.5l1.5-13.2L282.7,194.3z"/>
	</g>
	<g id="gge3184">
		<path d="M251.6,204.7l8.3-4.1l-8.3,10.4l-8.3-10.4L251.6,204.7z"/>
	</g>
</g>
<g>
	<g id="ni34a4_1_">
		
			<image style="overflow:visible;" width="1200" height="423" id="ni34a4_00000114052095137766275830000010247063283131300264_" xlink:href="987C0641FC5047EB.png"  transform="matrix(3.635557e-02 0 0 3.635557e-02 26.9051 248.6412)">
		</image>
	</g>
	<g>
		<text transform="matrix(1 0 0 1 26.7127 271.9828)" class="st16 st17">UBC Engineering</text>
	</g>
</g>
</svg>
