<?xml version="1.0" encoding="utf-8"?>
<!-- Generator: Adobe Illustrator 26.3.1, SVG Export Plug-In . SVG Version: 6.00 Build 0)  -->
<svg version="1.1" id="Layer_1" xmlns="http://www.w3.org/2000/svg" xmlns:xlink="http://www.w3.org/1999/xlink" x="0px" y="0px"
	 viewBox="0 0 721.9 326" style="enable-background:new 0 0 721.9 326;" xml:space="preserve">
<style type="text/css">
	.st0{fill:none;stroke:#000000;stroke-width:2.4645;}
	.st1{font-family:'Helvetica';}
	.st2{font-size:18.4839px;}
	.st3{fill:none;stroke:#000000;stroke-width:2.4645;stroke-linecap:round;stroke-linejoin:round;}
	.st4{display:none;}
	.st5{display:inline;}
	.st6{font-family:'ArialMT';}
	.st7{font-size:17.2516px;}
	.st8{fill:none;}
	.st9{display:none;enable-background:new    ;}
	.st10{font-family:'Verdana';}
	.st11{display:none;fill:none;stroke:#000000;stroke-width:2.4645;}
	.st12{display:none;fill:none;stroke:#000000;stroke-width:2.4645;stroke-linecap:round;stroke-linejoin:round;}
	.st13{fill:none;stroke:#000000;stroke-width:2.4645;stroke-linecap:round;}
	.st14{fill:#0066CC;}
	.st15{font-size:16.0194px;}
	.st16{fill:#FF3366;}
	.st17{font-family:'Folio-Medium';}
	.st18{font-size:5.504px;}
</style>
<g id="g1">
	<ellipse id="gge5829" class="st0" cx="135.8" cy="145" rx="6.2" ry="6.2"/>
	<ellipse id="gge5830" class="st0" cx="135.8" cy="218.9" rx="6.2" ry="6.2"/>
	<g id="gge5831">
		<text transform="matrix(1 0 0 1 24.8963 192.4668)" class="st1 st2">t = 0</text>
	</g>
	<line id="gge5833" class="st3" x1="125.3" y1="182" x2="76" y2="182"/>
	<g id="gge5839">
		<g id="gge5841" class="st4">
			<text transform="matrix(1 0 0 1 201.6024 199.2197)" class="st5 st6 st7">SIN(0 1 50) AC 1 0</text>
		</g>
		<g id="gge5843" class="st4">
			<text transform="matrix(1 0 0 1 201.6024 176.8418)" class="st5 st6 st7">V15</text>
		</g>
		<ellipse id="gge5845" class="st0" cx="222.1" cy="231.3" rx="24.6" ry="24.6"/>
		<g id="gge5846">
			<circle class="st8" cx="172.8" cy="231.3" r="4.9"/>
			<path class="st3" d="M197.4,231.3h-24.6"/>
			<text transform="matrix(1 0 0 1 202.3417 231.2588)" class="st9 st10 st7">1</text>
			<text transform="matrix(1 0 0 1 176.5868 221.4004)" class="st9 st10 st7">1</text>
			<circle class="st11" cx="140.7" cy="231.3" r="7.4"/>
			<path class="st12" d="M148.1,238.7l7.4-7.4l-7.4-7.4"/>
		</g>
		<line id="gge5853" class="st3" x1="207.3" y1="236.2" x2="207.3" y2="226.3"/>
		<line id="gge5854" class="st3" x1="202.3" y1="231.3" x2="212.2" y2="231.3"/>
		<g id="gge5855">
			<circle class="st8" cx="271.3" cy="231.3" r="4.9"/>
			<path class="st3" d="M246.7,231.3h24.6"/>
			<text transform="matrix(1 0 0 1 225.8768 231.2588)" class="st9 st10 st7">2</text>
			<text transform="matrix(1 0 0 1 256.5604 221.4004)" class="st9 st10 st7">2</text>
			<circle class="st11" cx="303.4" cy="231.3" r="7.4"/>
			<path class="st12" d="M296,223.9l-7.4,7.4l7.4,7.4"/>
		</g>
		<line id="gge5862" class="st3" x1="236.8" y1="226.3" x2="236.8" y2="236.2"/>
	</g>
	<g id="gge5892">
		<g id="gge5894" class="st4">
			<text transform="matrix(1 0 0 1 459.4647 163.2383)" class="st5 st6 st7">1m</text>
		</g>
		<g id="gge5896" class="st4">
			<text transform="matrix(1 0 0 1 459.4647 140.6631)" class="st5 st6 st7">L9</text>
		</g>
		<g id="gge5898">
			<circle class="st8" cx="443.9" cy="182" r="4.9"/>
			<path class="st3" d="M443.9,182v-7.4"/>
			<text transform="matrix(-1.836970e-16 -1 1 -1.836970e-16 443.8651 164.7168)" class="st9 st10 st7">2</text>
			<text transform="matrix(-1.836970e-16 -1 1 -1.836970e-16 434.0067 195.4004)" class="st9 st10 st7">2</text>
			<circle class="st11" cx="443.9" cy="182" r="7.4"/>
			<path class="st12" d="M451.3,174.6l-7.4-7.4l-7.4,7.4"/>
		</g>
		<g id="gge5905">
			<circle class="st8" cx="443.9" cy="83.4" r="4.9"/>
			<path class="st3" d="M443.9,83.4v7.4"/>
			<text transform="matrix(-1.836970e-16 -1 1 -1.836970e-16 443.8651 111.6055)" class="st9 st10 st7">1</text>
			<text transform="matrix(-1.836970e-16 -1 1 -1.836970e-16 434.0067 80.9219)" class="st9 st10 st7">1</text>
			<circle class="st11" cx="443.9" cy="83.4" r="7.4"/>
			<path class="st12" d="M436.5,90.8l7.4,7.4l7.4-7.4"/>
		</g>
		<path id="gge5912" class="st3" d="M444,91.1c5.3-0.5,10,3.5,10.5,8.9c0.5,5.4-3.4,10.2-8.7,10.7c-0.6,0.1-1.2,0.1-1.8,0"/>
		<path id="gge5913" class="st3" d="M444,112c5.3-0.5,10,3.5,10.5,8.9c0.5,5.4-3.4,10.2-8.7,10.7c-0.6,0.1-1.2,0.1-1.8,0"/>
		<path id="gge5914" class="st3" d="M444,132.8c5.3-0.5,10,3.5,10.5,8.9c0.5,5.4-3.4,10.2-8.7,10.7c-0.6,0.1-1.2,0.1-1.8,0"/>
		<path id="gge5915" class="st3" d="M444,154.1c5.3-0.5,10,3.5,10.5,8.9c0.5,5.4-3.4,10.2-8.7,10.7c-0.6,0.1-1.2,0.1-1.8,0"/>
	</g>
	<g id="gge5917">
		<g id="gge5919" class="st4">
			<text transform="matrix(1 0 0 1 394.5741 113.9473)" class="st5 st6 st7">1u</text>
		</g>
		<g id="gge5921" class="st4">
			<text transform="matrix(1 0 0 1 394.5741 91.373)" class="st5 st6 st7">C10</text>
		</g>
		<line id="gge5923" class="st3" x1="350.2" y1="78.5" x2="389.6" y2="78.5"/>
		<g id="gge5924">
			<circle class="st8" cx="369.9" cy="34.1" r="4.9"/>
			<path class="st3" d="M369.9,58.7V34.1"/>
			<text transform="matrix(-1.836970e-16 -1 1 -1.836970e-16 369.9295 79.5684)" class="st9 st10 st7">1</text>
			<text transform="matrix(-1.836970e-16 -1 1 -1.836970e-16 360.0711 48.8848)" class="st9 st10 st7">1</text>
			<circle class="st11" cx="369.9" cy="2.1" r="7.4"/>
			<path class="st12" d="M362.5,9.5l7.4,7.4l7.4-7.4"/>
		</g>
		<line id="gge5931" class="st3" x1="369.9" y1="108" x2="369.9" y2="88.3"/>
		<line id="gge5932" class="st3" x1="389.6" y1="88.3" x2="350.2" y2="88.3"/>
		<g id="gge5933">
			<circle class="st8" cx="369.9" cy="132.7" r="4.9"/>
			<path class="st3" d="M369.9,108v24.6"/>
			<text transform="matrix(-1.836970e-16 -1 1 -1.836970e-16 369.9295 98.1738)" class="st9 st10 st7">2</text>
			<text transform="matrix(-1.836970e-16 -1 1 -1.836970e-16 360.0711 128.8574)" class="st9 st10 st7">2</text>
			<circle class="st11" cx="369.9" cy="164.7" r="7.4"/>
			<path class="st12" d="M377.3,157.3l-7.4-7.4l-7.4,7.4"/>
		</g>
		<line id="gge5940" class="st3" x1="369.9" y1="78.5" x2="369.9" y2="58.7"/>
	</g>
	<g id="gge5942">
		<text transform="matrix(1 0 0 1 197.412 280.5488)" class="st10 st2">24V</text>
	</g>
	<g id="gge5945">
		<text transform="matrix(1 0 0 1 234.3797 181.9688)" class="st1 st2">48kΩ</text>
	</g>
	<g id="gge5947">
		<circle class="st8" cx="135.8" cy="218.9" r="4.9"/>
		<circle class="st8" cx="111.2" cy="194.3" r="4.9"/>
		<line class="st13" x1="135.8" y1="218.9" x2="111.2" y2="194.3"/>
	</g>
	<g id="gge5951">
		<circle class="st8" cx="123.5" cy="206.6" r="4.9"/>
		<circle class="st8" cx="98.8" cy="182" r="4.9"/>
		<line class="st13" x1="123.5" y1="206.6" x2="98.8" y2="182"/>
	</g>
	<g id="gge5955">
		<circle class="st8" cx="111.2" cy="194.3" r="4.9"/>
		<circle class="st8" cx="86.5" cy="169.6" r="4.9"/>
		<line class="st13" x1="111.2" y1="194.3" x2="86.5" y2="169.6"/>
	</g>
	<g id="gge5959">
		<circle class="st8" cx="98.8" cy="182" r="4.9"/>
		<circle class="st8" cx="74.2" cy="157.3" r="4.9"/>
		<line class="st13" x1="98.8" y1="182" x2="74.2" y2="157.3"/>
	</g>
	<g id="gge5967">
		<g id="gge5969" class="st4">
			<text transform="matrix(1 0 0 1 325.5672 212.5781)" class="st5 st6 st7">1k</text>
		</g>
		<g id="gge5971" class="st4">
			<text transform="matrix(1 0 0 1 325.5672 190.1748)" class="st5 st6 st7">R89</text>
		</g>
		<line id="gge5973" class="st3" x1="308.3" y1="218.9" x2="296" y2="211.5"/>
		<line id="gge5974" class="st3" x1="320.6" y1="199.2" x2="296" y2="186.9"/>
		<line id="gge5975" class="st3" x1="296" y1="211.5" x2="320.6" y2="199.2"/>
		<g id="gge5976">
			<circle class="st8" cx="308.3" cy="231.3" r="4.9"/>
			<path class="st3" d="M308.3,231.3v-12.3"/>
			<text transform="matrix(-1.836970e-16 -1 1 -1.836970e-16 308.3163 209.0781)" class="st9 st10 st7">2</text>
			<text transform="matrix(-1.836970e-16 -1 1 -1.836970e-16 298.4579 239.7617)" class="st9 st10 st7">2</text>
			<circle class="st11" cx="308.3" cy="226.3" r="7.4"/>
			<path class="st12" d="M315.7,218.9l-7.4-7.4l-7.4,7.4"/>
		</g>
		<line id="gge5983" class="st3" x1="296" y1="164.7" x2="320.6" y2="152.4"/>
		<line id="gge5984" class="st3" x1="296" y1="186.9" x2="320.6" y2="177"/>
		<line id="gge5985" class="st3" x1="320.6" y1="177" x2="296" y2="164.7"/>
		<line id="gge5986" class="st3" x1="320.6" y1="152.4" x2="308.3" y2="145"/>
		<g id="gge5987">
			<circle class="st8" cx="308.3" cy="132.7" r="4.9"/>
			<path class="st3" d="M308.3,132.7V145"/>
			<text transform="matrix(-1.836970e-16 -1 1 -1.836970e-16 308.3163 165.8262)" class="st9 st10 st7">1</text>
			<text transform="matrix(-1.836970e-16 -1 1 -1.836970e-16 298.4579 135.1426)" class="st9 st10 st7">1</text>
			<circle class="st11" cx="308.3" cy="137.6" r="7.4"/>
			<path class="st12" d="M300.9,145l7.4,7.4l7.4-7.4"/>
		</g>
	</g>
	<g id="gge5999">
		<g id="gge6001" class="st4">
			<text transform="matrix(1 0 0 1 263.9539 113.9971)" class="st5 st6 st7">1k</text>
		</g>
		<g id="gge6003" class="st4">
			<text transform="matrix(1 0 0 1 263.9539 91.5947)" class="st5 st6 st7">R90</text>
		</g>
		<line id="gge6005" class="st3" x1="246.7" y1="120.4" x2="234.4" y2="113"/>
		<line id="gge6006" class="st3" x1="259" y1="100.6" x2="234.4" y2="88.3"/>
		<line id="gge6007" class="st3" x1="234.4" y1="113" x2="259" y2="100.6"/>
		<g id="gge6008">
			<circle class="st8" cx="246.7" cy="132.7" r="4.9"/>
			<path class="st3" d="M246.7,132.7v-12.3"/>
			<text transform="matrix(-1.836970e-16 -1 1 -1.836970e-16 246.703 110.4961)" class="st9 st10 st7">2</text>
			<text transform="matrix(-1.836970e-16 -1 1 -1.836970e-16 236.8456 141.1797)" class="st9 st10 st7">2</text>
			<circle class="st11" cx="246.7" cy="127.7" r="7.4"/>
			<path class="st12" d="M254.1,120.4l-7.4-7.4l-7.4,7.4"/>
		</g>
		<line id="gge6015" class="st3" x1="234.4" y1="66.1" x2="259" y2="53.8"/>
		<line id="gge6016" class="st3" x1="234.4" y1="88.3" x2="259" y2="78.5"/>
		<line id="gge6017" class="st3" x1="259" y1="78.5" x2="234.4" y2="66.1"/>
		<line id="gge6018" class="st3" x1="259" y1="53.8" x2="246.7" y2="46.4"/>
		<g id="gge6019">
			<circle class="st8" cx="246.7" cy="34.1" r="4.9"/>
			<path class="st3" d="M246.7,34.1v12.3"/>
			<text transform="matrix(-1.836970e-16 -1 1 -1.836970e-16 246.703 67.2441)" class="st9 st10 st7">1</text>
			<text transform="matrix(-1.836970e-16 -1 1 -1.836970e-16 236.8456 36.5605)" class="st9 st10 st7">1</text>
			<circle class="st11" cx="246.7" cy="39" r="7.4"/>
			<path class="st12" d="M239.3,46.4l7.4,7.4l7.4-7.4"/>
		</g>
	</g>
	<g id="gge6028">
		<g id="gge6030" class="st4">
			<text transform="matrix(1 0 0 1 547.3739 163.2871)" class="st5 st6 st7">1k</text>
		</g>
		<g id="gge6032" class="st4">
			<text transform="matrix(1 0 0 1 547.3739 140.8848)" class="st5 st6 st7">R91</text>
		</g>
		<line id="gge6034" class="st3" x1="530.1" y1="169.6" x2="517.8" y2="162.3"/>
		<line id="gge6035" class="st3" x1="542.4" y1="149.9" x2="517.8" y2="137.6"/>
		<line id="gge6036" class="st3" x1="517.8" y1="162.3" x2="542.4" y2="149.9"/>
		<g id="gge6037">
			<circle class="st8" cx="530.1" cy="182" r="4.9"/>
			<path class="st3" d="M530.1,182v-12.3"/>
			<text transform="matrix(-1.836970e-16 -1 1 -1.836970e-16 530.1229 159.7871)" class="st9 st10 st7">2</text>
			<text transform="matrix(-1.836970e-16 -1 1 -1.836970e-16 520.2645 190.4707)" class="st9 st10 st7">2</text>
			<circle class="st11" cx="530.1" cy="177" r="7.4"/>
			<path class="st12" d="M537.5,169.6l-7.4-7.4l-7.4,7.4"/>
		</g>
		<line id="gge6044" class="st3" x1="517.8" y1="115.4" x2="542.4" y2="103.1"/>
		<line id="gge6045" class="st3" x1="517.8" y1="137.6" x2="542.4" y2="127.7"/>
		<line id="gge6046" class="st3" x1="542.4" y1="127.7" x2="517.8" y2="115.4"/>
		<line id="gge6047" class="st3" x1="542.4" y1="103.1" x2="530.1" y2="95.7"/>
		<g id="gge6048">
			<circle class="st8" cx="530.1" cy="83.4" r="4.9"/>
			<path class="st3" d="M530.1,83.4v12.3"/>
			<text transform="matrix(-1.836970e-16 -1 1 -1.836970e-16 530.1229 116.5352)" class="st9 st10 st7">1</text>
			<text transform="matrix(-1.836970e-16 -1 1 -1.836970e-16 520.2645 85.8516)" class="st9 st10 st7">1</text>
			<circle class="st11" cx="530.1" cy="88.3" r="7.4"/>
			<path class="st12" d="M522.7,95.7l7.4,7.4l7.4-7.4"/>
		</g>
	</g>
	<polyline id="gge6058" class="st3" points="443.9,182 443.9,231.3 308.3,231.3 271.3,231.3 	"/>
	<polyline id="gge6059" class="st3" points="246.7,34.1 369.9,34.1 443.9,34.1 443.9,83.4 	"/>
	<polyline id="gge6070" class="st3" points="530.1,83.4 530.1,34.1 443.9,34.1 	"/>
	<polyline id="gge6072" class="st3" points="530.1,182 530.1,231.3 443.9,231.3 	"/>
	<g id="gge6094">
		<text transform="matrix(1 0 0 1 172.7674 83.3877)" class="st1 st2">48kΩ</text>
	</g>
	<g id="gge6097">
		<text transform="matrix(1 0 0 1 554.7675 145.001)" class="st1 st2">48kΩ</text>
	</g>
	<g id="gge6100">
		<text transform="matrix(1 0 0 1 456.1864 145.001)" class="st1 st2">4.8H</text>
	</g>
	<g id="gge6103">
		<text transform="matrix(1 0 0 1 320.6385 83.3877)" class="st14 st10 st2">C</text>
	</g>
	<polyline id="gge6111" class="st3" points="172.8,231.3 135.8,231.3 135.8,218.9 	"/>
	<polyline id="gge6116" class="st3" points="369.9,132.7 135.8,132.7 135.8,145 	"/>
	<g id="gge6125">
		<text transform="matrix(-1.836970e-16 -1 1 -1.836970e-16 662.6395 39.248)" class="st10 st15">+</text>
	</g>
	<g id="gge6127">
		<text transform="matrix(1 0 0 1 653.3475 240.5498)" class="st10 st15">-</text>
	</g>
	<line id="gge6137" class="st3" x1="641" y1="46.4" x2="641" y2="218.9"/>
	<g id="gge6138">
		<text transform="matrix(1 0 0 1 653.3475 145.2227)" class="st16 st10 st2">Vo(t)</text>
	</g>
	<line id="gge6142" class="st3" x1="530.1" y1="34.1" x2="641" y2="34.1"/>
	<line id="gge6143" class="st3" x1="530.1" y1="231.3" x2="641" y2="231.3"/>
	<g id="gge6073">
		<circle class="st8" cx="443.9" cy="231.3" r="4.9"/>
		<circle cx="443.9" cy="231.3" r="6.2"/>
	</g>
	<g id="gge6063">
		<circle class="st8" cx="308.3" cy="231.3" r="4.9"/>
		<circle cx="308.3" cy="231.3" r="6.2"/>
	</g>
	<g id="gge6071">
		<circle class="st8" cx="443.9" cy="34.1" r="4.9"/>
		<circle cx="443.9" cy="34.1" r="6.2"/>
	</g>
	<g id="gge6089">
		<circle class="st8" cx="369.9" cy="34.1" r="4.9"/>
		<circle cx="369.9" cy="34.1" r="6.2"/>
	</g>
	<g id="gge6118">
		<circle class="st8" cx="246.7" cy="132.7" r="4.9"/>
		<circle cx="246.7" cy="132.7" r="6.2"/>
	</g>
	<g id="gge6117">
		<circle class="st8" cx="308.3" cy="132.7" r="4.9"/>
		<circle cx="308.3" cy="132.7" r="6.2"/>
	</g>
	<g id="gge5837">
		<path d="M123.5,182l-4.9-9.9l12.3,9.9l-12.3,9.9L123.5,182z"/>
	</g>
	<g id="gge5964">
		<path d="M74.2,157.3l-3.5,10.5L69,152.1l15.7,1.7L74.2,157.3z"/>
	</g>
	<g id="gge6134">
		<path d="M641,46.4l-9.9,4.9L641,39l9.9,12.3L641,46.4z"/>
	</g>
	<g id="gge6136">
		<path d="M641,218.9l9.9-4.9l-9.9,12.3l-9.9-12.3L641,218.9z"/>
	</g>
</g>
<g>
	<g id="ni34a4_1_">
		
			<image style="overflow:visible;" width="1200" height="423" id="ni34a4_00000114052095137766275830000010247063283131300264_" xlink:href="9A644724238F6075.png"  transform="matrix(3.635557e-02 0 0 3.635557e-02 656.6141 286.6412)">
		</image>
	</g>
	<g>
		<text transform="matrix(1 0 0 1 656.4218 309.9828)" class="st17 st18">UBC Engineering</text>
	</g>
</g>
</svg>
