<?xml version="1.0" encoding="utf-8"?>
<!-- Generator: Adobe Illustrator 26.3.1, SVG Export Plug-In . SVG Version: 6.00 Build 0)  -->
<svg version="1.1" id="Layer_1" xmlns="http://www.w3.org/2000/svg" xmlns:xlink="http://www.w3.org/1999/xlink" x="0px" y="0px"
	 viewBox="0 0 675 300" style="enable-background:new 0 0 675 300;" xml:space="preserve">
<style type="text/css">
	.st0{fill:#0066CC;}
	.st1{font-family:'Verdana';}
	.st2{font-size:15.3214px;}
	.st3{display:none;}
	.st4{display:inline;}
	.st5{font-family:'ArialMT';}
	.st6{font-size:14.3px;}
	.st7{fill:none;stroke:#000000;stroke-width:2.0429;}
	.st8{fill:none;}
	.st9{fill:none;stroke:#000000;stroke-width:2.0429;stroke-linecap:round;stroke-linejoin:round;}
	.st10{display:none;enable-background:new    ;}
	.st11{display:none;fill:none;stroke:#000000;stroke-width:2.0429;}
	.st12{display:none;fill:none;stroke:#000000;stroke-width:2.0429;stroke-linecap:round;stroke-linejoin:round;}
	.st13{fill:none;stroke:#000000;stroke-width:2.0429;stroke-linecap:round;}
	.st14{font-family:'Helvetica';}
	.st15{fill:#FF3366;}
	.st16{font-family:'Folio-Medium';}
	.st17{font-size:5.504px;}
</style>
<g id="g1">
	<g id="gge789">
		<text transform="matrix(1 0 0 1 46.3936 160.9707)" class="st0 st1 st2">V</text>
	</g>
	<g id="gge793">
		<g id="gge795" class="st3">
			<text transform="matrix(1 0 0 1 111.7646 175.3115)" class="st4 st5 st6">SIN(0 1 50) AC 1 0</text>
		</g>
		<g id="gge797" class="st3">
			<text transform="matrix(1 0 0 1 117.8936 157.5186)" class="st4 st5 st6">V1</text>
		</g>
		<ellipse id="gge799" class="st7" cx="87.2" cy="150" rx="20.4" ry="20.4"/>
		<g id="gge800">
			<circle class="st8" cx="87.2" cy="109.1" r="4.1"/>
			<path class="st9" d="M87.2,129.6v-20.4"/>
			<text transform="matrix(-1.836970e-16 -1 1 -1.836970e-16 87.251 142.7471)" class="st10 st1 st6">1</text>
			<text transform="matrix(-1.836970e-16 -1 1 -1.836970e-16 79.0791 121.3994)" class="st10 st1 st6">1</text>
			<circle class="st11" cx="87.2" cy="82.6" r="6.1"/>
			<path class="st12" d="M81.1,88.7l6.1,6.1l6.1-6.1"/>
		</g>
		<line id="gge807" class="st9" x1="83.2" y1="137.7" x2="91.3" y2="137.7"/>
		<line id="gge808" class="st9" x1="87.2" y1="133.7" x2="87.2" y2="141.8"/>
		<g id="gge809">
			<circle class="st8" cx="87.2" cy="190.9" r="4.1"/>
			<path class="st9" d="M87.2,170.4v20.4"/>
			<text transform="matrix(-1.836970e-16 -1 1 -1.836970e-16 87.251 162.2568)" class="st10 st1 st6">2</text>
			<text transform="matrix(-1.836970e-16 -1 1 -1.836970e-16 79.0791 187.6904)" class="st10 st1 st6">2</text>
			<circle class="st11" cx="87.2" cy="217.4" r="6.1"/>
			<path class="st12" d="M93.4,211.3l-6.1-6.1l-6.1,6.1"/>
		</g>
		<line id="gge816" class="st9" x1="91.3" y1="162.3" x2="83.2" y2="162.3"/>
	</g>
	<g id="gge817">
		<g id="gge819" class="st3">
			<text transform="matrix(1 0 0 1 156.7891 51.9434)" class="st4 st5 st6">1k</text>
		</g>
		<g id="gge821" class="st3">
			<text transform="matrix(1 0 0 1 156.7891 33.333)" class="st4 st5 st6">R10</text>
		</g>
		<line id="gge823" class="st9" x1="199.6" y1="68.3" x2="193.5" y2="78.5"/>
		<line id="gge824" class="st9" x1="183.3" y1="58.1" x2="173.1" y2="78.5"/>
		<line id="gge825" class="st9" x1="193.5" y1="78.5" x2="183.3" y2="58.1"/>
		<g id="gge826">
			<circle class="st8" cx="209.8" cy="68.3" r="4.1"/>
			<path class="st9" d="M209.8,68.3h-10.2"/>
			<text transform="matrix(1 0 0 1 182.3457 68.2861)" class="st10 st1 st6">2</text>
			<text transform="matrix(1 0 0 1 207.7793 60.1152)" class="st10 st1 st6">2</text>
			<circle class="st11" cx="205.7" cy="68.3" r="6.1"/>
			<path class="st12" d="M199.6,62.2l-6.1,6.1l6.1,6.1"/>
		</g>
		<line id="gge833" class="st9" x1="154.7" y1="78.5" x2="144.4" y2="58.1"/>
		<line id="gge834" class="st9" x1="173.1" y1="78.5" x2="164.9" y2="58.1"/>
		<line id="gge835" class="st9" x1="164.9" y1="58.1" x2="154.7" y2="78.5"/>
		<line id="gge836" class="st9" x1="144.4" y1="58.1" x2="138.3" y2="68.3"/>
		<g id="gge837">
			<circle class="st8" cx="128.1" cy="68.3" r="4.1"/>
			<path class="st9" d="M128.1,68.3h10.2"/>
			<text transform="matrix(1 0 0 1 146.4932 68.2861)" class="st10 st1 st6">1</text>
			<text transform="matrix(1 0 0 1 121.0596 60.1152)" class="st10 st1 st6">1</text>
			<circle class="st11" cx="132.2" cy="68.3" r="6.1"/>
			<path class="st12" d="M138.3,74.4l6.1-6.1l-6.1-6.1"/>
		</g>
	</g>
	<g id="gge899">
		<g id="gge901" class="st3">
			<text transform="matrix(1 0 0 1 209.8223 177.9473)" class="st4 st5 st6">1k</text>
		</g>
		<g id="gge903" class="st3">
			<text transform="matrix(1 0 0 1 207.7793 156.7217)" class="st4 st5 st6">R11</text>
		</g>
		<polyline id="gge905" class="st9" points="138.3,180.6 147.1,172.4 143.4,161.2 165.8,167.3 158.3,145.9 179.9,153.6 171.9,132.4 
			193.4,137.6 191.2,128.7 199.6,119.4 		"/>
		<g id="gge906">
			<circle class="st8" cx="138.3" cy="180.6" r="4.1"/>
			<path class="st9" d="M138.3,180.6L138.3,180.6"/>
			<text transform="matrix(-1.836970e-16 -1 1 -1.836970e-16 144.4512 176.5557)" class="st10 st1 st6">1</text>
			<text transform="matrix(-1.836970e-16 -1 1 -1.836970e-16 136.2793 199.9482)" class="st10 st1 st6">1</text>
			<circle class="st11" cx="138.3" cy="186.8" r="6.1"/>
			<path class="st12" d="M144.4,180.6l-6.1-6.1l-6.1,6.1"/>
		</g>
		<g id="gge913">
			<circle class="st8" cx="199.6" cy="119.4" r="4.1"/>
			<path class="st9" d="M199.6,119.4L199.6,119.4"/>
			<text transform="matrix(-1.836970e-16 -1 1 -1.836970e-16 205.7363 132.5342)" class="st10 st1 st6">2</text>
			<text transform="matrix(-1.836970e-16 -1 1 -1.836970e-16 197.5654 109.1416)" class="st10 st1 st6">2</text>
			<circle class="st11" cx="199.6" cy="113.2" r="6.1"/>
			<path class="st12" d="M193.5,119.4l6.1,6.1l6.1-6.1"/>
		</g>
	</g>
	<g id="gge921">
		<g id="gge923" class="st3">
			<text transform="matrix(1 0 0 1 156.7891 215.3721)" class="st4 st5 st6">1k</text>
		</g>
		<g id="gge925" class="st3">
			<text transform="matrix(1 0 0 1 156.7891 196.7617)" class="st4 st5 st6">R12</text>
		</g>
		<line id="gge927" class="st9" x1="199.6" y1="231.7" x2="193.5" y2="241.9"/>
		<line id="gge928" class="st9" x1="183.3" y1="221.5" x2="173.1" y2="241.9"/>
		<line id="gge929" class="st9" x1="193.5" y1="241.9" x2="183.3" y2="221.5"/>
		<g id="gge930">
			<circle class="st8" cx="209.8" cy="231.7" r="4.1"/>
			<path class="st9" d="M209.8,231.7h-10.2"/>
			<text transform="matrix(1 0 0 1 182.3457 231.7148)" class="st10 st1 st6">2</text>
			<text transform="matrix(1 0 0 1 207.7793 223.5439)" class="st10 st1 st6">2</text>
			<circle class="st11" cx="205.7" cy="231.7" r="6.1"/>
			<path class="st12" d="M199.6,225.6l-6.1,6.1l6.1,6.1"/>
		</g>
		<line id="gge937" class="st9" x1="154.7" y1="241.9" x2="144.4" y2="221.5"/>
		<line id="gge938" class="st9" x1="173.1" y1="241.9" x2="164.9" y2="221.5"/>
		<line id="gge939" class="st9" x1="164.9" y1="221.5" x2="154.7" y2="241.9"/>
		<line id="gge940" class="st9" x1="144.4" y1="221.5" x2="138.3" y2="231.7"/>
		<g id="gge941">
			<circle class="st8" cx="128.1" cy="231.7" r="4.1"/>
			<path class="st9" d="M128.1,231.7h10.2"/>
			<text transform="matrix(1 0 0 1 146.4932 231.7148)" class="st10 st1 st6">1</text>
			<text transform="matrix(1 0 0 1 121.0596 223.5439)" class="st10 st1 st6">1</text>
			<circle class="st11" cx="132.2" cy="231.7" r="6.1"/>
			<path class="st12" d="M138.3,237.8l6.1-6.1l-6.1-6.1"/>
		</g>
	</g>
	<polyline id="gge1271" class="st9" points="128.1,231.7 87.2,231.7 87.2,190.9 	"/>
	<polyline id="gge1272" class="st9" points="87.2,109.1 87.2,68.3 128.1,68.3 	"/>
	<g id="gge1273">
		<circle class="st8" cx="107.7" cy="211.3" r="4.1"/>
		<circle class="st8" cx="87.2" cy="231.7" r="4.1"/>
		<line class="st13" x1="107.7" y1="211.3" x2="87.2" y2="231.7"/>
	</g>
	<g id="gge1278">
		<circle class="st8" cx="128.1" cy="190.9" r="4.1"/>
		<circle class="st8" cx="107.7" cy="211.3" r="4.1"/>
		<line class="st13" x1="128.1" y1="190.9" x2="107.7" y2="211.3"/>
	</g>
	<g id="gge1282">
		<circle class="st8" cx="138.3" cy="180.6" r="4.1"/>
		<circle class="st8" cx="117.9" cy="201.1" r="4.1"/>
		<line class="st13" x1="138.3" y1="180.6" x2="117.9" y2="201.1"/>
	</g>
	<g id="gge1286">
		<circle class="st8" cx="220" cy="98.9" r="4.1"/>
		<circle class="st8" cx="199.6" cy="119.4" r="4.1"/>
		<line class="st13" x1="220" y1="98.9" x2="199.6" y2="119.4"/>
	</g>
	<g id="gge1290">
		<circle class="st8" cx="240.5" cy="78.5" r="4.1"/>
		<circle class="st8" cx="220" cy="98.9" r="4.1"/>
		<line class="st13" x1="240.5" y1="78.5" x2="220" y2="98.9"/>
	</g>
	<g id="gge1294">
		<circle class="st8" cx="250.7" cy="68.3" r="4.1"/>
		<circle class="st8" cx="230.2" cy="88.7" r="4.1"/>
		<line class="st13" x1="250.7" y1="68.3" x2="230.2" y2="88.7"/>
	</g>
	<polyline id="gge1298" class="st9" points="291.5,68.3 250.7,68.3 209.8,68.3 	"/>
	<g id="gge1300">
		<g id="gge1302" class="st3">
			<text transform="matrix(1 0 0 1 264.9795 175.2705)" class="st4 st5 st6">1k</text>
		</g>
		<g id="gge1304" class="st3">
			<text transform="matrix(1 0 0 1 264.9795 156.4355)" class="st4 st5 st6">R13</text>
		</g>
		<line id="gge1306" class="st9" x1="250.7" y1="119.4" x2="260.9" y2="125.5"/>
		<line id="gge1307" class="st9" x1="240.5" y1="135.7" x2="260.9" y2="145.9"/>
		<line id="gge1308" class="st9" x1="260.9" y1="125.5" x2="240.5" y2="135.7"/>
		<g id="gge1309">
			<circle class="st8" cx="250.7" cy="109.1" r="4.1"/>
			<path class="st9" d="M250.7,109.1v10.2"/>
			<text transform="matrix(-1.836970e-16 -1 1 -1.836970e-16 250.6797 136.6182)" class="st10 st1 st6">2</text>
			<text transform="matrix(-1.836970e-16 -1 1 -1.836970e-16 242.5078 111.1846)" class="st10 st1 st6">2</text>
			<circle class="st11" cx="250.7" cy="113.2" r="6.1"/>
			<path class="st12" d="M244.6,119.4l6.1,6.1l6.1-6.1"/>
		</g>
		<line id="gge1316" class="st9" x1="260.9" y1="164.3" x2="240.5" y2="174.5"/>
		<line id="gge1317" class="st9" x1="260.9" y1="145.9" x2="240.5" y2="154.1"/>
		<line id="gge1318" class="st9" x1="240.5" y1="154.1" x2="260.9" y2="164.3"/>
		<line id="gge1319" class="st9" x1="240.5" y1="174.5" x2="250.7" y2="180.6"/>
		<g id="gge1320">
			<circle class="st8" cx="250.7" cy="190.9" r="4.1"/>
			<path class="st9" d="M250.7,190.9v-10.2"/>
			<text transform="matrix(-1.836970e-16 -1 1 -1.836970e-16 250.6797 172.4717)" class="st10 st1 st6">1</text>
			<text transform="matrix(-1.836970e-16 -1 1 -1.836970e-16 242.5078 197.9053)" class="st10 st1 st6">1</text>
			<circle class="st11" cx="250.7" cy="186.8" r="6.1"/>
			<path class="st12" d="M256.8,180.6l-6.1-6.1l-6.1,6.1"/>
		</g>
	</g>
	<g id="gge1328">
		<g id="gge1330" class="st3">
			<text transform="matrix(1 0 0 1 314.9062 51.9434)" class="st4 st5 st6">1k</text>
		</g>
		<g id="gge1332" class="st3">
			<text transform="matrix(1 0 0 1 314.9062 33.1084)" class="st4 st5 st6">R14</text>
		</g>
		<line id="gge1334" class="st9" x1="301.8" y1="68.3" x2="307.9" y2="58.1"/>
		<line id="gge1335" class="st9" x1="318.1" y1="78.5" x2="328.3" y2="58.1"/>
		<line id="gge1336" class="st9" x1="307.9" y1="58.1" x2="318.1" y2="78.5"/>
		<g id="gge1337">
			<circle class="st8" cx="291.5" cy="68.3" r="4.1"/>
			<path class="st9" d="M291.5,68.3h10.2"/>
			<text transform="matrix(1 0 0 1 309.9219 68.2861)" class="st10 st1 st6">2</text>
			<text transform="matrix(1 0 0 1 284.4883 60.1152)" class="st10 st1 st6">2</text>
			<circle class="st11" cx="295.6" cy="68.3" r="6.1"/>
			<path class="st12" d="M301.8,74.4l6.1-6.1l-6.1-6.1"/>
		</g>
		<line id="gge1344" class="st9" x1="346.7" y1="58.1" x2="356.9" y2="78.5"/>
		<line id="gge1345" class="st9" x1="328.3" y1="58.1" x2="336.5" y2="78.5"/>
		<line id="gge1346" class="st9" x1="336.5" y1="78.5" x2="346.7" y2="58.1"/>
		<line id="gge1347" class="st9" x1="356.9" y1="78.5" x2="363" y2="68.3"/>
		<g id="gge1348">
			<circle class="st8" cx="373.2" cy="68.3" r="4.1"/>
			<path class="st9" d="M373.2,68.3H363"/>
			<text transform="matrix(1 0 0 1 345.7734 68.2861)" class="st10 st1 st6">1</text>
			<text transform="matrix(1 0 0 1 371.208 60.1152)" class="st10 st1 st6">1</text>
			<circle class="st11" cx="369.2" cy="68.3" r="6.1"/>
			<path class="st12" d="M363,62.2l-6.1,6.1l6.1,6.1"/>
		</g>
	</g>
	<g id="gge1356">
		<g id="gge1358" class="st3">
			<text transform="matrix(1 0 0 1 314.9062 215.3721)" class="st4 st5 st6">1k</text>
		</g>
		<g id="gge1360" class="st3">
			<text transform="matrix(1 0 0 1 314.9062 196.5371)" class="st4 st5 st6">R15</text>
		</g>
		<line id="gge1362" class="st9" x1="301.8" y1="231.7" x2="307.9" y2="221.5"/>
		<line id="gge1363" class="st9" x1="318.1" y1="241.9" x2="328.3" y2="221.5"/>
		<line id="gge1364" class="st9" x1="307.9" y1="221.5" x2="318.1" y2="241.9"/>
		<g id="gge1365">
			<circle class="st8" cx="291.5" cy="231.7" r="4.1"/>
			<path class="st9" d="M291.5,231.7h10.2"/>
			<text transform="matrix(1 0 0 1 309.9219 231.7148)" class="st10 st1 st6">2</text>
			<text transform="matrix(1 0 0 1 284.4883 223.5439)" class="st10 st1 st6">2</text>
			<circle class="st11" cx="295.6" cy="231.7" r="6.1"/>
			<path class="st12" d="M301.8,237.8l6.1-6.1l-6.1-6.1"/>
		</g>
		<line id="gge1372" class="st9" x1="346.7" y1="221.5" x2="356.9" y2="241.9"/>
		<line id="gge1373" class="st9" x1="328.3" y1="221.5" x2="336.5" y2="241.9"/>
		<line id="gge1374" class="st9" x1="336.5" y1="241.9" x2="346.7" y2="221.5"/>
		<line id="gge1375" class="st9" x1="356.9" y1="241.9" x2="363" y2="231.7"/>
		<g id="gge1376">
			<circle class="st8" cx="373.2" cy="231.7" r="4.1"/>
			<path class="st9" d="M373.2,231.7H363"/>
			<text transform="matrix(1 0 0 1 345.7734 231.7148)" class="st10 st1 st6">1</text>
			<text transform="matrix(1 0 0 1 371.208 223.5439)" class="st10 st1 st6">1</text>
			<circle class="st11" cx="369.2" cy="231.7" r="6.1"/>
			<path class="st12" d="M363,225.6l-6.1,6.1l6.1,6.1"/>
		</g>
	</g>
	<g id="gge1384">
		<g id="gge1386" class="st3">
			<text transform="matrix(1 0 0 1 428.4082 175.2705)" class="st4 st5 st6">1k</text>
		</g>
		<g id="gge1388" class="st3">
			<text transform="matrix(1 0 0 1 428.4082 156.4355)" class="st4 st5 st6">R16</text>
		</g>
		<line id="gge1390" class="st9" x1="414.1" y1="180.6" x2="403.9" y2="174.5"/>
		<line id="gge1391" class="st9" x1="424.3" y1="164.3" x2="403.9" y2="154.1"/>
		<line id="gge1392" class="st9" x1="403.9" y1="174.5" x2="424.3" y2="164.3"/>
		<g id="gge1393">
			<circle class="st8" cx="414.1" cy="190.9" r="4.1"/>
			<path class="st9" d="M414.1,190.9v-10.2"/>
			<text transform="matrix(-1.836970e-16 -1 1 -1.836970e-16 414.1084 172.4717)" class="st10 st1 st6">2</text>
			<text transform="matrix(-1.836970e-16 -1 1 -1.836970e-16 405.9365 197.9053)" class="st10 st1 st6">2</text>
			<circle class="st11" cx="414.1" cy="186.8" r="6.1"/>
			<path class="st12" d="M420.2,180.6l-6.1-6.1l-6.1,6.1"/>
		</g>
		<line id="gge1400" class="st9" x1="403.9" y1="135.7" x2="424.3" y2="125.5"/>
		<line id="gge1401" class="st9" x1="403.9" y1="154.1" x2="424.3" y2="145.9"/>
		<line id="gge1402" class="st9" x1="424.3" y1="145.9" x2="403.9" y2="135.7"/>
		<line id="gge1403" class="st9" x1="424.3" y1="125.5" x2="414.1" y2="119.4"/>
		<g id="gge1404">
			<circle class="st8" cx="414.1" cy="109.1" r="4.1"/>
			<path class="st9" d="M414.1,109.1v10.2"/>
			<text transform="matrix(-1.836970e-16 -1 1 -1.836970e-16 414.1084 136.6182)" class="st10 st1 st6">1</text>
			<text transform="matrix(-1.836970e-16 -1 1 -1.836970e-16 405.9365 111.1846)" class="st10 st1 st6">1</text>
			<circle class="st11" cx="414.1" cy="113.2" r="6.1"/>
			<path class="st12" d="M408,119.4l6.1,6.1l6.1-6.1"/>
		</g>
	</g>
	<g id="gge1412">
		<g id="gge1414" class="st3">
			<text transform="matrix(1 0 0 1 478.3359 51.9434)" class="st4 st5 st6">1k</text>
		</g>
		<g id="gge1416" class="st3">
			<text transform="matrix(1 0 0 1 478.3359 33.1084)" class="st4 st5 st6">R17</text>
		</g>
		<line id="gge1418" class="st9" x1="526.5" y1="68.3" x2="520.3" y2="78.5"/>
		<line id="gge1419" class="st9" x1="510.1" y1="58.1" x2="499.9" y2="78.5"/>
		<line id="gge1420" class="st9" x1="520.3" y1="78.5" x2="510.1" y2="58.1"/>
		<g id="gge1421">
			<circle class="st8" cx="536.7" cy="68.3" r="4.1"/>
			<path class="st9" d="M536.7,68.3h-10.2"/>
			<text transform="matrix(1 0 0 1 509.2021 68.2861)" class="st10 st1 st6">2</text>
			<text transform="matrix(1 0 0 1 534.6367 60.1152)" class="st10 st1 st6">2</text>
			<circle class="st11" cx="532.6" cy="68.3" r="6.1"/>
			<path class="st12" d="M526.5,62.2l-6.1,6.1l6.1,6.1"/>
		</g>
		<line id="gge1428" class="st9" x1="481.5" y1="78.5" x2="471.3" y2="58.1"/>
		<line id="gge1429" class="st9" x1="499.9" y1="78.5" x2="491.7" y2="58.1"/>
		<line id="gge1430" class="st9" x1="491.7" y1="58.1" x2="481.5" y2="78.5"/>
		<line id="gge1431" class="st9" x1="471.3" y1="58.1" x2="465.2" y2="68.3"/>
		<g id="gge1432">
			<circle class="st8" cx="455" cy="68.3" r="4.1"/>
			<path class="st9" d="M455,68.3h10.2"/>
			<text transform="matrix(1 0 0 1 473.3506 68.2861)" class="st10 st1 st6">1</text>
			<text transform="matrix(1 0 0 1 447.916 60.1152)" class="st10 st1 st6">1</text>
			<circle class="st11" cx="459" cy="68.3" r="6.1"/>
			<path class="st12" d="M465.2,74.4l6.1-6.1l-6.1-6.1"/>
		</g>
	</g>
	<g id="gge1468">
		<g id="gge1470" class="st3">
			<text transform="matrix(1 0 0 1 591.8359 175.2705)" class="st4 st5 st6">1k</text>
		</g>
		<g id="gge1472" class="st3">
			<text transform="matrix(1 0 0 1 591.8359 156.4355)" class="st4 st5 st6">R19</text>
		</g>
		<line id="gge1474" class="st9" x1="577.5" y1="119.4" x2="587.8" y2="125.5"/>
		<line id="gge1475" class="st9" x1="567.3" y1="135.7" x2="587.8" y2="145.9"/>
		<line id="gge1476" class="st9" x1="587.8" y1="125.5" x2="567.3" y2="135.7"/>
		<g id="gge1477">
			<circle class="st8" cx="577.5" cy="109.1" r="4.1"/>
			<path class="st9" d="M577.5,109.1v10.2"/>
			<text transform="matrix(-1.836970e-16 -1 1 -1.836970e-16 577.5361 136.6182)" class="st10 st1 st6">2</text>
			<text transform="matrix(-1.836970e-16 -1 1 -1.836970e-16 569.3652 111.1846)" class="st10 st1 st6">2</text>
			<circle class="st11" cx="577.5" cy="113.2" r="6.1"/>
			<path class="st12" d="M571.4,119.4l6.1,6.1l6.1-6.1"/>
		</g>
		<line id="gge1484" class="st9" x1="587.8" y1="164.3" x2="567.3" y2="174.5"/>
		<line id="gge1485" class="st9" x1="587.8" y1="145.9" x2="567.3" y2="154.1"/>
		<line id="gge1486" class="st9" x1="567.3" y1="154.1" x2="587.8" y2="164.3"/>
		<line id="gge1487" class="st9" x1="567.3" y1="174.5" x2="577.5" y2="180.6"/>
		<g id="gge1488">
			<circle class="st8" cx="577.5" cy="190.9" r="4.1"/>
			<path class="st9" d="M577.5,190.9v-10.2"/>
			<text transform="matrix(-1.836970e-16 -1 1 -1.836970e-16 577.5361 172.4717)" class="st10 st1 st6">1</text>
			<text transform="matrix(-1.836970e-16 -1 1 -1.836970e-16 569.3652 197.9053)" class="st10 st1 st6">1</text>
			<circle class="st11" cx="577.5" cy="186.8" r="6.1"/>
			<path class="st12" d="M583.7,180.6l-6.1-6.1l-6.1,6.1"/>
		</g>
	</g>
	<polyline id="gge1495" class="st9" points="536.7,68.3 577.5,68.3 577.5,109.1 	"/>
	<line id="gge1497" class="st9" x1="455" y1="68.3" x2="373.2" y2="68.3"/>
	<line id="gge1500" class="st9" x1="250.7" y1="109.1" x2="250.7" y2="68.3"/>
	<polyline id="gge1501" class="st9" points="250.7,190.9 250.7,231.7 291.5,231.7 	"/>
	<line id="gge1502" class="st9" x1="209.8" y1="231.7" x2="250.7" y2="231.7"/>
	<polyline id="gge1504" class="st9" points="373.2,231.7 414.1,231.7 414.1,190.9 	"/>
	<line id="gge1505" class="st9" x1="414.1" y1="109.1" x2="414.1" y2="68.3"/>
	<polyline id="gge1507" class="st9" points="577.5,190.9 577.5,231.7 414.1,231.7 	"/>
	<g id="gge1510">
		<g id="gge1512" class="st3">
			<text transform="matrix(1 0 0 1 536.6797 177.9473)" class="st4 st5 st6">1k</text>
		</g>
		<g id="gge1514" class="st3">
			<text transform="matrix(1 0 0 1 534.6367 156.7217)" class="st4 st5 st6">R18</text>
		</g>
		<polyline id="gge1516" class="st9" points="465.2,180.6 474,172.4 470.3,161.2 492.7,167.3 485.2,145.9 506.8,153.6 498.8,132.4 
			520.2,137.6 518.1,128.7 526.5,119.4 		"/>
		<g id="gge1517">
			<circle class="st8" cx="465.2" cy="180.6" r="4.1"/>
			<path class="st9" d="M465.2,180.6L465.2,180.6"/>
			<text transform="matrix(-1.836970e-16 -1 1 -1.836970e-16 471.3076 176.5557)" class="st10 st1 st6">1</text>
			<text transform="matrix(-1.836970e-16 -1 1 -1.836970e-16 463.1367 199.9482)" class="st10 st1 st6">1</text>
			<circle class="st11" cx="465.2" cy="186.8" r="6.1"/>
			<path class="st12" d="M471.3,180.6l-6.1-6.1l-6.1,6.1"/>
		</g>
		<g id="gge1524">
			<circle class="st8" cx="526.5" cy="119.4" r="4.1"/>
			<path class="st9" d="M526.5,119.4L526.5,119.4"/>
			<text transform="matrix(-1.836970e-16 -1 1 -1.836970e-16 532.5938 132.5342)" class="st10 st1 st6">2</text>
			<text transform="matrix(-1.836970e-16 -1 1 -1.836970e-16 524.4219 109.1416)" class="st10 st1 st6">2</text>
			<circle class="st11" cx="526.5" cy="113.2" r="6.1"/>
			<path class="st12" d="M520.3,119.4l6.1,6.1l6.1-6.1"/>
		</g>
	</g>
	<g id="gge1532">
		<g id="gge1534" class="st3">
			<text transform="matrix(1 0 0 1 314.9062 110.2061)" class="st4 st5 st6">1k</text>
		</g>
		<g id="gge1536" class="st3">
			<text transform="matrix(1 0 0 1 314.9062 91.3711)" class="st4 st5 st6">R20</text>
		</g>
		<polyline id="gge1538" class="st9" points="363,180.6 354.8,171.9 343.6,175.5 349.7,153.2 328.3,160.6 336,139.1 314.8,147 
			320,125.6 311,127.7 301.8,119.4 		"/>
		<g id="gge1539">
			<circle class="st8" cx="363" cy="180.6" r="4.1"/>
			<path class="st9" d="M363,180.6L363,180.6"/>
			<text transform="matrix(1 0 0 1 349.8594 186.7725)" class="st10 st1 st6">1</text>
			<text transform="matrix(1 0 0 1 373.25 178.6006)" class="st10 st1 st6">1</text>
			<circle class="st11" cx="369.2" cy="180.6" r="6.1"/>
			<path class="st12" d="M363,174.5l-6.1,6.1l6.1,6.1"/>
		</g>
		<g id="gge1546">
			<circle class="st8" cx="301.8" cy="119.4" r="4.1"/>
			<path class="st9" d="M301.8,119.4L301.8,119.4"/>
			<text transform="matrix(1 0 0 1 305.8359 125.4863)" class="st10 st1 st6">2</text>
			<text transform="matrix(1 0 0 1 282.4453 117.3154)" class="st10 st1 st6">2</text>
			<circle class="st11" cx="295.6" cy="119.4" r="6.1"/>
			<path class="st12" d="M301.8,125.5l6.1-6.1l-6.1-6.1"/>
		</g>
	</g>
	<g id="gge1553">
		<circle class="st8" cx="465.2" cy="180.6" r="4.1"/>
		<circle class="st8" cx="444.8" cy="201.1" r="4.1"/>
		<line class="st13" x1="465.2" y1="180.6" x2="444.8" y2="201.1"/>
	</g>
	<g id="gge1557">
		<circle class="st8" cx="444.8" cy="201.1" r="4.1"/>
		<circle class="st8" cx="424.3" cy="221.5" r="4.1"/>
		<line class="st13" x1="444.8" y1="201.1" x2="424.3" y2="221.5"/>
	</g>
	<g id="gge1565">
		<circle class="st8" cx="434.5" cy="211.3" r="4.1"/>
		<circle class="st8" cx="414.1" cy="231.7" r="4.1"/>
		<line class="st13" x1="434.5" y1="211.3" x2="414.1" y2="231.7"/>
	</g>
	<g id="gge1573">
		<circle class="st8" cx="546.9" cy="98.9" r="4.1"/>
		<circle class="st8" cx="526.5" cy="119.4" r="4.1"/>
		<line class="st13" x1="546.9" y1="98.9" x2="526.5" y2="119.4"/>
	</g>
	<g id="gge1577">
		<circle class="st8" cx="567.3" cy="78.5" r="4.1"/>
		<circle class="st8" cx="546.9" cy="98.9" r="4.1"/>
		<line class="st13" x1="567.3" y1="78.5" x2="546.9" y2="98.9"/>
	</g>
	<g id="gge1581">
		<circle class="st8" cx="577.5" cy="68.3" r="4.1"/>
		<circle class="st8" cx="557.1" cy="88.7" r="4.1"/>
		<line class="st13" x1="577.5" y1="68.3" x2="557.1" y2="88.7"/>
	</g>
	<g id="gge1586">
		<circle class="st8" cx="363" cy="180.6" r="4.1"/>
		<circle class="st8" cx="383.5" cy="201.1" r="4.1"/>
		<line class="st13" x1="363" y1="180.6" x2="383.5" y2="201.1"/>
	</g>
	<g id="gge1590">
		<circle class="st8" cx="383.5" cy="201.1" r="4.1"/>
		<circle class="st8" cx="403.9" cy="221.5" r="4.1"/>
		<line class="st13" x1="383.5" y1="201.1" x2="403.9" y2="221.5"/>
	</g>
	<g id="gge1594">
		<circle class="st8" cx="393.7" cy="211.3" r="4.1"/>
		<circle class="st8" cx="414.1" cy="231.7" r="4.1"/>
		<line class="st13" x1="393.7" y1="211.3" x2="414.1" y2="231.7"/>
	</g>
	<g id="gge1598">
		<circle class="st8" cx="281.3" cy="98.9" r="4.1"/>
		<circle class="st8" cx="301.8" cy="119.4" r="4.1"/>
		<line class="st13" x1="281.3" y1="98.9" x2="301.8" y2="119.4"/>
	</g>
	<g id="gge1602">
		<circle class="st8" cx="271.1" cy="88.7" r="4.1"/>
		<circle class="st8" cx="291.5" cy="109.1" r="4.1"/>
		<line class="st13" x1="271.1" y1="88.7" x2="291.5" y2="109.1"/>
	</g>
	<g id="gge1606">
		<circle class="st8" cx="250.7" cy="68.3" r="4.1"/>
		<circle class="st8" cx="271.1" cy="88.7" r="4.1"/>
		<line class="st13" x1="250.7" y1="68.3" x2="271.1" y2="88.7"/>
	</g>
	<g id="gge1625">
		<text transform="matrix(1 0 0 1 148.5361 47.8584)" class="st14 st2">4kΩ</text>
	</g>
	<g id="gge1628">
		<text transform="matrix(1 0 0 1 148.5361 262.3584)" class="st14 st2">30kΩ</text>
	</g>
	<g id="gge1631">
		<text transform="matrix(1 0 0 1 311.9648 47.8584)" class="st14 st2">5kΩ</text>
	</g>
	<g id="gge1634">
		<text transform="matrix(1 0 0 1 475.3936 47.8584)" class="st14 st2">1kΩ</text>
	</g>
	<g id="gge1637">
		<text transform="matrix(1 0 0 1 587.75 160.2148)" class="st14 st2">6kΩ</text>
	</g>
	<g id="gge1640">
		<text transform="matrix(1 0 0 1 260.8936 160.2148)" class="st14 st2">9kΩ</text>
	</g>
	<g id="gge1643">
		<text transform="matrix(1 0 0 1 168.9648 180.6436)" class="st14 st2">2kΩ</text>
	</g>
	<g id="gge1646">
		<text transform="matrix(1 0 0 1 322.1792 129.5723)" class="st14 st2">6kΩ</text>
	</g>
	<g id="gge1649">
		<text transform="matrix(1 0 0 1 424.3223 150.001)" class="st14 st2">1.5kΩ</text>
	</g>
	<g id="gge1652">
		<text transform="matrix(1 0 0 1 495.8223 180.6436)" class="st14 st2">3kΩ</text>
	</g>
	<g id="gge1655">
		<text transform="matrix(1 0 0 1 311.9648 262.3584)" class="st14 st2">1.5kΩ</text>
	</g>
	<g id="gge1662">
		<text transform="matrix(1 0 0 1 66.8223 98.9297)" class="st15 st1 st6">I</text>
	</g>
	<g id="gge1506">
		<circle class="st8" cx="414.1" cy="68.3" r="4.1"/>
		<circle cx="414.1" cy="68.3" r="5.1"/>
	</g>
	<g id="gge1503">
		<circle class="st8" cx="250.7" cy="231.7" r="4.1"/>
		<circle cx="250.7" cy="231.7" r="5.1"/>
	</g>
	<g id="gge1499">
		<circle class="st8" cx="250.7" cy="68.3" r="4.1"/>
		<circle cx="250.7" cy="68.3" r="5.1"/>
	</g>
	<g id="gge1277">
		<circle class="st8" cx="87.2" cy="231.7" r="4.1"/>
		<circle cx="87.2" cy="231.7" r="5.1"/>
	</g>
	<g id="gge1508">
		<circle class="st8" cx="414.1" cy="231.7" r="4.1"/>
		<circle cx="414.1" cy="231.7" r="5.1"/>
	</g>
	<g id="gge1585">
		<circle class="st8" cx="577.5" cy="68.3" r="4.1"/>
		<circle cx="577.5" cy="68.3" r="5.1"/>
	</g>
	<g id="gge1660">
		<path d="M87.2,98.9l-8.2,4.1l8.2-10.2l8.2,10.2L87.2,98.9z"/>
	</g>
</g>
<g>
	<g id="ni34a4_1_">
		
			<image style="overflow:visible;" width="1200" height="423" id="ni34a4_00000114052095137766275830000010247063283131300264_" xlink:href="9862C51BCE254B0E.png"  transform="matrix(3.635557e-02 0 0 3.635557e-02 579.6855 266.6412)">
		</image>
	</g>
	<g>
		<text transform="matrix(1 0 0 1 579.4932 289.9828)" class="st16 st17">UBC Engineering</text>
	</g>
</g>
</svg>
