<?xml version="1.0" encoding="utf-8"?>
<!-- Generator: Adobe Illustrator 26.3.1, SVG Export Plug-In . SVG Version: 6.00 Build 0)  -->
<svg version="1.1" id="Layer_1" xmlns="http://www.w3.org/2000/svg" xmlns:xlink="http://www.w3.org/1999/xlink" x="0px" y="0px"
	 viewBox="0 0 653.1 480.5" style="enable-background:new 0 0 653.1 480.5;" xml:space="preserve">
<style type="text/css">
	.st0{fill:none;stroke:#000000;stroke-width:2.8939;stroke-linecap:round;stroke-linejoin:round;}
	.st1{display:none;}
	.st2{display:inline;}
	.st3{font-family:'ArialMT';}
	.st4{font-size:20.2571px;}
	.st5{fill:none;}
	.st6{display:none;enable-background:new    ;}
	.st7{font-family:'Verdana';}
	.st8{display:none;fill:none;stroke:#000000;stroke-width:2.8939;}
	.st9{display:none;fill:none;stroke:#000000;stroke-width:2.8939;stroke-linecap:round;stroke-linejoin:round;}
	.st10{fill:#0066CC;}
	.st11{font-size:21.7041px;}
	.st12{font-family:'Helvetica';}
	.st13{fill:#FF3366;}
	.st14{font-family:'Folio-Medium';}
	.st15{font-size:5.504px;}
</style>
<g id="g1">
	<line id="gge6552" class="st0" x1="63.4" y1="73.1" x2="63.4" y2="405.9"/>
	<g id="gge7393">
		<g id="gge7395" class="st1">
			<text transform="matrix(1 0 0 1 271.738 195.7363)" class="st2 st3 st4">1k</text>
		</g>
		<g id="gge7397" class="st1">
			<text transform="matrix(1 0 0 1 271.738 169.0547)" class="st2 st3 st4">R110</text>
		</g>
		<line id="gge7399" class="st0" x1="251.5" y1="203.3" x2="237" y2="194.7"/>
		<line id="gge7400" class="st0" x1="266" y1="180.2" x2="237" y2="165.7"/>
		<line id="gge7401" class="st0" x1="237" y1="194.7" x2="266" y2="180.2"/>
		<g id="gge7402">
			<circle class="st5" cx="251.5" cy="217.8" r="5.8"/>
			<path class="st0" d="M251.5,217.8v-14.5"/>
			<text transform="matrix(-1.836970e-16 -1 1 -1.836970e-16 251.4821 191.7724)" class="st6 st7 st4">2</text>
			<text transform="matrix(-1.836970e-16 -1 1 -1.836970e-16 239.906 227.8017)" class="st6 st7 st4">2</text>
			<circle class="st8" cx="251.5" cy="212" r="8.7"/>
			<path class="st9" d="M260.2,203.3l-8.7-8.7l-8.7,8.7"/>
		</g>
		<line id="gge7409" class="st0" x1="237" y1="139.7" x2="266" y2="125.2"/>
		<line id="gge7410" class="st0" x1="237" y1="165.7" x2="266" y2="154.2"/>
		<line id="gge7411" class="st0" x1="266" y1="154.2" x2="237" y2="139.7"/>
		<line id="gge7412" class="st0" x1="266" y1="125.2" x2="251.5" y2="116.5"/>
		<g id="gge7413">
			<circle class="st5" cx="251.5" cy="102.1" r="5.8"/>
			<path class="st0" d="M251.5,102.1v14.5"/>
			<text transform="matrix(-1.836970e-16 -1 1 -1.836970e-16 251.4821 140.9853)" class="st6 st7 st4">1</text>
			<text transform="matrix(-1.836970e-16 -1 1 -1.836970e-16 239.906 104.956)" class="st6 st7 st4">1</text>
			<circle class="st8" cx="251.5" cy="107.8" r="8.7"/>
			<path class="st9" d="M242.8,116.5l8.7,8.7l8.7-8.7"/>
		</g>
	</g>
	<g id="gge7421">
		<g id="gge7423" class="st1">
			<text transform="matrix(1 0 0 1 416.4314 195.7363)" class="st2 st3 st4">1k</text>
		</g>
		<g id="gge7425" class="st1">
			<text transform="matrix(1 0 0 1 416.4314 169.0547)" class="st2 st3 st4">R111</text>
		</g>
		<line id="gge7427" class="st0" x1="396.2" y1="203.3" x2="381.7" y2="194.7"/>
		<line id="gge7428" class="st0" x1="410.6" y1="180.2" x2="381.7" y2="165.7"/>
		<line id="gge7429" class="st0" x1="381.7" y1="194.7" x2="410.6" y2="180.2"/>
		<g id="gge7430">
			<circle class="st5" cx="396.2" cy="217.8" r="5.8"/>
			<path class="st0" d="M396.2,217.8v-14.5"/>
			<text transform="matrix(-1.836970e-16 -1 1 -1.836970e-16 396.1755 191.7724)" class="st6 st7 st4">2</text>
			<text transform="matrix(-1.836970e-16 -1 1 -1.836970e-16 384.6003 227.8017)" class="st6 st7 st4">2</text>
			<circle class="st8" cx="396.2" cy="212" r="8.7"/>
			<path class="st9" d="M404.9,203.3l-8.7-8.7l-8.7,8.7"/>
		</g>
		<line id="gge7437" class="st0" x1="381.7" y1="139.7" x2="410.6" y2="125.2"/>
		<line id="gge7438" class="st0" x1="381.7" y1="165.7" x2="410.6" y2="154.2"/>
		<line id="gge7439" class="st0" x1="410.6" y1="154.2" x2="381.7" y2="139.7"/>
		<line id="gge7440" class="st0" x1="410.6" y1="125.2" x2="396.2" y2="116.5"/>
		<g id="gge7441">
			<circle class="st5" cx="396.2" cy="102.1" r="5.8"/>
			<path class="st0" d="M396.2,102.1v14.5"/>
			<text transform="matrix(-1.836970e-16 -1 1 -1.836970e-16 396.1755 140.9853)" class="st6 st7 st4">1</text>
			<text transform="matrix(-1.836970e-16 -1 1 -1.836970e-16 384.6003 104.956)" class="st6 st7 st4">1</text>
			<circle class="st8" cx="396.2" cy="107.8" r="8.7"/>
			<path class="st9" d="M387.5,116.5l8.7,8.7l8.7-8.7"/>
		</g>
	</g>
	<g id="gge7449">
		<g id="gge7451" class="st1">
			<text transform="matrix(1 0 0 1 344.0847 354.8994)" class="st2 st3 st4">1k</text>
		</g>
		<g id="gge7453" class="st1">
			<text transform="matrix(1 0 0 1 344.0847 328.2177)" class="st2 st3 st4">R112</text>
		</g>
		<line id="gge7455" class="st0" x1="323.8" y1="362.5" x2="309.4" y2="353.8"/>
		<line id="gge7456" class="st0" x1="338.3" y1="339.4" x2="309.4" y2="324.9"/>
		<line id="gge7457" class="st0" x1="309.4" y1="353.8" x2="338.3" y2="339.4"/>
		<g id="gge7458">
			<circle class="st5" cx="323.8" cy="377" r="5.8"/>
			<path class="st0" d="M323.8,377v-14.5"/>
			<text transform="matrix(-1.836970e-16 -1 1 -1.836970e-16 323.8288 350.9345)" class="st6 st7 st4">2</text>
			<text transform="matrix(-1.836970e-16 -1 1 -1.836970e-16 312.2527 386.9638)" class="st6 st7 st4">2</text>
			<circle class="st8" cx="323.8" cy="371.2" r="8.7"/>
			<path class="st9" d="M332.5,362.5l-8.7-8.7l-8.7,8.7"/>
		</g>
		<line id="gge7465" class="st0" x1="309.4" y1="298.8" x2="338.3" y2="284.4"/>
		<line id="gge7466" class="st0" x1="309.4" y1="324.9" x2="338.3" y2="313.3"/>
		<line id="gge7467" class="st0" x1="338.3" y1="313.3" x2="309.4" y2="298.8"/>
		<line id="gge7468" class="st0" x1="338.3" y1="284.4" x2="323.8" y2="275.7"/>
		<g id="gge7469">
			<circle class="st5" cx="323.8" cy="261.2" r="5.8"/>
			<path class="st0" d="M323.8,261.2v14.5"/>
			<text transform="matrix(-1.836970e-16 -1 1 -1.836970e-16 323.8288 300.1494)" class="st6 st7 st4">1</text>
			<text transform="matrix(-1.836970e-16 -1 1 -1.836970e-16 312.2527 264.1181)" class="st6 st7 st4">1</text>
			<circle class="st8" cx="323.8" cy="267" r="8.7"/>
			<path class="st9" d="M315.1,275.7l8.7,8.7l8.7-8.7"/>
		</g>
	</g>
	<g id="gge7477">
		<g id="gge7479" class="st1">
			<text transform="matrix(1 0 0 1 473.6726 26.8203)" class="st2 st3 st4">1u</text>
		</g>
		<g id="gge7481" class="st1">
			<text transform="matrix(1 0 0 1 473.6726 0.7754)" class="st2 st3 st4">C11</text>
		</g>
		<line id="gge7483" class="st0" x1="491.7" y1="81.8" x2="491.7" y2="35.5"/>
		<g id="gge7484">
			<circle class="st5" cx="439.6" cy="58.7" r="5.8"/>
			<path class="st0" d="M468.5,58.7h-28.9"/>
			<text transform="matrix(1 0 0 1 480.0974 58.6533)" class="st6 st7 st4">1</text>
			<text transform="matrix(1 0 0 1 444.0681 47.0771)" class="st6 st7 st4">1</text>
			<circle class="st8" cx="402" cy="58.7" r="8.7"/>
			<path class="st9" d="M410.6,67.3l8.7-8.7l-8.7-8.7"/>
		</g>
		<line id="gge7491" class="st0" x1="526.4" y1="58.7" x2="503.2" y2="58.7"/>
		<line id="gge7492" class="st0" x1="503.2" y1="35.5" x2="503.2" y2="81.8"/>
		<g id="gge7493">
			<circle class="st5" cx="555.3" cy="58.7" r="5.8"/>
			<path class="st0" d="M526.4,58.7h28.9"/>
			<text transform="matrix(1 0 0 1 501.945 58.6533)" class="st6 st7 st4">2</text>
			<text transform="matrix(1 0 0 1 537.9743 47.0771)" class="st6 st7 st4">2</text>
			<circle class="st8" cx="593" cy="58.7" r="8.7"/>
			<path class="st9" d="M584.3,50l-8.7,8.7l8.7,8.7"/>
		</g>
		<line id="gge7500" class="st0" x1="491.7" y1="58.7" x2="468.5" y2="58.7"/>
	</g>
	<g id="gge7502">
		<g id="gge7504" class="st1">
			<text transform="matrix(1 0 0 1 118.905 35.5019)" class="st2 st3 st4">1k</text>
		</g>
		<g id="gge7506" class="st1">
			<text transform="matrix(1 0 0 1 118.905 9.457)" class="st2 st3 st4">R113</text>
		</g>
		<line id="gge7508" class="st0" x1="193.6" y1="58.7" x2="184.9" y2="73.1"/>
		<line id="gge7509" class="st0" x1="170.5" y1="44.2" x2="156" y2="73.1"/>
		<line id="gge7510" class="st0" x1="184.9" y1="73.1" x2="170.5" y2="44.2"/>
		<g id="gge7511">
			<circle class="st5" cx="208.1" cy="58.7" r="5.8"/>
			<path class="st0" d="M208.1,58.7h-14.5"/>
			<text transform="matrix(1 0 0 1 169.1491 58.6533)" class="st6 st7 st4">2</text>
			<text transform="matrix(1 0 0 1 205.1784 47.0771)" class="st6 st7 st4">2</text>
			<circle class="st8" cx="202.3" cy="58.7" r="8.7"/>
			<path class="st9" d="M193.6,50l-8.7,8.7l8.7,8.7"/>
		</g>
		<line id="gge7518" class="st0" x1="129.9" y1="73.1" x2="115.5" y2="44.2"/>
		<line id="gge7519" class="st0" x1="156" y1="73.1" x2="144.4" y2="44.2"/>
		<line id="gge7520" class="st0" x1="144.4" y1="44.2" x2="129.9" y2="73.1"/>
		<line id="gge7521" class="st0" x1="115.5" y1="44.2" x2="106.8" y2="58.7"/>
		<g id="gge7522">
			<circle class="st5" cx="92.3" cy="58.7" r="5.8"/>
			<path class="st0" d="M92.3,58.7h14.5"/>
			<text transform="matrix(1 0 0 1 118.362 58.6533)" class="st6 st7 st4">1</text>
			<text transform="matrix(1 0 0 1 82.3327 47.0771)" class="st6 st7 st4">1</text>
			<circle class="st8" cx="98.1" cy="58.7" r="8.7"/>
			<path class="st9" d="M106.8,67.3l8.7-8.7l-8.7-8.7"/>
		</g>
	</g>
	<g id="gge7530">
		<g id="gge7532" class="st1">
			<text transform="matrix(1 0 0 1 617.0641 282.6396)" class="st2 st3 st4">1m</text>
		</g>
		<g id="gge7534" class="st1">
			<text transform="matrix(1 0 0 1 617.0641 256.1308)" class="st2 st3 st4">L10</text>
		</g>
		<g id="gge7536">
			<circle class="st5" cx="598.7" cy="304.6" r="5.8"/>
			<path class="st0" d="M598.7,304.6V296"/>
			<text transform="matrix(-1.836970e-16 -1 1 -1.836970e-16 598.7468 284.3759)" class="st6 st7 st4">2</text>
			<text transform="matrix(-1.836970e-16 -1 1 -1.836970e-16 587.1716 320.4052)" class="st6 st7 st4">2</text>
			<circle class="st8" cx="598.7" cy="304.6" r="8.7"/>
			<path class="st9" d="M607.4,296l-8.7-8.7l-8.7,8.7"/>
		</g>
		<g id="gge7543">
			<circle class="st5" cx="598.7" cy="188.9" r="5.8"/>
			<path class="st0" d="M598.7,188.9v8.7"/>
			<text transform="matrix(-1.836970e-16 -1 1 -1.836970e-16 598.7468 222.0146)" class="st6 st7 st4">1</text>
			<text transform="matrix(-1.836970e-16 -1 1 -1.836970e-16 587.1716 185.9853)" class="st6 st7 st4">1</text>
			<circle class="st8" cx="598.7" cy="188.9" r="8.7"/>
			<path class="st9" d="M590.1,197.6l8.7,8.7l8.7-8.7"/>
		</g>
		<path id="gge7550" class="st0" d="M598.9,197.9c6.2-0.6,11.7,4.1,12.3,10.4c0.6,6.4-4,12-10.2,12.6c-0.7,0.1-1.4,0.1-2.1,0"/>
		<path id="gge7551" class="st0" d="M599,222.4c6.2-0.6,11.7,4.1,12.3,10.5c0.6,6.4-4,12-10.2,12.6c-0.7,0.1-1.4,0.1-2.1,0"/>
		<path id="gge7552" class="st0" d="M599,246.9c6.2-0.6,11.7,4.1,12.3,10.5c0.6,6.4-4,12-10.2,12.6c-0.7,0.1-1.4,0.1-2.1,0"/>
		<path id="gge7553" class="st0" d="M598.9,271.9c6.2-0.6,11.7,4.1,12.3,10.5c0.6,6.4-4,12-10.2,12.6c-0.7,0.1-1.4,0.1-2.1,0"/>
	</g>
	<line id="gge7554" class="st0" x1="208.1" y1="58.7" x2="439.6" y2="58.7"/>
	<polyline id="gge7555" class="st0" points="555.3,58.7 598.7,58.7 598.7,188.9 	"/>
	<polyline id="gge7556" class="st0" points="598.7,304.6 598.7,420.4 323.8,420.4 323.8,377 	"/>
	<line id="gge7557" class="st0" x1="48.9" y1="420.4" x2="323.8" y2="420.4"/>
	<line id="gge7560" class="st0" x1="92.3" y1="58.7" x2="48.9" y2="58.7"/>
	<line id="gge7561" class="st0" x1="251.5" y1="102.1" x2="251.5" y2="58.7"/>
	<line id="gge7563" class="st0" x1="396.2" y1="102.1" x2="396.2" y2="58.7"/>
	<polyline id="gge7566" class="st0" points="323.8,261.2 323.8,246.8 396.2,246.8 396.2,217.8 	"/>
	<polyline id="gge7576" class="st0" points="251.5,217.8 251.5,246.8 323.8,246.8 	"/>
	<g id="gge7579">
		<text transform="matrix(1 0 0 1 627.6852 246.7549)" class="st10 st7 st11">L</text>
	</g>
	<g id="gge7582">
		<text transform="matrix(1 0 0 1 338.2966 333.5713)" class="st12 st11">10立</text>
	</g>
	<g id="gge7585">
		<text transform="matrix(1 0 0 1 410.6443 174.4082)" class="st12 st11">10立</text>
	</g>
	<g id="gge7588">
		<text transform="matrix(1 0 0 1 265.9499 174.4082)" class="st12 st11">10立</text>
	</g>
	<g id="gge7591">
		<text transform="matrix(1 0 0 1 121.2566 29.7138)" class="st12 st11">10立</text>
	</g>
	<g id="gge7594">
		<text transform="matrix(1 0 0 1 482.9909 29.7138)" class="st13 st7 st11">C</text>
	</g>
	<g id="gge7607">
		<text transform="matrix(1 0 0 1 19.9704 246.7549)" class="st7 st11">Z</text>
	</g>
	<g id="gge7562">
		<circle class="st5" cx="251.5" cy="58.7" r="5.8"/>
		<circle cx="251.5" cy="58.7" r="7.2"/>
	</g>
	<g id="gge7573">
		<circle class="st5" cx="396.2" cy="58.7" r="5.8"/>
		<circle cx="396.2" cy="58.7" r="7.2"/>
	</g>
	<g id="gge7574">
		<circle class="st5" cx="323.8" cy="420.4" r="5.8"/>
		<circle cx="323.8" cy="420.4" r="7.2"/>
	</g>
	<g id="gge7577">
		<circle class="st5" cx="323.8" cy="246.8" r="5.8"/>
		<circle cx="323.8" cy="246.8" r="7.2"/>
	</g>
	<g id="gge7596">
		<path d="M63.4,73.1l-11.6,5.8l11.6-14.5L75,78.9L63.4,73.1z"/>
	</g>
	<g id="gge7597">
		<path d="M63.4,405.9l11.6-5.8l-11.6,14.5l-11.6-14.5L63.4,405.9z"/>
	</g>
</g>
<g>
	<g id="ni34a4_1_">
		
			<image style="overflow:visible;" width="1200" height="423" id="ni34a4_00000114052095137766275830000010247063283131300264_" xlink:href="9A8E5E63C5D705E0.png"  transform="matrix(3.635557e-02 0 0 3.635557e-02 600.7324 442.6412)">
		</image>
	</g>
	<g>
		<text transform="matrix(1 0 0 1 600.5401 465.9828)" class="st14 st15">UBC Engineering</text>
	</g>
</g>
</svg>
