<?xml version="1.0" encoding="utf-8"?>
<!-- Generator: Adobe Illustrator 26.3.1, SVG Export Plug-In . SVG Version: 6.00 Build 0)  -->
<svg version="1.1" id="Layer_1" xmlns="http://www.w3.org/2000/svg" xmlns:xlink="http://www.w3.org/1999/xlink" x="0px" y="0px"
	 viewBox="0 0 506.8 399" style="enable-background:new 0 0 506.8 399;" xml:space="preserve">
<style type="text/css">
	.st0{font-family:'Verdana';}
	.st1{font-size:14.5213px;}
	.st2{fill:#FF3366;}
	.st3{font-size:16.7553px;}
	.st4{fill:none;stroke:#000000;stroke-width:2.234;stroke-linecap:round;stroke-linejoin:round;}
	.st5{display:none;}
	.st6{display:inline;}
	.st7{font-family:'ArialMT';}
	.st8{font-size:15.6383px;}
	.st9{fill:none;stroke:#000000;stroke-width:2.234;}
	.st10{fill:none;}
	.st11{display:none;enable-background:new    ;}
	.st12{display:none;fill:none;stroke:#000000;stroke-width:2.234;}
	.st13{display:none;fill:none;stroke:#000000;stroke-width:2.234;stroke-linecap:round;stroke-linejoin:round;}
	.st14{font-family:'Helvetica';}
	.st15{fill:#0066CC;}
	.st16{font-family:'Folio-Medium';}
	.st17{font-size:5.504px;}
</style>
<g id="g1">
	<g id="gge7699">
		<text transform="matrix(-1.836970e-16 -1 1 -1.836970e-16 457.5879 24.0293)" class="st0 st1">+</text>
	</g>
	<g id="gge7701">
		<text transform="matrix(1 0 0 1 448.8994 83.9033)" class="st0 st1">-</text>
	</g>
	<g id="gge7703">
		<text transform="matrix(1 0 0 1 460.0693 53.6992)" class="st2 st0 st3">Vo</text>
	</g>
	<line id="gge7705" class="st4" x1="437.7" y1="30.5" x2="437.7" y2="64"/>
	<g id="gge7710">
		<g id="gge7712" class="st5">
			<text transform="matrix(1 0 0 1 107.0908 259.2305)" class="st6 st7 st8">SIN(0 1 50) AC 1 0</text>
		</g>
		<g id="gge7714" class="st5">
			<text transform="matrix(1 0 0 1 107.0908 238.6328)" class="st6 st7 st8">V19</text>
		</g>
		<ellipse id="gge7716" class="st9" cx="80.3" cy="231.6" rx="22.3" ry="22.3"/>
		<g id="gge7717">
			<circle class="st10" cx="80.3" cy="186.9" r="4.5"/>
			<path class="st4" d="M80.3,209.3v-22.3"/>
			<text transform="matrix(-1.836970e-16 -1 1 -1.836970e-16 80.2803 223.6641)" class="st11 st0 st8">1</text>
			<text transform="matrix(-1.836970e-16 -1 1 -1.836970e-16 71.3447 200.3184)" class="st11 st0 st8">1</text>
			<circle class="st12" cx="80.3" cy="157.9" r="6.7"/>
			<path class="st13" d="M73.6,164.6l6.7,6.7l6.7-6.7"/>
		</g>
		<line id="gge7724" class="st4" x1="75.8" y1="218.2" x2="84.7" y2="218.2"/>
		<line id="gge7725" class="st4" x1="80.3" y1="213.7" x2="80.3" y2="222.7"/>
		<g id="gge7726">
			<circle class="st10" cx="80.3" cy="276.3" r="4.5"/>
			<path class="st4" d="M80.3,253.9v22.3"/>
			<text transform="matrix(-1.836970e-16 -1 1 -1.836970e-16 80.2803 244.998)" class="st11 st0 st8">2</text>
			<text transform="matrix(-1.836970e-16 -1 1 -1.836970e-16 71.3447 272.8125)" class="st11 st0 st8">2</text>
			<circle class="st12" cx="80.3" cy="305.3" r="6.7"/>
			<path class="st13" d="M87,298.6l-6.7-6.7l-6.7,6.7"/>
		</g>
		<line id="gge7733" class="st4" x1="84.7" y1="245" x2="75.8" y2="245"/>
	</g>
	<g id="gge7735">
		<g id="gge7737" class="st5">
			<text transform="matrix(1 0 0 1 252.3037 181.0391)" class="st6 st7 st8">1k</text>
		</g>
		<g id="gge7739" class="st5">
			<text transform="matrix(1 0 0 1 252.3037 160.4414)" class="st6 st7 st8">R114</text>
		</g>
		<line id="gge7741" class="st4" x1="236.7" y1="186.9" x2="225.5" y2="180.2"/>
		<line id="gge7742" class="st4" x1="247.8" y1="169" x2="225.5" y2="157.9"/>
		<line id="gge7743" class="st4" x1="225.5" y1="180.2" x2="247.8" y2="169"/>
		<g id="gge7744">
			<circle class="st10" cx="236.7" cy="198.1" r="4.5"/>
			<path class="st4" d="M236.7,198.1v-11.2"/>
			<text transform="matrix(-1.836970e-16 -1 1 -1.836970e-16 236.664 177.9766)" class="st11 st0 st8">2</text>
			<text transform="matrix(-1.836970e-16 -1 1 -1.836970e-16 227.7275 205.791)" class="st11 st0 st8">2</text>
			<circle class="st12" cx="236.7" cy="193.6" r="6.7"/>
			<path class="st13" d="M243.4,186.9l-6.7-6.7l-6.7,6.7"/>
		</g>
		<line id="gge7751" class="st4" x1="225.5" y1="137.8" x2="247.8" y2="126.6"/>
		<line id="gge7752" class="st4" x1="225.5" y1="157.9" x2="247.8" y2="148.9"/>
		<line id="gge7753" class="st4" x1="247.8" y1="148.9" x2="225.5" y2="137.8"/>
		<line id="gge7754" class="st4" x1="247.8" y1="126.6" x2="236.7" y2="119.9"/>
		<g id="gge7755">
			<circle class="st10" cx="236.7" cy="108.7" r="4.5"/>
			<path class="st4" d="M236.7,108.7v11.2"/>
			<text transform="matrix(-1.836970e-16 -1 1 -1.836970e-16 236.664 138.7695)" class="st11 st0 st8">1</text>
			<text transform="matrix(-1.836970e-16 -1 1 -1.836970e-16 227.7275 110.9551)" class="st11 st0 st8">1</text>
			<circle class="st12" cx="236.7" cy="113.2" r="6.7"/>
			<path class="st13" d="M230,119.9l6.7,6.7l6.7-6.7"/>
		</g>
	</g>
	<g id="gge7763">
		<g id="gge7765" class="st5">
			<text transform="matrix(1 0 0 1 252.3037 315.082)" class="st6 st7 st8">1k</text>
		</g>
		<g id="gge7767" class="st5">
			<text transform="matrix(1 0 0 1 252.3037 294.4844)" class="st6 st7 st8">R115</text>
		</g>
		<line id="gge7769" class="st4" x1="236.7" y1="321" x2="225.5" y2="314.3"/>
		<line id="gge7770" class="st4" x1="247.8" y1="303.1" x2="225.5" y2="291.9"/>
		<line id="gge7771" class="st4" x1="225.5" y1="314.3" x2="247.8" y2="303.1"/>
		<g id="gge7772">
			<circle class="st10" cx="236.7" cy="332.1" r="4.5"/>
			<path class="st4" d="M236.7,332.1V321"/>
			<text transform="matrix(-1.836970e-16 -1 1 -1.836970e-16 236.664 312.0195)" class="st11 st0 st8">2</text>
			<text transform="matrix(-1.836970e-16 -1 1 -1.836970e-16 227.7275 339.834)" class="st11 st0 st8">2</text>
			<circle class="st12" cx="236.7" cy="327.7" r="6.7"/>
			<path class="st13" d="M243.4,321l-6.7-6.7L230,321"/>
		</g>
		<line id="gge7779" class="st4" x1="225.5" y1="271.8" x2="247.8" y2="260.6"/>
		<line id="gge7780" class="st4" x1="225.5" y1="291.9" x2="247.8" y2="283"/>
		<line id="gge7781" class="st4" x1="247.8" y1="283" x2="225.5" y2="271.8"/>
		<line id="gge7782" class="st4" x1="247.8" y1="260.6" x2="236.7" y2="253.9"/>
		<g id="gge7783">
			<circle class="st10" cx="236.7" cy="242.8" r="4.5"/>
			<path class="st4" d="M236.7,242.8v11.2"/>
			<text transform="matrix(-1.836970e-16 -1 1 -1.836970e-16 236.664 272.8125)" class="st11 st0 st8">1</text>
			<text transform="matrix(-1.836970e-16 -1 1 -1.836970e-16 227.7275 244.998)" class="st11 st0 st8">1</text>
			<circle class="st12" cx="236.7" cy="247.2" r="6.7"/>
			<path class="st13" d="M230,253.9l6.7,6.7l6.7-6.7"/>
		</g>
	</g>
	<g id="gge7791">
		<g id="gge7793" class="st5">
			<text transform="matrix(1 0 0 1 290.707 202.5537)" class="st6 st7 st8">1k</text>
		</g>
		<g id="gge7795" class="st5">
			<text transform="matrix(1 0 0 1 290.707 181.9551)" class="st6 st7 st8">R116</text>
		</g>
		<line id="gge7797" class="st4" x1="348.4" y1="220.4" x2="341.7" y2="231.6"/>
		<line id="gge7798" class="st4" x1="330.5" y1="209.3" x2="319.3" y2="231.6"/>
		<line id="gge7799" class="st4" x1="341.7" y1="231.6" x2="330.5" y2="209.3"/>
		<g id="gge7800">
			<circle class="st10" cx="359.5" cy="220.4" r="4.5"/>
			<path class="st4" d="M359.5,220.4h-11.2"/>
			<text transform="matrix(1 0 0 1 329.4892 220.4258)" class="st11 st0 st8">2</text>
			<text transform="matrix(1 0 0 1 357.3037 211.4893)" class="st11 st0 st8">2</text>
			<circle class="st12" cx="355.1" cy="220.4" r="6.7"/>
			<path class="st13" d="M348.4,213.7l-6.7,6.7l6.7,6.7"/>
		</g>
		<line id="gge7807" class="st4" x1="299.2" y1="231.6" x2="288" y2="209.3"/>
		<line id="gge7808" class="st4" x1="319.3" y1="231.6" x2="310.4" y2="209.3"/>
		<line id="gge7809" class="st4" x1="310.4" y1="209.3" x2="299.2" y2="231.6"/>
		<line id="gge7810" class="st4" x1="288" y1="209.3" x2="281.3" y2="220.4"/>
		<g id="gge7811">
			<circle class="st10" cx="270.2" cy="220.4" r="4.5"/>
			<path class="st4" d="M270.2,220.4h11.2"/>
			<text transform="matrix(1 0 0 1 290.2822 220.4258)" class="st11 st0 st8">1</text>
			<text transform="matrix(1 0 0 1 262.4677 211.4893)" class="st11 st0 st8">1</text>
			<circle class="st12" cx="274.6" cy="220.4" r="6.7"/>
			<path class="st13" d="M281.3,227.1l6.7-6.7l-6.7-6.7"/>
		</g>
	</g>
	<g id="gge7819">
		<g id="gge7821" class="st5">
			<text transform="matrix(1 0 0 1 296.4931 50.6387)" class="st6 st7 st8">1u</text>
		</g>
		<g id="gge7823" class="st5">
			<text transform="matrix(1 0 0 1 296.4931 30.5322)" class="st6 st7 st8">C13</text>
		</g>
		<line id="gge7825" class="st4" x1="310.4" y1="93.1" x2="310.4" y2="57.3"/>
		<g id="gge7826">
			<circle class="st10" cx="270.2" cy="75.2" r="4.5"/>
			<path class="st4" d="M292.5,75.2h-22.3"/>
			<text transform="matrix(1 0 0 1 301.4521 75.2129)" class="st11 st0 st8">1</text>
			<text transform="matrix(1 0 0 1 273.6377 66.2764)" class="st11 st0 st8">1</text>
			<circle class="st12" cx="241.1" cy="75.2" r="6.7"/>
			<path class="st13" d="M247.8,81.9l6.7-6.7l-6.7-6.7"/>
		</g>
		<line id="gge7833" class="st4" x1="337.2" y1="75.2" x2="319.3" y2="75.2"/>
		<line id="gge7834" class="st4" x1="319.3" y1="57.3" x2="319.3" y2="93.1"/>
		<g id="gge7835">
			<circle class="st10" cx="359.5" cy="75.2" r="4.5"/>
			<path class="st4" d="M337.2,75.2h22.3"/>
			<text transform="matrix(1 0 0 1 318.3193 75.2129)" class="st11 st0 st8">2</text>
			<text transform="matrix(1 0 0 1 346.1328 66.2764)" class="st11 st0 st8">2</text>
			<circle class="st12" cx="388.6" cy="75.2" r="6.7"/>
			<path class="st13" d="M381.9,68.5l-6.7,6.7l6.7,6.7"/>
		</g>
		<line id="gge7842" class="st4" x1="310.4" y1="75.2" x2="292.5" y2="75.2"/>
	</g>
	<g id="gge7844">
		<g id="gge7846" class="st5">
			<text transform="matrix(1 0 0 1 407.1894 315.1494)" class="st6 st7 st8">1m</text>
		</g>
		<g id="gge7848" class="st5">
			<text transform="matrix(1 0 0 1 407.1894 294.6855)" class="st6 st7 st8">L12</text>
		</g>
		<g id="gge7850">
			<circle class="st10" cx="393" cy="332.1" r="4.5"/>
			<path class="st4" d="M393,332.1v-6.7"/>
			<text transform="matrix(-1.836970e-16 -1 1 -1.836970e-16 393.0468 316.4883)" class="st11 st0 st8">2</text>
			<text transform="matrix(-1.836970e-16 -1 1 -1.836970e-16 384.1103 344.3027)" class="st11 st0 st8">2</text>
			<circle class="st12" cx="393" cy="332.1" r="6.7"/>
			<path class="st13" d="M399.7,325.4l-6.7-6.7l-6.7,6.7"/>
		</g>
		<g id="gge7857">
			<circle class="st10" cx="393" cy="242.8" r="4.5"/>
			<path class="st4" d="M393,242.8v6.7"/>
			<text transform="matrix(-1.836970e-16 -1 1 -1.836970e-16 393.0468 268.3438)" class="st11 st0 st8">1</text>
			<text transform="matrix(-1.836970e-16 -1 1 -1.836970e-16 384.1103 240.5312)" class="st11 st0 st8">1</text>
			<circle class="st12" cx="393" cy="242.8" r="6.7"/>
			<path class="st13" d="M386.3,249.5l6.7,6.7l6.7-6.7"/>
		</g>
		<path id="gge7864" class="st4" d="M393.2,249.7c4.8-0.5,9,3.2,9.5,8.1c0.4,4.9-3.1,9.3-7.9,9.7c-0.5,0.1-1.1,0.1-1.6,0"/>
		<path id="gge7865" class="st4" d="M393.2,268.7c4.8-0.5,9,3.2,9.5,8.1c0.4,4.9-3.1,9.3-7.9,9.7c-0.5,0.1-1.1,0.1-1.6,0"/>
		<path id="gge7866" class="st4" d="M393.2,287.6c4.8-0.5,9,3.2,9.5,8.1c0.4,4.9-3.1,9.3-7.9,9.7c-0.5,0.1-1.1,0.1-1.6,0"/>
		<path id="gge7867" class="st4" d="M393.2,306.9c4.8-0.5,9,3.2,9.5,8.1c0.4,4.9-3.1,9.3-7.9,9.7c-0.5,0.1-1.1,0.1-1.6,0"/>
	</g>
	<polyline id="gge7868" class="st4" points="359.5,220.4 393,220.4 393,242.8 	"/>
	<polyline id="gge7869" class="st4" points="393,332.1 393,365.6 80.3,365.6 80.3,276.3 	"/>
	<polyline id="gge7870" class="st4" points="80.3,186.9 80.3,75.2 270.2,75.2 	"/>
	<polyline id="gge7871" class="st4" points="359.5,75.2 393,75.2 393,220.4 	"/>
	<line id="gge7873" class="st4" x1="236.7" y1="332.1" x2="236.7" y2="365.6"/>
	<polyline id="gge7875" class="st4" points="236.7,242.8 236.7,220.4 270.2,220.4 	"/>
	<line id="gge7876" class="st4" x1="236.7" y1="198.1" x2="236.7" y2="220.4"/>
	<line id="gge7878" class="st4" x1="236.7" y1="108.7" x2="236.7" y2="75.2"/>
	<polyline id="gge7884" class="st4" points="437.7,19.4 236.7,19.4 236.7,75.2 	"/>
	<line id="gge7885" class="st4" x1="437.7" y1="75.2" x2="393" y2="75.2"/>
	<g id="gge7888">
		<text transform="matrix(1 0 0 1 292.5166 198.085)" class="st14 st3">2Ω</text>
	</g>
	<g id="gge7891">
		<text transform="matrix(1 0 0 1 292.5166 52.8721)" class="st14 st3">-j8Ω</text>
	</g>
	<g id="gge7894">
		<text transform="matrix(1 0 0 1 415.3886 298.6172)" class="st14 st3">j4Ω</text>
	</g>
	<g id="gge7897">
		<text transform="matrix(1 0 0 1 191.9843 164.5742)" class="st14 st3">2Ω</text>
	</g>
	<g id="gge7900">
		<text transform="matrix(1 0 0 1 191.9843 298.6172)" class="st14 st3">2Ω</text>
	</g>
	<g id="gge7913">
		<text transform="matrix(1 0 0 1 24.4306 231.5957)" class="st15 st0 st3">Vs</text>
	</g>
	<g id="gge7886">
		<circle class="st10" cx="393" cy="75.2" r="4.5"/>
		<circle cx="393" cy="75.2" r="5.6"/>
	</g>
	<g id="gge7877">
		<circle class="st10" cx="236.7" cy="220.4" r="4.5"/>
		<circle cx="236.7" cy="220.4" r="5.6"/>
	</g>
	<g id="gge7874">
		<circle class="st10" cx="236.7" cy="365.6" r="4.5"/>
		<circle cx="236.7" cy="365.6" r="5.6"/>
	</g>
	<g id="gge7872">
		<circle class="st10" cx="393" cy="220.4" r="4.5"/>
		<circle cx="393" cy="220.4" r="5.6"/>
	</g>
	<g id="gge7879">
		<circle class="st10" cx="236.7" cy="75.2" r="4.5"/>
		<circle cx="236.7" cy="75.2" r="5.6"/>
	</g>
	<g id="gge7707">
		<path d="M437.7,30.5l-8.9,4.5l8.9-11.2l8.9,11.2L437.7,30.5z"/>
	</g>
	<g id="gge7709">
		<path d="M437.7,64l8.9-4.5l-8.9,11.2l-8.9-11.2L437.7,64z"/>
	</g>
</g>
<g>
	<g id="ni34a4_1_">
		
			<image style="overflow:visible;" width="1200" height="423" id="ni34a4_00000114052095137766275830000010247063283131300264_" xlink:href="9B47917BC3124426.png"  transform="matrix(3.635557e-02 0 0 3.635557e-02 446.6044 364.6412)">
		</image>
	</g>
	<g>
		<text transform="matrix(1 0 0 1 446.4121 387.9828)" class="st16 st17">UBC Engineering</text>
	</g>
</g>
</svg>
