<?xml version="1.0" encoding="utf-8"?>
<!-- Generator: Adobe Illustrator 26.3.1, SVG Export Plug-In . SVG Version: 6.00 Build 0)  -->
<svg version="1.1" id="Layer_1" xmlns="http://www.w3.org/2000/svg" xmlns:xlink="http://www.w3.org/1999/xlink" x="0px" y="0px"
	 viewBox="0 0 900 400" style="enable-background:new 0 0 900 400;" xml:space="preserve">
<style type="text/css">
	.st0{fill:#0066CC;}
	.st1{font-family:'Verdana';}
	.st2{font-size:20.1429px;}
	.st3{display:none;}
	.st4{display:inline;}
	.st5{font-family:'ArialMT';}
	.st6{font-size:18.8px;}
	.st7{fill:none;stroke:#000000;stroke-width:2.6857;}
	.st8{fill:none;}
	.st9{fill:none;stroke:#000000;stroke-width:2.6857;stroke-linecap:round;stroke-linejoin:round;}
	.st10{display:none;enable-background:new    ;}
	.st11{display:none;fill:none;stroke:#000000;stroke-width:2.6857;}
	.st12{display:none;fill:none;stroke:#000000;stroke-width:2.6857;stroke-linecap:round;stroke-linejoin:round;}
	.st13{fill:none;stroke:#008800;stroke-width:2.6857;stroke-linecap:round;}
	.st14{font-family:'Helvetica';}
	.st15{fill:none;stroke:#FFFFFF;stroke-width:2.6857;}
	.st16{fill:#FF3366;}
	.st17{font-family:'Folio-Medium';}
	.st18{font-size:5.504px;}
</style>
<g id="g1">
	<g id="gge1921">
		<text transform="matrix(1 0 0 1 67.2861 213.4277)" class="st0 st1 st2">Vs</text>
	</g>
	<g id="gge1923">
		<g id="gge1925" class="st3">
			<text transform="matrix(1 0 0 1 166.6572 233.2744)" class="st4 st5 st6">SIN(0 1 50) AC 1 0</text>
		</g>
		<g id="gge1927" class="st3">
			<text transform="matrix(1 0 0 1 174.7148 209.8818)" class="st4 st5 st6">V3</text>
		</g>
		<ellipse id="gge1929" class="st7" cx="134.4" cy="200" rx="26.9" ry="26.9"/>
		<g id="gge1930">
			<circle class="st8" cx="134.4" cy="146.3" r="5.4"/>
			<path class="st9" d="M134.4,173.1v-26.9"/>
			<text transform="matrix(-1.836970e-16 -1 1 -1.836970e-16 134.4277 190.4648)" class="st10 st1 st6">1</text>
			<text transform="matrix(-1.836970e-16 -1 1 -1.836970e-16 123.6846 162.4004)" class="st10 st1 st6">1</text>
			<circle class="st11" cx="134.4" cy="111.4" r="8.1"/>
			<path class="st12" d="M126.4,119.4l8.1,8.1l8.1-8.1"/>
		</g>
		<line id="gge1937" class="st9" x1="129.1" y1="183.9" x2="139.8" y2="183.9"/>
		<line id="gge1938" class="st9" x1="134.4" y1="178.5" x2="134.4" y2="189.3"/>
		<g id="gge1939">
			<circle class="st8" cx="134.4" cy="253.7" r="5.4"/>
			<path class="st9" d="M134.4,226.9v26.9"/>
			<text transform="matrix(-1.836970e-16 -1 1 -1.836970e-16 134.4277 216.1133)" class="st10 st1 st6">2</text>
			<text transform="matrix(-1.836970e-16 -1 1 -1.836970e-16 123.6846 249.5508)" class="st10 st1 st6">2</text>
			<circle class="st11" cx="134.4" cy="288.6" r="8.1"/>
			<path class="st12" d="M142.5,280.6l-8.1-8.1l-8.1,8.1"/>
		</g>
		<line id="gge1946" class="st9" x1="139.8" y1="216.1" x2="129.1" y2="216.1"/>
	</g>
	<g id="gge1947">
		<g id="gge1949" class="st3">
			<text transform="matrix(1 0 0 1 225.8506 71.085)" class="st4 st5 st6">1k</text>
		</g>
		<g id="gge1951" class="st3">
			<text transform="matrix(1 0 0 1 225.8506 46.6182)" class="st4 st5 st6">R28</text>
		</g>
		<line id="gge1953" class="st9" x1="282.1" y1="92.6" x2="274.1" y2="106"/>
		<line id="gge1954" class="st9" x1="260.7" y1="79.1" x2="247.2" y2="106"/>
		<line id="gge1955" class="st9" x1="274.1" y1="106" x2="260.7" y2="79.1"/>
		<g id="gge1956">
			<circle class="st8" cx="295.6" cy="92.6" r="5.4"/>
			<path class="st9" d="M295.6,92.6h-13.4"/>
			<text transform="matrix(1 0 0 1 259.4482 92.5703)" class="st10 st1 st6">2</text>
			<text transform="matrix(1 0 0 1 292.8857 81.8271)" class="st10 st1 st6">2</text>
			<circle class="st11" cx="290.2" cy="92.6" r="8.1"/>
			<path class="st12" d="M282.1,84.5l-8.1,8.1l8.1,8.1"/>
		</g>
		<line id="gge1963" class="st9" x1="223.1" y1="106" x2="209.6" y2="79.1"/>
		<line id="gge1964" class="st9" x1="247.2" y1="106" x2="236.5" y2="79.1"/>
		<line id="gge1965" class="st9" x1="236.5" y1="79.1" x2="223.1" y2="106"/>
		<line id="gge1966" class="st9" x1="209.6" y1="79.1" x2="201.6" y2="92.6"/>
		<g id="gge1967">
			<circle class="st8" cx="188.1" cy="92.6" r="5.4"/>
			<path class="st9" d="M188.1,92.6h13.4"/>
			<text transform="matrix(1 0 0 1 212.3145 92.5703)" class="st10 st1 st6">1</text>
			<text transform="matrix(1 0 0 1 178.877 81.8271)" class="st10 st1 st6">1</text>
			<circle class="st11" cx="193.5" cy="92.6" r="8.1"/>
			<path class="st12" d="M201.6,100.6l8.1-8.1l-8.1-8.1"/>
		</g>
	</g>
	<polyline id="gge2022" class="st9" points="295.6,307.4 134.4,307.4 134.4,253.7 	"/>
	<polyline id="gge2023" class="st9" points="134.4,146.3 134.4,92.6 188.1,92.6 	"/>
	<polyline id="gge2048" class="st9" points="403,92.6 349.3,92.6 295.6,92.6 	"/>
	<g id="gge2049">
		<g id="gge2051" class="st3">
			<text transform="matrix(1 0 0 1 368.0859 233.2207)" class="st4 st5 st6">1k</text>
		</g>
		<g id="gge2053" class="st3">
			<text transform="matrix(1 0 0 1 368.0859 208.459)" class="st4 st5 st6">R31</text>
		</g>
		<line id="gge2055" class="st9" x1="349.3" y1="159.7" x2="362.7" y2="167.8"/>
		<line id="gge2056" class="st9" x1="335.9" y1="181.2" x2="362.7" y2="194.6"/>
		<line id="gge2057" class="st9" x1="362.7" y1="167.8" x2="335.9" y2="181.2"/>
		<g id="gge2058">
			<circle class="st8" cx="349.3" cy="146.3" r="5.4"/>
			<path class="st9" d="M349.3,146.3v13.4"/>
			<text transform="matrix(-1.836970e-16 -1 1 -1.836970e-16 349.2842 182.4082)" class="st10 st1 st6">2</text>
			<text transform="matrix(-1.836970e-16 -1 1 -1.836970e-16 338.542 148.9707)" class="st10 st1 st6">2</text>
			<circle class="st11" cx="349.3" cy="151.7" r="8.1"/>
			<path class="st12" d="M341.2,159.7l8.1,8.1l8.1-8.1"/>
		</g>
		<line id="gge2065" class="st9" x1="362.7" y1="218.8" x2="335.9" y2="232.2"/>
		<line id="gge2066" class="st9" x1="362.7" y1="194.6" x2="335.9" y2="205.4"/>
		<line id="gge2067" class="st9" x1="335.9" y1="205.4" x2="362.7" y2="218.8"/>
		<line id="gge2068" class="st9" x1="335.9" y1="232.2" x2="349.3" y2="240.3"/>
		<g id="gge2069">
			<circle class="st8" cx="349.3" cy="253.7" r="5.4"/>
			<path class="st9" d="M349.3,253.7v-13.4"/>
			<text transform="matrix(-1.836970e-16 -1 1 -1.836970e-16 349.2842 229.543)" class="st10 st1 st6">1</text>
			<text transform="matrix(-1.836970e-16 -1 1 -1.836970e-16 338.542 262.9805)" class="st10 st1 st6">1</text>
			<circle class="st11" cx="349.3" cy="248.3" r="8.1"/>
			<path class="st12" d="M357.3,240.3l-8.1-8.1l-8.1,8.1"/>
		</g>
	</g>
	<g id="gge2076">
		<g id="gge2078" class="st3">
			<text transform="matrix(1 0 0 1 433.7246 71.085)" class="st4 st5 st6">1k</text>
		</g>
		<g id="gge2080" class="st3">
			<text transform="matrix(1 0 0 1 433.7246 46.3223)" class="st4 st5 st6">R32</text>
		</g>
		<line id="gge2082" class="st9" x1="416.4" y1="92.6" x2="424.5" y2="79.1"/>
		<line id="gge2083" class="st9" x1="437.9" y1="106" x2="451.3" y2="79.1"/>
		<line id="gge2084" class="st9" x1="424.5" y1="79.1" x2="437.9" y2="106"/>
		<g id="gge2085">
			<circle class="st8" cx="403" cy="92.6" r="5.4"/>
			<path class="st9" d="M403,92.6h13.4"/>
			<text transform="matrix(1 0 0 1 427.1719 92.5703)" class="st10 st1 st6">2</text>
			<text transform="matrix(1 0 0 1 393.7344 81.8271)" class="st10 st1 st6">2</text>
			<circle class="st11" cx="408.4" cy="92.6" r="8.1"/>
			<path class="st12" d="M416.4,100.6l8.1-8.1l-8.1-8.1"/>
		</g>
		<line id="gge2092" class="st9" x1="475.5" y1="79.1" x2="488.9" y2="106"/>
		<line id="gge2093" class="st9" x1="451.3" y1="79.1" x2="462.1" y2="106"/>
		<line id="gge2094" class="st9" x1="462.1" y1="106" x2="475.5" y2="79.1"/>
		<line id="gge2095" class="st9" x1="488.9" y1="106" x2="497" y2="92.6"/>
		<g id="gge2096">
			<circle class="st8" cx="510.4" cy="92.6" r="5.4"/>
			<path class="st9" d="M510.4,92.6H497"/>
			<text transform="matrix(1 0 0 1 474.3057 92.5703)" class="st10 st1 st6">1</text>
			<text transform="matrix(1 0 0 1 507.7432 81.8271)" class="st10 st1 st6">1</text>
			<circle class="st11" cx="505.1" cy="92.6" r="8.1"/>
			<path class="st12" d="M497,84.5l-8.1,8.1l8.1,8.1"/>
		</g>
	</g>
	<g id="gge2130">
		<g id="gge2132" class="st3">
			<text transform="matrix(1 0 0 1 582.9434 233.2207)" class="st4 st5 st6">1k</text>
		</g>
		<g id="gge2134" class="st3">
			<text transform="matrix(1 0 0 1 582.9434 208.459)" class="st4 st5 st6">R34</text>
		</g>
		<line id="gge2136" class="st9" x1="564.1" y1="240.3" x2="550.7" y2="232.2"/>
		<line id="gge2137" class="st9" x1="577.6" y1="218.8" x2="550.7" y2="205.4"/>
		<line id="gge2138" class="st9" x1="550.7" y1="232.2" x2="577.6" y2="218.8"/>
		<g id="gge2139">
			<circle class="st8" cx="564.1" cy="253.7" r="5.4"/>
			<path class="st9" d="M564.1,253.7v-13.4"/>
			<text transform="matrix(-1.836970e-16 -1 1 -1.836970e-16 564.1416 229.543)" class="st10 st1 st6">2</text>
			<text transform="matrix(-1.836970e-16 -1 1 -1.836970e-16 553.3984 262.9805)" class="st10 st1 st6">2</text>
			<circle class="st11" cx="564.1" cy="248.3" r="8.1"/>
			<path class="st12" d="M572.2,240.3l-8.1-8.1l-8.1,8.1"/>
		</g>
		<line id="gge2146" class="st9" x1="550.7" y1="181.2" x2="577.6" y2="167.8"/>
		<line id="gge2147" class="st9" x1="550.7" y1="205.4" x2="577.6" y2="194.6"/>
		<line id="gge2148" class="st9" x1="577.6" y1="194.6" x2="550.7" y2="181.2"/>
		<line id="gge2149" class="st9" x1="577.6" y1="167.8" x2="564.1" y2="159.7"/>
		<g id="gge2150">
			<circle class="st8" cx="564.1" cy="146.3" r="5.4"/>
			<path class="st9" d="M564.1,146.3v13.4"/>
			<text transform="matrix(-1.836970e-16 -1 1 -1.836970e-16 564.1416 182.4082)" class="st10 st1 st6">1</text>
			<text transform="matrix(-1.836970e-16 -1 1 -1.836970e-16 553.3984 148.9707)" class="st10 st1 st6">1</text>
			<circle class="st11" cx="564.1" cy="151.7" r="8.1"/>
			<path class="st12" d="M556.1,159.7l8.1,8.1l8.1-8.1"/>
		</g>
	</g>
	<g id="gge2157">
		<g id="gge2159" class="st3">
			<text transform="matrix(1 0 0 1 648.582 71.085)" class="st4 st5 st6">1k</text>
		</g>
		<g id="gge2161" class="st3">
			<text transform="matrix(1 0 0 1 648.582 46.3223)" class="st4 st5 st6">R35</text>
		</g>
		<line id="gge2163" class="st9" x1="711.9" y1="92.6" x2="703.8" y2="106"/>
		<line id="gge2164" class="st9" x1="690.4" y1="79.1" x2="676.9" y2="106"/>
		<line id="gge2165" class="st9" x1="703.8" y1="106" x2="690.4" y2="79.1"/>
		<g id="gge2166">
			<circle class="st8" cx="725.3" cy="92.6" r="5.4"/>
			<path class="st9" d="M725.3,92.6h-13.4"/>
			<text transform="matrix(1 0 0 1 689.1631 92.5703)" class="st10 st1 st6">2</text>
			<text transform="matrix(1 0 0 1 722.6006 81.8271)" class="st10 st1 st6">2</text>
			<circle class="st11" cx="719.9" cy="92.6" r="8.1"/>
			<path class="st12" d="M711.9,84.5l-8.1,8.1l8.1,8.1"/>
		</g>
		<line id="gge2173" class="st9" x1="652.8" y1="106" x2="639.3" y2="79.1"/>
		<line id="gge2174" class="st9" x1="676.9" y1="106" x2="666.2" y2="79.1"/>
		<line id="gge2175" class="st9" x1="666.2" y1="79.1" x2="652.8" y2="106"/>
		<line id="gge2176" class="st9" x1="639.3" y1="79.1" x2="631.3" y2="92.6"/>
		<g id="gge2177">
			<circle class="st8" cx="617.9" cy="92.6" r="5.4"/>
			<path class="st9" d="M617.9,92.6h13.4"/>
			<text transform="matrix(1 0 0 1 642.0293 92.5703)" class="st10 st1 st6">1</text>
			<text transform="matrix(1 0 0 1 608.5918 81.8271)" class="st10 st1 st6">1</text>
			<circle class="st11" cx="623.2" cy="92.6" r="8.1"/>
			<path class="st12" d="M631.3,100.6l8.1-8.1l-8.1-8.1"/>
		</g>
	</g>
	<g id="gge2184">
		<g id="gge2186" class="st3">
			<text transform="matrix(1 0 0 1 797.8008 233.2207)" class="st4 st5 st6">1k</text>
		</g>
		<g id="gge2188" class="st3">
			<text transform="matrix(1 0 0 1 797.8008 208.459)" class="st4 st5 st6">R36</text>
		</g>
		<line id="gge2190" class="st9" x1="779" y1="159.7" x2="792.4" y2="167.8"/>
		<line id="gge2191" class="st9" x1="765.6" y1="181.2" x2="792.4" y2="194.6"/>
		<line id="gge2192" class="st9" x1="792.4" y1="167.8" x2="765.6" y2="181.2"/>
		<g id="gge2193">
			<circle class="st8" cx="779" cy="146.3" r="5.4"/>
			<path class="st9" d="M779,146.3v13.4"/>
			<text transform="matrix(-1.836970e-16 -1 1 -1.836970e-16 778.999 182.4082)" class="st10 st1 st6">2</text>
			<text transform="matrix(-1.836970e-16 -1 1 -1.836970e-16 768.2559 148.9707)" class="st10 st1 st6">2</text>
			<circle class="st11" cx="779" cy="151.7" r="8.1"/>
			<path class="st12" d="M770.9,159.7l8.1,8.1l8.1-8.1"/>
		</g>
		<line id="gge2200" class="st9" x1="792.4" y1="218.8" x2="765.6" y2="232.2"/>
		<line id="gge2201" class="st9" x1="792.4" y1="194.6" x2="765.6" y2="205.4"/>
		<line id="gge2202" class="st9" x1="765.6" y1="205.4" x2="792.4" y2="218.8"/>
		<line id="gge2203" class="st9" x1="765.6" y1="232.2" x2="779" y2="240.3"/>
		<g id="gge2204">
			<circle class="st8" cx="779" cy="253.7" r="5.4"/>
			<path class="st9" d="M779,253.7v-13.4"/>
			<text transform="matrix(-1.836970e-16 -1 1 -1.836970e-16 778.999 229.543)" class="st10 st1 st6">1</text>
			<text transform="matrix(-1.836970e-16 -1 1 -1.836970e-16 768.2559 262.9805)" class="st10 st1 st6">1</text>
			<circle class="st11" cx="779" cy="248.3" r="8.1"/>
			<path class="st12" d="M787.1,240.3l-8.1-8.1l-8.1,8.1"/>
		</g>
	</g>
	<polyline id="gge2211" class="st9" points="725.3,92.6 779,92.6 779,146.3 	"/>
	<line id="gge2212" class="st9" x1="617.9" y1="92.6" x2="510.4" y2="92.6"/>
	<line id="gge2213" class="st9" x1="349.3" y1="146.3" x2="349.3" y2="92.6"/>
	<polyline id="gge2214" class="st9" points="349.3,253.7 349.3,307.4 510.4,307.4 	"/>
	<line id="gge2215" class="st9" x1="295.6" y1="307.4" x2="349.3" y2="307.4"/>
	<polyline id="gge2216" class="st9" points="510.4,307.4 564.1,307.4 564.1,253.7 	"/>
	<line id="gge2217" class="st9" x1="564.1" y1="146.3" x2="564.1" y2="92.6"/>
	<g id="gge2240">
		<g id="gge2242" class="st3">
			<text transform="matrix(1 0 0 1 433.7246 147.6807)" class="st4 st5 st6">1k</text>
		</g>
		<g id="gge2244" class="st3">
			<text transform="matrix(1 0 0 1 433.7246 122.9189)" class="st4 st5 st6">R38</text>
		</g>
		<polyline id="gge2246" class="st9" points="497,240.3 486.1,228.7 471.5,233.6 479.4,204.2 451.3,214 461.4,185.6 433.6,196.1 
			440.5,167.9 428.6,170.7 416.4,159.7 		"/>
		<g id="gge2247">
			<circle class="st8" cx="497" cy="240.3" r="5.4"/>
			<path class="st9" d="M497,240.3L497,240.3"/>
			<text transform="matrix(1 0 0 1 479.6768 248.3418)" class="st10 st1 st6">1</text>
			<text transform="matrix(1 0 0 1 510.4287 237.5986)" class="st10 st1 st6">1</text>
			<circle class="st11" cx="505.1" cy="240.3" r="8.1"/>
			<path class="st12" d="M497,232.2l-8.1,8.1l8.1,8.1"/>
		</g>
		<g id="gge2254">
			<circle class="st8" cx="416.4" cy="159.7" r="5.4"/>
			<path class="st9" d="M416.4,159.7L416.4,159.7"/>
			<text transform="matrix(1 0 0 1 421.8008 167.7705)" class="st10 st1 st6">2</text>
			<text transform="matrix(1 0 0 1 391.0488 157.0273)" class="st10 st1 st6">2</text>
			<circle class="st11" cx="408.4" cy="159.7" r="8.1"/>
			<path class="st12" d="M416.4,167.8l8.1-8.1l-8.1-8.1"/>
		</g>
	</g>
	<g id="gge2285">
		<circle class="st8" cx="497" cy="240.3" r="5.4"/>
		<circle class="st8" cx="523.9" cy="267.1" r="5.4"/>
		<line class="st13" x1="497" y1="240.3" x2="523.9" y2="267.1"/>
	</g>
	<g id="gge2289">
		<circle class="st8" cx="523.9" cy="267.1" r="5.4"/>
		<circle class="st8" cx="550.7" cy="294" r="5.4"/>
		<line class="st13" x1="523.9" y1="267.1" x2="550.7" y2="294"/>
	</g>
	<g id="gge2293">
		<circle class="st8" cx="537.3" cy="280.6" r="5.4"/>
		<circle class="st8" cx="564.1" cy="307.4" r="5.4"/>
		<line class="st13" x1="537.3" y1="280.6" x2="564.1" y2="307.4"/>
	</g>
	<g id="gge2297">
		<circle class="st8" cx="389.6" cy="132.9" r="5.4"/>
		<circle class="st8" cx="416.4" cy="159.7" r="5.4"/>
		<line class="st13" x1="389.6" y1="132.9" x2="416.4" y2="159.7"/>
	</g>
	<g id="gge2301">
		<circle class="st8" cx="376.1" cy="119.4" r="5.4"/>
		<circle class="st8" cx="403" cy="146.3" r="5.4"/>
		<line class="st13" x1="376.1" y1="119.4" x2="403" y2="146.3"/>
	</g>
	<g id="gge2305">
		<circle class="st8" cx="349.3" cy="92.6" r="5.4"/>
		<circle class="st8" cx="376.1" cy="119.4" r="5.4"/>
		<line class="st13" x1="349.3" y1="92.6" x2="376.1" y2="119.4"/>
	</g>
	<g id="gge2309">
		<text transform="matrix(1 0 0 1 215.001 65.7129)" class="st14 st2">4kΩ</text>
	</g>
	<g id="gge2313">
		<text transform="matrix(1 0 0 1 429.8574 65.7129)" class="st14 st2">5kΩ</text>
	</g>
	<g id="gge2315">
		<text transform="matrix(1 0 0 1 644.7148 65.7129)" class="st14 st2">1kΩ</text>
	</g>
	<g id="gge2319">
		<text transform="matrix(1 0 0 1 282.1436 211.3057)" class="st14 st2">2kΩ</text>
	</g>
	<g id="gge2323">
		<text transform="matrix(1 0 0 1 443.2861 173.1416)" class="st14 st2">6kΩ</text>
	</g>
	<g id="gge2325">
		<text transform="matrix(1 0 0 1 577.5723 199.999)" class="st14 st2">1.5kΩ</text>
	</g>
	<rect id="gge2331" x="53.9" y="38.9" class="st15" width="792.3" height="322.3"/>
	<g id="gge2334">
		<text transform="matrix(1 0 0 1 147.8574 79.1416)" class="st16 st1 st2">I1</text>
	</g>
	<g id="gge2360">
		<g id="gge2362" class="st3">
			<text transform="matrix(1 0 0 1 648.582 285.9414)" class="st4 st5 st6">1k</text>
		</g>
		<g id="gge2364" class="st3">
			<text transform="matrix(1 0 0 1 648.582 261.1797)" class="st4 st5 st6">R29</text>
		</g>
		<line id="gge2366" class="st9" x1="711.9" y1="307.4" x2="703.8" y2="320.9"/>
		<line id="gge2367" class="st9" x1="690.4" y1="294" x2="676.9" y2="320.9"/>
		<line id="gge2368" class="st9" x1="703.8" y1="320.9" x2="690.4" y2="294"/>
		<g id="gge2369">
			<circle class="st8" cx="725.3" cy="307.4" r="5.4"/>
			<path class="st9" d="M725.3,307.4h-13.4"/>
			<text transform="matrix(1 0 0 1 689.1631 307.4277)" class="st10 st1 st6">2</text>
			<text transform="matrix(1 0 0 1 722.6006 296.6846)" class="st10 st1 st6">2</text>
			<circle class="st11" cx="719.9" cy="307.4" r="8.1"/>
			<path class="st12" d="M711.9,299.4l-8.1,8.1l8.1,8.1"/>
		</g>
		<line id="gge2376" class="st9" x1="652.8" y1="320.9" x2="639.3" y2="294"/>
		<line id="gge2377" class="st9" x1="676.9" y1="320.9" x2="666.2" y2="294"/>
		<line id="gge2378" class="st9" x1="666.2" y1="294" x2="652.8" y2="320.9"/>
		<line id="gge2379" class="st9" x1="639.3" y1="294" x2="631.3" y2="307.4"/>
		<g id="gge2380">
			<circle class="st8" cx="617.9" cy="307.4" r="5.4"/>
			<path class="st9" d="M617.9,307.4h13.4"/>
			<text transform="matrix(1 0 0 1 642.0293 307.4277)" class="st10 st1 st6">1</text>
			<text transform="matrix(1 0 0 1 608.5918 296.6846)" class="st10 st1 st6">1</text>
			<circle class="st11" cx="623.2" cy="307.4" r="8.1"/>
			<path class="st12" d="M631.3,315.5l8.1-8.1l-8.1-8.1"/>
		</g>
	</g>
	<line id="gge2387" class="st9" x1="617.9" y1="307.4" x2="564.1" y2="307.4"/>
	<polyline id="gge2388" class="st9" points="779,253.7 779,307.4 725.3,307.4 	"/>
	<g id="gge2390">
		<text transform="matrix(1 0 0 1 644.7148 347.7129)" class="st14 st2">11kΩ</text>
	</g>
	<g id="gge2393">
		<text transform="matrix(1 0 0 1 792.4287 213.4277)" class="st14 st2">1kΩ</text>
	</g>
	<g id="gge2399">
		<text transform="matrix(1 0 0 1 403.001 132.8564)" class="st16 st1 st2">I3</text>
	</g>
	<g id="gge2405">
		<text transform="matrix(1 0 0 1 362.7148 267.1416)" class="st16 st1 st2">I2</text>
	</g>
	<g id="gge2408">
		<text transform="matrix(1 0 0 1 349.2861 77.7178)" class="st16 st1 st2">a</text>
	</g>
	<g id="gge2411">
		<text transform="matrix(1 0 0 1 349.2861 334.2842)" class="st16 st1 st2">b</text>
	</g>
	<g id="gge2414">
		<text transform="matrix(1 0 0 1 564.1436 334.2842)" class="st16 st1 st2">d</text>
	</g>
	<g id="gge2417">
		<text transform="matrix(1 0 0 1 564.1436 79.1416)" class="st16 st1 st2">c</text>
	</g>
	<g id="gge2348">
		<circle class="st8" cx="564.1" cy="307.4" r="5.4"/>
		<circle cx="564.1" cy="307.4" r="6.7"/>
	</g>
	<g id="gge2342">
		<circle class="st8" cx="349.3" cy="92.6" r="5.4"/>
		<circle cx="349.3" cy="92.6" r="6.7"/>
	</g>
	<g id="gge2339">
		<circle class="st8" cx="349.3" cy="307.4" r="5.4"/>
		<circle cx="349.3" cy="307.4" r="6.7"/>
	</g>
	<g id="gge2336">
		<circle class="st8" cx="564.1" cy="92.6" r="5.4"/>
		<circle cx="564.1" cy="92.6" r="6.7"/>
	</g>
	<g id="gge2333">
		<path d="M174.7,92.6l-5.4-10.7l13.4,10.7l-13.4,10.7L174.7,92.6z"/>
	</g>
	<g id="gge2397">
		<path d="M403,146.3l3.8-11.4l1.9,17.1l-17.1-1.9L403,146.3z"/>
	</g>
	<g id="gge2403">
		<path d="M349.3,280.6l10.7-5.4l-10.7,13.4l-10.7-13.4L349.3,280.6z"/>
	</g>
</g>
<g>
	<g id="ni34a4_1_">
		
			<image style="overflow:visible;" width="1200" height="423" id="ni34a4_00000114052095137766275830000010247063283131300264_" xlink:href="98739B354241F3A0.png"  transform="matrix(3.635557e-02 0 0 3.635557e-02 790.1855 358.6412)">
		</image>
	</g>
	<g>
		<text transform="matrix(1 0 0 1 789.9932 381.9828)" class="st17 st18">UBC Engineering</text>
	</g>
</g>
</svg>
