<?xml version="1.0" encoding="utf-8"?>
<!-- Generator: Adobe Illustrator 26.3.1, SVG Export Plug-In . SVG Version: 6.00 Build 0)  -->
<svg version="1.1" id="Layer_1" xmlns="http://www.w3.org/2000/svg" xmlns:xlink="http://www.w3.org/1999/xlink" x="0px" y="0px"
	 viewBox="0 0 754.6 393" style="enable-background:new 0 0 754.6 393;" xml:space="preserve">
<style type="text/css">
	.st0{display:none;}
	.st1{display:inline;}
	.st2{font-family:'ArialMT';}
	.st3{font-size:21.448px;}
	.st4{fill:none;stroke:#000000;stroke-width:3.064;stroke-linecap:round;stroke-linejoin:round;}
	.st5{fill:none;}
	.st6{display:none;enable-background:new    ;}
	.st7{font-family:'Verdana';}
	.st8{display:none;fill:none;stroke:#000000;stroke-width:3.064;}
	.st9{display:none;fill:none;stroke:#000000;stroke-width:3.064;stroke-linecap:round;stroke-linejoin:round;}
	.st10{fill:none;stroke:#000000;stroke-width:3.064;}
	.st11{font-family:'Helvetica';}
	.st12{font-size:22.98px;}
	.st13{fill:#FF3366;}
	.st14{fill:#0066CC;}
	.st15{font-family:'Folio-Medium';}
	.st16{font-size:5.504px;}
</style>
<g id="g1">
	<g id="gge470">
		<g id="gge472" class="st0">
			<text transform="matrix(1 0 0 1 99.1999 272.0781)" class="st1 st2 st3">1kΩ</text>
		</g>
		<g id="gge474" class="st0">
			<text transform="matrix(1 0 0 1 105.3269 266.4102)" class="st1 st2 st3">R3</text>
		</g>
		<line id="gge476" class="st4" x1="83.9" y1="210.8" x2="99.2" y2="220"/>
		<line id="gge477" class="st4" x1="68.6" y1="235.3" x2="99.2" y2="250.6"/>
		<line id="gge478" class="st4" x1="99.2" y1="220" x2="68.6" y2="235.3"/>
		<g id="gge479">
			<circle class="st5" cx="83.9" cy="195.5" r="6.1"/>
			<path class="st4" d="M83.9,195.5v15.3"/>
			<text transform="matrix(-1.836970e-16 -1 1 -1.836970e-16 83.8796 236.6934)" class="st6 st7 st3">2</text>
			<text transform="matrix(-1.836970e-16 -1 1 -1.836970e-16 71.6218 198.5449)" class="st6 st7 st3">2</text>
			<circle class="st8" cx="83.9" cy="201.6" r="9.2"/>
			<path class="st9" d="M74.7,210.8l9.2,9.2l9.2-9.2"/>
		</g>
		<line id="gge486" class="st4" x1="99.2" y1="278.2" x2="68.6" y2="293.5"/>
		<line id="gge487" class="st4" x1="99.2" y1="250.6" x2="68.6" y2="262.9"/>
		<line id="gge488" class="st4" x1="68.6" y1="262.9" x2="99.2" y2="278.2"/>
		<line id="gge489" class="st4" x1="68.6" y1="293.5" x2="83.9" y2="302.7"/>
		<g id="gge490">
			<circle class="st5" cx="83.9" cy="318" r="6.1"/>
			<path class="st4" d="M83.9,318v-15.3"/>
			<text transform="matrix(-1.836970e-16 -1 1 -1.836970e-16 83.8796 290.4629)" class="st6 st7 st3">1</text>
			<text transform="matrix(-1.836970e-16 -1 1 -1.836970e-16 71.6218 328.6113)" class="st6 st7 st3">1</text>
			<circle class="st8" cx="83.9" cy="311.9" r="9.2"/>
			<path class="st9" d="M93.1,302.7l-9.2-9.2l-9.2,9.2"/>
		</g>
	</g>
	<g id="gge497">
		<g id="gge499" class="st0">
			<text transform="matrix(1 0 0 1 105.3269 172.0996)" class="st1 st2 st3">1k</text>
		</g>
		<g id="gge501" class="st0">
			<text transform="matrix(1 0 0 1 105.3269 143.8496)" class="st1 st2 st3">R4</text>
		</g>
		<line id="gge503" class="st4" x1="83.9" y1="88.2" x2="99.2" y2="97.4"/>
		<line id="gge504" class="st4" x1="68.6" y1="112.8" x2="99.2" y2="128.1"/>
		<line id="gge505" class="st4" x1="99.2" y1="97.4" x2="68.6" y2="112.8"/>
		<g id="gge506">
			<circle class="st5" cx="83.9" cy="72.9" r="6.1"/>
			<path class="st4" d="M83.9,72.9v15.3"/>
			<text transform="matrix(-1.836970e-16 -1 1 -1.836970e-16 83.8796 114.1309)" class="st6 st7 st3">2</text>
			<text transform="matrix(-1.836970e-16 -1 1 -1.836970e-16 71.6218 75.9844)" class="st6 st7 st3">2</text>
			<circle class="st8" cx="83.9" cy="79" r="9.2"/>
			<path class="st9" d="M74.7,88.2l9.2,9.2l9.2-9.2"/>
		</g>
		<line id="gge513" class="st4" x1="99.2" y1="155.6" x2="68.6" y2="171"/>
		<line id="gge514" class="st4" x1="99.2" y1="128.1" x2="68.6" y2="140.3"/>
		<line id="gge515" class="st4" x1="68.6" y1="140.3" x2="99.2" y2="155.6"/>
		<line id="gge516" class="st4" x1="68.6" y1="171" x2="83.9" y2="180.2"/>
		<g id="gge517">
			<circle class="st5" cx="83.9" cy="195.5" r="6.1"/>
			<path class="st4" d="M83.9,195.5v-15.3"/>
			<text transform="matrix(-1.836970e-16 -1 1 -1.836970e-16 83.8796 167.9043)" class="st6 st7 st3">1</text>
			<text transform="matrix(-1.836970e-16 -1 1 -1.836970e-16 71.6218 206.0527)" class="st6 st7 st3">1</text>
			<circle class="st8" cx="83.9" cy="189.4" r="9.2"/>
			<path class="st9" d="M93.1,180.2l-9.2-9.2l-9.2,9.2"/>
		</g>
	</g>
	<g id="gge524">
		<g id="gge526" class="st0">
			<text transform="matrix(1 0 0 1 212.5671 172.0996)" class="st1 st2 st3">1k</text>
		</g>
		<g id="gge528" class="st0">
			<text transform="matrix(1 0 0 1 212.5671 143.8496)" class="st1 st2 st3">R5</text>
		</g>
		<line id="gge530" class="st4" x1="191.1" y1="88.2" x2="206.4" y2="97.4"/>
		<line id="gge531" class="st4" x1="175.8" y1="112.8" x2="206.4" y2="128.1"/>
		<line id="gge532" class="st4" x1="206.4" y1="97.4" x2="175.8" y2="112.8"/>
		<g id="gge533">
			<circle class="st5" cx="191.1" cy="72.9" r="6.1"/>
			<path class="st4" d="M191.1,72.9v15.3"/>
			<text transform="matrix(-1.836970e-16 -1 1 -1.836970e-16 191.1179 114.1309)" class="st6 st7 st3">2</text>
			<text transform="matrix(-1.836970e-16 -1 1 -1.836970e-16 178.862 75.9844)" class="st6 st7 st3">2</text>
			<circle class="st8" cx="191.1" cy="79" r="9.2"/>
			<path class="st9" d="M181.9,88.2l9.2,9.2l9.2-9.2"/>
		</g>
		<line id="gge540" class="st4" x1="206.4" y1="155.6" x2="175.8" y2="171"/>
		<line id="gge541" class="st4" x1="206.4" y1="128.1" x2="175.8" y2="140.3"/>
		<line id="gge542" class="st4" x1="175.8" y1="140.3" x2="206.4" y2="155.6"/>
		<line id="gge543" class="st4" x1="175.8" y1="171" x2="191.1" y2="180.2"/>
		<g id="gge544">
			<circle class="st5" cx="191.1" cy="195.5" r="6.1"/>
			<path class="st4" d="M191.1,195.5v-15.3"/>
			<text transform="matrix(-1.836970e-16 -1 1 -1.836970e-16 191.1179 167.9043)" class="st6 st7 st3">1</text>
			<text transform="matrix(-1.836970e-16 -1 1 -1.836970e-16 178.862 206.0527)" class="st6 st7 st3">1</text>
			<circle class="st8" cx="191.1" cy="189.4" r="9.2"/>
			<path class="st9" d="M200.3,180.2l-9.2-9.2l-9.2,9.2"/>
		</g>
	</g>
	<g id="gge551">
		<g id="gge553" class="st0">
			<text transform="matrix(1 0 0 1 212.5671 294.6602)" class="st1 st2 st3">1k</text>
		</g>
		<g id="gge555" class="st0">
			<text transform="matrix(1 0 0 1 212.5671 266.4102)" class="st1 st2 st3">R6</text>
		</g>
		<line id="gge557" class="st4" x1="191.1" y1="210.8" x2="206.4" y2="220"/>
		<line id="gge558" class="st4" x1="175.8" y1="235.3" x2="206.4" y2="250.6"/>
		<line id="gge559" class="st4" x1="206.4" y1="220" x2="175.8" y2="235.3"/>
		<g id="gge560">
			<circle class="st5" cx="191.1" cy="195.5" r="6.1"/>
			<path class="st4" d="M191.1,195.5v15.3"/>
			<text transform="matrix(-1.836970e-16 -1 1 -1.836970e-16 191.1179 236.6934)" class="st6 st7 st3">2</text>
			<text transform="matrix(-1.836970e-16 -1 1 -1.836970e-16 178.862 198.5449)" class="st6 st7 st3">2</text>
			<circle class="st8" cx="191.1" cy="201.6" r="9.2"/>
			<path class="st9" d="M181.9,210.8l9.2,9.2l9.2-9.2"/>
		</g>
		<line id="gge567" class="st4" x1="206.4" y1="278.2" x2="175.8" y2="293.5"/>
		<line id="gge568" class="st4" x1="206.4" y1="250.6" x2="175.8" y2="262.9"/>
		<line id="gge569" class="st4" x1="175.8" y1="262.9" x2="206.4" y2="278.2"/>
		<line id="gge570" class="st4" x1="175.8" y1="293.5" x2="191.1" y2="302.7"/>
		<g id="gge571">
			<circle class="st5" cx="191.1" cy="318" r="6.1"/>
			<path class="st4" d="M191.1,318v-15.3"/>
			<text transform="matrix(-1.836970e-16 -1 1 -1.836970e-16 191.1179 290.4629)" class="st6 st7 st3">1</text>
			<text transform="matrix(-1.836970e-16 -1 1 -1.836970e-16 178.862 328.6113)" class="st6 st7 st3">1</text>
			<circle class="st8" cx="191.1" cy="311.9" r="9.2"/>
			<path class="st9" d="M200.3,302.7l-9.2-9.2l-9.2,9.2"/>
		</g>
	</g>
	<g id="gge626">
		<g id="gge628" class="st0">
			<text transform="matrix(1 0 0 1 350.448 233.3809)" class="st1 st2 st3">SIN(0 1 50)</text>
		</g>
		<g id="gge630" class="st0">
			<text transform="matrix(1 0 0 1 350.448 205.1309)" class="st1 st2 st3">I1</text>
		</g>
		<ellipse id="gge632" class="st10" cx="313.7" cy="195.5" rx="30.6" ry="30.6"/>
		<g id="gge633">
			<circle class="st5" cx="313.7" cy="134.2" r="6.1"/>
			<path class="st4" d="M313.7,164.8v-30.6"/>
			<text transform="matrix(-1.836970e-16 -1 1 -1.836970e-16 313.6784 190.7324)" class="st6 st7 st3">2</text>
			<text transform="matrix(-1.836970e-16 -1 1 -1.836970e-16 301.4226 152.584)" class="st6 st7 st3">2</text>
			<circle class="st8" cx="313.7" cy="94.4" r="9.2"/>
			<path class="st9" d="M304.5,103.6l9.2,9.2l9.2-9.2"/>
		</g>
		<line id="gge640" class="st4" x1="313.7" y1="171" x2="319.8" y2="177.1"/>
		<line id="gge641" class="st4" x1="313.7" y1="171" x2="307.6" y2="177.1"/>
		<g id="gge642">
			<circle class="st5" cx="313.7" cy="256.8" r="6.1"/>
			<path class="st4" d="M313.7,226.1v30.6"/>
			<text transform="matrix(-1.836970e-16 -1 1 -1.836970e-16 313.6784 219.9941)" class="st6 st7 st3">1</text>
			<text transform="matrix(-1.836970e-16 -1 1 -1.836970e-16 301.4226 252.0137)" class="st6 st7 st3">1</text>
			<circle class="st8" cx="313.7" cy="296.6" r="9.2"/>
			<path class="st9" d="M322.9,287.4l-9.2-9.2l-9.2,9.2"/>
		</g>
		<line id="gge649" class="st4" x1="313.7" y1="171" x2="313.7" y2="220"/>
	</g>
	<g id="gge650">
		<g id="gge652" class="st0">
			<text transform="matrix(1 0 0 1 387.3073 48.4062)" class="st1 st2 st3">1k</text>
		</g>
		<g id="gge654" class="st0">
			<text transform="matrix(1 0 0 1 387.3073 20.1562)" class="st1 st2 st3">R7</text>
		</g>
		<line id="gge656" class="st4" x1="451.6" y1="72.9" x2="442.4" y2="88.2"/>
		<line id="gge657" class="st4" x1="427" y1="57.6" x2="411.7" y2="88.2"/>
		<line id="gge658" class="st4" x1="442.4" y1="88.2" x2="427" y2="57.6"/>
		<g id="gge659">
			<circle class="st5" cx="466.9" cy="72.9" r="6.1"/>
			<path class="st4" d="M466.9,72.9h-15.3"/>
			<text transform="matrix(1 0 0 1 425.6677 72.918)" class="st6 st7 st3">2</text>
			<text transform="matrix(1 0 0 1 463.8152 60.6621)" class="st6 st7 st3">2</text>
			<circle class="st8" cx="460.8" cy="72.9" r="9.2"/>
			<path class="st9" d="M451.6,63.7l-9.2,9.2l9.2,9.2"/>
		</g>
		<line id="gge666" class="st4" x1="384.2" y1="88.2" x2="368.8" y2="57.6"/>
		<line id="gge667" class="st4" x1="411.7" y1="88.2" x2="399.5" y2="57.6"/>
		<line id="gge668" class="st4" x1="399.5" y1="57.6" x2="384.2" y2="88.2"/>
		<line id="gge669" class="st4" x1="368.8" y1="57.6" x2="359.6" y2="72.9"/>
		<g id="gge670">
			<circle class="st5" cx="344.3" cy="72.9" r="6.1"/>
			<path class="st4" d="M344.3,72.9h15.3"/>
			<text transform="matrix(1 0 0 1 371.8952 72.918)" class="st6 st7 st3">1</text>
			<text transform="matrix(1 0 0 1 333.7487 60.6621)" class="st6 st7 st3">1</text>
			<circle class="st8" cx="350.4" cy="72.9" r="9.2"/>
			<path class="st9" d="M359.6,82.1l9.2-9.2l-9.2-9.2"/>
		</g>
	</g>
	<g id="gge677">
		<g id="gge679" class="st0">
			<text transform="matrix(1 0 0 1 518.9675 233.3809)" class="st1 st2 st3">1k</text>
		</g>
		<g id="gge681" class="st0">
			<text transform="matrix(1 0 0 1 518.9675 205.1309)" class="st1 st2 st3">R8</text>
		</g>
		<line id="gge683" class="st4" x1="497.5" y1="149.5" x2="512.8" y2="158.7"/>
		<line id="gge684" class="st4" x1="482.2" y1="174" x2="512.8" y2="189.4"/>
		<line id="gge685" class="st4" x1="512.8" y1="158.7" x2="482.2" y2="174"/>
		<g id="gge686">
			<circle class="st5" cx="497.5" cy="134.2" r="6.1"/>
			<path class="st4" d="M497.5,134.2v15.3"/>
			<text transform="matrix(-1.836970e-16 -1 1 -1.836970e-16 497.5183 175.4121)" class="st6 st7 st3">2</text>
			<text transform="matrix(-1.836970e-16 -1 1 -1.836970e-16 485.2624 137.2637)" class="st6 st7 st3">2</text>
			<circle class="st8" cx="497.5" cy="140.3" r="9.2"/>
			<path class="st9" d="M488.3,149.5l9.2,9.2l9.2-9.2"/>
		</g>
		<line id="gge693" class="st4" x1="512.8" y1="216.9" x2="482.2" y2="232.2"/>
		<line id="gge694" class="st4" x1="512.8" y1="189.4" x2="482.2" y2="201.6"/>
		<line id="gge695" class="st4" x1="482.2" y1="201.6" x2="512.8" y2="216.9"/>
		<line id="gge696" class="st4" x1="482.2" y1="232.2" x2="497.5" y2="241.4"/>
		<g id="gge697">
			<circle class="st5" cx="497.5" cy="256.8" r="6.1"/>
			<path class="st4" d="M497.5,256.8v-15.3"/>
			<text transform="matrix(-1.836970e-16 -1 1 -1.836970e-16 497.5183 229.1855)" class="st6 st7 st3">1</text>
			<text transform="matrix(-1.836970e-16 -1 1 -1.836970e-16 485.2624 267.3301)" class="st6 st7 st3">1</text>
			<circle class="st8" cx="497.5" cy="250.6" r="9.2"/>
			<path class="st9" d="M506.7,241.4l-9.2-9.2l-9.2,9.2"/>
		</g>
	</g>
	<g id="gge704">
		<g id="gge706" class="st0">
			<text transform="matrix(1 0 0 1 656.8474 233.3809)" class="st1 st2 st3">1k</text>
		</g>
		<g id="gge708" class="st0">
			<text transform="matrix(1 0 0 1 656.8474 205.1309)" class="st1 st2 st3">R9</text>
		</g>
		<line id="gge710" class="st4" x1="635.4" y1="149.5" x2="650.7" y2="158.7"/>
		<line id="gge711" class="st4" x1="620.1" y1="174" x2="650.7" y2="189.4"/>
		<line id="gge712" class="st4" x1="650.7" y1="158.7" x2="620.1" y2="174"/>
		<g id="gge713">
			<circle class="st5" cx="635.4" cy="134.2" r="6.1"/>
			<path class="st4" d="M635.4,134.2v15.3"/>
			<text transform="matrix(-1.836970e-16 -1 1 -1.836970e-16 635.3992 175.4121)" class="st6 st7 st3">2</text>
			<text transform="matrix(-1.836970e-16 -1 1 -1.836970e-16 623.1433 137.2637)" class="st6 st7 st3">2</text>
			<circle class="st8" cx="635.4" cy="140.3" r="9.2"/>
			<path class="st9" d="M626.2,149.5l9.2,9.2l9.2-9.2"/>
		</g>
		<line id="gge720" class="st4" x1="650.7" y1="216.9" x2="620.1" y2="232.2"/>
		<line id="gge721" class="st4" x1="650.7" y1="189.4" x2="620.1" y2="201.6"/>
		<line id="gge722" class="st4" x1="620.1" y1="201.6" x2="650.7" y2="216.9"/>
		<line id="gge723" class="st4" x1="620.1" y1="232.2" x2="635.4" y2="241.4"/>
		<g id="gge724">
			<circle class="st5" cx="635.4" cy="256.8" r="6.1"/>
			<path class="st4" d="M635.4,256.8v-15.3"/>
			<text transform="matrix(-1.836970e-16 -1 1 -1.836970e-16 635.3992 229.1855)" class="st6 st7 st3">1</text>
			<text transform="matrix(-1.836970e-16 -1 1 -1.836970e-16 623.1433 267.3301)" class="st6 st7 st3">1</text>
			<circle class="st8" cx="635.4" cy="250.6" r="9.2"/>
			<path class="st9" d="M644.6,241.4l-9.2-9.2l-9.2,9.2"/>
		</g>
	</g>
	<g id="gge734">
		<text transform="matrix(1 0 0 1 99.1999 149.5195)" class="st11 st12">6kΩ</text>
	</g>
	<g id="gge737">
		<text transform="matrix(1 0 0 1 99.1999 272.0781)" class="st11 st12">6kΩ</text>
	</g>
	<g id="gge740">
		<text transform="matrix(1 0 0 1 206.4402 149.5195)" class="st11 st12">6kΩ</text>
	</g>
	<g id="gge743">
		<text transform="matrix(1 0 0 1 206.4402 272.0781)" class="st11 st12">6kΩ</text>
	</g>
	<g id="gge746">
		<text transform="matrix(1 0 0 1 374.9597 42.2793)" class="st11 st12">6kΩ</text>
	</g>
	<g id="gge752">
		<text transform="matrix(1 0 0 1 512.8396 210.7988)" class="st11 st12">12kΩ</text>
	</g>
	<g id="gge755">
		<text transform="matrix(1 0 0 1 650.7195 210.7988)" class="st11 st12">24kΩ</text>
	</g>
	<polyline id="gge757" class="st4" points="313.7,134.2 313.7,72.9 344.3,72.9 	"/>
	<polyline id="gge758" class="st4" points="466.9,72.9 497.5,72.9 497.5,134.2 	"/>
	<polyline id="gge759" class="st4" points="497.5,256.8 497.5,318 313.7,318 313.7,256.8 	"/>
	<polyline id="gge760" class="st4" points="83.9,318 191.1,318 313.7,318 	"/>
	<polyline id="gge764" class="st4" points="313.7,72.9 191.1,72.9 83.9,72.9 	"/>
	<polyline id="gge768" class="st4" points="635.4,134.2 635.4,72.9 497.5,72.9 	"/>
	<polyline id="gge770" class="st4" points="635.4,256.8 635.4,318 497.5,318 	"/>
	<g id="gge780">
		<text transform="matrix(1 0 0 1 466.8796 53.0645)" class="st13 st7 st12">I1</text>
	</g>
	<g id="gge783">
		<text transform="matrix(1 0 0 1 650.7195 118.8789)" class="st13 st7 st12">I1</text>
	</g>
	<g id="gge789">
		<text transform="matrix(1 0 0 1 359.6394 195.4785)" class="st14 st7 st12">Io</text>
	</g>
	<g id="gge769">
		<circle class="st5" cx="497.5" cy="72.9" r="6.1"/>
		<circle cx="497.5" cy="72.9" r="7.7"/>
	</g>
	<g id="gge767">
		<circle class="st5" cx="191.1" cy="72.9" r="6.1"/>
		<circle cx="191.1" cy="72.9" r="7.7"/>
	</g>
	<g id="gge766">
		<circle class="st5" cx="313.7" cy="72.9" r="6.1"/>
		<circle cx="313.7" cy="72.9" r="7.7"/>
	</g>
	<g id="gge761">
		<circle class="st5" cx="313.7" cy="318" r="6.1"/>
		<circle cx="313.7" cy="318" r="7.7"/>
	</g>
	<g id="gge763">
		<circle class="st5" cx="191.1" cy="318" r="6.1"/>
		<circle cx="191.1" cy="318" r="7.7"/>
	</g>
	<g id="gge771">
		<circle class="st5" cx="497.5" cy="318" r="6.1"/>
		<circle cx="497.5" cy="318" r="7.7"/>
	</g>
	<g id="gge773">
		<path d="M635.4,118.9l12.3-6.1l-12.3,15.3l-12.3-15.3L635.4,118.9z"/>
	</g>
	<g id="gge776">
		<path d="M482.2,72.9l-6.1-12.3l15.3,12.3l-15.3,12.3L482.2,72.9z"/>
	</g>
</g>
<g>
	<g id="ni34a4_1_">
		
			<image style="overflow:visible;" width="1200" height="423" id="ni34a4_00000114052095137766275830000010247063283131300264_" xlink:href="985A5A0F1416F6C7.png"  transform="matrix(3.635557e-02 0 0 3.635557e-02 669.9655 351.6412)">
		</image>
	</g>
	<g>
		<text transform="matrix(1 0 0 1 669.7732 374.9828)" class="st15 st16">UBC Engineering</text>
	</g>
</g>
</svg>
