<?xml version="1.0" encoding="utf-8"?>
<!-- Generator: Adobe Illustrator 26.3.1, SVG Export Plug-In . SVG Version: 6.00 Build 0)  -->
<svg version="1.1" id="Layer_1" xmlns="http://www.w3.org/2000/svg" xmlns:xlink="http://www.w3.org/1999/xlink" x="0px" y="0px"
	 viewBox="0 0 573.8 340" style="enable-background:new 0 0 573.8 340;" xml:space="preserve">
<style type="text/css">
	.st0{display:none;}
	.st1{display:inline;}
	.st2{font-family:'ArialMT';}
	.st3{font-size:14.35px;}
	.st4{fill:none;stroke:#000000;stroke-width:2.05;}
	.st5{fill:none;}
	.st6{fill:none;stroke:#000000;stroke-width:2.05;stroke-linecap:round;stroke-linejoin:round;}
	.st7{display:none;enable-background:new    ;}
	.st8{font-family:'Verdana';}
	.st9{display:none;fill:none;stroke:#000000;stroke-width:2.05;}
	.st10{display:none;fill:none;stroke:#000000;stroke-width:2.05;stroke-linecap:round;stroke-linejoin:round;}
	.st11{font-family:'Helvetica';}
	.st12{font-size:15.375px;}
	.st13{fill:#0066CC;}
	.st14{fill:#FF3366;}
	.st15{font-family:'Folio-Medium';}
	.st16{font-size:5.504px;}
</style>
<g id="g1">
	<g id="gge2915">
		<g id="gge2917" class="st0">
			<text transform="matrix(1 0 0 1 278.9004 227.5996)" class="st1 st2 st3">SIN(0 1 50)</text>
		</g>
		<g id="gge2919" class="st0">
			<text transform="matrix(1 0 0 1 278.9004 208.9238)" class="st1 st2 st3">I3</text>
		</g>
		<ellipse id="gge2921" class="st4" cx="286.9" cy="254.2" rx="20.5" ry="20.5"/>
		<g id="gge2922">
			<circle class="st5" cx="327.9" cy="254.2" r="4.1"/>
			<path class="st6" d="M307.4,254.2h20.5"/>
			<text transform="matrix(1 0 0 1 290.0518 254.25)" class="st7 st8 st3">2</text>
			<text transform="matrix(1 0 0 1 315.5742 246.0498)" class="st7 st8 st3">2</text>
			<circle class="st9" cx="354.5" cy="254.2" r="6.2"/>
			<path class="st10" d="M348.4,248.1l-6.1,6.1l6.1,6.1"/>
		</g>
		<line id="gge2929" class="st6" x1="303.3" y1="254.2" x2="299.2" y2="258.4"/>
		<line id="gge2930" class="st6" x1="303.3" y1="254.2" x2="299.2" y2="250.1"/>
		<g id="gge2931">
			<circle class="st5" cx="245.9" cy="254.2" r="4.1"/>
			<path class="st6" d="M266.4,254.2h-20.5"/>
			<text transform="matrix(1 0 0 1 270.4746 254.25)" class="st7 st8 st3">1</text>
			<text transform="matrix(1 0 0 1 249.0518 246.0498)" class="st7 st8 st3">1</text>
			<circle class="st9" cx="219.2" cy="254.2" r="6.2"/>
			<path class="st10" d="M225.4,260.4l6.1-6.1l-6.1-6.1"/>
		</g>
		<line id="gge2938" class="st6" x1="303.3" y1="254.2" x2="270.5" y2="254.2"/>
	</g>
	<g id="gge2965">
		<g id="gge2967" class="st0">
			<text transform="matrix(1 0 0 1 264.4062 43.0996)" class="st1 st2 st3">1k</text>
		</g>
		<g id="gge2969" class="st0">
			<text transform="matrix(1 0 0 1 264.4062 24.4238)" class="st1 st2 st3">R49</text>
		</g>
		<line id="gge2971" class="st6" x1="307.4" y1="59.5" x2="301.2" y2="69.8"/>
		<line id="gge2972" class="st6" x1="291" y1="49.2" x2="280.7" y2="69.8"/>
		<line id="gge2973" class="st6" x1="301.2" y1="69.8" x2="291" y2="49.2"/>
		<g id="gge2974">
			<circle class="st5" cx="317.6" cy="59.5" r="4.1"/>
			<path class="st6" d="M317.6,59.5h-10.2"/>
			<text transform="matrix(1 0 0 1 290.0518 59.5)" class="st7 st8 st3">2</text>
			<text transform="matrix(1 0 0 1 315.5742 51.2998)" class="st7 st8 st3">2</text>
			<circle class="st9" cx="313.5" cy="59.5" r="6.2"/>
			<path class="st10" d="M307.4,53.3l-6.1,6.2l6.1,6.2"/>
		</g>
		<line id="gge2981" class="st6" x1="262.3" y1="69.8" x2="252" y2="49.2"/>
		<line id="gge2982" class="st6" x1="280.7" y1="69.8" x2="272.5" y2="49.2"/>
		<line id="gge2983" class="st6" x1="272.5" y1="49.2" x2="262.3" y2="69.8"/>
		<line id="gge2984" class="st6" x1="252" y1="49.2" x2="245.9" y2="59.5"/>
		<g id="gge2985">
			<circle class="st5" cx="235.6" cy="59.5" r="4.1"/>
			<path class="st6" d="M235.6,59.5h10.2"/>
			<text transform="matrix(1 0 0 1 254.0742 59.5)" class="st7 st8 st3">1</text>
			<text transform="matrix(1 0 0 1 228.5518 51.2998)" class="st7 st8 st3">1</text>
			<circle class="st9" cx="239.7" cy="59.5" r="6.2"/>
			<path class="st10" d="M245.9,65.7l6.1-6.2l-6.1-6.2"/>
		</g>
	</g>
	<g id="gge2993">
		<g id="gge2995" class="st0">
			<text transform="matrix(1 0 0 1 407.9062 43.0996)" class="st1 st2 st3">1k</text>
		</g>
		<g id="gge2997" class="st0">
			<text transform="matrix(1 0 0 1 407.9062 24.4238)" class="st1 st2 st3">R50</text>
		</g>
		<line id="gge2999" class="st6" x1="450.9" y1="59.5" x2="444.7" y2="69.8"/>
		<line id="gge3000" class="st6" x1="434.5" y1="49.2" x2="424.2" y2="69.8"/>
		<line id="gge3001" class="st6" x1="444.7" y1="69.8" x2="434.5" y2="49.2"/>
		<g id="gge3002">
			<circle class="st5" cx="461.1" cy="59.5" r="4.1"/>
			<path class="st6" d="M461.1,59.5h-10.2"/>
			<text transform="matrix(1 0 0 1 433.5518 59.5)" class="st7 st8 st3">2</text>
			<text transform="matrix(1 0 0 1 459.0742 51.2998)" class="st7 st8 st3">2</text>
			<circle class="st9" cx="457" cy="59.5" r="6.2"/>
			<path class="st10" d="M450.9,53.3l-6.1,6.2l6.1,6.2"/>
		</g>
		<line id="gge3009" class="st6" x1="405.8" y1="69.8" x2="395.5" y2="49.2"/>
		<line id="gge3010" class="st6" x1="424.2" y1="69.8" x2="416" y2="49.2"/>
		<line id="gge3011" class="st6" x1="416" y1="49.2" x2="405.8" y2="69.8"/>
		<line id="gge3012" class="st6" x1="395.5" y1="49.2" x2="389.4" y2="59.5"/>
		<g id="gge3013">
			<circle class="st5" cx="379.1" cy="59.5" r="4.1"/>
			<path class="st6" d="M379.1,59.5h10.2"/>
			<text transform="matrix(1 0 0 1 397.5742 59.5)" class="st7 st8 st3">1</text>
			<text transform="matrix(1 0 0 1 372.0518 51.2998)" class="st7 st8 st3">1</text>
			<circle class="st9" cx="383.2" cy="59.5" r="6.2"/>
			<path class="st10" d="M389.4,65.7l6.1-6.2l-6.1-6.2"/>
		</g>
	</g>
	<g id="gge3021">
		<g id="gge3023" class="st0">
			<text transform="matrix(1 0 0 1 362.7246 156.6494)" class="st1 st2 st3">1k</text>
		</g>
		<g id="gge3025" class="st0">
			<text transform="matrix(1 0 0 1 362.7246 137.9941)" class="st1 st2 st3">R51</text>
		</g>
		<line id="gge3027" class="st6" x1="348.4" y1="100.5" x2="358.6" y2="106.7"/>
		<line id="gge3028" class="st6" x1="338.1" y1="116.9" x2="358.6" y2="127.2"/>
		<line id="gge3029" class="st6" x1="358.6" y1="106.7" x2="338.1" y2="116.9"/>
		<g id="gge3030">
			<circle class="st5" cx="348.4" cy="90.2" r="4.1"/>
			<path class="st6" d="M348.4,90.2v10.2"/>
			<text transform="matrix(-1.836970e-16 -1 1 -1.836970e-16 348.375 117.8242)" class="st7 st8 st3">2</text>
			<text transform="matrix(-1.836970e-16 -1 1 -1.836970e-16 340.1748 92.3008)" class="st7 st8 st3">2</text>
			<circle class="st9" cx="348.4" cy="94.3" r="6.2"/>
			<path class="st10" d="M342.2,100.5l6.1,6.2l6.1-6.2"/>
		</g>
		<line id="gge3037" class="st6" x1="358.6" y1="145.6" x2="338.1" y2="155.9"/>
		<line id="gge3038" class="st6" x1="358.6" y1="127.2" x2="338.1" y2="135.4"/>
		<line id="gge3039" class="st6" x1="338.1" y1="135.4" x2="358.6" y2="145.6"/>
		<line id="gge3040" class="st6" x1="338.1" y1="155.9" x2="348.4" y2="162"/>
		<g id="gge3041">
			<circle class="st5" cx="348.4" cy="172.2" r="4.1"/>
			<path class="st6" d="M348.4,172.2V162"/>
			<text transform="matrix(-1.836970e-16 -1 1 -1.836970e-16 348.375 153.8008)" class="st7 st8 st3">1</text>
			<text transform="matrix(-1.836970e-16 -1 1 -1.836970e-16 340.1748 179.3242)" class="st7 st8 st3">1</text>
			<circle class="st9" cx="348.4" cy="168.1" r="6.2"/>
			<path class="st10" d="M354.5,162l-6.1-6.1l-6.1,6.1"/>
		</g>
	</g>
	<g id="gge3049">
		<g id="gge3051" class="st0">
			<text transform="matrix(1 0 0 1 506.2246 156.6494)" class="st1 st2 st3">1k</text>
		</g>
		<g id="gge3053" class="st0">
			<text transform="matrix(1 0 0 1 506.2246 137.9941)" class="st1 st2 st3">R52</text>
		</g>
		<line id="gge3055" class="st6" x1="491.9" y1="100.5" x2="502.1" y2="106.7"/>
		<line id="gge3056" class="st6" x1="481.6" y1="116.9" x2="502.1" y2="127.2"/>
		<line id="gge3057" class="st6" x1="502.1" y1="106.7" x2="481.6" y2="116.9"/>
		<g id="gge3058">
			<circle class="st5" cx="491.9" cy="90.2" r="4.1"/>
			<path class="st6" d="M491.9,90.2v10.2"/>
			<text transform="matrix(-1.836970e-16 -1 1 -1.836970e-16 491.875 117.8242)" class="st7 st8 st3">2</text>
			<text transform="matrix(-1.836970e-16 -1 1 -1.836970e-16 483.6748 92.3008)" class="st7 st8 st3">2</text>
			<circle class="st9" cx="491.9" cy="94.3" r="6.2"/>
			<path class="st10" d="M485.7,100.5l6.1,6.2l6.1-6.2"/>
		</g>
		<line id="gge3065" class="st6" x1="502.1" y1="145.6" x2="481.6" y2="155.9"/>
		<line id="gge3066" class="st6" x1="502.1" y1="127.2" x2="481.6" y2="135.4"/>
		<line id="gge3067" class="st6" x1="481.6" y1="135.4" x2="502.1" y2="145.6"/>
		<line id="gge3068" class="st6" x1="481.6" y1="155.9" x2="491.9" y2="162"/>
		<g id="gge3069">
			<circle class="st5" cx="491.9" cy="172.2" r="4.1"/>
			<path class="st6" d="M491.9,172.2V162"/>
			<text transform="matrix(-1.836970e-16 -1 1 -1.836970e-16 491.875 153.8008)" class="st7 st8 st3">1</text>
			<text transform="matrix(-1.836970e-16 -1 1 -1.836970e-16 483.6748 179.3242)" class="st7 st8 st3">1</text>
			<circle class="st9" cx="491.9" cy="168.1" r="6.2"/>
			<path class="st10" d="M498,162l-6.1-6.1l-6.1,6.1"/>
		</g>
	</g>
	<line id="gge3078" class="st6" x1="317.6" y1="59.5" x2="379.1" y2="59.5"/>
	<line id="gge3079" class="st6" x1="348.4" y1="90.2" x2="348.4" y2="59.5"/>
	<polyline id="gge3081" class="st6" points="461.1,59.5 491.9,59.5 491.9,90.2 	"/>
	<polyline id="gge3082" class="st6" points="348.4,172.2 348.4,203 491.9,203 491.9,172.2 	"/>
	<polyline id="gge3084" class="st6" points="245.9,254.2 40.9,254.2 40.9,59.5 112.6,59.5 	"/>
	<polyline id="gge3086" class="st6" points="327.9,254.2 532.9,254.2 532.9,59.5 491.9,59.5 	"/>
	<g id="gge3100">
		<text transform="matrix(1 0 0 1 256.125 39)" class="st11 st12">1kΩ</text>
	</g>
	<g id="gge3103">
		<text transform="matrix(1 0 0 1 399.625 39)" class="st11 st12">2kΩ</text>
	</g>
	<g id="gge3106">
		<text transform="matrix(1 0 0 1 297.125 141.5)" class="st11 st12">2kΩ</text>
	</g>
	<g id="gge3109">
		<text transform="matrix(1 0 0 1 440.625 141.5)" class="st11 st12">4kΩ</text>
	</g>
	<g id="gge3128">
		<text transform="matrix(1 0 0 1 61.375 131.25)" class="st13 st8 st12">Is</text>
	</g>
	<polyline id="gge3171" class="st6" points="112.6,172.2 112.6,203 348.4,203 	"/>
	<g id="gge3174">
		<g id="gge3176" class="st0">
			<text transform="matrix(1 0 0 1 172.1562 43.0996)" class="st1 st2 st3">1k</text>
		</g>
		<g id="gge3178" class="st0">
			<text transform="matrix(1 0 0 1 172.1562 24.4238)" class="st1 st2 st3">R56</text>
		</g>
		<line id="gge3180" class="st6" x1="215.1" y1="59.5" x2="209" y2="69.8"/>
		<line id="gge3181" class="st6" x1="198.7" y1="49.2" x2="188.5" y2="69.8"/>
		<line id="gge3182" class="st6" x1="209" y1="69.8" x2="198.7" y2="49.2"/>
		<g id="gge3183">
			<circle class="st5" cx="225.4" cy="59.5" r="4.1"/>
			<path class="st6" d="M225.4,59.5h-10.2"/>
			<text transform="matrix(1 0 0 1 197.8018 59.5)" class="st7 st8 st3">2</text>
			<text transform="matrix(1 0 0 1 223.3242 51.2998)" class="st7 st8 st3">2</text>
			<circle class="st9" cx="221.3" cy="59.5" r="6.2"/>
			<path class="st10" d="M215.1,53.3l-6.1,6.2l6.1,6.2"/>
		</g>
		<line id="gge3190" class="st6" x1="170" y1="69.8" x2="159.8" y2="49.2"/>
		<line id="gge3191" class="st6" x1="188.5" y1="69.8" x2="180.3" y2="49.2"/>
		<line id="gge3192" class="st6" x1="180.3" y1="49.2" x2="170" y2="69.8"/>
		<line id="gge3193" class="st6" x1="159.8" y1="49.2" x2="153.6" y2="59.5"/>
		<g id="gge3194">
			<circle class="st5" cx="143.4" cy="59.5" r="4.1"/>
			<path class="st6" d="M143.4,59.5h10.2"/>
			<text transform="matrix(1 0 0 1 161.8242 59.5)" class="st7 st8 st3">1</text>
			<text transform="matrix(1 0 0 1 136.3018 51.2998)" class="st7 st8 st3">1</text>
			<circle class="st9" cx="147.5" cy="59.5" r="6.2"/>
			<path class="st10" d="M153.6,65.7l6.1-6.2l-6.1-6.2"/>
		</g>
	</g>
	<line id="gge3202" class="st6" x1="235.6" y1="59.5" x2="225.4" y2="59.5"/>
	<polyline id="gge3205" class="st6" points="143.4,59.5 112.6,59.5 112.6,90.2 	"/>
	<g id="gge3208">
		<g id="gge3210" class="st0">
			<text transform="matrix(1 0 0 1 137.2246 156.7109)" class="st1 st2 st3">SIN(0 1 50)</text>
		</g>
		<g id="gge3212" class="st0">
			<text transform="matrix(1 0 0 1 137.2246 138.0762)" class="st1 st2 st3">I4</text>
		</g>
		<ellipse id="gge3214" class="st4" cx="112.6" cy="131.2" rx="20.5" ry="20.5"/>
		<g id="gge3215">
			<circle class="st5" cx="112.6" cy="90.2" r="4.1"/>
			<path class="st6" d="M112.6,110.8V90.2"/>
			<text transform="matrix(-1.836970e-16 -1 1 -1.836970e-16 112.625 128.0742)" class="st7 st8 st3">2</text>
			<text transform="matrix(-1.836970e-16 -1 1 -1.836970e-16 104.4248 102.5508)" class="st7 st8 st3">2</text>
			<circle class="st9" cx="112.6" cy="63.6" r="6.2"/>
			<path class="st10" d="M106.5,69.8l6.2,6.2l6.2-6.2"/>
		</g>
		<line id="gge3222" class="st6" x1="112.6" y1="114.8" x2="116.7" y2="118.9"/>
		<line id="gge3223" class="st6" x1="112.6" y1="114.8" x2="108.5" y2="118.9"/>
		<g id="gge3224">
			<circle class="st5" cx="112.6" cy="172.2" r="4.1"/>
			<path class="st6" d="M112.6,151.8v20.5"/>
			<text transform="matrix(-1.836970e-16 -1 1 -1.836970e-16 112.625 147.6504)" class="st7 st8 st3">1</text>
			<text transform="matrix(-1.836970e-16 -1 1 -1.836970e-16 104.4248 169.0742)" class="st7 st8 st3">1</text>
			<circle class="st9" cx="112.6" cy="198.9" r="6.2"/>
			<path class="st10" d="M118.8,192.8l-6.2-6.1l-6.2,6.1"/>
		</g>
		<line id="gge3231" class="st6" x1="112.6" y1="114.8" x2="112.6" y2="147.6"/>
	</g>
	<g id="gge3235">
		<text transform="matrix(1 0 0 1 163.875 39)" class="st11 st12">1kΩ</text>
	</g>
	<g id="gge3239">
		<text transform="matrix(1 0 0 1 358.625 182.5)" class="st8 st12">Ix</text>
	</g>
	<g id="gge3245">
		<text transform="matrix(1 0 0 1 276.625 295.25)" class="st8 st12">2Ix</text>
	</g>
	<g id="gge3331">
		<text transform="matrix(1 0 0 1 225.375 49.25)" class="st14 st8 st12">A</text>
	</g>
	<g id="gge3334">
		<text transform="matrix(1 0 0 1 348.375 49.25)" class="st14 st8 st12">B</text>
	</g>
	<g id="gge3337">
		<text transform="matrix(1 0 0 1 491.875 49.25)" class="st14 st8 st12">C</text>
	</g>
	<g id="gge3206">
		<circle class="st5" cx="112.6" cy="59.5" r="4.1"/>
		<circle cx="112.6" cy="59.5" r="5.1"/>
	</g>
	<g id="gge3087">
		<circle class="st5" cx="491.9" cy="59.5" r="4.1"/>
		<circle cx="491.9" cy="59.5" r="5.1"/>
	</g>
	<g id="gge3080">
		<circle class="st5" cx="348.4" cy="59.5" r="4.1"/>
		<circle cx="348.4" cy="59.5" r="5.1"/>
	</g>
	<g id="gge3172">
		<circle class="st5" cx="348.4" cy="203" r="4.1"/>
		<circle cx="348.4" cy="203" r="5.1"/>
	</g>
	<g id="gge3243">
		<path d="M348.4,192.8l8.2-4.1l-8.2,10.2l-8.2-10.2L348.4,192.8z"/>
	</g>
</g>
<g>
	<g id="ni34a4_1_">
		
			<image style="overflow:visible;" width="1200" height="423" id="ni34a4_00000114052095137766275830000010247063283131300264_" xlink:href="994E7A8027B6830A.png"  transform="matrix(3.635557e-02 0 0 3.635557e-02 488.5605 302.6412)">
		</image>
	</g>
	<g>
		<text transform="matrix(1 0 0 1 488.3682 325.9828)" class="st15 st16">UBC Engineering</text>
	</g>
</g>
</svg>
