<?xml version="1.0" encoding="utf-8"?>
<!-- Generator: Adobe Illustrator 26.3.1, SVG Export Plug-In . SVG Version: 6.00 Build 0)  -->
<svg version="1.1" id="Layer_1" xmlns="http://www.w3.org/2000/svg" xmlns:xlink="http://www.w3.org/1999/xlink" x="0px" y="0px"
	 viewBox="0 0 547.9 294" style="enable-background:new 0 0 547.9 294;" xml:space="preserve">
<style type="text/css">
	.st0{fill:none;}
	.st1{fill:none;stroke:#000000;stroke-width:2.8341;stroke-linecap:round;}
	.st2{display:none;}
	.st3{display:inline;}
	.st4{font-family:'TimesNewRomanPSMT';}
	.st5{font-size:19.839px;}
	.st6{fill:none;stroke:#000000;stroke-width:2.8341;stroke-linecap:round;stroke-linejoin:round;}
	.st7{font-family:'Verdana';}
	.st8{font-size:18.422px;}
	.st9{fill:#0066CC;}
	.st10{font-size:25.5073px;}
	.st11{font-family:'ArialMT';}
	.st12{fill:none;stroke:#000000;stroke-width:2.8341;}
	.st13{display:none;enable-background:new    ;}
	.st14{display:none;fill:none;stroke:#000000;stroke-width:2.8341;}
	.st15{display:none;fill:none;stroke:#000000;stroke-width:2.8341;stroke-linecap:round;stroke-linejoin:round;}
	.st16{font-size:21.2561px;}
	.st17{font-family:'Folio-Medium';}
	.st18{font-size:5.504px;}
</style>
<g id="g1">
	<g id="gge1123">
		<circle class="st0" cx="366.1" cy="73.3" r="5.7"/>
		<circle class="st0" cx="337.7" cy="45" r="5.7"/>
		<line class="st1" x1="366.1" y1="73.3" x2="337.7" y2="45"/>
	</g>
	<g id="gge1127">
		<circle class="st0" cx="366.1" cy="16.7" r="5.7"/>
		<circle class="st0" cx="337.7" cy="45" r="5.7"/>
		<line class="st1" x1="366.1" y1="16.7" x2="337.7" y2="45"/>
	</g>
	<g id="gge1131">
		<circle class="st0" cx="394.4" cy="45" r="5.7"/>
		<circle class="st0" cx="366.1" cy="73.3" r="5.7"/>
		<line class="st1" x1="394.4" y1="45" x2="366.1" y2="73.3"/>
	</g>
	<g id="gge1135">
		<circle class="st0" cx="366.1" cy="16.7" r="5.7"/>
		<circle class="st0" cx="394.4" cy="45" r="5.7"/>
		<line class="st1" x1="366.1" y1="16.7" x2="394.4" y2="45"/>
	</g>
	<g id="gge1139">
		<g id="gge1141" class="st2">
			<text transform="matrix(1 0 0 1 330.1548 30.8291)" class="st3 st4 st5">none</text>
		</g>
		<g id="gge1143" class="st2">
			<text transform="matrix(1 0 0 1 330.1548 4.6982)" class="st3 st4 st5">DVS1</text>
		</g>
		<line id="gge1145" class="st6" x1="349.1" y1="50.7" x2="349.1" y2="39.3"/>
		<line id="gge1146" class="st6" x1="343.4" y1="45" x2="354.7" y2="45"/>
		<line id="gge1147" class="st6" x1="383.1" y1="39.3" x2="383.1" y2="50.7"/>
	</g>
	<g id="gge1149">
		<text transform="matrix(1 0 0 1 479.4292 101.6826)" class="st7 st8">+</text>
	</g>
	<g id="gge1152">
		<text transform="matrix(1 0 0 1 479.4292 200.8779)" class="st7 st8">-</text>
	</g>
	<g id="gge1155">
		<text transform="matrix(1 0 0 1 394.4048 158.3652)" class="st9 st7 st10">R2</text>
	</g>
	<g id="gge1158">
		<g id="gge1160" class="st2">
			<text transform="matrix(1 0 0 1 145.0004 179.2529)" class="st3 st11 st5">SIN(0 1 50) AC 1 0</text>
		</g>
		<g id="gge1162" class="st2">
			<text transform="matrix(1 0 0 1 145.0004 153.122)" class="st3 st11 st5">V2</text>
		</g>
		<ellipse id="gge1164" class="st12" cx="111" cy="144.2" rx="28.3" ry="28.3"/>
		<g id="gge1165">
			<circle class="st0" cx="111" cy="87.5" r="5.7"/>
			<path class="st6" d="M111,115.9V87.5"/>
			<text transform="matrix(-1.836970e-16 -1 1 -1.836970e-16 110.9907 134.1357)" class="st13 st7 st5">1</text>
			<text transform="matrix(-1.836970e-16 -1 1 -1.836970e-16 99.6538 104.5185)" class="st13 st7 st5">1</text>
			<circle class="st14" cx="111" cy="50.7" r="8.5"/>
			<path class="st15" d="M102.5,59.2l8.5,8.5l8.5-8.5"/>
		</g>
		<line id="gge1172" class="st6" x1="105.3" y1="127.2" x2="116.7" y2="127.2"/>
		<line id="gge1173" class="st6" x1="111" y1="121.5" x2="111" y2="132.9"/>
		<g id="gge1174">
			<circle class="st0" cx="111" cy="200.9" r="5.7"/>
			<path class="st6" d="M111,172.5v28.3"/>
			<text transform="matrix(-1.836970e-16 -1 1 -1.836970e-16 110.9907 161.2002)" class="st13 st7 st5">2</text>
			<text transform="matrix(-1.836970e-16 -1 1 -1.836970e-16 99.6538 196.4873)" class="st13 st7 st5">2</text>
			<circle class="st14" cx="111" cy="237.7" r="8.5"/>
			<path class="st15" d="M119.5,229.2l-8.5-8.5l-8.5,8.5"/>
		</g>
		<line id="gge1181" class="st6" x1="116.7" y1="161.2" x2="105.3" y2="161.2"/>
	</g>
	<g id="gge1183">
		<g id="gge1185" class="st2">
			<text transform="matrix(1 0 0 1 193.2661 22.3261)" class="st3 st11 st5">1k</text>
		</g>
		<g id="gge1187" class="st2">
			<text transform="matrix(1 0 0 1 193.2661 -3.8047)" class="st3 st11 st5">R7</text>
		</g>
		<line id="gge1189" class="st6" x1="167.7" y1="45" x2="176.2" y2="30.8"/>
		<line id="gge1190" class="st6" x1="190.3" y1="59.2" x2="204.5" y2="30.8"/>
		<line id="gge1191" class="st6" x1="176.2" y1="30.8" x2="190.3" y2="59.2"/>
		<g id="gge1192">
			<circle class="st0" cx="153.5" cy="45" r="5.7"/>
			<path class="st6" d="M153.5,45h14.2"/>
			<text transform="matrix(1 0 0 1 179.0102 44.999)" class="st13 st7 st5">2</text>
			<text transform="matrix(1 0 0 1 143.7241 33.6631)" class="st13 st7 st5">2</text>
			<circle class="st14" cx="159.2" cy="45" r="8.5"/>
			<path class="st15" d="M167.7,53.5l8.5-8.5l-8.5-8.5"/>
		</g>
		<line id="gge1199" class="st6" x1="230" y1="30.8" x2="244.2" y2="59.2"/>
		<line id="gge1200" class="st6" x1="204.5" y1="30.8" x2="215.9" y2="59.2"/>
		<line id="gge1201" class="st6" x1="215.9" y1="59.2" x2="230" y2="30.8"/>
		<line id="gge1202" class="st6" x1="244.2" y1="59.2" x2="252.7" y2="45"/>
		<g id="gge1203">
			<circle class="st0" cx="266.9" cy="45" r="5.7"/>
			<path class="st6" d="M266.9,45h-14.2"/>
			<text transform="matrix(1 0 0 1 228.7485 44.999)" class="st13 st7 st5">1</text>
			<text transform="matrix(1 0 0 1 264.0346 33.6631)" class="st13 st7 st5">1</text>
			<circle class="st14" cx="261.2" cy="45" r="8.5"/>
			<path class="st15" d="M252.7,36.5l-8.5,8.5l8.5,8.5"/>
		</g>
	</g>
	<polyline id="gge1210" class="st6" points="111,87.5 111,45 153.5,45 	"/>
	<polyline id="gge1211" class="st6" points="337.7,45 337.7,45 266.9,45 	"/>
	<g id="gge1217">
		<g id="gge1219" class="st2">
			<text transform="matrix(1 0 0 1 485.0981 179.2529)" class="st3 st11 st5">1k</text>
		</g>
		<g id="gge1221" class="st2">
			<text transform="matrix(1 0 0 1 485.0981 153.122)" class="st3 st11 st5">R8</text>
		</g>
		<line id="gge1223" class="st6" x1="465.3" y1="186.7" x2="451.1" y2="178.2"/>
		<line id="gge1224" class="st6" x1="479.4" y1="164" x2="451.1" y2="149.9"/>
		<line id="gge1225" class="st6" x1="451.1" y1="178.2" x2="479.4" y2="164"/>
		<g id="gge1226">
			<circle class="st0" cx="465.3" cy="200.9" r="5.7"/>
			<path class="st6" d="M465.3,200.9v-14.2"/>
			<text transform="matrix(-1.836970e-16 -1 1 -1.836970e-16 465.2592 175.372)" class="st13 st7 st5">2</text>
			<text transform="matrix(-1.836970e-16 -1 1 -1.836970e-16 453.9223 210.6572)" class="st13 st7 st5">2</text>
			<circle class="st14" cx="465.3" cy="195.2" r="8.5"/>
			<path class="st15" d="M473.8,186.7l-8.5-8.5l-8.5,8.5"/>
		</g>
		<line id="gge1233" class="st6" x1="451.1" y1="124.4" x2="479.4" y2="110.2"/>
		<line id="gge1234" class="st6" x1="451.1" y1="149.9" x2="479.4" y2="138.5"/>
		<line id="gge1235" class="st6" x1="479.4" y1="138.5" x2="451.1" y2="124.4"/>
		<line id="gge1236" class="st6" x1="479.4" y1="110.2" x2="465.3" y2="101.7"/>
		<g id="gge1237">
			<circle class="st0" cx="465.3" cy="87.5" r="5.7"/>
			<path class="st6" d="M465.3,87.5v14.2"/>
			<text transform="matrix(-1.836970e-16 -1 1 -1.836970e-16 465.2592 125.6338)" class="st13 st7 st5">1</text>
			<text transform="matrix(-1.836970e-16 -1 1 -1.836970e-16 453.9223 90.3467)" class="st13 st7 st5">1</text>
			<circle class="st14" cx="465.3" cy="93.2" r="8.5"/>
			<path class="st15" d="M456.8,101.7l8.5,8.5l8.5-8.5"/>
		</g>
	</g>
	<polyline id="gge1244" class="st6" points="465.3,87.5 465.3,45 394.4,45 	"/>
	<polyline id="gge1249" class="st6" points="111,200.9 111,243.4 465.3,243.4 465.3,200.9 	"/>
	<g id="gge1251">
		<text transform="matrix(1 0 0 1 337.7221 101.6826)" class="st7 st16">2Vx</text>
	</g>
	<g id="gge1254">
		<text transform="matrix(1 0 0 1 181.8442 87.5117)" class="st9 st7 st10">R1</text>
	</g>
	<g id="gge1257">
		<text transform="matrix(1 0 0 1 25.9663 158.3652)" class="st9 st7 st10">V1</text>
	</g>
	<g id="gge1260">
		<text transform="matrix(1 0 0 1 493.6001 158.3652)" class="st7 st16">Vx</text>
	</g>
	<g id="gge1248">
		<circle class="st0" cx="394.4" cy="45" r="5.7"/>
		<circle cx="394.4" cy="45" r="7.1"/>
	</g>
	<g id="gge1247">
		<circle class="st0" cx="337.7" cy="45" r="5.7"/>
		<circle cx="337.7" cy="45" r="7.1"/>
	</g>
</g>
<g>
	<g id="ni34a4_1_">
		
			<image style="overflow:visible;" width="1200" height="423" id="ni34a4_00000114052095137766275830000010247063283131300264_" xlink:href="9F8582E5844ABCF1.png"  transform="matrix(3.635557e-02 0 0 3.635557e-02 26.1401 259.6412)">
		</image>
	</g>
	<g>
		<text transform="matrix(1 0 0 1 25.9477 282.9828)" class="st17 st18">UBC Engineering</text>
	</g>
</g>
</svg>
