<?xml version="1.0" encoding="utf-8"?>
<!-- Generator: Adobe Illustrator 26.3.1, SVG Export Plug-In . SVG Version: 6.00 Build 0)  -->
<svg version="1.1" id="Layer_1" xmlns="http://www.w3.org/2000/svg" xmlns:xlink="http://www.w3.org/1999/xlink" x="0px" y="0px"
	 viewBox="0 0 550.4 403" style="enable-background:new 0 0 550.4 403;" xml:space="preserve">
<style type="text/css">
	.st0{font-family:'Verdana';}
	.st1{font-size:13px;}
	.st2{fill:#FF3366;}
	.st3{font-size:15px;}
	.st4{fill:none;stroke:#000000;stroke-width:2;stroke-linecap:round;stroke-linejoin:round;}
	.st5{display:none;}
	.st6{display:inline;}
	.st7{font-family:'ArialMT';}
	.st8{font-size:14px;}
	.st9{fill:none;stroke:#000000;stroke-width:2;}
	.st10{fill:none;}
	.st11{display:none;enable-background:new    ;}
	.st12{display:none;fill:none;stroke:#000000;stroke-width:2;}
	.st13{display:none;fill:none;stroke:#000000;stroke-width:2;stroke-linecap:round;stroke-linejoin:round;}
	.st14{font-family:'TimesNewRomanPSMT';}
	.st15{font-size:18px;}
	.st16{font-family:'Helvetica';}
	.st17{fill:#0066CC;}
	.st18{font-family:'Folio-Medium';}
	.st19{font-size:5.504px;}
</style>
<g id="g1">
	<g id="gge6205">
		<text transform="matrix(-1.836970e-16 -1 1 -1.836970e-16 517.2195 190.5)" class="st0 st1">+</text>
	</g>
	<g id="gge6207">
		<text transform="matrix(1 0 0 1 507.2195 340.5)" class="st0 st1">-</text>
	</g>
	<g id="gge6210">
		<text transform="matrix(1 0 0 1 507.2195 270.5)" class="st2 st0 st3">Vo</text>
	</g>
	<line id="gge6552" class="st4" x1="497.2" y1="190.5" x2="497.2" y2="330.5"/>
	<g id="gge6918">
		<g id="gge6920" class="st5">
			<text transform="matrix(1 0 0 1 191.2195 295.2402)" class="st6 st7 st8">SIN(0 1 50) AC 1 0</text>
		</g>
		<g id="gge6922" class="st5">
			<text transform="matrix(1 0 0 1 191.2195 276.8604)" class="st6 st7 st8">V17</text>
		</g>
		<ellipse id="gge6924" class="st9" cx="167.2" cy="270.5" rx="20" ry="20"/>
		<g id="gge6925">
			<circle class="st10" cx="167.2" cy="230.5" r="4"/>
			<path class="st4" d="M167.2,250.5v-20"/>
			<text transform="matrix(-1.836970e-16 -1 1 -1.836970e-16 167.2195 263.4004)" class="st11 st0 st8">1</text>
			<text transform="matrix(-1.836970e-16 -1 1 -1.836970e-16 159.2195 242.5)" class="st11 st0 st8">1</text>
			<circle class="st12" cx="167.2" cy="204.5" r="6"/>
			<path class="st13" d="M161.2,210.5l6,6l6-6"/>
		</g>
		<line id="gge6932" class="st4" x1="163.2" y1="258.5" x2="171.2" y2="258.5"/>
		<line id="gge6933" class="st4" x1="167.2" y1="254.5" x2="167.2" y2="262.5"/>
		<g id="gge6934">
			<circle class="st10" cx="167.2" cy="310.5" r="4"/>
			<path class="st4" d="M167.2,290.5v20"/>
			<text transform="matrix(-1.836970e-16 -1 1 -1.836970e-16 167.2195 282.5)" class="st11 st0 st8">2</text>
			<text transform="matrix(-1.836970e-16 -1 1 -1.836970e-16 159.2195 307.4004)" class="st11 st0 st8">2</text>
			<circle class="st12" cx="167.2" cy="336.5" r="6"/>
			<path class="st13" d="M173.2,330.5l-6-6l-6,6"/>
		</g>
		<line id="gge6941" class="st4" x1="171.2" y1="282.5" x2="163.2" y2="282.5"/>
	</g>
	<g id="gge6974">
		<g id="gge6976" class="st5">
			<text transform="matrix(1 0 0 1 387.2195 240.5)" class="st6 st14 st8">none</text>
		</g>
		<g id="gge6978" class="st5">
			<text transform="matrix(1 0 0 1 387.2195 130.5)" class="st6 st14 st8">AAAA2</text>
		</g>
		<polyline id="gge6980" class="st4" points="347.2,220.5 427.2,180.5 347.2,140.5 347.2,220.5 		"/>
		<line id="gge6981" class="st4" x1="355.2" y1="160.5" x2="367.2" y2="160.5"/>
		<line id="gge6982" class="st4" x1="355.2" y1="200.5" x2="367.2" y2="200.5"/>
		<line id="gge6983" class="st4" x1="361.2" y1="194.5" x2="361.2" y2="206.5"/>
		<g id="gge6984">
			<circle class="st10" cx="307.2" cy="160.5" r="4"/>
			<path class="st4" d="M307.2,160.5h40"/>
			<text transform="matrix(1 0 0 1 353.2195 166.5)" class="st11 st0 st8">IN-</text>
			<text transform="matrix(1 0 0 1 326.3191 158.5)" class="st11 st0 st8">2</text>
			<circle class="st12" cx="341.2" cy="160.5" r="6"/>
			<path class="st13" d="M347.2,166.5l6-6l-6-6"/>
		</g>
		<g id="gge6991">
			<circle class="st10" cx="307.2" cy="200.5" r="4"/>
			<path class="st4" d="M307.2,200.5h40"/>
			<text transform="matrix(1 0 0 1 353.2195 206.5)" class="st11 st0 st8">IN+</text>
			<text transform="matrix(1 0 0 1 326.3191 198.5)" class="st11 st0 st8">3</text>
			<circle class="st12" cx="341.2" cy="200.5" r="6"/>
			<path class="st13" d="M347.2,206.5l6-6l-6-6"/>
		</g>
		<g id="gge6998">
			<circle class="st10" cx="467.2" cy="180.5" r="4"/>
			<path class="st4" d="M467.2,180.5h-40"/>
			<text transform="matrix(1 0 0 1 391.326 186.5)" class="st11 st0 st8">OUT</text>
			<text transform="matrix(1 0 0 1 439.2195 178.5)" class="st11 st0 st8">6</text>
			<circle class="st12" cx="433.2" cy="180.5" r="6"/>
			<path class="st13" d="M427.2,174.5l-6,6l6,6"/>
		</g>
	</g>
	<g id="gge7006">
		<g id="gge7008" class="st5">
			<text transform="matrix(1 0 0 1 80.6194 314.5)" class="st6 st7 st8">SIN(0 1 50) AC 1 0</text>
		</g>
		<g id="gge7010" class="st5">
			<text transform="matrix(1 0 0 1 80.6194 296.5)" class="st6 st7 st8">V18</text>
		</g>
		<ellipse id="gge7012" class="st9" cx="97.2" cy="340.5" rx="20" ry="20"/>
		<g id="gge7013">
			<circle class="st10" cx="57.2" cy="340.5" r="4"/>
			<path class="st4" d="M77.2,340.5h-20"/>
			<text transform="matrix(1 0 0 1 81.2195 340.5)" class="st11 st0 st8">1</text>
			<text transform="matrix(1 0 0 1 60.3191 332.5)" class="st11 st0 st8">1</text>
			<circle class="st12" cx="31.2" cy="340.5" r="6"/>
			<path class="st13" d="M37.2,346.5l6-6l-6-6"/>
		</g>
		<line id="gge7020" class="st4" x1="85.2" y1="344.5" x2="85.2" y2="336.5"/>
		<line id="gge7021" class="st4" x1="81.2" y1="340.5" x2="89.2" y2="340.5"/>
		<g id="gge7022">
			<circle class="st10" cx="137.2" cy="340.5" r="4"/>
			<path class="st4" d="M117.2,340.5h20"/>
			<text transform="matrix(1 0 0 1 100.3191 340.5)" class="st11 st0 st8">2</text>
			<text transform="matrix(1 0 0 1 125.2195 332.5)" class="st11 st0 st8">2</text>
			<circle class="st12" cx="163.2" cy="340.5" r="6"/>
			<path class="st13" d="M157.2,334.5l-6,6l6,6"/>
		</g>
		<line id="gge7029" class="st4" x1="109.2" y1="336.5" x2="109.2" y2="344.5"/>
	</g>
	<g id="gge7031">
		<g id="gge7033" class="st5">
			<text transform="matrix(1 0 0 1 214.8997 184.5)" class="st6 st7 st8">1k</text>
		</g>
		<g id="gge7035" class="st5">
			<text transform="matrix(1 0 0 1 214.8997 166.5)" class="st6 st7 st8">R104</text>
		</g>
		<line id="gge7037" class="st4" x1="267.2" y1="200.5" x2="261.2" y2="210.5"/>
		<line id="gge7038" class="st4" x1="251.2" y1="190.5" x2="241.2" y2="210.5"/>
		<line id="gge7039" class="st4" x1="261.2" y1="210.5" x2="251.2" y2="190.5"/>
		<g id="gge7040">
			<circle class="st10" cx="277.2" cy="200.5" r="4"/>
			<path class="st4" d="M277.2,200.5h-10"/>
			<text transform="matrix(1 0 0 1 250.3191 200.5)" class="st11 st0 st8">2</text>
			<text transform="matrix(1 0 0 1 275.2195 192.5)" class="st11 st0 st8">2</text>
			<circle class="st12" cx="273.2" cy="200.5" r="6"/>
			<path class="st13" d="M267.2,194.5l-6,6l6,6"/>
		</g>
		<line id="gge7047" class="st4" x1="223.2" y1="210.5" x2="213.2" y2="190.5"/>
		<line id="gge7048" class="st4" x1="241.2" y1="210.5" x2="233.2" y2="190.5"/>
		<line id="gge7049" class="st4" x1="233.2" y1="190.5" x2="223.2" y2="210.5"/>
		<line id="gge7050" class="st4" x1="213.2" y1="190.5" x2="207.2" y2="200.5"/>
		<g id="gge7051">
			<circle class="st10" cx="197.2" cy="200.5" r="4"/>
			<path class="st4" d="M197.2,200.5h10"/>
			<text transform="matrix(1 0 0 1 215.2195 200.5)" class="st11 st0 st8">1</text>
			<text transform="matrix(1 0 0 1 190.3191 192.5)" class="st11 st0 st8">1</text>
			<circle class="st12" cx="201.2" cy="200.5" r="6"/>
			<path class="st13" d="M207.2,206.5l6-6l-6-6"/>
		</g>
	</g>
	<g id="gge7059">
		<g id="gge7061" class="st5">
			<text transform="matrix(1 0 0 1 321.2195 295.2402)" class="st6 st7 st8">1k</text>
		</g>
		<g id="gge7063" class="st5">
			<text transform="matrix(1 0 0 1 321.2195 276.7998)" class="st6 st7 st8">R105</text>
		</g>
		<line id="gge7065" class="st4" x1="307.2" y1="300.5" x2="297.2" y2="294.5"/>
		<line id="gge7066" class="st4" x1="317.2" y1="284.5" x2="297.2" y2="274.5"/>
		<line id="gge7067" class="st4" x1="297.2" y1="294.5" x2="317.2" y2="284.5"/>
		<g id="gge7068">
			<circle class="st10" cx="307.2" cy="310.5" r="4"/>
			<path class="st4" d="M307.2,310.5v-10"/>
			<text transform="matrix(-1.836970e-16 -1 1 -1.836970e-16 307.2195 292.5)" class="st11 st0 st8">2</text>
			<text transform="matrix(-1.836970e-16 -1 1 -1.836970e-16 299.2195 317.4004)" class="st11 st0 st8">2</text>
			<circle class="st12" cx="307.2" cy="306.5" r="6"/>
			<path class="st13" d="M313.2,300.5l-6-6l-6,6"/>
		</g>
		<line id="gge7075" class="st4" x1="297.2" y1="256.5" x2="317.2" y2="246.5"/>
		<line id="gge7076" class="st4" x1="297.2" y1="274.5" x2="317.2" y2="266.5"/>
		<line id="gge7077" class="st4" x1="317.2" y1="266.5" x2="297.2" y2="256.5"/>
		<line id="gge7078" class="st4" x1="317.2" y1="246.5" x2="307.2" y2="240.5"/>
		<g id="gge7079">
			<circle class="st10" cx="307.2" cy="230.5" r="4"/>
			<path class="st4" d="M307.2,230.5v10"/>
			<text transform="matrix(-1.836970e-16 -1 1 -1.836970e-16 307.2195 257.4004)" class="st11 st0 st8">1</text>
			<text transform="matrix(-1.836970e-16 -1 1 -1.836970e-16 299.2195 232.5)" class="st11 st0 st8">1</text>
			<circle class="st12" cx="307.2" cy="234.5" r="6"/>
			<path class="st13" d="M301.2,240.5l6,6l6-6"/>
		</g>
	</g>
	<g id="gge7087">
		<g id="gge7089" class="st5">
			<text transform="matrix(1 0 0 1 321.2195 115.2402)" class="st6 st7 st8">1k</text>
		</g>
		<g id="gge7091" class="st5">
			<text transform="matrix(1 0 0 1 321.2195 96.7998)" class="st6 st7 st8">R106</text>
		</g>
		<line id="gge7093" class="st4" x1="307.2" y1="120.5" x2="297.2" y2="114.5"/>
		<line id="gge7094" class="st4" x1="317.2" y1="104.5" x2="297.2" y2="94.5"/>
		<line id="gge7095" class="st4" x1="297.2" y1="114.5" x2="317.2" y2="104.5"/>
		<g id="gge7096">
			<circle class="st10" cx="307.2" cy="130.5" r="4"/>
			<path class="st4" d="M307.2,130.5v-10"/>
			<text transform="matrix(-1.836970e-16 -1 1 -1.836970e-16 307.2195 112.5)" class="st11 st0 st8">2</text>
			<text transform="matrix(-1.836970e-16 -1 1 -1.836970e-16 299.2195 137.4004)" class="st11 st0 st8">2</text>
			<circle class="st12" cx="307.2" cy="126.5" r="6"/>
			<path class="st13" d="M313.2,120.5l-6-6l-6,6"/>
		</g>
		<line id="gge7103" class="st4" x1="297.2" y1="76.5" x2="317.2" y2="66.5"/>
		<line id="gge7104" class="st4" x1="297.2" y1="94.5" x2="317.2" y2="86.5"/>
		<line id="gge7105" class="st4" x1="317.2" y1="86.5" x2="297.2" y2="76.5"/>
		<line id="gge7106" class="st4" x1="317.2" y1="66.5" x2="307.2" y2="60.5"/>
		<g id="gge7107">
			<circle class="st10" cx="307.2" cy="50.5" r="4"/>
			<path class="st4" d="M307.2,50.5v10"/>
			<text transform="matrix(-1.836970e-16 -1 1 -1.836970e-16 307.2195 77.4004)" class="st11 st0 st8">1</text>
			<text transform="matrix(-1.836970e-16 -1 1 -1.836970e-16 299.2195 52.5)" class="st11 st0 st8">1</text>
			<circle class="st12" cx="307.2" cy="54.5" r="6"/>
			<path class="st13" d="M301.2,60.5l6,6l6-6"/>
		</g>
	</g>
	<g id="gge7143">
		<g id="gge7145" class="st5">
			<text transform="matrix(1 0 0 1 481.2195 115.2402)" class="st6 st7 st8">1k</text>
		</g>
		<g id="gge7147" class="st5">
			<text transform="matrix(1 0 0 1 481.2195 96.7998)" class="st6 st7 st8">R108</text>
		</g>
		<line id="gge7149" class="st4" x1="467.2" y1="120.5" x2="457.2" y2="114.5"/>
		<line id="gge7150" class="st4" x1="477.2" y1="104.5" x2="457.2" y2="94.5"/>
		<line id="gge7151" class="st4" x1="457.2" y1="114.5" x2="477.2" y2="104.5"/>
		<g id="gge7152">
			<circle class="st10" cx="467.2" cy="130.5" r="4"/>
			<path class="st4" d="M467.2,130.5v-10"/>
			<text transform="matrix(-1.836970e-16 -1 1 -1.836970e-16 467.2195 112.5)" class="st11 st0 st8">2</text>
			<text transform="matrix(-1.836970e-16 -1 1 -1.836970e-16 459.2195 137.4004)" class="st11 st0 st8">2</text>
			<circle class="st12" cx="467.2" cy="126.5" r="6"/>
			<path class="st13" d="M473.2,120.5l-6-6l-6,6"/>
		</g>
		<line id="gge7159" class="st4" x1="457.2" y1="76.5" x2="477.2" y2="66.5"/>
		<line id="gge7160" class="st4" x1="457.2" y1="94.5" x2="477.2" y2="86.5"/>
		<line id="gge7161" class="st4" x1="477.2" y1="86.5" x2="457.2" y2="76.5"/>
		<line id="gge7162" class="st4" x1="477.2" y1="66.5" x2="467.2" y2="60.5"/>
		<g id="gge7163">
			<circle class="st10" cx="467.2" cy="50.5" r="4"/>
			<path class="st4" d="M467.2,50.5v10"/>
			<text transform="matrix(-1.836970e-16 -1 1 -1.836970e-16 467.2195 77.4004)" class="st11 st0 st8">1</text>
			<text transform="matrix(-1.836970e-16 -1 1 -1.836970e-16 459.2195 52.5)" class="st11 st0 st8">1</text>
			<circle class="st12" cx="467.2" cy="54.5" r="6"/>
			<path class="st13" d="M461.2,60.5l6,6l6-6"/>
		</g>
	</g>
	<polyline id="gge7170" class="st4" points="167.2,310.5 167.2,340.5 137.2,340.5 	"/>
	<polyline id="gge7171" class="st4" points="307.2,310.5 307.2,340.5 167.2,340.5 	"/>
	<polyline id="gge7173" class="st4" points="277.2,200.5 307.2,200.5 307.2,230.5 	"/>
	<polyline id="gge7176" class="st4" points="197.2,200.5 167.2,200.5 167.2,230.5 	"/>
	<polyline id="gge7216" class="st4" points="467.2,50.5 467.2,20.5 307.2,20.5 307.2,50.5 	"/>
	<polyline id="gge7217" class="st4" points="497.2,180.5 467.2,180.5 467.2,130.5 	"/>
	<line id="gge7221" class="st4" x1="497.2" y1="340.5" x2="307.2" y2="340.5"/>
	<g id="gge7223">
		<circle class="st10" cx="307.2" cy="340.5" r="4"/>
		<text transform="matrix(1 0 0 1 285.2195 314.5)" class="st11 st14 st15">GND</text>
		<line id="gge7226" class="st4" x1="307.2" y1="360.5" x2="307.2" y2="340.5"/>
		<line id="gge7227" class="st4" x1="287.2" y1="360.5" x2="325.2" y2="360.5"/>
		<line id="gge7228" class="st4" x1="295.2" y1="364.5" x2="321.2" y2="364.5"/>
		<line id="gge7229" class="st4" x1="299.2" y1="368.5" x2="313.2" y2="368.5"/>
		<line id="gge7230" class="st4" x1="305.2" y1="372.5" x2="309.2" y2="372.5"/>
	</g>
	<g id="gge7235">
		<text transform="matrix(1 0 0 1 207.2195 180.5)" class="st16 st3">10kΩ</text>
	</g>
	<g id="gge7238">
		<text transform="matrix(1 0 0 1 317.2195 280.5)" class="st16 st3">10kΩ</text>
	</g>
	<g id="gge7241">
		<text transform="matrix(1 0 0 1 407.2195 100.5)" class="st16 st3">400Ω</text>
	</g>
	<g id="gge7244">
		<text transform="matrix(1 0 0 1 247.2195 100.5)" class="st16 st3">400Ω</text>
	</g>
	<g id="gge7247">
		<text transform="matrix(1 0 0 1 77.2195 310.5)" class="st17 st0 st3">Vs1</text>
	</g>
	<g id="gge7250">
		<text transform="matrix(1 0 0 1 197.2195 280.5)" class="st17 st0 st3">Vs2</text>
	</g>
	<g id="gge7255">
		<g id="gge7257" class="st5">
			<text transform="matrix(1 0 0 1 110.0945 144.5)" class="st6 st7 st8">1k</text>
		</g>
		<g id="gge7259" class="st5">
			<text transform="matrix(1 0 0 1 110.0994 126.5)" class="st6 st7 st8">R98</text>
		</g>
		<line id="gge7261" class="st4" x1="97.2" y1="160.5" x2="103.2" y2="150.5"/>
		<line id="gge7262" class="st4" x1="113.2" y1="170.5" x2="123.2" y2="150.5"/>
		<line id="gge7263" class="st4" x1="103.2" y1="150.5" x2="113.2" y2="170.5"/>
		<g id="gge7264">
			<circle class="st10" cx="87.2" cy="160.5" r="4"/>
			<path class="st4" d="M87.2,160.5h10"/>
			<text transform="matrix(1 0 0 1 105.2195 160.5)" class="st11 st0 st8">2</text>
			<text transform="matrix(1 0 0 1 80.3191 152.5)" class="st11 st0 st8">2</text>
			<circle class="st12" cx="91.2" cy="160.5" r="6"/>
			<path class="st13" d="M97.2,166.5l6-6l-6-6"/>
		</g>
		<line id="gge7271" class="st4" x1="141.2" y1="150.5" x2="151.2" y2="170.5"/>
		<line id="gge7272" class="st4" x1="123.2" y1="150.5" x2="131.2" y2="170.5"/>
		<line id="gge7273" class="st4" x1="131.2" y1="170.5" x2="141.2" y2="150.5"/>
		<line id="gge7274" class="st4" x1="151.2" y1="170.5" x2="157.2" y2="160.5"/>
		<g id="gge7275">
			<circle class="st10" cx="167.2" cy="160.5" r="4"/>
			<path class="st4" d="M167.2,160.5h-10"/>
			<text transform="matrix(1 0 0 1 140.3191 160.5)" class="st11 st0 st8">1</text>
			<text transform="matrix(1 0 0 1 165.2195 152.5)" class="st11 st0 st8">1</text>
			<circle class="st12" cx="163.2" cy="160.5" r="6"/>
			<path class="st13" d="M157.2,154.5l-6,6l6,6"/>
		</g>
	</g>
	<g id="gge7283">
		<g id="gge7285" class="st5">
			<text transform="matrix(1 0 0 1 110.0945 64.5)" class="st6 st7 st8">1k</text>
		</g>
		<g id="gge7287" class="st5">
			<text transform="matrix(1 0 0 1 110.0994 46.5)" class="st6 st7 st8">R107</text>
		</g>
		<line id="gge7289" class="st4" x1="97.2" y1="80.5" x2="103.2" y2="70.5"/>
		<line id="gge7290" class="st4" x1="113.2" y1="90.5" x2="123.2" y2="70.5"/>
		<line id="gge7291" class="st4" x1="103.2" y1="70.5" x2="113.2" y2="90.5"/>
		<g id="gge7292">
			<circle class="st10" cx="87.2" cy="80.5" r="4"/>
			<path class="st4" d="M87.2,80.5h10"/>
			<text transform="matrix(1 0 0 1 105.2195 80.5)" class="st11 st0 st8">2</text>
			<text transform="matrix(1 0 0 1 80.3191 72.5)" class="st11 st0 st8">2</text>
			<circle class="st12" cx="91.2" cy="80.5" r="6"/>
			<path class="st13" d="M97.2,86.5l6-6l-6-6"/>
		</g>
		<line id="gge7299" class="st4" x1="141.2" y1="70.5" x2="151.2" y2="90.5"/>
		<line id="gge7300" class="st4" x1="123.2" y1="70.5" x2="131.2" y2="90.5"/>
		<line id="gge7301" class="st4" x1="131.2" y1="90.5" x2="141.2" y2="70.5"/>
		<line id="gge7302" class="st4" x1="151.2" y1="90.5" x2="157.2" y2="80.5"/>
		<g id="gge7303">
			<circle class="st10" cx="167.2" cy="80.5" r="4"/>
			<path class="st4" d="M167.2,80.5h-10"/>
			<text transform="matrix(1 0 0 1 140.3191 80.5)" class="st11 st0 st8">1</text>
			<text transform="matrix(1 0 0 1 165.2195 72.5)" class="st11 st0 st8">1</text>
			<circle class="st12" cx="163.2" cy="80.5" r="6"/>
			<path class="st13" d="M157.2,74.5l-6,6l6,6"/>
		</g>
	</g>
	<polyline id="gge7310" class="st4" points="57.2,340.5 27.2,340.5 27.2,80.5 87.2,80.5 	"/>
	<polyline id="gge7311" class="st4" points="167.2,80.5 207.2,80.5 207.2,160.5 167.2,160.5 	"/>
	<line id="gge7312" class="st4" x1="87.2" y1="160.5" x2="27.2" y2="160.5"/>
	<polyline id="gge7315" class="st4" points="207.2,160.5 307.2,160.5 307.2,130.5 	"/>
	<g id="gge7320">
		<text transform="matrix(1 0 0 1 97.2195 140.5)" class="st16 st3">5kΩ</text>
	</g>
	<g id="gge7323">
		<text transform="matrix(1 0 0 1 97.2195 60.5)" class="st16 st3">5kΩ</text>
	</g>
	<g id="gge7222">
		<circle class="st10" cx="307.2" cy="340.5" r="4"/>
		<circle cx="307.2" cy="340.5" r="5"/>
	</g>
	<g id="gge7220">
		<circle class="st10" cx="467.2" cy="180.5" r="4"/>
		<circle cx="467.2" cy="180.5" r="5"/>
	</g>
	<g id="gge7175">
		<circle class="st10" cx="307.2" cy="200.5" r="4"/>
		<circle cx="307.2" cy="200.5" r="5"/>
	</g>
	<g id="gge7172">
		<circle class="st10" cx="167.2" cy="340.5" r="4"/>
		<circle cx="167.2" cy="340.5" r="5"/>
	</g>
	<g id="gge7313">
		<circle class="st10" cx="27.2" cy="160.5" r="4"/>
		<circle cx="27.2" cy="160.5" r="5"/>
	</g>
	<g id="gge7317">
		<circle class="st10" cx="207.2" cy="160.5" r="4"/>
		<circle cx="207.2" cy="160.5" r="5"/>
	</g>
	<g id="gge7318">
		<circle class="st10" cx="307.2" cy="160.5" r="4"/>
		<circle cx="307.2" cy="160.5" r="5"/>
	</g>
	<g id="rep2">
		<path d="M497.2,330.5l8-4l-8,10l-8-10L497.2,330.5z"/>
	</g>
</g>
<g>
	<g id="ni34a4_1_">
		
			<image style="overflow:visible;" width="1200" height="423" id="ni34a4_00000114052095137766275830000010247063283131300264_" xlink:href="9A7D884A51BA5D4E.png"  transform="matrix(3.635557e-02 0 0 3.635557e-02 481.905 370.6412)">
		</image>
	</g>
	<g>
		<text transform="matrix(1 0 0 1 481.7127 393.9828)" class="st18 st19">UBC Engineering</text>
	</g>
</g>
</svg>
