<?xml version="1.0" encoding="utf-8"?>
<!-- Generator: Adobe Illustrator 26.3.1, SVG Export Plug-In . SVG Version: 6.00 Build 0)  -->
<svg version="1.1" id="Layer_1" xmlns="http://www.w3.org/2000/svg" xmlns:xlink="http://www.w3.org/1999/xlink" x="0px" y="0px"
	 viewBox="0 0 346.9 271.4" style="enable-background:new 0 0 346.9 271.4;" xml:space="preserve">
<style type="text/css">
	.st0{display:none;}
	.st1{display:inline;}
	.st2{font-family:'ArialMT';}
	.st3{font-size:10.1754px;}
	.st4{fill:none;stroke:#000000;}
	.st5{fill:none;}
	.st6{fill:none;stroke:#000000;stroke-linecap:round;stroke-linejoin:round;}
	.st7{display:none;enable-background:new    ;}
	.st8{font-family:'Verdana';}
	.st9{display:none;fill:none;stroke:#000000;}
	.st10{display:none;fill:none;stroke:#000000;stroke-linecap:round;stroke-linejoin:round;}
	.st11{font-size:9.4486px;}
	.st12{fill:#FF3366;}
	.st13{font-size:10.9023px;}
	.st14{fill:#0066CC;}
	.st15{font-family:'Helvetica';}
	.st16{fill:none;stroke:#FFFFFF;}
	.st17{font-family:'Folio-Medium';}
	.st18{font-size:5.504px;}
</style>
<g id="g1">
	<g id="gge212">
		<g id="gge214" class="st0">
			<text transform="matrix(1 0 0 1 85.5044 143.6124)" class="st1 st2 st3">SIN(0 1 50) AC 1 0</text>
		</g>
		<g id="gge216" class="st0">
			<text transform="matrix(1 0 0 1 24.4517 132.8702)" class="st1 st2 st3">24V</text>
		</g>
		<ellipse id="gge218" class="st4" cx="68.1" cy="125.6" rx="14.5" ry="14.5"/>
		<g id="gge219">
			<circle class="st5" cx="68.1" cy="96.5" r="2.9"/>
			<path class="st6" d="M68.1,111.1V96.5"/>
			<text transform="matrix(-1.836970e-16 -1 1 -1.836970e-16 68.0601 120.4406)" class="st7 st8 st3">1</text>
			<text transform="matrix(-1.836970e-16 -1 1 -1.836970e-16 62.2456 105.2511)" class="st7 st8 st3">1</text>
			<circle class="st9" cx="68.1" cy="77.6" r="4.4"/>
			<path class="st10" d="M63.7,82l4.4,4.4l4.4-4.4"/>
		</g>
		<line id="gge226" class="st6" x1="65.2" y1="116.9" x2="71" y2="116.9"/>
		<line id="gge227" class="st6" x1="68.1" y1="114" x2="68.1" y2="119.8"/>
		<g id="gge228">
			<circle class="st5" cx="68.1" cy="154.7" r="2.9"/>
			<path class="st6" d="M68.1,140.1v14.5"/>
			<text transform="matrix(-1.836970e-16 -1 1 -1.836970e-16 68.0601 134.3234)" class="st7 st8 st3">2</text>
			<text transform="matrix(-1.836970e-16 -1 1 -1.836970e-16 62.2456 152.421)" class="st7 st8 st3">2</text>
			<circle class="st9" cx="68.1" cy="173.6" r="4.4"/>
			<path class="st10" d="M72.4,169.2l-4.4-4.4l-4.4,4.4"/>
		</g>
		<line id="gge235" class="st6" x1="71" y1="134.3" x2="65.2" y2="134.3"/>
	</g>
	<g id="gge236">
		<g id="gge238" class="st0">
			<text transform="matrix(1 0 0 1 103.0059 48.5597)" class="st1 st2 st3">1k</text>
		</g>
		<g id="gge240" class="st0">
			<text transform="matrix(1 0 0 1 97.1333 52.92)" class="st1 st2 st3">6K立</text>
		</g>
		<line id="gge242" class="st6" x1="133.5" y1="60.2" x2="129.1" y2="67.5"/>
		<line id="gge243" class="st6" x1="121.8" y1="52.9" x2="114.6" y2="67.5"/>
		<line id="gge244" class="st6" x1="129.1" y1="67.5" x2="121.8" y2="52.9"/>
		<g id="gge245">
			<circle class="st5" cx="140.7" cy="60.2" r="2.9"/>
			<path class="st6" d="M140.7,60.2h-7.3"/>
			<text transform="matrix(1 0 0 1 121.191 60.1886)" class="st7 st8 st3">2</text>
			<text transform="matrix(1 0 0 1 139.2886 54.3741)" class="st7 st8 st3">2</text>
			<circle class="st9" cx="137.8" cy="60.2" r="4.4"/>
			<path class="st10" d="M133.5,55.8l-4.4,4.4l4.4,4.4"/>
		</g>
		<line id="gge252" class="st6" x1="101.5" y1="67.5" x2="94.2" y2="52.9"/>
		<line id="gge253" class="st6" x1="114.6" y1="67.5" x2="108.8" y2="52.9"/>
		<line id="gge254" class="st6" x1="108.8" y1="52.9" x2="101.5" y2="67.5"/>
		<line id="gge255" class="st6" x1="94.2" y1="52.9" x2="89.9" y2="60.2"/>
		<g id="gge256">
			<circle class="st5" cx="82.6" cy="60.2" r="2.9"/>
			<path class="st6" d="M82.6,60.2h7.3"/>
			<text transform="matrix(1 0 0 1 95.6797 60.1886)" class="st7 st8 st3">1</text>
			<text transform="matrix(1 0 0 1 77.5816 54.3741)" class="st7 st8 st3">1</text>
			<circle class="st9" cx="85.5" cy="60.2" r="4.4"/>
			<path class="st10" d="M89.9,64.5l4.4-4.4l-4.4-4.4"/>
		</g>
	</g>
	<g id="gge263">
		<g id="gge265" class="st0">
			<text transform="matrix(1 0 0 1 165.4541 143.6124)" class="st1 st2 st3">1k</text>
		</g>
		<g id="gge267" class="st0">
			<text transform="matrix(1 0 0 1 165.4541 130.3849)" class="st1 st2 st3">6K立</text>
		</g>
		<line id="gge269" class="st6" x1="155.3" y1="103.8" x2="162.5" y2="108.2"/>
		<line id="gge270" class="st6" x1="148" y1="115.4" x2="162.5" y2="122.7"/>
		<line id="gge271" class="st6" x1="162.5" y1="108.2" x2="148" y2="115.4"/>
		<g id="gge272">
			<circle class="st5" cx="155.3" cy="96.5" r="2.9"/>
			<path class="st6" d="M155.3,96.5v7.3"/>
			<text transform="matrix(-1.836970e-16 -1 1 -1.836970e-16 155.2784 116.0812)" class="st7 st8 st3">2</text>
			<text transform="matrix(-1.836970e-16 -1 1 -1.836970e-16 149.4639 97.9816)" class="st7 st8 st3">2</text>
			<circle class="st9" cx="155.3" cy="99.4" r="4.4"/>
			<path class="st10" d="M150.9,103.8l4.4,4.4l4.4-4.4"/>
		</g>
		<line id="gge279" class="st6" x1="162.5" y1="135.8" x2="148" y2="143"/>
		<line id="gge280" class="st6" x1="162.5" y1="122.7" x2="148" y2="128.5"/>
		<line id="gge281" class="st6" x1="148" y1="128.5" x2="162.5" y2="135.8"/>
		<line id="gge282" class="st6" x1="148" y1="143" x2="155.3" y2="147.4"/>
		<g id="gge283">
			<circle class="st5" cx="155.3" cy="154.7" r="2.9"/>
			<path class="st6" d="M155.3,154.7v-7.3"/>
			<text transform="matrix(-1.836970e-16 -1 1 -1.836970e-16 155.2784 141.5909)" class="st7 st8 st3">1</text>
			<text transform="matrix(-1.836970e-16 -1 1 -1.836970e-16 149.4639 159.6906)" class="st7 st8 st3">1</text>
			<circle class="st9" cx="155.3" cy="151.8" r="4.4"/>
			<path class="st10" d="M159.6,147.4l-4.4-4.4l-4.4,4.4"/>
		</g>
	</g>
	<g id="gge317">
		<g id="gge319" class="st0">
			<text transform="matrix(1 0 0 1 223.5992 172.6857)" class="st1 st2 st3">1k</text>
		</g>
		<g id="gge321" class="st0">
			<text transform="matrix(1 0 0 1 223.5992 159.4572)" class="st1 st2 st3">R2</text>
		</g>
		<line id="gge323" class="st6" x1="213.4" y1="132.9" x2="220.7" y2="137.2"/>
		<line id="gge324" class="st6" x1="206.2" y1="144.5" x2="220.7" y2="151.8"/>
		<line id="gge325" class="st6" x1="220.7" y1="137.2" x2="206.2" y2="144.5"/>
		<g id="gge326">
			<circle class="st5" cx="213.4" cy="125.6" r="2.9"/>
			<path class="st6" d="M213.4,125.6v7.3"/>
			<text transform="matrix(-1.836970e-16 -1 1 -1.836970e-16 213.4234 145.1534)" class="st7 st8 st3">2</text>
			<text transform="matrix(-1.836970e-16 -1 1 -1.836970e-16 207.6089 127.0558)" class="st7 st8 st3">2</text>
			<circle class="st9" cx="213.4" cy="128.5" r="4.4"/>
			<path class="st10" d="M209.1,132.9l4.4,4.4l4.4-4.4"/>
		</g>
		<line id="gge333" class="st6" x1="220.7" y1="164.9" x2="206.2" y2="172.1"/>
		<line id="gge334" class="st6" x1="220.7" y1="151.8" x2="206.2" y2="157.6"/>
		<line id="gge335" class="st6" x1="206.2" y1="157.6" x2="220.7" y2="164.9"/>
		<line id="gge336" class="st6" x1="206.2" y1="172.1" x2="213.4" y2="176.5"/>
		<g id="gge337">
			<circle class="st5" cx="213.4" cy="183.7" r="2.9"/>
			<path class="st6" d="M213.4,183.7v-7.3"/>
			<text transform="matrix(-1.836970e-16 -1 1 -1.836970e-16 213.4234 170.6652)" class="st7 st8 st3">1</text>
			<text transform="matrix(-1.836970e-16 -1 1 -1.836970e-16 207.6089 188.7628)" class="st7 st8 st3">1</text>
			<circle class="st9" cx="213.4" cy="180.8" r="4.4"/>
			<path class="st10" d="M217.8,176.5l-4.4-4.4l-4.4,4.4"/>
		</g>
	</g>
	<polyline id="gge345" class="st6" points="155.3,96.5 155.3,60.2 140.7,60.2 	"/>
	<polyline id="gge346" class="st6" points="68.1,154.7 68.1,183.7 155.3,183.7 155.3,154.7 	"/>
	<polyline id="gge349" class="st6" points="68.1,96.5 68.1,60.2 82.6,60.2 	"/>
	<g id="gge350">
		<g id="gge352" class="st0">
			<text transform="matrix(1 0 0 1 223.5992 107.2716)" class="st1 st2 st3">1k</text>
		</g>
		<g id="gge354" class="st0">
			<text transform="matrix(1 0 0 1 223.5992 94.0441)" class="st1 st2 st3">R1</text>
		</g>
		<line id="gge356" class="st6" x1="213.4" y1="67.5" x2="220.7" y2="71.8"/>
		<line id="gge357" class="st6" x1="206.2" y1="79.1" x2="220.7" y2="86.4"/>
		<line id="gge358" class="st6" x1="220.7" y1="71.8" x2="206.2" y2="79.1"/>
		<g id="gge359">
			<circle class="st5" cx="213.4" cy="60.2" r="2.9"/>
			<path class="st6" d="M213.4,60.2v7.3"/>
			<text transform="matrix(-1.836970e-16 -1 1 -1.836970e-16 213.4234 79.7394)" class="st7 st8 st3">2</text>
			<text transform="matrix(-1.836970e-16 -1 1 -1.836970e-16 207.6089 61.6417)" class="st7 st8 st3">2</text>
			<circle class="st9" cx="213.4" cy="63.1" r="4.4"/>
			<path class="st10" d="M209.1,67.5l4.4,4.4l4.4-4.4"/>
		</g>
		<line id="gge366" class="st6" x1="220.7" y1="99.4" x2="206.2" y2="106.7"/>
		<line id="gge367" class="st6" x1="220.7" y1="86.4" x2="206.2" y2="92.2"/>
		<line id="gge368" class="st6" x1="206.2" y1="92.2" x2="220.7" y2="99.4"/>
		<line id="gge369" class="st6" x1="206.2" y1="106.7" x2="213.4" y2="111.1"/>
		<g id="gge370">
			<circle class="st5" cx="213.4" cy="118.3" r="2.9"/>
			<path class="st6" d="M213.4,118.3v-7.3"/>
			<text transform="matrix(-1.836970e-16 -1 1 -1.836970e-16 213.4234 105.2511)" class="st7 st8 st3">1</text>
			<text transform="matrix(-1.836970e-16 -1 1 -1.836970e-16 207.6089 123.3488)" class="st7 st8 st3">1</text>
			<circle class="st9" cx="213.4" cy="115.4" r="4.4"/>
			<path class="st10" d="M217.8,111.1l-4.4-4.4l-4.4,4.4"/>
		</g>
	</g>
	<line id="gge377" class="st6" x1="213.4" y1="60.2" x2="155.3" y2="60.2"/>
	<polyline id="gge380" class="st6" points="257,125.6 213.4,125.6 213.4,118.3 	"/>
	<polyline id="gge382" class="st6" points="257,183.7 213.4,183.7 155.3,183.7 	"/>
	<polyline id="gge396" class="st6" points="300.6,38.4 155.3,38.4 155.3,60.2 	"/>
	<polyline id="gge397" class="st6" points="300.6,205.6 155.3,205.6 155.3,183.7 	"/>
	<line id="gge420" class="st6" x1="257" y1="176.5" x2="257" y2="132.9"/>
	<line id="gge421" class="st6" x1="300.6" y1="45.7" x2="300.6" y2="198.3"/>
	<g id="gge431">
		<text transform="matrix(1 0 0 1 300.6421 36.7706)" class="st8 st11">+</text>
	</g>
	<g id="gge434">
		<text transform="matrix(1 0 0 1 300.6421 212.8204)" class="st8 st11">-</text>
	</g>
	<g id="gge437">
		<text transform="matrix(1 0 0 1 257.0327 191.0157)" class="st8 st11">-</text>
	</g>
	<g id="gge440">
		<text transform="matrix(1 0 0 1 257.0327 125.6027)" class="st8 st11">+</text>
	</g>
	<g id="gge442">
		<text transform="matrix(1 0 0 1 307.9107 125.6027)" class="st12 st8 st13">V1</text>
	</g>
	<g id="gge445">
		<text transform="matrix(1 0 0 1 264.3013 161.9425)" class="st12 st8 st13">V2</text>
	</g>
	<g id="gge448">
		<text transform="matrix(1 0 0 1 220.6929 160.5909)" class="st14 st15 st13">R1</text>
	</g>
	<g id="gge451">
		<text transform="matrix(1 0 0 1 220.6929 96.5294)" class="st14 st15 st13">R2</text>
	</g>
	<g id="gge454">
		<text transform="matrix(1 0 0 1 162.5469 132.8702)" class="st15 st13">6k立</text>
	</g>
	<g id="gge457">
		<text transform="matrix(1 0 0 1 97.1333 45.6525)" class="st15 st13">4k立</text>
	</g>
	<g id="gge460">
		<text transform="matrix(1 0 0 1 24.4517 132.8702)" class="st15 st13">24V</text>
	</g>
	<rect id="gge468" x="17.2" y="23.8" class="st16" width="312.5" height="189"/>
	<g id="gge430">
		<circle class="st5" cx="155.3" cy="183.7" r="2.9"/>
		<circle cx="155.3" cy="183.7" r="3.6"/>
	</g>
	<g id="gge391">
		<circle class="st5" cx="213.4" cy="125.6" r="2.9"/>
		<circle cx="213.4" cy="125.6" r="3.6"/>
	</g>
	<g id="gge387">
		<circle class="st5" cx="213.4" cy="183.7" r="2.9"/>
		<circle cx="213.4" cy="183.7" r="3.6"/>
	</g>
	<g id="gge381">
		<circle class="st5" cx="155.3" cy="60.2" r="2.9"/>
		<circle cx="155.3" cy="60.2" r="3.6"/>
	</g>
	<g id="gge403">
		<path d="M300.6,45.7l-5.8,2.9l5.8-7.3l5.8,7.3L300.6,45.7z"/>
	</g>
	<g id="gge406">
		<path d="M300.6,198.3l5.8-2.9l-5.8,7.3l-5.8-7.3L300.6,198.3z"/>
	</g>
	<g id="gge409">
		<path d="M257,176.5l5.8-2.9l-5.8,7.3l-5.8-7.3L257,176.5z"/>
	</g>
	<g id="gge412">
		<path d="M257,132.9l-5.8,2.9l5.8-7.3l5.8,7.3L257,132.9z"/>
	</g>
</g>
<g>
	<g id="ni34a4_1_">
		
			<image style="overflow:visible;" width="1200" height="423" id="ni34a4_00000114052095137766275830000010247063283131300264_" xlink:href="9851EF025A08A27C.png"  transform="matrix(3.635557e-02 0 0 3.635557e-02 26.0798 238.7997)">
		</image>
	</g>
	<g>
		<text transform="matrix(1 0 0 1 25.8875 262.1412)" class="st17 st18">UBC Engineering</text>
	</g>
</g>
</svg>
