<?xml version="1.0" encoding="utf-8"?>
<!-- Generator: Adobe Illustrator 26.3.1, SVG Export Plug-In . SVG Version: 6.00 Build 0)  -->
<svg version="1.1" id="Layer_1" xmlns="http://www.w3.org/2000/svg" xmlns:xlink="http://www.w3.org/1999/xlink" x="0px" y="0px"
	 viewBox="0 0 567.6 313.2" style="enable-background:new 0 0 567.6 313.2;" xml:space="preserve">
<style type="text/css">
	.st0{display:none;}
	.st1{display:inline;}
	.st2{font-family:'ArialMT';}
	.st3{font-size:16.216px;}
	.st4{fill:none;stroke:#000000;stroke-width:2.3166;stroke-linecap:round;stroke-linejoin:round;}
	.st5{fill:none;}
	.st6{display:none;enable-background:new    ;}
	.st7{font-family:'Verdana';}
	.st8{display:none;fill:none;stroke:#000000;stroke-width:2.3166;}
	.st9{display:none;fill:none;stroke:#000000;stroke-width:2.3166;stroke-linecap:round;stroke-linejoin:round;}
	.st10{fill:none;stroke:#000000;stroke-width:2.3166;stroke-linecap:round;}
	.st11{font-family:'TimesNewRomanPSMT';}
	.st12{fill:none;stroke:#000000;stroke-width:2.3166;}
	.st13{fill:#FF3366;}
	.st14{font-size:17.3743px;}
	.st15{font-size:15.0577px;}
	.st16{fill:#0066CC;}
	.st17{font-family:'Helvetica';}
	.st18{font-family:'Folio-Medium';}
	.st19{font-size:5.504px;}
</style>
<g id="g1">
	<g id="gge3134">
		<g id="gge3136" class="st0">
			<text transform="matrix(1 0 0 1 194.6849 53.0107)" class="st1 st2 st3">1k</text>
		</g>
		<g id="gge3138" class="st0">
			<text transform="matrix(1 0 0 1 194.6849 31.9072)" class="st1 st2 st3">R48</text>
		</g>
		<line id="gge3140" class="st4" x1="243.2" y1="71.5" x2="236.3" y2="83.1"/>
		<line id="gge3141" class="st4" x1="224.7" y1="60" x2="213.1" y2="83.1"/>
		<line id="gge3142" class="st4" x1="236.3" y1="83.1" x2="224.7" y2="60"/>
		<g id="gge3143">
			<circle class="st5" cx="254.8" cy="71.5" r="4.6"/>
			<path class="st4" d="M254.8,71.5h-11.6"/>
			<text transform="matrix(1 0 0 1 223.6644 71.5439)" class="st6 st7 st3">2</text>
			<text transform="matrix(1 0 0 1 252.5061 62.2773)" class="st6 st7 st3">2</text>
			<circle class="st8" cx="250.2" cy="71.5" r="6.9"/>
			<path class="st9" d="M243.2,64.6l-6.9,6.9l6.9,6.9"/>
		</g>
		<line id="gge3150" class="st4" x1="192.3" y1="83.1" x2="180.7" y2="60"/>
		<line id="gge3151" class="st4" x1="213.1" y1="83.1" x2="203.9" y2="60"/>
		<line id="gge3152" class="st4" x1="203.9" y1="60" x2="192.3" y2="83.1"/>
		<line id="gge3153" class="st4" x1="180.7" y1="60" x2="173.7" y2="71.5"/>
		<g id="gge3154">
			<circle class="st5" cx="162.2" cy="71.5" r="4.6"/>
			<path class="st4" d="M162.2,71.5h11.6"/>
			<text transform="matrix(1 0 0 1 183.0091 71.5439)" class="st6 st7 st3">1</text>
			<text transform="matrix(1 0 0 1 154.1673 62.2773)" class="st6 st7 st3">1</text>
			<circle class="st8" cx="166.8" cy="71.5" r="6.9"/>
			<path class="st9" d="M173.7,78.5l6.9-6.9l-6.9-6.9"/>
		</g>
	</g>
	<g id="gge3186">
		<circle class="st5" cx="104.2" cy="152.6" r="4.6"/>
		<circle class="st5" cx="127.4" cy="129.5" r="4.6"/>
		<line class="st10" x1="104.2" y1="152.6" x2="127.4" y2="129.5"/>
	</g>
	<g id="gge3190">
		<circle class="st5" cx="150.6" cy="152.6" r="4.6"/>
		<circle class="st5" cx="127.4" cy="129.5" r="4.6"/>
		<line class="st10" x1="150.6" y1="152.6" x2="127.4" y2="129.5"/>
	</g>
	<g id="gge3194">
		<circle class="st5" cx="127.4" cy="175.8" r="4.6"/>
		<circle class="st5" cx="104.2" cy="152.6" r="4.6"/>
		<line class="st10" x1="127.4" y1="175.8" x2="104.2" y2="152.6"/>
	</g>
	<g id="gge3198">
		<circle class="st5" cx="150.6" cy="152.6" r="4.6"/>
		<circle class="st5" cx="127.4" cy="175.8" r="4.6"/>
		<line class="st10" x1="150.6" y1="152.6" x2="127.4" y2="175.8"/>
	</g>
	<polyline id="gge3232" class="st4" points="162.2,71.5 127.4,71.5 127.4,106.3 127.4,129.5 	"/>
	<polyline id="gge3235" class="st4" points="162.2,233.7 162.2,233.7 127.4,233.7 127.4,199 127.4,175.8 	"/>
	<g id="gge3343">
		<g id="gge3344" class="st0">
			<text transform="matrix(1 0 0 1 127.4114 189.6885)" class="st1 st11 st3">none</text>
		</g>
		<g id="gge3346" class="st0">
			<text transform="matrix(1 0 0 1 127.4114 122.5078)" class="st1 st11 st3">DVS</text>
		</g>
		<line id="gge3217" class="st4" x1="122.8" y1="138.7" x2="132" y2="138.7"/>
		<line id="gge3218" class="st4" x1="127.4" y1="134.1" x2="127.4" y2="143.4"/>
		<line id="gge3226" class="st4" x1="132" y1="166.5" x2="122.8" y2="166.5"/>
	</g>
	<g id="gge3357">
		<g id="gge3359" class="st0">
			<text transform="matrix(1 0 0 1 194.6849 215.1709)" class="st1 st2 st3">1k</text>
		</g>
		<g id="gge3361" class="st0">
			<text transform="matrix(1 0 0 1 194.6849 194.0664)" class="st1 st2 st3">R53</text>
		</g>
		<line id="gge3363" class="st4" x1="243.2" y1="233.7" x2="236.3" y2="245.3"/>
		<line id="gge3364" class="st4" x1="224.7" y1="222.1" x2="213.1" y2="245.3"/>
		<line id="gge3365" class="st4" x1="236.3" y1="245.3" x2="224.7" y2="222.1"/>
		<g id="gge3366">
			<circle class="st5" cx="254.8" cy="233.7" r="4.6"/>
			<path class="st4" d="M254.8,233.7h-11.6"/>
			<text transform="matrix(1 0 0 1 223.6644 233.7031)" class="st6 st7 st3">2</text>
			<text transform="matrix(1 0 0 1 252.5061 224.4375)" class="st6 st7 st3">2</text>
			<circle class="st8" cx="250.2" cy="233.7" r="6.9"/>
			<path class="st9" d="M243.2,226.8l-6.9,6.9l6.9,6.9"/>
		</g>
		<line id="gge3373" class="st4" x1="192.3" y1="245.3" x2="180.7" y2="222.1"/>
		<line id="gge3374" class="st4" x1="213.1" y1="245.3" x2="203.9" y2="222.1"/>
		<line id="gge3375" class="st4" x1="203.9" y1="222.1" x2="192.3" y2="245.3"/>
		<line id="gge3376" class="st4" x1="180.7" y1="222.1" x2="173.7" y2="233.7"/>
		<g id="gge3377">
			<circle class="st5" cx="162.2" cy="233.7" r="4.6"/>
			<path class="st4" d="M162.2,233.7h11.6"/>
			<text transform="matrix(1 0 0 1 183.0091 233.7031)" class="st6 st7 st3">1</text>
			<text transform="matrix(1 0 0 1 154.1673 224.4375)" class="st6 st7 st3">1</text>
			<circle class="st8" cx="166.8" cy="233.7" r="6.9"/>
			<path class="st9" d="M173.7,240.7l6.9-6.9l-6.9-6.9"/>
		</g>
	</g>
	<g id="gge3385">
		<g id="gge3387" class="st0">
			<text transform="matrix(1 0 0 1 305.7874 181.3486)" class="st1 st2 st3">1k</text>
		</g>
		<g id="gge3389" class="st0">
			<text transform="matrix(1 0 0 1 305.7874 160.1289)" class="st1 st2 st3">R54</text>
		</g>
		<line id="gge3391" class="st4" x1="289.6" y1="117.9" x2="301.2" y2="124.8"/>
		<line id="gge3392" class="st4" x1="278" y1="136.4" x2="301.2" y2="148"/>
		<line id="gge3393" class="st4" x1="301.2" y1="124.8" x2="278" y2="136.4"/>
		<g id="gge3394">
			<circle class="st5" cx="289.6" cy="106.3" r="4.6"/>
			<path class="st4" d="M289.6,106.3v11.6"/>
			<text transform="matrix(-1.836970e-16 -1 1 -1.836970e-16 289.5716 137.4512)" class="st6 st7 st3">2</text>
			<text transform="matrix(-1.836970e-16 -1 1 -1.836970e-16 280.305 108.6094)" class="st6 st7 st3">2</text>
			<circle class="st8" cx="289.6" cy="110.9" r="6.9"/>
			<path class="st9" d="M282.6,117.9l6.9,6.9l6.9-6.9"/>
		</g>
		<line id="gge3401" class="st4" x1="301.2" y1="168.8" x2="278" y2="180.4"/>
		<line id="gge3402" class="st4" x1="301.2" y1="148" x2="278" y2="157.3"/>
		<line id="gge3403" class="st4" x1="278" y1="157.3" x2="301.2" y2="168.8"/>
		<line id="gge3404" class="st4" x1="278" y1="180.4" x2="289.6" y2="187.4"/>
		<g id="gge3405">
			<circle class="st5" cx="289.6" cy="199" r="4.6"/>
			<path class="st4" d="M289.6,199v-11.6"/>
			<text transform="matrix(-1.836970e-16 -1 1 -1.836970e-16 289.5716 178.1055)" class="st6 st7 st3">1</text>
			<text transform="matrix(-1.836970e-16 -1 1 -1.836970e-16 280.305 206.9473)" class="st6 st7 st3">1</text>
			<circle class="st8" cx="289.6" cy="194.3" r="6.9"/>
			<path class="st9" d="M296.5,187.4l-6.9-6.9l-6.9,6.9"/>
		</g>
	</g>
	<g id="gge3413">
		<g id="gge3415" class="st0">
			<text transform="matrix(1 0 0 1 357.4232 41.4287)" class="st1 st2 st3">SIN(0 1 50) AC 1 0</text>
		</g>
		<g id="gge3417" class="st0">
			<text transform="matrix(1 0 0 1 357.4232 20.208)" class="st1 st2 st3">V7</text>
		</g>
		<ellipse id="gge3419" class="st12" cx="370.7" cy="71.5" rx="23.2" ry="23.2"/>
		<g id="gge3420">
			<circle class="st5" cx="417" cy="71.5" r="4.6"/>
			<path class="st4" d="M393.8,71.5H417"/>
			<text transform="matrix(1 0 0 1 378.8743 71.5439)" class="st6 st7 st3">1</text>
			<text transform="matrix(1 0 0 1 403.0833 62.2773)" class="st6 st7 st3">1</text>
			<circle class="st8" cx="447.1" cy="71.5" r="6.9"/>
			<path class="st9" d="M440.1,64.6l-6.9,6.9l6.9,6.9"/>
		</g>
		<line id="gge3427" class="st4" x1="384.6" y1="66.9" x2="384.6" y2="76.2"/>
		<line id="gge3428" class="st4" x1="389.2" y1="71.5" x2="379.9" y2="71.5"/>
		<g id="gge3429">
			<circle class="st5" cx="324.3" cy="71.5" r="4.6"/>
			<path class="st4" d="M347.5,71.5h-23.2"/>
			<text transform="matrix(1 0 0 1 356.7513 71.5439)" class="st6 st7 st3">2</text>
			<text transform="matrix(1 0 0 1 327.9095 62.2773)" class="st6 st7 st3">2</text>
			<circle class="st8" cx="294.2" cy="71.5" r="6.9"/>
			<path class="st9" d="M301.2,78.5l6.9-6.9l-6.9-6.9"/>
		</g>
		<line id="gge3436" class="st4" x1="356.8" y1="76.2" x2="356.8" y2="66.9"/>
	</g>
	<g id="gge3438">
		<g id="gge3440" class="st0">
			<text transform="matrix(1 0 0 1 467.9466 181.3486)" class="st1 st2 st3">1k</text>
		</g>
		<g id="gge3442" class="st0">
			<text transform="matrix(1 0 0 1 467.9466 160.1289)" class="st1 st2 st3">R55</text>
		</g>
		<line id="gge3444" class="st4" x1="451.7" y1="117.9" x2="463.3" y2="124.8"/>
		<line id="gge3445" class="st4" x1="440.1" y1="136.4" x2="463.3" y2="148"/>
		<line id="gge3446" class="st4" x1="463.3" y1="124.8" x2="440.1" y2="136.4"/>
		<g id="gge3447">
			<circle class="st5" cx="451.7" cy="106.3" r="4.6"/>
			<path class="st4" d="M451.7,106.3v11.6"/>
			<text transform="matrix(-1.836970e-16 -1 1 -1.836970e-16 451.7308 137.4512)" class="st6 st7 st3">2</text>
			<text transform="matrix(-1.836970e-16 -1 1 -1.836970e-16 442.4651 108.6094)" class="st6 st7 st3">2</text>
			<circle class="st8" cx="451.7" cy="110.9" r="6.9"/>
			<path class="st9" d="M444.8,117.9l6.9,6.9l6.9-6.9"/>
		</g>
		<line id="gge3454" class="st4" x1="463.3" y1="168.8" x2="440.1" y2="180.4"/>
		<line id="gge3455" class="st4" x1="463.3" y1="148" x2="440.1" y2="157.3"/>
		<line id="gge3456" class="st4" x1="440.1" y1="157.3" x2="463.3" y2="168.8"/>
		<line id="gge3457" class="st4" x1="440.1" y1="180.4" x2="451.7" y2="187.4"/>
		<g id="gge3458">
			<circle class="st5" cx="451.7" cy="199" r="4.6"/>
			<path class="st4" d="M451.7,199v-11.6"/>
			<text transform="matrix(-1.836970e-16 -1 1 -1.836970e-16 451.7308 178.1055)" class="st6 st7 st3">1</text>
			<text transform="matrix(-1.836970e-16 -1 1 -1.836970e-16 442.4651 206.9473)" class="st6 st7 st3">1</text>
			<circle class="st8" cx="451.7" cy="194.3" r="6.9"/>
			<path class="st9" d="M458.7,187.4l-6.9-6.9l-6.9,6.9"/>
		</g>
	</g>
	<polyline id="gge3465" class="st4" points="451.7,106.3 451.7,71.5 417,71.5 	"/>
	<polyline id="gge3466" class="st4" points="451.7,199 451.7,233.7 254.8,233.7 	"/>
	<line id="gge3467" class="st4" x1="289.6" y1="199" x2="289.6" y2="233.7"/>
	<line id="gge3469" class="st4" x1="324.3" y1="71.5" x2="254.8" y2="71.5"/>
	<line id="gge3470" class="st4" x1="289.6" y1="106.3" x2="289.6" y2="71.5"/>
	<line id="gge3472" class="st4" x1="498.1" y1="71.5" x2="451.7" y2="71.5"/>
	<line id="gge3474" class="st4" x1="498.1" y1="233.7" x2="451.7" y2="233.7"/>
	<g id="gge3478">
		<text transform="matrix(1 0 0 1 509.6448 164.2061)" class="st13 st7 st14">Vo</text>
	</g>
	<g id="gge3484">
		<text transform="matrix(1 0 0 1 498.0618 69.1113)" class="st7 st15">+</text>
	</g>
	<g id="gge3486">
		<text transform="matrix(1 0 0 1 498.0618 245.2861)" class="st7 st15">-</text>
	</g>
	<line id="gge3488" class="st4" x1="498.1" y1="83.1" x2="498.1" y2="222.1"/>
	<g id="gge3493">
		<text transform="matrix(1 0 0 1 359.0677 36.7949)" class="st16 st7 st14">Vs</text>
	</g>
	<g id="gge3496">
		<text transform="matrix(1 0 0 1 185.3255 48.3779)" class="st17 st14">3k立</text>
	</g>
	<g id="gge3499">
		<text transform="matrix(1 0 0 1 185.3255 268.4521)" class="st17 st14">3k立</text>
	</g>
	<g id="gge3502">
		<text transform="matrix(1 0 0 1 231.6565 164.2061)" class="st17 st14">3k立</text>
	</g>
	<g id="gge3505">
		<text transform="matrix(1 0 0 1 393.8167 164.2061)" class="st17 st14">3k立</text>
	</g>
	<g id="gge3508">
		<text transform="matrix(1 0 0 1 301.1536 210.5381)" class="st7 st14">Ix</text>
	</g>
	<g id="gge3511">
		<text transform="matrix(1 0 0 1 34.7483 164.6465)" class="st7 st14">1k Ix</text>
	</g>
	<g id="gge3475">
		<circle class="st5" cx="451.7" cy="233.7" r="4.6"/>
		<circle cx="451.7" cy="233.7" r="5.8"/>
	</g>
	<g id="gge3471">
		<circle class="st5" cx="289.6" cy="71.5" r="4.6"/>
		<circle cx="289.6" cy="71.5" r="5.8"/>
	</g>
	<g id="gge3468">
		<circle class="st5" cx="289.6" cy="233.7" r="4.6"/>
		<circle cx="289.6" cy="233.7" r="5.8"/>
	</g>
	<g id="gge3473">
		<circle class="st5" cx="451.7" cy="71.5" r="4.6"/>
		<circle cx="451.7" cy="71.5" r="5.8"/>
	</g>
	<g id="gge3758">
		<path d="M498.1,83.1l-9.3,4.6l9.3-11.6l9.3,11.6L498.1,83.1z"/>
	</g>
	<g id="gge3759">
		<path d="M498.1,222.1l9.3-4.6l-9.3,11.6l-9.3-11.6L498.1,222.1z"/>
	</g>
	<g id="gge3760">
		<path d="M289.6,210.5l9.3-4.6l-9.3,11.6l-9.3-11.6L289.6,210.5z"/>
	</g>
</g>
<g>
	<g id="ni34a4_1_">
		
			<image style="overflow:visible;" width="1200" height="423" id="ni34a4_00000114052095137766275830000010247063283131300264_" xlink:href="99460F736DA82EC3.png"  transform="matrix(3.635557e-02 0 0 3.635557e-02 30.9651 277.6412)">
		</image>
	</g>
	<g>
		<text transform="matrix(1 0 0 1 30.7728 300.9828)" class="st18 st19">UBC Engineering</text>
	</g>
</g>
</svg>
