<?xml version="1.0" encoding="utf-8"?>
<!-- Generator: Adobe Illustrator 26.3.1, SVG Export Plug-In . SVG Version: 6.00 Build 0)  -->
<svg version="1.1" id="Layer_1" xmlns="http://www.w3.org/2000/svg" xmlns:xlink="http://www.w3.org/1999/xlink" x="0px" y="0px"
	 viewBox="0 0 891.4 339" style="enable-background:new 0 0 891.4 339;" xml:space="preserve">
<style type="text/css">
	.st0{display:none;}
	.st1{display:inline;}
	.st2{font-family:'ArialMT';}
	.st3{font-size:17.9634px;}
	.st4{fill:none;stroke:#000000;stroke-width:2.5662;}
	.st5{fill:none;}
	.st6{fill:none;stroke:#000000;stroke-width:2.5662;stroke-linecap:round;stroke-linejoin:round;}
	.st7{display:none;enable-background:new    ;}
	.st8{font-family:'Verdana';}
	.st9{display:none;fill:none;stroke:#000000;stroke-width:2.5662;}
	.st10{display:none;fill:none;stroke:#000000;stroke-width:2.5662;stroke-linecap:round;stroke-linejoin:round;}
	.st11{font-size:19.2465px;}
	.st12{font-family:'Helvetica';}
	.st13{fill:#0066CC;}
	.st14{fill:none;stroke:#000000;stroke-width:2.5662;stroke-linecap:round;}
	.st15{fill:#FF3366;}
	.st16{fill:#333333;}
	.st17{font-family:'Folio-Medium';}
	.st18{font-size:5.504px;}
</style>
<g id="g1">
	<g id="gge4850">
		<g id="gge4852" class="st0">
			<text transform="matrix(1 0 0 1 138.4947 198.7363)" class="st1 st2 st3">SIN(0 1 50) AC 1 0</text>
		</g>
		<g id="gge4854" class="st0">
			<text transform="matrix(1 0 0 1 138.4947 175.2305)" class="st1 st2 st3">V12</text>
		</g>
		<ellipse id="gge4856" class="st4" cx="107.7" cy="166.9" rx="25.7" ry="25.7"/>
		<g id="gge4857">
			<circle class="st5" cx="107.7" cy="115.6" r="5.1"/>
			<path class="st6" d="M107.7,141.3v-25.7"/>
			<text transform="matrix(-1.836970e-16 -1 1 -1.836970e-16 107.7017 157.8066)" class="st7 st8 st3">1</text>
			<text transform="matrix(-1.836970e-16 -1 1 -1.836970e-16 97.4371 130.9902)" class="st7 st8 st3">1</text>
			<circle class="st9" cx="107.7" cy="82.2" r="7.7"/>
			<path class="st10" d="M100,89.9l7.7,7.7l7.7-7.7"/>
		</g>
		<line id="gge4864" class="st6" x1="102.6" y1="151.5" x2="112.8" y2="151.5"/>
		<line id="gge4865" class="st6" x1="107.7" y1="146.4" x2="107.7" y2="156.7"/>
		<g id="gge4866">
			<circle class="st5" cx="107.7" cy="218.2" r="5.1"/>
			<path class="st6" d="M107.7,192.6v25.7"/>
			<text transform="matrix(-1.836970e-16 -1 1 -1.836970e-16 107.7017 182.3125)" class="st7 st8 st3">2</text>
			<text transform="matrix(-1.836970e-16 -1 1 -1.836970e-16 97.4371 214.2637)" class="st7 st8 st3">2</text>
			<circle class="st9" cx="107.7" cy="251.6" r="7.7"/>
			<path class="st10" d="M115.4,243.9l-7.7-7.7l-7.7,7.7"/>
		</g>
		<line id="gge4873" class="st6" x1="112.8" y1="182.3" x2="102.6" y2="182.3"/>
	</g>
	<g id="gge4874">
		<text transform="matrix(1 0 0 1 30.7144 179.7471)" class="st8 st11">24V</text>
	</g>
	<g id="gge4906">
		<g id="gge4908" class="st0">
			<text transform="matrix(1 0 0 1 175.5504 236.2031)" class="st1 st2 st3">1k</text>
		</g>
		<g id="gge4910" class="st0">
			<text transform="matrix(1 0 0 1 175.5504 212.6963)" class="st1 st2 st3">R74</text>
		</g>
		<line id="gge4912" class="st6" x1="236" y1="256.7" x2="228.3" y2="269.6"/>
		<line id="gge4913" class="st6" x1="215.5" y1="243.9" x2="202.7" y2="269.6"/>
		<line id="gge4914" class="st6" x1="228.3" y1="269.6" x2="215.5" y2="243.9"/>
		<g id="gge4915">
			<circle class="st5" cx="248.8" cy="256.7" r="5.1"/>
			<path class="st6" d="M248.8,256.7H236"/>
			<text transform="matrix(1 0 0 1 214.3257 256.7324)" class="st7 st8 st3">2</text>
			<text transform="matrix(1 0 0 1 246.275 246.4678)" class="st7 st8 st3">2</text>
			<circle class="st9" cx="243.7" cy="256.7" r="7.7"/>
			<path class="st10" d="M236,249l-7.7,7.7l7.7,7.7"/>
		</g>
		<line id="gge4922" class="st6" x1="179.6" y1="269.6" x2="166.7" y2="243.9"/>
		<line id="gge4923" class="st6" x1="202.7" y1="269.6" x2="192.4" y2="243.9"/>
		<line id="gge4924" class="st6" x1="192.4" y1="243.9" x2="179.6" y2="269.6"/>
		<line id="gge4925" class="st6" x1="166.7" y1="243.9" x2="159" y2="256.7"/>
		<g id="gge4926">
			<circle class="st5" cx="146.2" cy="256.7" r="5.1"/>
			<path class="st6" d="M146.2,256.7H159"/>
			<text transform="matrix(1 0 0 1 169.2886 256.7324)" class="st7 st8 st3">1</text>
			<text transform="matrix(1 0 0 1 137.3394 246.4678)" class="st7 st8 st3">1</text>
			<circle class="st9" cx="151.3" cy="256.7" r="7.7"/>
			<path class="st10" d="M159,264.4l7.7-7.7L159,249"/>
		</g>
	</g>
	<g id="gge4934">
		<g id="gge4936" class="st0">
			<text transform="matrix(1 0 0 1 305.2974 198.7363)" class="st1 st2 st3">1k</text>
		</g>
		<g id="gge4938" class="st0">
			<text transform="matrix(1 0 0 1 305.2974 175.2305)" class="st1 st2 st3">R75</text>
		</g>
		<line id="gge4940" class="st6" x1="287.3" y1="128.4" x2="300.2" y2="136.1"/>
		<line id="gge4941" class="st6" x1="274.5" y1="149" x2="300.2" y2="161.8"/>
		<line id="gge4942" class="st6" x1="300.2" y1="136.1" x2="274.5" y2="149"/>
		<g id="gge4943">
			<circle class="st5" cx="287.3" cy="115.6" r="5.1"/>
			<path class="st6" d="M287.3,115.6v12.8"/>
			<text transform="matrix(-1.836970e-16 -1 1 -1.836970e-16 287.3355 150.1074)" class="st7 st8 st3">2</text>
			<text transform="matrix(-1.836970e-16 -1 1 -1.836970e-16 277.0709 118.1582)" class="st7 st8 st3">2</text>
			<circle class="st9" cx="287.3" cy="120.7" r="7.7"/>
			<path class="st10" d="M279.6,128.4l7.7,7.7l7.7-7.7"/>
		</g>
		<line id="gge4950" class="st6" x1="300.2" y1="184.9" x2="274.5" y2="197.7"/>
		<line id="gge4951" class="st6" x1="300.2" y1="161.8" x2="274.5" y2="172"/>
		<line id="gge4952" class="st6" x1="274.5" y1="172" x2="300.2" y2="184.9"/>
		<line id="gge4953" class="st6" x1="274.5" y1="197.7" x2="287.3" y2="205.4"/>
		<g id="gge4954">
			<circle class="st5" cx="287.3" cy="218.2" r="5.1"/>
			<path class="st6" d="M287.3,218.2v-12.8"/>
			<text transform="matrix(-1.836970e-16 -1 1 -1.836970e-16 287.3355 195.1445)" class="st7 st8 st3">1</text>
			<text transform="matrix(-1.836970e-16 -1 1 -1.836970e-16 277.0709 227.0938)" class="st7 st8 st3">1</text>
			<circle class="st9" cx="287.3" cy="213.1" r="7.7"/>
			<path class="st10" d="M295,205.4l-7.7-7.7l-7.7,7.7"/>
		</g>
	</g>
	<g id="gge4962">
		<g id="gge4964" class="st0">
			<text transform="matrix(1 0 0 1 420.7759 198.7363)" class="st1 st2 st3">1k</text>
		</g>
		<g id="gge4966" class="st0">
			<text transform="matrix(1 0 0 1 420.7759 175.2305)" class="st1 st2 st3">R76</text>
		</g>
		<line id="gge4968" class="st6" x1="402.8" y1="205.4" x2="390" y2="197.7"/>
		<line id="gge4969" class="st6" x1="415.6" y1="184.9" x2="390" y2="172"/>
		<line id="gge4970" class="st6" x1="390" y1="197.7" x2="415.6" y2="184.9"/>
		<g id="gge4971">
			<circle class="st5" cx="402.8" cy="218.2" r="5.1"/>
			<path class="st6" d="M402.8,218.2v-12.8"/>
			<text transform="matrix(-1.836970e-16 -1 1 -1.836970e-16 402.814 195.1445)" class="st7 st8 st3">2</text>
			<text transform="matrix(-1.836970e-16 -1 1 -1.836970e-16 392.5494 227.0938)" class="st7 st8 st3">2</text>
			<circle class="st9" cx="402.8" cy="213.1" r="7.7"/>
			<path class="st10" d="M410.5,205.4l-7.7-7.7l-7.7,7.7"/>
		</g>
		<line id="gge4978" class="st6" x1="390" y1="149" x2="415.6" y2="136.1"/>
		<line id="gge4979" class="st6" x1="390" y1="172" x2="415.6" y2="161.8"/>
		<line id="gge4980" class="st6" x1="415.6" y1="161.8" x2="390" y2="149"/>
		<line id="gge4981" class="st6" x1="415.6" y1="136.1" x2="402.8" y2="128.4"/>
		<g id="gge4982">
			<circle class="st5" cx="402.8" cy="115.6" r="5.1"/>
			<path class="st6" d="M402.8,115.6v12.8"/>
			<text transform="matrix(-1.836970e-16 -1 1 -1.836970e-16 402.814 150.1074)" class="st7 st8 st3">1</text>
			<text transform="matrix(-1.836970e-16 -1 1 -1.836970e-16 392.5494 118.1582)" class="st7 st8 st3">1</text>
			<circle class="st9" cx="402.8" cy="120.7" r="7.7"/>
			<path class="st10" d="M395.1,128.4l7.7,7.7l7.7-7.7"/>
		</g>
	</g>
	<g id="gge4990">
		<text transform="matrix(1 0 0 1 210.3482 179.7471)" class="st12 st11">48kΩ</text>
	</g>
	<g id="gge4993">
		<text transform="matrix(1 0 0 1 325.8267 179.7471)" class="st12 st11">48kΩ</text>
	</g>
	<g id="gge4995">
		<g id="gge4997" class="st0">
			<text transform="matrix(1 0 0 1 505.4605 198.7363)" class="st1 st2 st3">1u</text>
		</g>
		<g id="gge4999" class="st0">
			<text transform="matrix(1 0 0 1 505.4605 175.2305)" class="st1 st2 st3">C2</text>
		</g>
		<line id="gge5001" class="st6" x1="500.3" y1="172" x2="459.3" y2="172"/>
		<g id="gge5002">
			<circle class="st5" cx="479.8" cy="218.2" r="5.1"/>
			<path class="st6" d="M479.8,192.6v25.7"/>
			<text transform="matrix(-1.836970e-16 -1 1 -1.836970e-16 479.8004 182.3125)" class="st7 st8 st3">1</text>
			<text transform="matrix(-1.836970e-16 -1 1 -1.836970e-16 469.5347 214.2637)" class="st7 st8 st3">1</text>
			<circle class="st9" cx="479.8" cy="251.6" r="7.7"/>
			<path class="st10" d="M487.5,243.9l-7.7-7.7l-7.7,7.7"/>
		</g>
		<line id="gge5009" class="st6" x1="479.8" y1="141.3" x2="479.8" y2="161.8"/>
		<line id="gge5010" class="st6" x1="459.3" y1="161.8" x2="500.3" y2="161.8"/>
		<g id="gge5011">
			<circle class="st5" cx="479.8" cy="115.6" r="5.1"/>
			<path class="st6" d="M479.8,141.3v-25.7"/>
			<text transform="matrix(-1.836970e-16 -1 1 -1.836970e-16 479.8004 162.9395)" class="st7 st8 st3">2</text>
			<text transform="matrix(-1.836970e-16 -1 1 -1.836970e-16 469.5347 130.9902)" class="st7 st8 st3">2</text>
			<circle class="st9" cx="479.8" cy="82.2" r="7.7"/>
			<path class="st10" d="M472.1,89.9l7.7,7.7l7.7-7.7"/>
		</g>
		<line id="gge5018" class="st6" x1="479.8" y1="172" x2="479.8" y2="192.6"/>
	</g>
	<g id="gge5020">
		<text transform="matrix(1 0 0 1 505.4605 179.7471)" class="st13 st8 st11">C</text>
	</g>
	<g id="gge5023">
		<g id="gge5025" class="st0">
			<text transform="matrix(1 0 0 1 547.649 56.5693)" class="st1 st2 st3">1k</text>
		</g>
		<g id="gge5027" class="st0">
			<text transform="matrix(1 0 0 1 547.649 33.0625)" class="st1 st2 st3">R77</text>
		</g>
		<line id="gge5029" class="st6" x1="608.1" y1="77.1" x2="600.4" y2="89.9"/>
		<line id="gge5030" class="st6" x1="587.6" y1="64.3" x2="574.7" y2="89.9"/>
		<line id="gge5031" class="st6" x1="600.4" y1="89.9" x2="587.6" y2="64.3"/>
		<g id="gge5032">
			<circle class="st5" cx="620.9" cy="77.1" r="5.1"/>
			<path class="st6" d="M620.9,77.1h-12.8"/>
			<text transform="matrix(1 0 0 1 586.4244 77.0986)" class="st7 st8 st3">2</text>
			<text transform="matrix(1 0 0 1 618.3736 66.834)" class="st7 st8 st3">2</text>
			<circle class="st9" cx="615.8" cy="77.1" r="7.7"/>
			<path class="st10" d="M608.1,69.4l-7.7,7.7l7.7,7.7"/>
		</g>
		<line id="gge5039" class="st6" x1="551.7" y1="89.9" x2="538.8" y2="64.3"/>
		<line id="gge5040" class="st6" x1="574.7" y1="89.9" x2="564.5" y2="64.3"/>
		<line id="gge5041" class="st6" x1="564.5" y1="64.3" x2="551.7" y2="89.9"/>
		<line id="gge5042" class="st6" x1="538.8" y1="64.3" x2="531.1" y2="77.1"/>
		<g id="gge5043">
			<circle class="st5" cx="518.3" cy="77.1" r="5.1"/>
			<path class="st6" d="M518.3,77.1h12.8"/>
			<text transform="matrix(1 0 0 1 541.3873 77.0986)" class="st7 st8 st3">1</text>
			<text transform="matrix(1 0 0 1 509.438 66.834)" class="st7 st8 st3">1</text>
			<circle class="st9" cx="523.4" cy="77.1" r="7.7"/>
			<path class="st10" d="M531.1,84.8l7.7-7.7l-7.7-7.7"/>
		</g>
	</g>
	<g id="gge5050">
		<g id="gge5052" class="st0">
			<text transform="matrix(1 0 0 1 688.7896 115.5918)" class="st1 st2 st3">1k</text>
		</g>
		<g id="gge5054" class="st0">
			<text transform="matrix(1 0 0 1 688.7896 92.0859)" class="st1 st2 st3">R78</text>
		</g>
		<polyline id="gge5056" class="st6" points="749.3,205.4 738.9,194.4 724.9,199 732.4,170.9 705.6,180.3 715.2,153.2 688.7,163.2 
			695.2,136.2 683.9,138.9 672.3,128.4 		"/>
		<g id="gge5057">
			<circle class="st5" cx="749.3" cy="205.4" r="5.1"/>
			<path class="st6" d="M749.3,205.4L749.3,205.4"/>
			<text transform="matrix(1 0 0 1 732.6968 213.1074)" class="st7 st8 st3">1</text>
			<text transform="matrix(1 0 0 1 762.0806 202.8428)" class="st7 st8 st3">1</text>
			<circle class="st9" cx="756.9" cy="205.4" r="7.7"/>
			<path class="st10" d="M749.3,197.7l-7.7,7.7l7.7,7.7"/>
		</g>
		<g id="gge5064">
			<circle class="st5" cx="672.3" cy="128.4" r="5.1"/>
			<path class="st6" d="M672.3,128.4L672.3,128.4"/>
			<text transform="matrix(1 0 0 1 677.3961 136.1211)" class="st7 st8 st3">2</text>
			<text transform="matrix(1 0 0 1 648.0123 125.8564)" class="st7 st8 st3">2</text>
			<circle class="st9" cx="664.6" cy="128.4" r="7.7"/>
			<path class="st10" d="M672.3,136.1l7.7-7.7l-7.7-7.7"/>
		</g>
	</g>
	<polyline id="gge5072" class="st6" points="107.7,218.2 107.7,256.7 146.2,256.7 	"/>
	<polyline id="gge5073" class="st6" points="248.8,256.7 479.8,256.7 479.8,218.2 	"/>
	<line id="gge5074" class="st6" x1="402.8" y1="218.2" x2="402.8" y2="256.7"/>
	<line id="gge5076" class="st6" x1="287.3" y1="218.2" x2="287.3" y2="256.7"/>
	<polyline id="gge5078" class="st6" points="518.3,77.1 287.3,77.1 287.3,115.6 	"/>
	<line id="gge5080" class="st6" x1="402.8" y1="115.6" x2="402.8" y2="77.1"/>
	<line id="gge5082" class="st6" x1="479.8" y1="115.6" x2="479.8" y2="77.1"/>
	<g id="gge5085">
		<g id="gge5087" class="st0">
			<text transform="matrix(1 0 0 1 818.5367 198.7363)" class="st1 st2 st3">1k</text>
		</g>
		<g id="gge5089" class="st0">
			<text transform="matrix(1 0 0 1 818.5367 175.2305)" class="st1 st2 st3">R79</text>
		</g>
		<line id="gge5091" class="st6" x1="800.6" y1="205.4" x2="787.7" y2="197.7"/>
		<line id="gge5092" class="st6" x1="813.4" y1="184.9" x2="787.7" y2="172"/>
		<line id="gge5093" class="st6" x1="787.7" y1="197.7" x2="813.4" y2="184.9"/>
		<g id="gge5094">
			<circle class="st5" cx="800.6" cy="218.2" r="5.1"/>
			<path class="st6" d="M800.6,218.2v-12.8"/>
			<text transform="matrix(-1.836970e-16 -1 1 -1.836970e-16 800.5748 195.1445)" class="st7 st8 st3">2</text>
			<text transform="matrix(-1.836970e-16 -1 1 -1.836970e-16 790.3101 227.0938)" class="st7 st8 st3">2</text>
			<circle class="st9" cx="800.6" cy="213.1" r="7.7"/>
			<path class="st10" d="M808.3,205.4l-7.7-7.7l-7.7,7.7"/>
		</g>
		<line id="gge5101" class="st6" x1="787.7" y1="149" x2="813.4" y2="136.1"/>
		<line id="gge5102" class="st6" x1="787.7" y1="172" x2="813.4" y2="161.8"/>
		<line id="gge5103" class="st6" x1="813.4" y1="161.8" x2="787.7" y2="149"/>
		<line id="gge5104" class="st6" x1="813.4" y1="136.1" x2="800.6" y2="128.4"/>
		<g id="gge5105">
			<circle class="st5" cx="800.6" cy="115.6" r="5.1"/>
			<path class="st6" d="M800.6,115.6v12.8"/>
			<text transform="matrix(-1.836970e-16 -1 1 -1.836970e-16 800.5748 150.1074)" class="st7 st8 st3">1</text>
			<text transform="matrix(-1.836970e-16 -1 1 -1.836970e-16 790.3101 118.1582)" class="st7 st8 st3">1</text>
			<circle class="st9" cx="800.6" cy="120.7" r="7.7"/>
			<path class="st10" d="M792.9,128.4l7.7,7.7l7.7-7.7"/>
		</g>
	</g>
	<g id="gge5112">
		<circle class="st5" cx="672.3" cy="128.4" r="5.1"/>
		<circle class="st5" cx="646.6" cy="102.8" r="5.1"/>
		<line class="st14" x1="672.3" y1="128.4" x2="646.6" y2="102.8"/>
	</g>
	<g id="gge5116">
		<circle class="st5" cx="646.6" cy="102.8" r="5.1"/>
		<circle class="st5" cx="620.9" cy="77.1" r="5.1"/>
		<line class="st14" x1="646.6" y1="102.8" x2="620.9" y2="77.1"/>
	</g>
	<g id="gge5120">
		<circle class="st5" cx="774.9" cy="231.1" r="5.1"/>
		<circle class="st5" cx="749.3" cy="205.4" r="5.1"/>
		<line class="st14" x1="774.9" y1="231.1" x2="749.3" y2="205.4"/>
	</g>
	<g id="gge5124">
		<circle class="st5" cx="800.6" cy="256.7" r="5.1"/>
		<circle class="st5" cx="774.9" cy="231.1" r="5.1"/>
		<line class="st14" x1="800.6" y1="256.7" x2="774.9" y2="231.1"/>
	</g>
	<polyline id="gge5128" class="st6" points="800.6,115.6 800.6,77.1 620.9,77.1 	"/>
	<polyline id="gge5130" class="st6" points="800.6,218.2 800.6,256.7 479.8,256.7 	"/>
	<g id="gge5134">
		<text transform="matrix(1 0 0 1 171.855 295.2256)" class="st12 st11">6kΩ</text>
	</g>
	<g id="gge5137">
		<text transform="matrix(1 0 0 1 543.9537 115.5918)" class="st12 st11">4kΩ</text>
	</g>
	<g id="gge5140">
		<text transform="matrix(1 0 0 1 659.4332 205.4092)" class="st12 st11">6kΩ</text>
	</g>
	<g id="gge5143">
		<text transform="matrix(1 0 0 1 813.4048 179.7471)" class="st12 st11">12kΩ</text>
	</g>
	<g id="gge5162">
		<text transform="matrix(1 0 0 1 479.7994 64.2676)" class="st15 st8 st11">A</text>
	</g>
	<g id="gge5165">
		<text transform="matrix(1 0 0 1 479.7994 282.3945)" class="st15 st8 st11">B</text>
	</g>
	<ellipse id="gge5210" class="st4" cx="236" cy="77.1" rx="6.4" ry="6.4"/>
	<ellipse id="gge5212" class="st4" cx="159" cy="77.1" rx="6.4" ry="6.4"/>
	<polyline id="gge5213" class="st6" points="236,77.1 159,77.1 107.7,77.1 107.7,115.6 	"/>
	<line id="gge5217" class="st6" x1="236" y1="77.1" x2="287.3" y2="77.1"/>
	<g id="gge5227">
		<text transform="matrix(1 0 0 1 171.855 38.6055)" class="st12 st11">t = 0</text>
	</g>
	<line id="gge5229" class="st6" x1="197.5" y1="102.8" x2="197.5" y2="51.4"/>
	<g id="gge5216">
		<circle class="st5" cx="479.8" cy="77.1" r="5.1"/>
		<circle cx="479.8" cy="77.1" r="6.4"/>
	</g>
	<g id="gge5215">
		<circle class="st5" cx="402.8" cy="77.1" r="5.1"/>
		<circle cx="402.8" cy="77.1" r="6.4"/>
	</g>
	<g id="gge5129">
		<circle class="st5" cx="620.9" cy="77.1" r="5.1"/>
		<circle cx="620.9" cy="77.1" r="6.4"/>
	</g>
	<g id="gge5075">
		<circle class="st5" cx="402.8" cy="256.7" r="5.1"/>
		<circle cx="402.8" cy="256.7" r="6.4"/>
	</g>
	<g id="gge5077">
		<circle class="st5" cx="287.3" cy="256.7" r="5.1"/>
		<circle cx="287.3" cy="256.7" r="6.4"/>
	</g>
	<g id="gge5132">
		<circle class="st5" cx="800.6" cy="256.7" r="5.1"/>
		<circle cx="800.6" cy="256.7" r="6.4"/>
	</g>
	<g id="gge5131">
		<circle class="st5" cx="479.8" cy="256.7" r="5.1"/>
		<circle cx="479.8" cy="256.7" r="6.4"/>
	</g>
	<g id="gge5219">
		<circle class="st5" cx="287.3" cy="77.1" r="5.1"/>
		<circle cx="287.3" cy="77.1" r="6.4"/>
	</g>
	<g id="gge5222">
		<path class="st16" d="M223.2,77.1L218,66.8l12.8,10.3L218,87.4L223.2,77.1z"/>
	</g>
	<g id="gge5225">
		<path class="st16" d="M197.5,51.4l-10.3,5.1l10.3-12.8l10.3,12.8L197.5,51.4z"/>
	</g>
</g>
<g>
	<g id="ni34a4_1_">
		
			<image style="overflow:visible;" width="1200" height="423" id="ni34a4_00000114052095137766275830000010247063283131300264_" xlink:href="9A429AF13B560F51.png"  transform="matrix(3.635557e-02 0 0 3.635557e-02 814.9078 297.6412)">
		</image>
	</g>
	<g>
		<text transform="matrix(1 0 0 1 814.7154 320.9828)" class="st17 st18">UBC Engineering</text>
	</g>
</g>
</svg>
