<?xml version="1.0" encoding="utf-8"?>
<!-- Generator: Adobe Illustrator 26.3.1, SVG Export Plug-In . SVG Version: 6.00 Build 0)  -->
<svg version="1.1" id="Layer_1" xmlns="http://www.w3.org/2000/svg" xmlns:xlink="http://www.w3.org/1999/xlink" x="0px" y="0px"
	 viewBox="0 0 546.4 398.4" style="enable-background:new 0 0 546.4 398.4;" xml:space="preserve">
<style type="text/css">
	.st0{font-family:'Helvetica';}
	.st1{font-size:16.9091px;}
	.st2{display:none;}
	.st3{display:inline;}
	.st4{font-family:'ArialMT';}
	.st5{font-size:15.7818px;}
	.st6{fill:none;stroke:#000000;stroke-width:2.2545;}
	.st7{fill:none;}
	.st8{fill:none;stroke:#000000;stroke-width:2.2545;stroke-linecap:round;stroke-linejoin:round;}
	.st9{display:none;enable-background:new    ;}
	.st10{font-family:'Verdana';}
	.st11{display:none;fill:none;stroke:#000000;stroke-width:2.2545;}
	.st12{display:none;fill:none;stroke:#000000;stroke-width:2.2545;stroke-linecap:round;stroke-linejoin:round;}
	.st13{fill:#0066CC;}
	.st14{fill:#FF3366;}
	.st15{font-family:'Folio-Medium';}
	.st16{font-size:5.504px;}
</style>
<g id="g1">
	<g id="gge789">
		<text transform="matrix(1 0 0 1 59.0353 211.7578)" class="st0 st1">8V</text>
	</g>
	<g id="gge1625">
		<text transform="matrix(1 0 0 1 216.8527 164.1641)" class="st0 st1">3kΩ</text>
	</g>
	<g id="gge1657">
		<g id="gge1659" class="st2">
			<text transform="matrix(1 0 0 1 142.4533 227.54)" class="st3 st4 st5">SIN(0 1 50) AC 1 0</text>
		</g>
		<g id="gge1661" class="st2">
			<text transform="matrix(1 0 0 1 142.4533 206.7529)" class="st3 st4 st5">V2</text>
		</g>
		<ellipse id="gge1663" class="st6" cx="115.4" cy="199.7" rx="22.5" ry="22.5"/>
		<g id="gge1664">
			<circle class="st7" cx="115.4" cy="154.6" r="4.5"/>
			<path class="st8" d="M115.4,177.1v-22.5"/>
			<text transform="matrix(-1.836970e-16 -1 1 -1.836970e-16 115.3986 191.6484)" class="st9 st10 st5">1</text>
			<text transform="matrix(-1.836970e-16 -1 1 -1.836970e-16 106.381 168.0879)" class="st9 st10 st5">1</text>
			<circle class="st11" cx="115.4" cy="125.3" r="6.8"/>
			<path class="st12" d="M108.6,132l6.8,6.8l6.8-6.8"/>
		</g>
		<line id="gge1671" class="st8" x1="110.9" y1="186.1" x2="119.9" y2="186.1"/>
		<line id="gge1672" class="st8" x1="115.4" y1="181.6" x2="115.4" y2="190.6"/>
		<g id="gge1673">
			<circle class="st7" cx="115.4" cy="244.7" r="4.5"/>
			<path class="st8" d="M115.4,222.2v22.5"/>
			<text transform="matrix(-1.836970e-16 -1 1 -1.836970e-16 115.3986 213.1797)" class="st9 st10 st5">2</text>
			<text transform="matrix(-1.836970e-16 -1 1 -1.836970e-16 106.381 241.248)" class="st9 st10 st5">2</text>
			<circle class="st11" cx="115.4" cy="274.1" r="6.8"/>
			<path class="st12" d="M122.2,267.3l-6.8-6.8l-6.8,6.8"/>
		</g>
		<line id="gge1680" class="st8" x1="119.9" y1="213.2" x2="110.9" y2="213.2"/>
	</g>
	<g id="gge1682">
		<g id="gge1684" class="st2">
			<text transform="matrix(1 0 0 1 175.009 68.8877)" class="st3 st4 st5">1k</text>
		</g>
		<g id="gge1686" class="st2">
			<text transform="matrix(1 0 0 1 175.009 48.1006)" class="st3 st4 st5">R21</text>
		</g>
		<line id="gge1688" class="st8" x1="160.5" y1="86.9" x2="167.3" y2="75.7"/>
		<line id="gge1689" class="st8" x1="178.5" y1="98.2" x2="189.8" y2="75.7"/>
		<line id="gge1690" class="st8" x1="167.3" y1="75.7" x2="178.5" y2="98.2"/>
		<g id="gge1691">
			<circle class="st7" cx="149.2" cy="86.9" r="4.5"/>
			<path class="st8" d="M149.2,86.9h11.3"/>
			<text transform="matrix(1 0 0 1 169.508 86.9238)" class="st9 st10 st5">2</text>
			<text transform="matrix(1 0 0 1 141.4377 77.9053)" class="st9 st10 st5">2</text>
			<circle class="st11" cx="153.7" cy="86.9" r="6.8"/>
			<path class="st12" d="M160.5,93.7l6.8-6.8l-6.8-6.8"/>
		</g>
		<line id="gge1698" class="st8" x1="210.1" y1="75.7" x2="221.4" y2="98.2"/>
		<line id="gge1699" class="st8" x1="189.8" y1="75.7" x2="198.8" y2="98.2"/>
		<line id="gge1700" class="st8" x1="198.8" y1="98.2" x2="210.1" y2="75.7"/>
		<line id="gge1701" class="st8" x1="221.4" y1="98.2" x2="228.1" y2="86.9"/>
		<g id="gge1702">
			<circle class="st7" cx="239.4" cy="86.9" r="4.5"/>
			<path class="st8" d="M239.4,86.9h-11.3"/>
			<text transform="matrix(1 0 0 1 209.0744 86.9238)" class="st9 st10 st5">1</text>
			<text transform="matrix(1 0 0 1 237.1437 77.9053)" class="st9 st10 st5">1</text>
			<circle class="st11" cx="234.9" cy="86.9" r="6.8"/>
			<path class="st12" d="M228.1,80.2l-6.8,6.8l6.8,6.8"/>
		</g>
	</g>
	<g id="gge1710">
		<g id="gge1712" class="st2">
			<text transform="matrix(1 0 0 1 180.8703 294.3418)" class="st3 st4 st5">1k</text>
		</g>
		<g id="gge1714" class="st2">
			<text transform="matrix(1 0 0 1 180.8703 273.8027)" class="st3 st4 st5">R22</text>
		</g>
		<line id="gge1716" class="st8" x1="228.1" y1="312.4" x2="221.4" y2="323.7"/>
		<line id="gge1717" class="st8" x1="210.1" y1="301.1" x2="198.8" y2="323.7"/>
		<line id="gge1718" class="st8" x1="221.4" y1="323.7" x2="210.1" y2="301.1"/>
		<g id="gge1719">
			<circle class="st7" cx="239.4" cy="312.4" r="4.5"/>
			<path class="st8" d="M239.4,312.4h-11.3"/>
			<text transform="matrix(1 0 0 1 209.0744 312.3779)" class="st9 st10 st5">2</text>
			<text transform="matrix(1 0 0 1 237.1437 303.3604)" class="st9 st10 st5">2</text>
			<circle class="st11" cx="234.9" cy="312.4" r="6.8"/>
			<path class="st12" d="M228.1,305.6l-6.8,6.8l6.8,6.8"/>
		</g>
		<line id="gge1726" class="st8" x1="178.5" y1="323.7" x2="167.3" y2="301.1"/>
		<line id="gge1727" class="st8" x1="198.8" y1="323.7" x2="189.8" y2="301.1"/>
		<line id="gge1728" class="st8" x1="189.8" y1="301.1" x2="178.5" y2="323.7"/>
		<line id="gge1729" class="st8" x1="167.3" y1="301.1" x2="160.5" y2="312.4"/>
		<g id="gge1730">
			<circle class="st7" cx="149.2" cy="312.4" r="4.5"/>
			<path class="st8" d="M149.2,312.4h11.3"/>
			<text transform="matrix(1 0 0 1 169.508 312.3779)" class="st9 st10 st5">1</text>
			<text transform="matrix(1 0 0 1 141.4377 303.3604)" class="st9 st10 st5">1</text>
			<circle class="st11" cx="153.7" cy="312.4" r="6.8"/>
			<path class="st12" d="M160.5,319.1l6.8-6.8l-6.8-6.8"/>
		</g>
	</g>
	<g id="gge1738">
		<g id="gge1740" class="st2">
			<text transform="matrix(1 0 0 1 288.9982 182.4492)" class="st3 st4 st5">1k</text>
		</g>
		<g id="gge1742" class="st2">
			<text transform="matrix(1 0 0 1 288.9982 161.6621)" class="st3 st4 st5">R23</text>
		</g>
		<line id="gge1744" class="st8" x1="273.2" y1="188.4" x2="261.9" y2="181.6"/>
		<line id="gge1745" class="st8" x1="284.5" y1="170.3" x2="261.9" y2="159.1"/>
		<line id="gge1746" class="st8" x1="261.9" y1="181.6" x2="284.5" y2="170.3"/>
		<g id="gge1747">
			<circle class="st7" cx="273.2" cy="199.7" r="4.5"/>
			<path class="st8" d="M273.2,199.7v-11.3"/>
			<text transform="matrix(-1.836970e-16 -1 1 -1.836970e-16 273.2169 179.3613)" class="st9 st10 st5">2</text>
			<text transform="matrix(-1.836970e-16 -1 1 -1.836970e-16 264.1994 207.4297)" class="st9 st10 st5">2</text>
			<circle class="st11" cx="273.2" cy="195.1" r="6.8"/>
			<path class="st12" d="M280,188.4l-6.8-6.8l-6.8,6.8"/>
		</g>
		<line id="gge1754" class="st8" x1="261.9" y1="138.8" x2="284.5" y2="127.5"/>
		<line id="gge1755" class="st8" x1="261.9" y1="159.1" x2="284.5" y2="150.1"/>
		<line id="gge1756" class="st8" x1="284.5" y1="150.1" x2="261.9" y2="138.8"/>
		<line id="gge1757" class="st8" x1="284.5" y1="127.5" x2="273.2" y2="120.7"/>
		<g id="gge1758">
			<circle class="st7" cx="273.2" cy="109.5" r="4.5"/>
			<path class="st8" d="M273.2,109.5v11.3"/>
			<text transform="matrix(-1.836970e-16 -1 1 -1.836970e-16 273.2169 139.7949)" class="st9 st10 st5">1</text>
			<text transform="matrix(-1.836970e-16 -1 1 -1.836970e-16 264.1994 111.7246)" class="st9 st10 st5">1</text>
			<circle class="st11" cx="273.2" cy="114" r="6.8"/>
			<path class="st12" d="M266.5,120.7l6.8,6.8l6.8-6.8"/>
		</g>
	</g>
	<g id="gge1766">
		<g id="gge1768" class="st2">
			<text transform="matrix(1 0 0 1 288.9982 272.6309)" class="st3 st4 st5">1k</text>
		</g>
		<g id="gge1770" class="st2">
			<text transform="matrix(1 0 0 1 288.9982 251.8438)" class="st3 st4 st5">R24</text>
		</g>
		<line id="gge1772" class="st8" x1="273.2" y1="278.6" x2="261.9" y2="271.8"/>
		<line id="gge1773" class="st8" x1="284.5" y1="260.5" x2="261.9" y2="249.3"/>
		<line id="gge1774" class="st8" x1="261.9" y1="271.8" x2="284.5" y2="260.5"/>
		<g id="gge1775">
			<circle class="st7" cx="273.2" cy="289.8" r="4.5"/>
			<path class="st8" d="M273.2,289.8v-11.3"/>
			<text transform="matrix(-1.836970e-16 -1 1 -1.836970e-16 273.2169 269.543)" class="st9 st10 st5">2</text>
			<text transform="matrix(-1.836970e-16 -1 1 -1.836970e-16 264.1994 297.6133)" class="st9 st10 st5">2</text>
			<circle class="st11" cx="273.2" cy="285.3" r="6.8"/>
			<path class="st12" d="M280,278.6l-6.8-6.8l-6.8,6.8"/>
		</g>
		<line id="gge1782" class="st8" x1="261.9" y1="229" x2="284.5" y2="217.7"/>
		<line id="gge1783" class="st8" x1="261.9" y1="249.3" x2="284.5" y2="240.2"/>
		<line id="gge1784" class="st8" x1="284.5" y1="240.2" x2="261.9" y2="229"/>
		<line id="gge1785" class="st8" x1="284.5" y1="217.7" x2="273.2" y2="210.9"/>
		<g id="gge1786">
			<circle class="st7" cx="273.2" cy="199.7" r="4.5"/>
			<path class="st8" d="M273.2,199.7v11.3"/>
			<text transform="matrix(-1.836970e-16 -1 1 -1.836970e-16 273.2169 229.9766)" class="st9 st10 st5">1</text>
			<text transform="matrix(-1.836970e-16 -1 1 -1.836970e-16 264.1994 201.9062)" class="st9 st10 st5">1</text>
			<circle class="st11" cx="273.2" cy="204.2" r="6.8"/>
			<path class="st12" d="M266.5,210.9l6.8,6.8l6.8-6.8"/>
		</g>
	</g>
	<g id="gge1794">
		<g id="gge1796" class="st2">
			<text transform="matrix(1 0 0 1 332.8273 181.6143)" class="st3 st4 st5">1k</text>
		</g>
		<g id="gge1798" class="st2">
			<text transform="matrix(1 0 0 1 332.8273 160.8281)" class="st3 st4 st5">R25</text>
		</g>
		<line id="gge1800" class="st8" x1="385.9" y1="199.7" x2="379.2" y2="210.9"/>
		<line id="gge1801" class="st8" x1="367.9" y1="188.4" x2="356.6" y2="210.9"/>
		<line id="gge1802" class="st8" x1="379.2" y1="210.9" x2="367.9" y2="188.4"/>
		<g id="gge1803">
			<circle class="st7" cx="397.2" cy="199.7" r="4.5"/>
			<path class="st8" d="M397.2,199.7h-11.3"/>
			<text transform="matrix(1 0 0 1 366.8927 199.6514)" class="st9 st10 st5">2</text>
			<text transform="matrix(1 0 0 1 394.9621 190.6328)" class="st9 st10 st5">2</text>
			<circle class="st11" cx="392.7" cy="199.7" r="6.8"/>
			<path class="st12" d="M385.9,192.9l-6.8,6.8l6.8,6.8"/>
		</g>
		<line id="gge1810" class="st8" x1="336.3" y1="210.9" x2="325.1" y2="188.4"/>
		<line id="gge1811" class="st8" x1="356.6" y1="210.9" x2="347.6" y2="188.4"/>
		<line id="gge1812" class="st8" x1="347.6" y1="188.4" x2="336.3" y2="210.9"/>
		<line id="gge1813" class="st8" x1="325.1" y1="188.4" x2="318.3" y2="199.7"/>
		<g id="gge1814">
			<circle class="st7" cx="307" cy="199.7" r="4.5"/>
			<path class="st8" d="M307,199.7h11.3"/>
			<text transform="matrix(1 0 0 1 327.3253 199.6514)" class="st9 st10 st5">1</text>
			<text transform="matrix(1 0 0 1 299.256 190.6328)" class="st9 st10 st5">1</text>
			<circle class="st11" cx="311.5" cy="199.7" r="6.8"/>
			<path class="st12" d="M318.3,206.4l6.8-6.8l-6.8-6.8"/>
		</g>
	</g>
	<g id="gge1822">
		<g id="gge1824" class="st2">
			<text transform="matrix(1 0 0 1 446.8166 182.4492)" class="st3 st4 st5">1k</text>
		</g>
		<g id="gge1826" class="st2">
			<text transform="matrix(1 0 0 1 446.8166 161.6621)" class="st3 st4 st5">R26</text>
		</g>
		<line id="gge1828" class="st8" x1="431" y1="188.4" x2="419.8" y2="181.6"/>
		<line id="gge1829" class="st8" x1="442.3" y1="170.3" x2="419.8" y2="159.1"/>
		<line id="gge1830" class="st8" x1="419.8" y1="181.6" x2="442.3" y2="170.3"/>
		<g id="gge1831">
			<circle class="st7" cx="431" cy="199.7" r="4.5"/>
			<path class="st8" d="M431,199.7v-11.3"/>
			<text transform="matrix(-1.836970e-16 -1 1 -1.836970e-16 431.0353 179.3613)" class="st9 st10 st5">2</text>
			<text transform="matrix(-1.836970e-16 -1 1 -1.836970e-16 422.0168 207.4297)" class="st9 st10 st5">2</text>
			<circle class="st11" cx="431" cy="195.1" r="6.8"/>
			<path class="st12" d="M437.8,188.4l-6.8-6.8l-6.8,6.8"/>
		</g>
		<line id="gge1838" class="st8" x1="419.8" y1="138.8" x2="442.3" y2="127.5"/>
		<line id="gge1839" class="st8" x1="419.8" y1="159.1" x2="442.3" y2="150.1"/>
		<line id="gge1840" class="st8" x1="442.3" y1="150.1" x2="419.8" y2="138.8"/>
		<line id="gge1841" class="st8" x1="442.3" y1="127.5" x2="431" y2="120.7"/>
		<g id="gge1842">
			<circle class="st7" cx="431" cy="109.5" r="4.5"/>
			<path class="st8" d="M431,109.5v11.3"/>
			<text transform="matrix(-1.836970e-16 -1 1 -1.836970e-16 431.0353 139.7949)" class="st9 st10 st5">1</text>
			<text transform="matrix(-1.836970e-16 -1 1 -1.836970e-16 422.0168 111.7246)" class="st9 st10 st5">1</text>
			<circle class="st11" cx="431" cy="114" r="6.8"/>
			<path class="st12" d="M424.3,120.7l6.8,6.8l6.8-6.8"/>
		</g>
	</g>
	<g id="gge1850">
		<g id="gge1852" class="st2">
			<text transform="matrix(1 0 0 1 446.8166 272.6309)" class="st3 st4 st5">1k</text>
		</g>
		<g id="gge1854" class="st2">
			<text transform="matrix(1 0 0 1 446.8166 251.8438)" class="st3 st4 st5">R27</text>
		</g>
		<line id="gge1856" class="st8" x1="431" y1="278.6" x2="419.8" y2="271.8"/>
		<line id="gge1857" class="st8" x1="442.3" y1="260.5" x2="419.8" y2="249.3"/>
		<line id="gge1858" class="st8" x1="419.8" y1="271.8" x2="442.3" y2="260.5"/>
		<g id="gge1859">
			<circle class="st7" cx="431" cy="289.8" r="4.5"/>
			<path class="st8" d="M431,289.8v-11.3"/>
			<text transform="matrix(-1.836970e-16 -1 1 -1.836970e-16 431.0353 269.543)" class="st9 st10 st5">2</text>
			<text transform="matrix(-1.836970e-16 -1 1 -1.836970e-16 422.0168 297.6133)" class="st9 st10 st5">2</text>
			<circle class="st11" cx="431" cy="285.3" r="6.8"/>
			<path class="st12" d="M437.8,278.6l-6.8-6.8l-6.8,6.8"/>
		</g>
		<line id="gge1866" class="st8" x1="419.8" y1="229" x2="442.3" y2="217.7"/>
		<line id="gge1867" class="st8" x1="419.8" y1="249.3" x2="442.3" y2="240.2"/>
		<line id="gge1868" class="st8" x1="442.3" y1="240.2" x2="419.8" y2="229"/>
		<line id="gge1869" class="st8" x1="442.3" y1="217.7" x2="431" y2="210.9"/>
		<g id="gge1870">
			<circle class="st7" cx="431" cy="199.7" r="4.5"/>
			<path class="st8" d="M431,199.7v11.3"/>
			<text transform="matrix(-1.836970e-16 -1 1 -1.836970e-16 431.0353 229.9766)" class="st9 st10 st5">1</text>
			<text transform="matrix(-1.836970e-16 -1 1 -1.836970e-16 422.0168 201.9062)" class="st9 st10 st5">1</text>
			<circle class="st11" cx="431" cy="204.2" r="6.8"/>
			<path class="st12" d="M424.3,210.9l6.8,6.8l6.8-6.8"/>
		</g>
	</g>
	<polyline id="gge1877" class="st8" points="239.4,312.4 431,312.4 431,289.8 	"/>
	<polyline id="gge1878" class="st8" points="273.2,109.5 273.2,86.9 261.9,86.9 239.4,86.9 	"/>
	<polyline id="gge1879" class="st8" points="273.2,86.9 431,86.9 431,109.5 	"/>
	<line id="gge1882" class="st8" x1="273.2" y1="289.8" x2="273.2" y2="312.4"/>
	<line id="gge1884" class="st8" x1="431" y1="199.7" x2="397.2" y2="199.7"/>
	<line id="gge1886" class="st8" x1="307" y1="199.7" x2="273.2" y2="199.7"/>
	<polyline id="gge1888" class="st8" points="149.2,86.9 115.4,86.9 115.4,154.6 	"/>
	<polyline id="gge1889" class="st8" points="149.2,312.4 115.4,312.4 115.4,244.7 	"/>
	<g id="gge1901">
		<text transform="matrix(1 0 0 1 216.8527 256.0146)" class="st0 st1">6kΩ</text>
	</g>
	<g id="gge1904">
		<text transform="matrix(1 0 0 1 329.5802 177.1055)" class="st0 st1">6kΩ</text>
	</g>
	<g id="gge1907">
		<text transform="matrix(1 0 0 1 442.3078 165.833)" class="st0 st1">9kΩ</text>
	</g>
	<g id="gge1910">
		<text transform="matrix(1 0 0 1 442.3078 256.0146)" class="st0 st1">6kΩ</text>
	</g>
	<g id="gge1913">
		<text transform="matrix(1 0 0 1 183.0353 346.1963)" class="st13 st10 st1">R2</text>
	</g>
	<g id="gge1916">
		<text transform="matrix(1 0 0 1 183.0353 64.3779)" class="st13 st10 st1">R1</text>
	</g>
	<g id="gge1923">
		<text transform="matrix(1 0 0 1 250.6711 75.6514)" class="st14 st10 st1">I</text>
	</g>
	<g id="gge1887">
		<circle class="st7" cx="273.2" cy="199.7" r="4.5"/>
		<circle cx="273.2" cy="199.7" r="5.6"/>
	</g>
	<g id="gge1883">
		<circle class="st7" cx="273.2" cy="312.4" r="4.5"/>
		<circle cx="273.2" cy="312.4" r="5.6"/>
	</g>
	<g id="gge1881">
		<circle class="st7" cx="273.2" cy="86.9" r="4.5"/>
		<circle cx="273.2" cy="86.9" r="5.6"/>
	</g>
	<g id="gge1885">
		<circle class="st7" cx="431" cy="199.7" r="4.5"/>
		<circle cx="431" cy="199.7" r="5.6"/>
	</g>
	<g id="gge1921">
		<path d="M261.9,86.9l-4.5-9l11.3,9l-11.3,9L261.9,86.9z"/>
	</g>
</g>
<g>
	<g id="ni34a4_1_">
		
			<image style="overflow:visible;" width="1200" height="423" id="ni34a4_00000114052095137766275830000010247063283131300264_" xlink:href="986B302888339F59.png"  transform="matrix(3.635557e-02 0 0 3.635557e-02 431.9025 350.6412)">
		</image>
	</g>
	<g>
		<text transform="matrix(1 0 0 1 431.7101 373.9828)" class="st15 st16">UBC Engineering</text>
	</g>
</g>
</svg>
