<?xml version="1.0" encoding="utf-8"?>
<!-- Generator: Adobe Illustrator 26.3.1, SVG Export Plug-In . SVG Version: 6.00 Build 0)  -->
<svg version="1.1" id="Layer_1" xmlns="http://www.w3.org/2000/svg" xmlns:xlink="http://www.w3.org/1999/xlink" x="0px" y="0px"
	 viewBox="0 0 487.2 311.3" style="enable-background:new 0 0 487.2 311.3;" xml:space="preserve">
<style type="text/css">
	.st0{display:none;}
	.st1{display:inline;}
	.st2{font-family:'ArialMT';}
	.st3{font-size:18.0533px;}
	.st4{fill:none;stroke:#000000;}
	.st5{fill:none;}
	.st6{fill:none;stroke:#000000;stroke-linecap:round;stroke-linejoin:round;}
	.st7{display:none;enable-background:new    ;}
	.st8{font-family:'Verdana';}
	.st9{display:none;fill:none;stroke:#000000;}
	.st10{display:none;fill:none;stroke:#000000;stroke-linecap:round;stroke-linejoin:round;}
	.st11{font-family:'Helvetica';}
	.st12{font-size:19.3428px;}
	.st13{fill:#0066CC;}
	.st14{font-size:16.7638px;}
	.st15{fill:#FF3366;}
	.st16{fill:none;stroke:#FFFFFF;}
	.st17{font-family:'Folio-Medium';}
	.st18{font-size:5.504px;}
</style>
<g id="g1">
	<g id="gge212">
		<g id="gge214" class="st0">
			<text transform="matrix(1 0 0 1 155.1607 186.3085)" class="st1 st2 st3">SIN(0 1 50) AC 1 0</text>
		</g>
		<g id="gge216" class="st0">
			<text transform="matrix(1 0 0 1 46.8414 167.249)" class="st1 st2 st3">24V</text>
		</g>
		<ellipse id="gge218" class="st4" cx="124.2" cy="154.4" rx="25.8" ry="25.8"/>
		<g id="gge219">
			<circle class="st5" cx="124.2" cy="102.8" r="5.2"/>
			<path class="st6" d="M124.2,128.6v-25.8"/>
			<text transform="matrix(-1.836970e-16 -1 1 -1.836970e-16 124.2105 145.1992)" class="st7 st8 st3">1</text>
			<text transform="matrix(-1.836970e-16 -1 1 -1.836970e-16 113.8951 118.246)" class="st7 st8 st3">1</text>
			<circle class="st9" cx="124.2" cy="69.2" r="7.7"/>
			<path class="st10" d="M116.5,77l7.7,7.7l7.7-7.7"/>
		</g>
		<line id="gge226" class="st6" x1="119.1" y1="138.9" x2="129.4" y2="138.9"/>
		<line id="gge227" class="st6" x1="124.2" y1="133.7" x2="124.2" y2="144"/>
		<g id="gge228">
			<circle class="st5" cx="124.2" cy="205.9" r="5.2"/>
			<path class="st6" d="M124.2,180.1v25.8"/>
			<text transform="matrix(-1.836970e-16 -1 1 -1.836970e-16 124.2105 169.8281)" class="st7 st8 st3">2</text>
			<text transform="matrix(-1.836970e-16 -1 1 -1.836970e-16 113.8951 201.9374)" class="st7 st8 st3">2</text>
			<circle class="st9" cx="124.2" cy="239.5" r="7.7"/>
			<path class="st10" d="M131.9,231.7l-7.7-7.7l-7.7,7.7"/>
		</g>
		<line id="gge235" class="st6" x1="129.4" y1="169.8" x2="119.1" y2="169.8"/>
	</g>
	<g id="gge236">
		<g id="gge238" class="st0">
			<text transform="matrix(1 0 0 1 237.7935 43.455)" class="st1 st2 st3">1k</text>
		</g>
		<g id="gge240" class="st0">
			<text transform="matrix(1 0 0 1 227.3736 51.1923)" class="st1 st2 st3">6KΩ</text>
		</g>
		<line id="gge242" class="st6" x1="291.8" y1="64.1" x2="284.1" y2="77"/>
		<line id="gge243" class="st6" x1="271.2" y1="51.2" x2="258.3" y2="77"/>
		<line id="gge244" class="st6" x1="284.1" y1="77" x2="271.2" y2="51.2"/>
		<g id="gge245">
			<circle class="st5" cx="304.7" cy="64.1" r="5.2"/>
			<path class="st6" d="M304.7,64.1h-12.9"/>
			<text transform="matrix(1 0 0 1 270.0562 64.0878)" class="st7 st8 st3">2</text>
			<text transform="matrix(1 0 0 1 302.1666 53.7714)" class="st7 st8 st3">2</text>
			<circle class="st9" cx="299.6" cy="64.1" r="7.7"/>
			<path class="st10" d="M291.8,56.4l-7.7,7.7l7.7,7.7"/>
		</g>
		<line id="gge252" class="st6" x1="235.1" y1="77" x2="222.2" y2="51.2"/>
		<line id="gge253" class="st6" x1="258.3" y1="77" x2="248" y2="51.2"/>
		<line id="gge254" class="st6" x1="248" y1="51.2" x2="235.1" y2="77"/>
		<line id="gge255" class="st6" x1="222.2" y1="51.2" x2="214.5" y2="64.1"/>
		<g id="gge256">
			<circle class="st5" cx="201.6" cy="64.1" r="5.2"/>
			<path class="st6" d="M201.6,64.1h12.9"/>
			<text transform="matrix(1 0 0 1 224.7955 64.0878)" class="st7 st8 st3">1</text>
			<text transform="matrix(1 0 0 1 192.6851 53.7714)" class="st7 st8 st3">1</text>
			<circle class="st9" cx="206.7" cy="64.1" r="7.7"/>
			<path class="st10" d="M214.5,71.8l7.7-7.7l-7.7-7.7"/>
		</g>
	</g>
	<polyline id="gge349" class="st6" points="201.6,64.1 124.2,64.1 124.2,102.8 	"/>
	<g id="gge460">
		<text transform="matrix(1 0 0 1 46.8414 167.249)" class="st11 st12">48V</text>
	</g>
	<g id="gge471">
		<text transform="matrix(1 0 0 1 253.1646 231.7255)" class="st13 st8 st12">I</text>
	</g>
	<g id="gge477">
		<text transform="matrix(1 0 0 1 201.5836 48.33)" class="st8 st14">+</text>
	</g>
	<g id="gge480">
		<text transform="matrix(1 0 0 1 291.8502 48.33)" class="st8 st14">-</text>
	</g>
	<g id="gge488">
		<g id="gge490" class="st0">
			<text transform="matrix(1 0 0 1 400.1695 186.2568)" class="st1 st2 st3">1k</text>
		</g>
		<g id="gge492" class="st0">
			<text transform="matrix(1 0 0 1 400.1695 162.4785)" class="st1 st2 st3">1KΩ</text>
		</g>
		<line id="gge494" class="st6" x1="382.1" y1="115.7" x2="395" y2="123.4"/>
		<line id="gge495" class="st6" x1="369.2" y1="136.3" x2="395" y2="149.2"/>
		<line id="gge496" class="st6" x1="395" y1="123.4" x2="369.2" y2="136.3"/>
		<g id="gge497">
			<circle class="st5" cx="382.1" cy="102.8" r="5.2"/>
			<path class="st6" d="M382.1,102.8v12.9"/>
			<text transform="matrix(-1.836970e-16 -1 1 -1.836970e-16 382.1148 137.4609)" class="st7 st8 st3">2</text>
			<text transform="matrix(-1.836970e-16 -1 1 -1.836970e-16 371.7984 105.3515)" class="st7 st8 st3">2</text>
			<circle class="st9" cx="382.1" cy="107.9" r="7.7"/>
			<path class="st10" d="M374.4,115.7l7.7,7.7l7.7-7.7"/>
		</g>
		<line id="gge504" class="st6" x1="395" y1="172.4" x2="369.2" y2="185.3"/>
		<line id="gge505" class="st6" x1="395" y1="149.2" x2="369.2" y2="159.5"/>
		<line id="gge506" class="st6" x1="369.2" y1="159.5" x2="395" y2="172.4"/>
		<line id="gge507" class="st6" x1="369.2" y1="185.3" x2="382.1" y2="193"/>
		<g id="gge508">
			<circle class="st5" cx="382.1" cy="205.9" r="5.2"/>
			<path class="st6" d="M382.1,205.9V193"/>
			<text transform="matrix(-1.836970e-16 -1 1 -1.836970e-16 382.1148 182.7226)" class="st7 st8 st3">1</text>
			<text transform="matrix(-1.836970e-16 -1 1 -1.836970e-16 371.7984 214.832)" class="st7 st8 st3">1</text>
			<circle class="st9" cx="382.1" cy="200.8" r="7.7"/>
			<path class="st10" d="M389.9,193l-7.7-7.7l-7.7,7.7"/>
		</g>
	</g>
	<polyline id="gge520" class="st6" points="304.7,64.1 382.1,64.1 382.1,102.8 	"/>
	<polyline id="gge521" class="st6" points="382.1,205.9 382.1,244.6 124.2,244.6 124.2,205.9 	"/>
	<g id="gge523">
		<text transform="matrix(1 0 0 1 150.0025 167.249)" class="st15 st8 st12">3</text>
	</g>
	<g id="gge526">
		<text transform="matrix(1 0 0 1 240.2691 102.7734)" class="st15 st8 st12">1</text>
	</g>
	<g id="gge529">
		<text transform="matrix(1 0 0 1 343.4312 167.249)" class="st15 st8 st12">2</text>
	</g>
	<g id="gge532">
		<text transform="matrix(1 0 0 1 395.0113 115.6689)" class="st8 st14">+</text>
	</g>
	<g id="gge535">
		<text transform="matrix(1 0 0 1 395.0113 205.9345)" class="st8 st14">-</text>
	</g>
	<g id="gge538">
		<text transform="matrix(1 0 0 1 227.3736 38.2978)" class="st11 st12">12V</text>
	</g>
	<g id="gge541">
		<text transform="matrix(1 0 0 1 395.0113 167.249)" class="st11 st12">36V</text>
	</g>
	<rect id="gge573" x="33.9" y="12.5" class="st16" width="412.6" height="245"/>
	<g id="gge519">
		<path d="M240.3,244.6l5.2,10.3l-12.9-10.3l12.9-10.3L240.3,244.6z"/>
	</g>
</g>
<g>
	<g id="ni34a4_1_">
		
			<image style="overflow:visible;" width="1200" height="423" id="ni34a4_00000114052095137766275830000010247063283131300264_" xlink:href="984118E8E5EBF9EA.png"  transform="matrix(3.635557e-02 0 0 3.635557e-02 49.353 277.617)">
		</image>
	</g>
	<g>
		<text transform="matrix(1 0 0 1 49.1606 300.9586)" class="st17 st18">UBC Engineering</text>
	</g>
</g>
</svg>
