<?xml version="1.0" encoding="utf-8"?>
<!-- Generator: Adobe Illustrator 26.3.1, SVG Export Plug-In . SVG Version: 6.00 Build 0)  -->
<svg version="1.1" id="Layer_1" xmlns="http://www.w3.org/2000/svg" xmlns:xlink="http://www.w3.org/1999/xlink" x="0px" y="0px"
	 viewBox="0 0 408.8 284.3" style="enable-background:new 0 0 408.8 284.3;" xml:space="preserve">
<style type="text/css">
	.st0{display:none;}
	.st1{display:inline;}
	.st2{font-family:'ArialMT';}
	.st3{font-size:10.1689px;}
	.st4{fill:none;stroke:#000000;}
	.st5{fill:none;}
	.st6{fill:none;stroke:#000000;stroke-linecap:round;stroke-linejoin:round;}
	.st7{display:none;enable-background:new    ;}
	.st8{font-family:'Verdana';}
	.st9{display:none;fill:none;stroke:#000000;}
	.st10{display:none;fill:none;stroke:#000000;stroke-linecap:round;stroke-linejoin:round;}
	.st11{font-family:'Helvetica';}
	.st12{font-size:10.8953px;}
	.st13{fill:#FF3366;}
	.st14{fill:#0066CC;}
	.st15{font-family:'Folio-Medium';}
	.st16{font-size:5.504px;}
</style>
<g id="g1">
	<g id="gge471">
		<g id="gge473" class="st0">
			<text transform="matrix(1 0 0 1 80.9859 170.2827)" class="st1 st2 st3">SIN(0 1 50) AC 1 0</text>
		</g>
		<g id="gge475" class="st0">
			<text transform="matrix(1 0 0 1 19.9717 159.5473)" class="st1 st2 st3">1V</text>
		</g>
		<ellipse id="gge477" class="st4" cx="63.6" cy="152.3" rx="14.5" ry="14.5"/>
		<g id="gge478">
			<circle class="st5" cx="63.6" cy="123.2" r="2.9"/>
			<path class="st6" d="M63.6,137.8v-14.5"/>
			<text transform="matrix(-1.836970e-16 -1 1 -1.836970e-16 63.5533 147.1264)" class="st7 st8 st3">1</text>
			<text transform="matrix(-1.836970e-16 -1 1 -1.836970e-16 57.7422 131.9448)" class="st7 st8 st3">1</text>
			<circle class="st9" cx="63.6" cy="104.3" r="4.4"/>
			<path class="st10" d="M59.2,108.7l4.4,4.4l4.4-4.4"/>
		</g>
		<line id="gge485" class="st6" x1="60.6" y1="143.6" x2="66.5" y2="143.6"/>
		<line id="gge486" class="st6" x1="63.6" y1="140.7" x2="63.6" y2="146.5"/>
		<g id="gge487">
			<circle class="st5" cx="63.6" cy="181.3" r="2.9"/>
			<path class="st6" d="M63.6,166.8v14.5"/>
			<text transform="matrix(-1.836970e-16 -1 1 -1.836970e-16 63.5533 160.9995)" class="st7 st8 st3">2</text>
			<text transform="matrix(-1.836970e-16 -1 1 -1.836970e-16 57.7422 179.0854)" class="st7 st8 st3">2</text>
			<circle class="st9" cx="63.6" cy="200.2" r="4.4"/>
			<path class="st10" d="M67.9,195.9l-4.4-4.4l-4.4,4.4"/>
		</g>
		<line id="gge494" class="st6" x1="66.5" y1="161" x2="60.6" y2="161"/>
	</g>
	<g id="gge523">
		<text transform="matrix(1 0 0 1 19.9717 159.5473)" class="st11 st12">48V</text>
	</g>
	<g id="gge611">
		<g id="gge613" class="st0">
			<text transform="matrix(1 0 0 1 371.5269 170.2827)" class="st1 st2 st3">SIN(0 1 50) AC 1 0</text>
		</g>
		<g id="gge615" class="st0">
			<text transform="matrix(1 0 0 1 310.5132 159.5473)" class="st1 st2 st3">2V</text>
		</g>
		<ellipse id="gge617" class="st4" cx="354.1" cy="152.3" rx="14.5" ry="14.5"/>
		<g id="gge618">
			<circle class="st5" cx="354.1" cy="123.2" r="2.9"/>
			<path class="st6" d="M354.1,137.8v-14.5"/>
			<text transform="matrix(-1.836970e-16 -1 1 -1.836970e-16 354.0943 147.1264)" class="st7 st8 st3">1</text>
			<text transform="matrix(-1.836970e-16 -1 1 -1.836970e-16 348.2837 131.9448)" class="st7 st8 st3">1</text>
			<circle class="st9" cx="354.1" cy="104.3" r="4.4"/>
			<path class="st10" d="M349.7,108.7l4.4,4.4l4.4-4.4"/>
		</g>
		<line id="gge625" class="st6" x1="351.2" y1="143.6" x2="357" y2="143.6"/>
		<line id="gge626" class="st6" x1="354.1" y1="140.7" x2="354.1" y2="146.5"/>
		<g id="gge627">
			<circle class="st5" cx="354.1" cy="181.3" r="2.9"/>
			<path class="st6" d="M354.1,166.8v14.5"/>
			<text transform="matrix(-1.836970e-16 -1 1 -1.836970e-16 354.0943 160.9995)" class="st7 st8 st3">2</text>
			<text transform="matrix(-1.836970e-16 -1 1 -1.836970e-16 348.2837 179.0854)" class="st7 st8 st3">2</text>
			<circle class="st9" cx="354.1" cy="200.2" r="4.4"/>
			<path class="st10" d="M358.5,195.9l-4.4-4.4l-4.4,4.4"/>
		</g>
		<line id="gge634" class="st6" x1="357" y1="161" x2="351.2" y2="161"/>
	</g>
	<g id="gge636">
		<text transform="matrix(1 0 0 1 375.8853 159.5473)" class="st11 st12">24V</text>
	</g>
	<g id="gge639">
		<g id="gge641" class="st0">
			<text transform="matrix(1 0 0 1 218.9927 170.2534)" class="st1 st2 st3">1k</text>
		</g>
		<g id="gge643" class="st0">
			<text transform="matrix(1 0 0 1 218.9927 156.8598)" class="st1 st2 st3">2K立</text>
		</g>
		<line id="gge645" class="st6" x1="208.8" y1="130.5" x2="216.1" y2="134.9"/>
		<line id="gge646" class="st6" x1="201.6" y1="142.1" x2="216.1" y2="149.4"/>
		<line id="gge647" class="st6" x1="216.1" y1="134.9" x2="201.6" y2="142.1"/>
		<g id="gge648">
			<circle class="st5" cx="208.8" cy="123.2" r="2.9"/>
			<path class="st6" d="M208.8,123.2v7.3"/>
			<text transform="matrix(-1.836970e-16 -1 1 -1.836970e-16 208.8238 142.769)" class="st7 st8 st3">2</text>
			<text transform="matrix(-1.836970e-16 -1 1 -1.836970e-16 203.0132 124.6831)" class="st7 st8 st3">2</text>
			<circle class="st9" cx="208.8" cy="126.1" r="4.4"/>
			<path class="st10" d="M204.5,130.5l4.4,4.4l4.4-4.4"/>
		</g>
		<line id="gge655" class="st6" x1="216.1" y1="162.5" x2="201.6" y2="169.7"/>
		<line id="gge656" class="st6" x1="216.1" y1="149.4" x2="201.6" y2="155.2"/>
		<line id="gge657" class="st6" x1="201.6" y1="155.2" x2="216.1" y2="162.5"/>
		<line id="gge658" class="st6" x1="201.6" y1="169.7" x2="208.8" y2="174.1"/>
		<g id="gge659">
			<circle class="st5" cx="208.8" cy="181.3" r="2.9"/>
			<path class="st6" d="M208.8,181.3v-7.3"/>
			<text transform="matrix(-1.836970e-16 -1 1 -1.836970e-16 208.8238 168.2631)" class="st7 st8 st3">1</text>
			<text transform="matrix(-1.836970e-16 -1 1 -1.836970e-16 203.0132 186.3491)" class="st7 st8 st3">1</text>
			<circle class="st9" cx="208.8" cy="178.4" r="4.4"/>
			<path class="st10" d="M213.2,174.1l-4.4-4.4l-4.4,4.4"/>
		</g>
	</g>
	<g id="gge667">
		<g id="gge669" class="st0">
			<text transform="matrix(1 0 0 1 122.8379 89.8173)" class="st1 st2 st3">1k</text>
		</g>
		<g id="gge671" class="st0">
			<text transform="matrix(1 0 0 1 122.8379 76.4233)" class="st1 st2 st3">3K立</text>
		</g>
		<line id="gge673" class="st6" x1="114.4" y1="101.4" x2="118.8" y2="94.2"/>
		<line id="gge674" class="st6" x1="126" y1="108.7" x2="133.3" y2="94.2"/>
		<line id="gge675" class="st6" x1="118.8" y1="94.2" x2="126" y2="108.7"/>
		<g id="gge676">
			<circle class="st5" cx="107.1" cy="101.4" r="2.9"/>
			<path class="st6" d="M107.1,101.4h7.3"/>
			<text transform="matrix(1 0 0 1 120.2085 101.4389)" class="st7 st8 st3">2</text>
			<text transform="matrix(1 0 0 1 102.1221 95.6284)" class="st7 st8 st3">2</text>
			<circle class="st9" cx="110" cy="101.4" r="4.4"/>
			<path class="st10" d="M114.4,105.8l4.4-4.4l-4.4-4.4"/>
		</g>
		<line id="gge683" class="st6" x1="146.4" y1="94.2" x2="153.6" y2="108.7"/>
		<line id="gge684" class="st6" x1="133.3" y1="94.2" x2="139.1" y2="108.7"/>
		<line id="gge685" class="st6" x1="139.1" y1="108.7" x2="146.4" y2="94.2"/>
		<line id="gge686" class="st6" x1="153.6" y1="108.7" x2="158" y2="101.4"/>
		<g id="gge687">
			<circle class="st5" cx="165.2" cy="101.4" r="2.9"/>
			<path class="st6" d="M165.2,101.4H158"/>
			<text transform="matrix(1 0 0 1 145.7036 101.4389)" class="st7 st8 st3">1</text>
			<text transform="matrix(1 0 0 1 163.7896 95.6284)" class="st7 st8 st3">1</text>
			<circle class="st9" cx="162.3" cy="101.4" r="4.4"/>
			<path class="st10" d="M158,97.1l-4.4,4.4l4.4,4.4"/>
		</g>
	</g>
	<g id="gge695">
		<g id="gge697" class="st0">
			<text transform="matrix(1 0 0 1 268.1089 89.8173)" class="st1 st2 st3">1k</text>
		</g>
		<g id="gge699" class="st0">
			<text transform="matrix(1 0 0 1 268.1089 76.4233)" class="st1 st2 st3">5K立</text>
		</g>
		<line id="gge701" class="st6" x1="259.7" y1="101.4" x2="264" y2="94.2"/>
		<line id="gge702" class="st6" x1="271.3" y1="108.7" x2="278.6" y2="94.2"/>
		<line id="gge703" class="st6" x1="264" y1="94.2" x2="271.3" y2="108.7"/>
		<g id="gge704">
			<circle class="st5" cx="252.4" cy="101.4" r="2.9"/>
			<path class="st6" d="M252.4,101.4h7.3"/>
			<text transform="matrix(1 0 0 1 265.479 101.4389)" class="st7 st8 st3">2</text>
			<text transform="matrix(1 0 0 1 247.3931 95.6284)" class="st7 st8 st3">2</text>
			<circle class="st9" cx="255.3" cy="101.4" r="4.4"/>
			<path class="st10" d="M259.7,105.8l4.4-4.4l-4.4-4.4"/>
		</g>
		<line id="gge711" class="st6" x1="291.6" y1="94.2" x2="298.9" y2="108.7"/>
		<line id="gge712" class="st6" x1="278.6" y1="94.2" x2="284.4" y2="108.7"/>
		<line id="gge713" class="st6" x1="284.4" y1="108.7" x2="291.6" y2="94.2"/>
		<line id="gge714" class="st6" x1="298.9" y1="108.7" x2="303.2" y2="101.4"/>
		<g id="gge715">
			<circle class="st5" cx="310.5" cy="101.4" r="2.9"/>
			<path class="st6" d="M310.5,101.4h-7.3"/>
			<text transform="matrix(1 0 0 1 290.9742 101.4389)" class="st7 st8 st3">1</text>
			<text transform="matrix(1 0 0 1 309.0601 95.6284)" class="st7 st8 st3">1</text>
			<circle class="st9" cx="307.6" cy="101.4" r="4.4"/>
			<path class="st10" d="M303.2,97.1l-4.4,4.4l4.4,4.4"/>
		</g>
	</g>
	<polyline id="gge722" class="st6" points="63.6,181.3 63.6,210.4 354.1,210.4 354.1,181.3 	"/>
	<g id="gge724">
		<g id="gge726" class="st0">
			<text transform="matrix(1 0 0 1 195.4732 38.9726)" class="st1 st2 st3">1k</text>
		</g>
		<g id="gge728" class="st0">
			<text transform="matrix(1 0 0 1 195.4732 25.5786)" class="st1 st2 st3">7K立</text>
		</g>
		<line id="gge730" class="st6" x1="187" y1="50.6" x2="191.4" y2="43.3"/>
		<line id="gge731" class="st6" x1="198.7" y1="57.9" x2="205.9" y2="43.3"/>
		<line id="gge732" class="st6" x1="191.4" y1="43.3" x2="198.7" y2="57.9"/>
		<g id="gge733">
			<circle class="st5" cx="179.8" cy="50.6" r="2.9"/>
			<path class="st6" d="M179.8,50.6h7.3"/>
			<text transform="matrix(1 0 0 1 192.8443 50.5942)" class="st7 st8 st3">2</text>
			<text transform="matrix(1 0 0 1 174.7574 44.7836)" class="st7 st8 st3">2</text>
			<circle class="st9" cx="182.7" cy="50.6" r="4.4"/>
			<path class="st10" d="M187,55l4.4-4.4l-4.4-4.4"/>
		</g>
		<line id="gge740" class="st6" x1="219" y1="43.3" x2="226.3" y2="57.9"/>
		<line id="gge741" class="st6" x1="205.9" y1="43.3" x2="211.7" y2="57.9"/>
		<line id="gge742" class="st6" x1="211.7" y1="57.9" x2="219" y2="43.3"/>
		<line id="gge743" class="st6" x1="226.3" y1="57.9" x2="230.6" y2="50.6"/>
		<g id="gge744">
			<circle class="st5" cx="237.9" cy="50.6" r="2.9"/>
			<path class="st6" d="M237.9,50.6h-7.3"/>
			<text transform="matrix(1 0 0 1 218.3384 50.5942)" class="st7 st8 st3">1</text>
			<text transform="matrix(1 0 0 1 236.4253 44.7836)" class="st7 st8 st3">1</text>
			<circle class="st9" cx="235" cy="50.6" r="4.4"/>
			<path class="st10" d="M230.6,46.2l-4.4,4.4l4.4,4.4"/>
		</g>
	</g>
	<polyline id="gge751" class="st6" points="63.6,123.2 63.6,50.6 179.8,50.6 	"/>
	<polyline id="gge752" class="st6" points="237.9,50.6 354.1,50.6 354.1,123.2 	"/>
	<line id="gge753" class="st6" x1="310.5" y1="101.4" x2="354.1" y2="101.4"/>
	<line id="gge755" class="st6" x1="252.4" y1="101.4" x2="165.2" y2="101.4"/>
	<line id="gge756" class="st6" x1="208.8" y1="123.2" x2="208.8" y2="101.4"/>
	<line id="gge758" class="st6" x1="107.1" y1="101.4" x2="63.6" y2="101.4"/>
	<line id="gge760" class="st6" x1="208.8" y1="181.3" x2="208.8" y2="210.4"/>
	<g id="gge774">
		<text transform="matrix(1 0 0 1 201.5601 72.3847)" class="st13 st8 st12">3</text>
	</g>
	<g id="gge777">
		<text transform="matrix(1 0 0 1 128.9248 123.2299)" class="st13 st8 st12">4</text>
	</g>
	<g id="gge780">
		<text transform="matrix(1 0 0 1 281.4585 123.2299)" class="st13 st8 st12">2</text>
	</g>
	<g id="gge783">
		<text transform="matrix(1 0 0 1 223.3511 159.5473)" class="st13 st8 st12">1</text>
	</g>
	<g id="gge786">
		<text transform="matrix(1 0 0 1 85.3433 159.5473)" class="st13 st8 st12">5</text>
	</g>
	<g id="gge789">
		<text transform="matrix(1 0 0 1 325.0406 159.5473)" class="st13 st8 st12">6</text>
	</g>
	<g id="gge810">
		<text transform="matrix(1 0 0 1 143.4517 43.3305)" class="st14 st8 st12">I5</text>
	</g>
	<g id="gge813">
		<text transform="matrix(1 0 0 1 92.607 94.1752)" class="st14 st8 st12">I4</text>
	</g>
	<g id="gge816">
		<text transform="matrix(1 0 0 1 187.0332 203.1284)" class="st14 st8 st12">I2</text>
	</g>
	<g id="gge819">
		<text transform="matrix(1 0 0 1 332.3042 94.1752)" class="st14 st8 st12">I6</text>
	</g>
	<g id="gge822">
		<text transform="matrix(1 0 0 1 361.3579 203.1284)" class="st14 st8 st12">I1</text>
	</g>
	<g id="gge825">
		<text transform="matrix(1 0 0 1 92.607 203.1284)" class="st14 st8 st12">I3</text>
	</g>
	<g id="gge828">
		<text transform="matrix(1 0 0 1 172.5064 159.5473)" class="st11 st12">32V</text>
	</g>
	<g id="gge831">
		<text transform="matrix(1 0 0 1 121.6617 86.9116)" class="st11 st12">16V</text>
	</g>
	<g id="gge834">
		<text transform="matrix(1 0 0 1 266.9322 86.9116)" class="st11 st12">8V</text>
	</g>
	<g id="gge837">
		<text transform="matrix(1 0 0 1 194.2964 36.0668)" class="st11 st12">24V</text>
	</g>
	<g id="gge759">
		<circle class="st5" cx="63.6" cy="101.4" r="2.9"/>
		<circle cx="63.6" cy="101.4" r="3.6"/>
	</g>
	<g id="gge754">
		<circle class="st5" cx="354.1" cy="101.4" r="2.9"/>
		<circle cx="354.1" cy="101.4" r="3.6"/>
	</g>
	<g id="gge757">
		<circle class="st5" cx="208.8" cy="101.4" r="2.9"/>
		<circle cx="208.8" cy="101.4" r="3.6"/>
	</g>
	<g id="gge761">
		<circle class="st5" cx="208.8" cy="210.4" r="2.9"/>
		<circle cx="208.8" cy="210.4" r="3.6"/>
	</g>
	<g id="gge793">
		<path d="M208.8,203.1l5.8-2.9l-5.8,7.3l-5.8-7.3L208.8,203.1z"/>
	</g>
	<g id="gge796">
		<path d="M85.3,210.4l2.9,5.8l-7.3-5.8l7.3-5.8L85.3,210.4z"/>
	</g>
	<g id="gge799">
		<path d="M107.1,101.4l-2.9-5.8l7.3,5.8l-7.3,5.8L107.1,101.4z"/>
	</g>
	<g id="gge802">
		<path d="M346.8,101.4l-2.9-5.8l7.3,5.8l-7.3,5.8L346.8,101.4z"/>
	</g>
	<g id="gge805">
		<path d="M354.1,203.1l5.8-2.9l-5.8,7.3l-5.8-7.3L354.1,203.1z"/>
	</g>
	<g id="gge808">
		<path d="M158,50.6l-2.9-5.8l7.3,5.8l-7.3,5.8L158,50.6z"/>
	</g>
</g>
<g>
	<g id="ni34a4_1_">
		
			<image style="overflow:visible;" width="1200" height="423" id="ni34a4_00000114052095137766275830000010247063283131300264_" xlink:href="984983F59FFA4E35.png"  transform="matrix(3.635557e-02 0 0 3.635557e-02 346.6855 247.6412)">
		</image>
	</g>
	<g>
		<text transform="matrix(1 0 0 1 346.4932 270.9828)" class="st15 st16">UBC Engineering</text>
	</g>
</g>
</svg>
