<?xml version="1.0" encoding="utf-8"?>
<!-- Generator: Adobe Illustrator 26.3.1, SVG Export Plug-In . SVG Version: 6.00 Build 0)  -->
<svg version="1.1" id="Layer_1" xmlns="http://www.w3.org/2000/svg" xmlns:xlink="http://www.w3.org/1999/xlink" x="0px" y="0px"
	 viewBox="0 0 731.4 331.4" style="enable-background:new 0 0 731.4 331.4;" xml:space="preserve">
<style type="text/css">
	.st0{display:none;}
	.st1{display:inline;}
	.st2{font-family:'ArialMT';}
	.st3{font-size:17.5479px;}
	.st4{fill:none;stroke:#000000;stroke-width:2.5068;}
	.st5{fill:none;}
	.st6{fill:none;stroke:#000000;stroke-width:2.5068;stroke-linecap:round;stroke-linejoin:round;}
	.st7{display:none;enable-background:new    ;}
	.st8{font-family:'Verdana';}
	.st9{display:none;fill:none;stroke:#000000;stroke-width:2.5068;}
	.st10{display:none;fill:none;stroke:#000000;stroke-width:2.5068;stroke-linecap:round;stroke-linejoin:round;}
	.st11{font-family:'Helvetica';}
	.st12{font-size:18.8014px;}
	.st13{fill:#0066CC;}
	.st14{fill:#FF3366;}
	.st15{font-family:'Folio-Medium';}
	.st16{font-size:5.504px;}
</style>
<g id="g1">
	<g id="gge5232">
		<g id="gge5234" class="st0">
			<text transform="matrix(1 0 0 1 120.0283 174.5508)" class="st1 st2 st3">SIN(0 1 50)</text>
		</g>
		<g id="gge5236" class="st0">
			<text transform="matrix(1 0 0 1 120.0283 151.5879)" class="st1 st2 st3">I9</text>
		</g>
		<ellipse id="gge5238" class="st4" cx="89.9" cy="143.5" rx="25.1" ry="25.1"/>
		<g id="gge5239">
			<circle class="st5" cx="89.9" cy="193.6" r="5"/>
			<path class="st6" d="M89.9,168.5v25.1"/>
			<text transform="matrix(-1.836970e-16 -1 1 -1.836970e-16 89.9453 158.5078)" class="st7 st8 st3">2</text>
			<text transform="matrix(-1.836970e-16 -1 1 -1.836970e-16 79.9179 189.7188)" class="st7 st8 st3">2</text>
			<circle class="st9" cx="89.9" cy="226.2" r="7.5"/>
			<path class="st10" d="M97.5,218.7l-7.5-7.5l-7.5,7.5"/>
		</g>
		<line id="gge5246" class="st6" x1="89.9" y1="163.5" x2="84.9" y2="158.5"/>
		<line id="gge5247" class="st6" x1="89.9" y1="163.5" x2="95" y2="158.5"/>
		<g id="gge5248">
			<circle class="st5" cx="89.9" cy="93.3" r="5"/>
			<path class="st6" d="M89.9,118.4V93.3"/>
			<text transform="matrix(-1.836970e-16 -1 1 -1.836970e-16 89.9453 134.5684)" class="st7 st8 st3">1</text>
			<text transform="matrix(-1.836970e-16 -1 1 -1.836970e-16 79.9179 108.3711)" class="st7 st8 st3">1</text>
			<circle class="st9" cx="89.9" cy="60.7" r="7.5"/>
			<path class="st10" d="M82.4,68.3l7.5,7.5l7.5-7.5"/>
		</g>
		<line id="gge5255" class="st6" x1="89.9" y1="163.5" x2="89.9" y2="123.4"/>
	</g>
	<ellipse id="gge5257" class="st4" cx="303" cy="231.2" rx="6.3" ry="6.3"/>
	<ellipse id="gge5258" class="st4" cx="227.8" cy="231.2" rx="6.3" ry="6.3"/>
	<g id="gge5259">
		<text transform="matrix(1 0 0 1 240.3574 279.4873)" class="st11 st12">t = 0</text>
	</g>
	<line id="gge5261" class="st6" x1="265.4" y1="256.3" x2="265.4" y2="206.1"/>
	<g id="gge5267">
		<text transform="matrix(1 0 0 1 152.6181 266.9531)" class="st11 st12">10kΩ</text>
	</g>
	<g id="gge5270">
		<text transform="matrix(1 0 0 1 39.8095 156.4756)" class="st13 st8 st12">Is</text>
	</g>
	<g id="gge5273">
		<g id="gge5275" class="st0">
			<text transform="matrix(1 0 0 1 156.2275 211.1504)" class="st1 st2 st3">1k</text>
		</g>
		<g id="gge5277" class="st0">
			<text transform="matrix(1 0 0 1 156.2275 188.1875)" class="st1 st2 st3">R70</text>
		</g>
		<line id="gge5279" class="st6" x1="215.3" y1="231.2" x2="207.8" y2="243.7"/>
		<line id="gge5280" class="st6" x1="195.2" y1="218.7" x2="182.7" y2="243.7"/>
		<line id="gge5281" class="st6" x1="207.8" y1="243.7" x2="195.2" y2="218.7"/>
		<g id="gge5282">
			<circle class="st5" cx="227.8" cy="231.2" r="5"/>
			<path class="st6" d="M227.8,231.2h-12.5"/>
			<text transform="matrix(1 0 0 1 194.1054 231.2051)" class="st7 st8 st3">2</text>
			<text transform="matrix(1 0 0 1 225.3164 221.1777)" class="st7 st8 st3">2</text>
			<circle class="st9" cx="222.8" cy="231.2" r="7.5"/>
			<path class="st10" d="M215.3,223.7l-7.5,7.5l7.5,7.5"/>
		</g>
		<line id="gge5289" class="st6" x1="160.1" y1="243.7" x2="147.6" y2="218.7"/>
		<line id="gge5290" class="st6" x1="182.7" y1="243.7" x2="172.7" y2="218.7"/>
		<line id="gge5291" class="st6" x1="172.7" y1="218.7" x2="160.1" y2="243.7"/>
		<line id="gge5292" class="st6" x1="147.6" y1="218.7" x2="140.1" y2="231.2"/>
		<g id="gge5293">
			<circle class="st5" cx="127.5" cy="231.2" r="5"/>
			<path class="st6" d="M127.5,231.2h12.5"/>
			<text transform="matrix(1 0 0 1 150.1103 231.2051)" class="st7 st8 st3">1</text>
			<text transform="matrix(1 0 0 1 118.9004 221.1777)" class="st7 st8 st3">1</text>
			<circle class="st9" cx="132.6" cy="231.2" r="7.5"/>
			<path class="st10" d="M140.1,238.7l7.5-7.5l-7.5-7.5"/>
		</g>
	</g>
	<polyline id="gge5300" class="st6" points="89.9,193.6 89.9,231.2 127.5,231.2 	"/>
	<ellipse id="gge5302" class="st4" cx="265.4" cy="181.1" rx="6.3" ry="6.3"/>
	<polyline id="gge5303" class="st6" points="303,193.6 303,231.2 227.8,231.2 	"/>
	<g id="gge5305">
		<g id="gge5307" class="st0">
			<text transform="matrix(1 0 0 1 320.5761 174.5508)" class="st1 st2 st3">1k</text>
		</g>
		<g id="gge5309" class="st0">
			<text transform="matrix(1 0 0 1 320.5761 151.5879)" class="st1 st2 st3">R80</text>
		</g>
		<line id="gge5311" class="st6" x1="303" y1="105.9" x2="315.6" y2="113.4"/>
		<line id="gge5312" class="st6" x1="290.5" y1="125.9" x2="315.6" y2="138.5"/>
		<line id="gge5313" class="st6" x1="315.6" y1="113.4" x2="290.5" y2="125.9"/>
		<g id="gge5314">
			<circle class="st5" cx="303" cy="93.3" r="5"/>
			<path class="st6" d="M303,93.3v12.5"/>
			<text transform="matrix(-1.836970e-16 -1 1 -1.836970e-16 303.0273 127.0469)" class="st7 st8 st3">2</text>
			<text transform="matrix(-1.836970e-16 -1 1 -1.836970e-16 293 95.8359)" class="st7 st8 st3">2</text>
			<circle class="st9" cx="303" cy="98.3" r="7.5"/>
			<path class="st10" d="M295.5,105.9l7.5,7.5l7.5-7.5"/>
		</g>
		<line id="gge5321" class="st6" x1="315.6" y1="161" x2="290.5" y2="173.5"/>
		<line id="gge5322" class="st6" x1="315.6" y1="138.5" x2="290.5" y2="148.5"/>
		<line id="gge5323" class="st6" x1="290.5" y1="148.5" x2="315.6" y2="161"/>
		<line id="gge5324" class="st6" x1="290.5" y1="173.5" x2="303" y2="181.1"/>
		<g id="gge5325">
			<circle class="st5" cx="303" cy="193.6" r="5"/>
			<path class="st6" d="M303,193.6v-12.5"/>
			<text transform="matrix(-1.836970e-16 -1 1 -1.836970e-16 303.0273 171.043)" class="st7 st8 st3">1</text>
			<text transform="matrix(-1.836970e-16 -1 1 -1.836970e-16 293 202.2539)" class="st7 st8 st3">1</text>
			<circle class="st9" cx="303" cy="188.6" r="7.5"/>
			<path class="st10" d="M310.5,181.1l-7.5-7.5l-7.5,7.5"/>
		</g>
	</g>
	<polyline id="gge5332" class="st6" points="89.9,93.3 89.9,55.7 303,55.7 303,93.3 	"/>
	<line id="gge5334" class="st6" x1="265.4" y1="181.1" x2="265.4" y2="55.7"/>
	<g id="gge5337">
		<text transform="matrix(1 0 0 1 315.5625 156)" class="st11 st12">5kΩ</text>
	</g>
	<g id="gge5339">
		<g id="gge5341" class="st0">
			<text transform="matrix(1 0 0 1 394.1074 174.5508)" class="st1 st2 st3">1m</text>
		</g>
		<g id="gge5343" class="st0">
			<text transform="matrix(1 0 0 1 394.1025 151.5879)" class="st1 st2 st3">L7</text>
		</g>
		<g id="gge5345">
			<circle class="st5" cx="378.2" cy="193.6" r="5"/>
			<path class="st6" d="M378.2,193.6v-7.5"/>
			<text transform="matrix(-1.836970e-16 -1 1 -1.836970e-16 378.2334 176.0566)" class="st7 st8 st3">2</text>
			<text transform="matrix(-1.836970e-16 -1 1 -1.836970e-16 368.206 207.2676)" class="st7 st8 st3">2</text>
			<circle class="st9" cx="378.2" cy="193.6" r="7.5"/>
			<path class="st10" d="M385.8,186.1l-7.5-7.5l-7.5,7.5"/>
		</g>
		<g id="gge5352">
			<circle class="st5" cx="378.2" cy="93.3" r="5"/>
			<path class="st6" d="M378.2,93.3v7.5"/>
			<text transform="matrix(-1.836970e-16 -1 1 -1.836970e-16 378.2334 122.0332)" class="st7 st8 st3">1</text>
			<text transform="matrix(-1.836970e-16 -1 1 -1.836970e-16 368.206 90.8223)" class="st7 st8 st3">1</text>
			<circle class="st9" cx="378.2" cy="93.3" r="7.5"/>
			<path class="st10" d="M370.7,100.9l7.5,7.5l7.5-7.5"/>
		</g>
		<path id="gge5359" class="st6" d="M378.4,101.1c5.4-0.5,10.1,3.5,10.6,9.1c0.5,5.5-3.4,10.4-8.8,10.9c-0.6,0.1-1.2,0.1-1.8,0"/>
		<path id="gge5360" class="st6" d="M378.4,122.4c5.4-0.5,10.1,3.5,10.6,9.1c0.5,5.5-3.5,10.4-8.8,10.9c-0.6,0.1-1.2,0.1-1.8,0"/>
		<path id="gge5361" class="st6" d="M378.4,143.6c5.4-0.5,10.1,3.5,10.6,9.1c0.5,5.5-3.5,10.4-8.8,10.9c-0.6,0.1-1.2,0.1-1.8,0"/>
		<path id="gge5362" class="st6" d="M378.4,165.3c5.4-0.5,10.1,3.5,10.6,9.1c0.5,5.5-3.5,10.4-8.8,10.9c-0.6,0.1-1.2,0.1-1.8,0"/>
	</g>
	<polyline id="gge5363" class="st6" points="378.2,93.3 378.2,55.7 303,55.7 	"/>
	<polyline id="gge5365" class="st6" points="378.2,193.6 378.2,231.2 303,231.2 	"/>
	<g id="gge5368">
		<g id="gge5370" class="st0">
			<text transform="matrix(1 0 0 1 444.5156 35.6709)" class="st1 st2 st3">1k</text>
		</g>
		<g id="gge5372" class="st0">
			<text transform="matrix(1 0 0 1 444.5156 12.708)" class="st1 st2 st3">R81</text>
		</g>
		<line id="gge5374" class="st6" x1="503.6" y1="55.7" x2="496.1" y2="68.3"/>
		<line id="gge5375" class="st6" x1="483.5" y1="43.2" x2="471" y2="68.3"/>
		<line id="gge5376" class="st6" x1="496.1" y1="68.3" x2="483.5" y2="43.2"/>
		<g id="gge5377">
			<circle class="st5" cx="516.1" cy="55.7" r="5"/>
			<path class="st6" d="M516.1,55.7h-12.5"/>
			<text transform="matrix(1 0 0 1 482.3935 55.7256)" class="st7 st8 st3">2</text>
			<text transform="matrix(1 0 0 1 513.6035 45.6982)" class="st7 st8 st3">2</text>
			<circle class="st9" cx="511.1" cy="55.7" r="7.5"/>
			<path class="st10" d="M503.6,48.2l-7.5,7.5l7.5,7.5"/>
		</g>
		<line id="gge5384" class="st6" x1="448.4" y1="68.3" x2="435.9" y2="43.2"/>
		<line id="gge5385" class="st6" x1="471" y1="68.3" x2="461" y2="43.2"/>
		<line id="gge5386" class="st6" x1="461" y1="43.2" x2="448.4" y2="68.3"/>
		<line id="gge5387" class="st6" x1="435.9" y1="43.2" x2="428.4" y2="55.7"/>
		<g id="gge5388">
			<circle class="st5" cx="415.8" cy="55.7" r="5"/>
			<path class="st6" d="M415.8,55.7h12.5"/>
			<text transform="matrix(1 0 0 1 438.3984 55.7256)" class="st7 st8 st3">1</text>
			<text transform="matrix(1 0 0 1 407.1875 45.6982)" class="st7 st8 st3">1</text>
			<circle class="st9" cx="420.9" cy="55.7" r="7.5"/>
			<path class="st10" d="M428.4,63.2l7.5-7.5l-7.5-7.5"/>
		</g>
	</g>
	<g id="gge5396">
		<g id="gge5398" class="st0">
			<text transform="matrix(1 0 0 1 571.2617 174.5508)" class="st1 st2 st3">1k</text>
		</g>
		<g id="gge5400" class="st0">
			<text transform="matrix(1 0 0 1 571.2617 151.5879)" class="st1 st2 st3">R82</text>
		</g>
		<line id="gge5402" class="st6" x1="553.7" y1="105.9" x2="566.2" y2="113.4"/>
		<line id="gge5403" class="st6" x1="541.2" y1="125.9" x2="566.2" y2="138.5"/>
		<line id="gge5404" class="st6" x1="566.2" y1="113.4" x2="541.2" y2="125.9"/>
		<g id="gge5405">
			<circle class="st5" cx="553.7" cy="93.3" r="5"/>
			<path class="st6" d="M553.7,93.3v12.5"/>
			<text transform="matrix(-1.836970e-16 -1 1 -1.836970e-16 553.7128 127.0469)" class="st7 st8 st3">2</text>
			<text transform="matrix(-1.836970e-16 -1 1 -1.836970e-16 543.6855 95.8359)" class="st7 st8 st3">2</text>
			<circle class="st9" cx="553.7" cy="98.3" r="7.5"/>
			<path class="st10" d="M546.2,105.9l7.5,7.5l7.5-7.5"/>
		</g>
		<line id="gge5412" class="st6" x1="566.2" y1="161" x2="541.2" y2="173.5"/>
		<line id="gge5413" class="st6" x1="566.2" y1="138.5" x2="541.2" y2="148.5"/>
		<line id="gge5414" class="st6" x1="541.2" y1="148.5" x2="566.2" y2="161"/>
		<line id="gge5415" class="st6" x1="541.2" y1="173.5" x2="553.7" y2="181.1"/>
		<g id="gge5416">
			<circle class="st5" cx="553.7" cy="193.6" r="5"/>
			<path class="st6" d="M553.7,193.6v-12.5"/>
			<text transform="matrix(-1.836970e-16 -1 1 -1.836970e-16 553.7128 171.043)" class="st7 st8 st3">1</text>
			<text transform="matrix(-1.836970e-16 -1 1 -1.836970e-16 543.6855 202.2539)" class="st7 st8 st3">1</text>
			<circle class="st9" cx="553.7" cy="188.6" r="7.5"/>
			<path class="st10" d="M561.2,181.1l-7.5-7.5l-7.5,7.5"/>
		</g>
	</g>
	<g id="gge5424">
		<g id="gge5426" class="st0">
			<text transform="matrix(1 0 0 1 659.0009 174.5508)" class="st1 st2 st3">1k</text>
		</g>
		<g id="gge5428" class="st0">
			<text transform="matrix(1 0 0 1 659.0009 151.5879)" class="st1 st2 st3">R83</text>
		</g>
		<line id="gge5430" class="st6" x1="641.5" y1="105.9" x2="654" y2="113.4"/>
		<line id="gge5431" class="st6" x1="628.9" y1="125.9" x2="654" y2="138.5"/>
		<line id="gge5432" class="st6" x1="654" y1="113.4" x2="628.9" y2="125.9"/>
		<g id="gge5433">
			<circle class="st5" cx="641.5" cy="93.3" r="5"/>
			<path class="st6" d="M641.5,93.3v12.5"/>
			<text transform="matrix(-1.836970e-16 -1 1 -1.836970e-16 641.4521 127.0469)" class="st7 st8 st3">2</text>
			<text transform="matrix(-1.836970e-16 -1 1 -1.836970e-16 631.4247 95.8359)" class="st7 st8 st3">2</text>
			<circle class="st9" cx="641.5" cy="98.3" r="7.5"/>
			<path class="st10" d="M633.9,105.9l7.5,7.5l7.5-7.5"/>
		</g>
		<line id="gge5440" class="st6" x1="654" y1="161" x2="628.9" y2="173.5"/>
		<line id="gge5441" class="st6" x1="654" y1="138.5" x2="628.9" y2="148.5"/>
		<line id="gge5442" class="st6" x1="628.9" y1="148.5" x2="654" y2="161"/>
		<line id="gge5443" class="st6" x1="628.9" y1="173.5" x2="641.5" y2="181.1"/>
		<g id="gge5444">
			<circle class="st5" cx="641.5" cy="193.6" r="5"/>
			<path class="st6" d="M641.5,193.6v-12.5"/>
			<text transform="matrix(-1.836970e-16 -1 1 -1.836970e-16 641.4521 171.043)" class="st7 st8 st3">1</text>
			<text transform="matrix(-1.836970e-16 -1 1 -1.836970e-16 631.4247 202.2539)" class="st7 st8 st3">1</text>
			<circle class="st9" cx="641.5" cy="188.6" r="7.5"/>
			<path class="st10" d="M649,181.1l-7.5-7.5l-7.5,7.5"/>
		</g>
	</g>
	<g id="gge5452">
		<text transform="matrix(1 0 0 1 566.248 156)" class="st11 st12">2kΩ</text>
	</g>
	<g id="gge5455">
		<text transform="matrix(1 0 0 1 653.9872 156)" class="st11 st12">2kΩ</text>
	</g>
	<polyline id="gge5457" class="st6" points="553.7,93.3 553.7,55.7 516.1,55.7 	"/>
	<polyline id="gge5458" class="st6" points="641.5,93.3 641.5,55.7 553.7,55.7 	"/>
	<polyline id="gge5460" class="st6" points="641.5,193.6 641.5,231.2 378.2,231.2 	"/>
	<line id="gge5462" class="st6" x1="415.8" y1="55.7" x2="378.2" y2="55.7"/>
	<line id="gge5464" class="st6" x1="553.7" y1="193.6" x2="553.7" y2="231.2"/>
	<g id="gge5467">
		<text transform="matrix(1 0 0 1 440.9052 30.6572)" class="st11 st12">4kΩ</text>
	</g>
	<g id="gge5470">
		<text transform="matrix(1 0 0 1 390.7685 156)" class="st14 st8 st12">L</text>
	</g>
	<g id="gge5465">
		<circle class="st5" cx="553.7" cy="231.2" r="5"/>
		<circle cx="553.7" cy="231.2" r="6.3"/>
	</g>
	<g id="gge5461">
		<circle class="st5" cx="378.2" cy="231.2" r="5"/>
		<circle cx="378.2" cy="231.2" r="6.3"/>
	</g>
	<g id="gge5366">
		<circle class="st5" cx="303" cy="231.2" r="5"/>
		<circle cx="303" cy="231.2" r="6.3"/>
	</g>
	<g id="gge5335">
		<circle class="st5" cx="265.4" cy="55.7" r="5"/>
		<circle cx="265.4" cy="55.7" r="6.3"/>
	</g>
	<g id="gge5364">
		<circle class="st5" cx="303" cy="55.7" r="5"/>
		<circle cx="303" cy="55.7" r="6.3"/>
	</g>
	<g id="gge5459">
		<circle class="st5" cx="553.7" cy="55.7" r="5"/>
		<circle cx="553.7" cy="55.7" r="6.3"/>
	</g>
	<g id="gge5463">
		<circle class="st5" cx="378.2" cy="55.7" r="5"/>
		<circle cx="378.2" cy="55.7" r="6.3"/>
	</g>
	<g id="gge5263">
		<path d="M290.5,231.2l-5-10l12.5,10l-12.5,10L290.5,231.2z"/>
	</g>
	<g id="gge5265">
		<path d="M265.4,206.1l-10,5l10-12.5l10,12.5L265.4,206.1z"/>
	</g>
</g>
<g>
	<g id="ni34a4_1_">
		
			<image style="overflow:visible;" width="1200" height="423" id="ni34a4_00000114052095137766275830000010247063283131300264_" xlink:href="9A4B05FDF5646398.png"  transform="matrix(3.635557e-02 0 0 3.635557e-02 648.3857 287.6412)">
		</image>
	</g>
	<g>
		<text transform="matrix(1 0 0 1 648.1933 310.9828)" class="st15 st16">UBC Engineering</text>
	</g>
</g>
</svg>
