<?xml version="1.0" encoding="utf-8"?>
<!-- Generator: Adobe Illustrator 26.3.1, SVG Export Plug-In . SVG Version: 6.00 Build 0)  -->
<svg version="1.1" id="Layer_1" xmlns="http://www.w3.org/2000/svg" xmlns:xlink="http://www.w3.org/1999/xlink" x="0px" y="0px"
	 viewBox="0 0 540 405" style="enable-background:new 0 0 540 405;" xml:space="preserve">
<style type="text/css">
	.st0{display:none;}
	.st1{display:inline;}
	.st2{font-family:'ArialMT';}
	.st3{font-size:17.0894px;}
	.st4{fill:none;stroke:#000000;stroke-width:2.4413;}
	.st5{fill:none;}
	.st6{fill:none;stroke:#000000;stroke-width:2.4413;stroke-linecap:round;stroke-linejoin:round;}
	.st7{display:none;enable-background:new    ;}
	.st8{font-family:'Verdana';}
	.st9{display:none;fill:none;stroke:#000000;stroke-width:2.4413;}
	.st10{display:none;fill:none;stroke:#000000;stroke-width:2.4413;stroke-linecap:round;stroke-linejoin:round;}
	.st11{font-family:'Helvetica';}
	.st12{font-size:18.31px;}
	.st13{fill:#0066CC;}
	.st14{fill:#FF3366;}
	.st15{font-family:'Folio-Medium';}
	.st16{font-size:5.504px;}
</style>
<g id="g1">
	<g id="gge3795">
		<g id="gge3797" class="st0">
			<text transform="matrix(1 0 0 1 470.5684 271.5889)" class="st1 st2 st3">SIN(0 1 50) AC 1 0</text>
		</g>
		<g id="gge3799" class="st0">
			<text transform="matrix(1 0 0 1 470.5684 249.2266)" class="st1 st2 st3">V9</text>
		</g>
		<ellipse id="gge3801" class="st4" cx="441.3" cy="241.3" rx="24.4" ry="24.4"/>
		<g id="gge3802">
			<circle class="st5" cx="441.3" cy="192.5" r="4.9"/>
			<path class="st6" d="M441.3,216.9v-24.4"/>
			<text transform="matrix(-1.836970e-16 -1 1 -1.836970e-16 441.2725 232.6523)" class="st7 st8 st3">1</text>
			<text transform="matrix(-1.836970e-16 -1 1 -1.836970e-16 431.5068 207.1387)" class="st7 st8 st3">1</text>
			<circle class="st9" cx="441.3" cy="160.8" r="7.3"/>
			<path class="st10" d="M433.9,168.1l7.3,7.3l7.3-7.3"/>
		</g>
		<line id="gge3809" class="st6" x1="436.4" y1="226.7" x2="446.2" y2="226.7"/>
		<line id="gge3810" class="st6" x1="441.3" y1="221.8" x2="441.3" y2="231.6"/>
		<g id="gge3811">
			<circle class="st5" cx="441.3" cy="290.1" r="4.9"/>
			<path class="st6" d="M441.3,265.7v24.4"/>
			<text transform="matrix(-1.836970e-16 -1 1 -1.836970e-16 441.2725 255.9668)" class="st7 st8 st3">2</text>
			<text transform="matrix(-1.836970e-16 -1 1 -1.836970e-16 431.5068 286.3604)" class="st7 st8 st3">2</text>
			<circle class="st9" cx="441.3" cy="321.9" r="7.3"/>
			<path class="st10" d="M448.6,314.6l-7.3-7.3l-7.3,7.3"/>
		</g>
		<line id="gge3818" class="st6" x1="446.2" y1="256" x2="436.4" y2="256"/>
	</g>
	<g id="gge3820">
		<g id="gge3822" class="st0">
			<text transform="matrix(1 0 0 1 260.8828 14.2725)" class="st1 st2 st3">SIN(0 1 50)</text>
		</g>
		<g id="gge3824" class="st0">
			<text transform="matrix(1 0 0 1 260.8828 -8.0908)" class="st1 st2 st3">I7</text>
		</g>
		<ellipse id="gge3826" class="st4" cx="270.4" cy="46" rx="24.4" ry="24.4"/>
		<g id="gge3827">
			<circle class="st5" cx="221.6" cy="46" r="4.9"/>
			<path class="st6" d="M246,46h-24.4"/>
			<text transform="matrix(1 0 0 1 255.7314 46.0088)" class="st7 st8 st3">2</text>
			<text transform="matrix(1 0 0 1 225.3359 36.2441)" class="st7 st8 st3">2</text>
			<circle class="st9" cx="189.8" cy="46" r="7.3"/>
			<path class="st10" d="M197.1,53.3l7.3-7.3l-7.3-7.3"/>
		</g>
		<line id="gge3834" class="st6" x1="250.8" y1="46" x2="255.7" y2="41.1"/>
		<line id="gge3835" class="st6" x1="250.8" y1="46" x2="255.7" y2="50.9"/>
		<g id="gge3836">
			<circle class="st5" cx="319.2" cy="46" r="4.9"/>
			<path class="st6" d="M294.8,46h24.4"/>
			<text transform="matrix(1 0 0 1 279.0459 46.0088)" class="st7 st8 st3">1</text>
			<text transform="matrix(1 0 0 1 304.5586 36.2441)" class="st7 st8 st3">1</text>
			<circle class="st9" cx="350.9" cy="46" r="7.3"/>
			<path class="st10" d="M343.6,38.7l-7.3,7.3l7.3,7.3"/>
		</g>
		<line id="gge3843" class="st6" x1="250.8" y1="46" x2="289.9" y2="46"/>
	</g>
	<g id="gge3876">
		<g id="gge3878" class="st0">
			<text transform="matrix(1 0 0 1 341.2754 136.3389)" class="st1 st2 st3">1k</text>
		</g>
		<g id="gge3880" class="st0">
			<text transform="matrix(1 0 0 1 341.2754 114.0986)" class="st1 st2 st3">R64</text>
		</g>
		<line id="gge3882" class="st6" x1="392.4" y1="155.9" x2="385.1" y2="168.1"/>
		<line id="gge3883" class="st6" x1="372.9" y1="143.7" x2="360.7" y2="168.1"/>
		<line id="gge3884" class="st6" x1="385.1" y1="168.1" x2="372.9" y2="143.7"/>
		<g id="gge3885">
			<circle class="st5" cx="404.7" cy="155.9" r="4.9"/>
			<path class="st6" d="M404.7,155.9h-12.2"/>
			<text transform="matrix(1 0 0 1 371.8164 155.8701)" class="st7 st8 st3">2</text>
			<text transform="matrix(1 0 0 1 402.2109 146.1035)" class="st7 st8 st3">2</text>
			<circle class="st9" cx="399.8" cy="155.9" r="7.3"/>
			<path class="st10" d="M392.4,148.5l-7.3,7.3l7.3,7.3"/>
		</g>
		<line id="gge3892" class="st6" x1="338.7" y1="168.1" x2="326.5" y2="143.7"/>
		<line id="gge3893" class="st6" x1="360.7" y1="168.1" x2="350.9" y2="143.7"/>
		<line id="gge3894" class="st6" x1="350.9" y1="143.7" x2="338.7" y2="168.1"/>
		<line id="gge3895" class="st6" x1="326.5" y1="143.7" x2="319.2" y2="155.9"/>
		<g id="gge3896">
			<circle class="st5" cx="307" cy="155.9" r="4.9"/>
			<path class="st6" d="M307,155.9h12.2"/>
			<text transform="matrix(1 0 0 1 328.9717 155.8701)" class="st7 st8 st3">1</text>
			<text transform="matrix(1 0 0 1 298.5762 146.1035)" class="st7 st8 st3">1</text>
			<circle class="st9" cx="311.9" cy="155.9" r="7.3"/>
			<path class="st10" d="M319.2,163.2l7.3-7.3l-7.3-7.3"/>
		</g>
	</g>
	<g id="gge3904">
		<g id="gge3906" class="st0">
			<text transform="matrix(1 0 0 1 170.3828 136.3389)" class="st1 st2 st3">1k</text>
		</g>
		<g id="gge3908" class="st0">
			<text transform="matrix(1 0 0 1 170.3828 114.0986)" class="st1 st2 st3">R65</text>
		</g>
		<line id="gge3910" class="st6" x1="221.6" y1="155.9" x2="214.2" y2="168.1"/>
		<line id="gge3911" class="st6" x1="202" y1="143.7" x2="189.8" y2="168.1"/>
		<line id="gge3912" class="st6" x1="214.2" y1="168.1" x2="202" y2="143.7"/>
		<g id="gge3913">
			<circle class="st5" cx="233.8" cy="155.9" r="4.9"/>
			<path class="st6" d="M233.8,155.9h-12.2"/>
			<text transform="matrix(1 0 0 1 200.9229 155.8701)" class="st7 st8 st3">2</text>
			<text transform="matrix(1 0 0 1 231.3174 146.1035)" class="st7 st8 st3">2</text>
			<circle class="st9" cx="228.9" cy="155.9" r="7.3"/>
			<path class="st10" d="M221.6,148.5l-7.3,7.3l7.3,7.3"/>
		</g>
		<line id="gge3920" class="st6" x1="167.8" y1="168.1" x2="155.6" y2="143.7"/>
		<line id="gge3921" class="st6" x1="189.8" y1="168.1" x2="180" y2="143.7"/>
		<line id="gge3922" class="st6" x1="180" y1="143.7" x2="167.8" y2="168.1"/>
		<line id="gge3923" class="st6" x1="155.6" y1="143.7" x2="148.3" y2="155.9"/>
		<g id="gge3924">
			<circle class="st5" cx="136.1" cy="155.9" r="4.9"/>
			<path class="st6" d="M136.1,155.9h12.2"/>
			<text transform="matrix(1 0 0 1 158.0781 155.8701)" class="st7 st8 st3">1</text>
			<text transform="matrix(1 0 0 1 127.6826 146.1035)" class="st7 st8 st3">1</text>
			<circle class="st9" cx="141" cy="155.9" r="7.3"/>
			<path class="st10" d="M148.3,163.2l7.3-7.3l-7.3-7.3"/>
		</g>
	</g>
	<g id="gge3932">
		<g id="gge3934" class="st0">
			<text transform="matrix(1 0 0 1 116.5742 271.5889)" class="st1 st2 st3">1k</text>
		</g>
		<g id="gge3936" class="st0">
			<text transform="matrix(1 0 0 1 116.5742 249.2266)" class="st1 st2 st3">R66</text>
		</g>
		<line id="gge3938" class="st6" x1="99.5" y1="204.7" x2="111.7" y2="212"/>
		<line id="gge3939" class="st6" x1="87.3" y1="224.2" x2="111.7" y2="236.4"/>
		<line id="gge3940" class="st6" x1="111.7" y1="212" x2="87.3" y2="224.2"/>
		<g id="gge3941">
			<circle class="st5" cx="99.5" cy="192.5" r="4.9"/>
			<path class="st6" d="M99.5,192.5v12.2"/>
			<text transform="matrix(-1.836970e-16 -1 1 -1.836970e-16 99.4854 225.3291)" class="st7 st8 st3">2</text>
			<text transform="matrix(-1.836970e-16 -1 1 -1.836970e-16 89.7197 194.9326)" class="st7 st8 st3">2</text>
			<circle class="st9" cx="99.5" cy="197.4" r="7.3"/>
			<path class="st10" d="M92.2,204.7l7.3,7.3l7.3-7.3"/>
		</g>
		<line id="gge3948" class="st6" x1="111.7" y1="258.4" x2="87.3" y2="270.6"/>
		<line id="gge3949" class="st6" x1="111.7" y1="236.4" x2="87.3" y2="246.2"/>
		<line id="gge3950" class="st6" x1="87.3" y1="246.2" x2="111.7" y2="258.4"/>
		<line id="gge3951" class="st6" x1="87.3" y1="270.6" x2="99.5" y2="277.9"/>
		<g id="gge3952">
			<circle class="st5" cx="99.5" cy="290.1" r="4.9"/>
			<path class="st6" d="M99.5,290.1v-12.2"/>
			<text transform="matrix(-1.836970e-16 -1 1 -1.836970e-16 99.4854 268.1729)" class="st7 st8 st3">1</text>
			<text transform="matrix(-1.836970e-16 -1 1 -1.836970e-16 89.7197 298.5684)" class="st7 st8 st3">1</text>
			<circle class="st9" cx="99.5" cy="285.3" r="7.3"/>
			<path class="st10" d="M106.8,277.9l-7.3-7.3l-7.3,7.3"/>
		</g>
	</g>
	<g id="gge3960">
		<g id="gge3962" class="st0">
			<text transform="matrix(1 0 0 1 287.4688 271.5889)" class="st1 st2 st3">1k</text>
		</g>
		<g id="gge3964" class="st0">
			<text transform="matrix(1 0 0 1 287.4688 249.2266)" class="st1 st2 st3">R67</text>
		</g>
		<line id="gge3966" class="st6" x1="270.4" y1="204.7" x2="282.6" y2="212"/>
		<line id="gge3967" class="st6" x1="258.2" y1="224.2" x2="282.6" y2="236.4"/>
		<line id="gge3968" class="st6" x1="282.6" y1="212" x2="258.2" y2="224.2"/>
		<g id="gge3969">
			<circle class="st5" cx="270.4" cy="192.5" r="4.9"/>
			<path class="st6" d="M270.4,192.5v12.2"/>
			<text transform="matrix(-1.836970e-16 -1 1 -1.836970e-16 270.3789 225.3291)" class="st7 st8 st3">2</text>
			<text transform="matrix(-1.836970e-16 -1 1 -1.836970e-16 260.6143 194.9326)" class="st7 st8 st3">2</text>
			<circle class="st9" cx="270.4" cy="197.4" r="7.3"/>
			<path class="st10" d="M263.1,204.7l7.3,7.3l7.3-7.3"/>
		</g>
		<line id="gge3976" class="st6" x1="282.6" y1="258.4" x2="258.2" y2="270.6"/>
		<line id="gge3977" class="st6" x1="282.6" y1="236.4" x2="258.2" y2="246.2"/>
		<line id="gge3978" class="st6" x1="258.2" y1="246.2" x2="282.6" y2="258.4"/>
		<line id="gge3979" class="st6" x1="258.2" y1="270.6" x2="270.4" y2="277.9"/>
		<g id="gge3980">
			<circle class="st5" cx="270.4" cy="290.1" r="4.9"/>
			<path class="st6" d="M270.4,290.1v-12.2"/>
			<text transform="matrix(-1.836970e-16 -1 1 -1.836970e-16 270.3789 268.1729)" class="st7 st8 st3">1</text>
			<text transform="matrix(-1.836970e-16 -1 1 -1.836970e-16 260.6143 298.5684)" class="st7 st8 st3">1</text>
			<circle class="st9" cx="270.4" cy="285.3" r="7.3"/>
			<path class="st10" d="M277.7,277.9l-7.3-7.3l-7.3,7.3"/>
		</g>
	</g>
	<g id="gge3988">
		<text transform="matrix(1 0 0 1 245.9658 94.8359)" class="st11 st12">4mA</text>
	</g>
	<polyline id="gge3990" class="st6" points="270.4,192.5 270.4,155.9 307,155.9 	"/>
	<polyline id="gge3991" class="st6" points="404.7,155.9 441.3,155.9 441.3,192.5 	"/>
	<polyline id="gge3992" class="st6" points="441.3,290.1 441.3,326.8 99.5,326.8 99.5,290.1 	"/>
	<polyline id="gge3993" class="st6" points="99.5,192.5 99.5,155.9 136.1,155.9 	"/>
	<line id="gge3994" class="st6" x1="233.8" y1="155.9" x2="270.4" y2="155.9"/>
	<line id="gge3996" class="st6" x1="270.4" y1="290.1" x2="270.4" y2="326.8"/>
	<g id="gge3999">
		<text transform="matrix(1 0 0 1 160.5186 131.457)" class="st11 st12">8k立</text>
	</g>
	<g id="gge4002">
		<text transform="matrix(1 0 0 1 331.4121 131.457)" class="st11 st12">12k立</text>
	</g>
	<g id="gge4005">
		<text transform="matrix(1 0 0 1 282.5859 253.5234)" class="st11 st12">6k立</text>
	</g>
	<g id="gge4008">
		<text transform="matrix(1 0 0 1 38.4521 253.5234)" class="st11 st12">4k立</text>
	</g>
	<g id="gge4011">
		<text transform="matrix(1 0 0 1 477.8926 253.5234)" class="st13 st8 st12">Vs</text>
	</g>
	<polyline id="gge4013" class="st6" points="221.6,46 99.5,46 99.5,155.9 	"/>
	<polyline id="gge4015" class="st6" points="319.2,46 441.3,46 441.3,155.9 	"/>
	<g id="gge4026">
		<text transform="matrix(1 0 0 1 270.3799 351.1768)" class="st14 st8 st12">B</text>
	</g>
	<g id="gge4029">
		<text transform="matrix(1 0 0 1 75.0723 155.8701)" class="st14 st8 st12">A</text>
	</g>
	<g id="gge4016">
		<circle class="st5" cx="441.3" cy="155.9" r="4.9"/>
		<circle cx="441.3" cy="155.9" r="6.1"/>
	</g>
	<g id="gge3995">
		<circle class="st5" cx="270.4" cy="155.9" r="4.9"/>
		<circle cx="270.4" cy="155.9" r="6.1"/>
	</g>
	<g id="gge3997">
		<circle class="st5" cx="270.4" cy="326.8" r="4.9"/>
		<circle cx="270.4" cy="326.8" r="6.1"/>
	</g>
	<g id="gge4014">
		<circle class="st5" cx="99.5" cy="155.9" r="4.9"/>
		<circle cx="99.5" cy="155.9" r="6.1"/>
	</g>
</g>
<g>
	<g id="ni34a4_1_">
		
			<image style="overflow:visible;" width="1200" height="423" id="ni34a4_00000114052095137766275830000010247063283131300264_" xlink:href="9967BBA655E17FE7.png"  transform="matrix(3.635557e-02 0 0 3.635557e-02 454.6855 360.6412)">
		</image>
	</g>
	<g>
		<text transform="matrix(1 0 0 1 454.4932 383.9828)" class="st15 st16">UBC Engineering</text>
	</g>
</g>
</svg>
