<?xml version="1.0" encoding="utf-8"?>
<!-- Generator: Adobe Illustrator 26.3.1, SVG Export Plug-In . SVG Version: 6.00 Build 0)  -->
<svg version="1.1" id="Layer_1" xmlns="http://www.w3.org/2000/svg" xmlns:xlink="http://www.w3.org/1999/xlink" x="0px" y="0px"
	 viewBox="0 0 589.6 381" style="enable-background:new 0 0 589.6 381;" xml:space="preserve">
<style type="text/css">
	.st0{fill:none;stroke:#000000;stroke-width:2.3283;stroke-linecap:round;stroke-linejoin:round;}
	.st1{fill:#FF3366;}
	.st2{font-family:'Verdana';}
	.st3{font-size:17.4623px;}
	.st4{display:none;}
	.st5{display:inline;}
	.st6{font-family:'ArialMT';}
	.st7{font-size:16.2981px;}
	.st8{fill:none;}
	.st9{display:none;enable-background:new    ;}
	.st10{display:none;fill:none;stroke:#000000;stroke-width:2.3283;}
	.st11{display:none;fill:none;stroke:#000000;stroke-width:2.3283;stroke-linecap:round;stroke-linejoin:round;}
	.st12{font-family:'Helvetica';}
	.st13{fill:#0066CC;}
	.st14{font-family:'Folio-Medium';}
	.st15{font-size:5.504px;}
</style>
<g id="g1">
	<line id="gge6552" class="st0" x1="59" y1="157.9" x2="59" y2="309.3"/>
	<g id="gge7607">
		<text transform="matrix(1 0 0 1 24.0859 239.415)" class="st1 st2 st3">Z</text>
	</g>
	<g id="gge7696">
		<g id="gge7698" class="st4">
			<text transform="matrix(1 0 0 1 331.4219 140.1602)" class="st5 st6 st7">1k</text>
		</g>
		<g id="gge7700" class="st4">
			<text transform="matrix(1 0 0 1 331.4219 118.6934)" class="st5 st6 st7">R117</text>
		</g>
		<line id="gge7702" class="st0" x1="315.1" y1="146.3" x2="303.5" y2="139.3"/>
		<line id="gge7703" class="st0" x1="326.8" y1="127.7" x2="303.5" y2="116"/>
		<line id="gge7704" class="st0" x1="303.5" y1="139.3" x2="326.8" y2="127.7"/>
		<g id="gge7705">
			<circle class="st8" cx="315.1" cy="157.9" r="4.7"/>
			<path class="st0" d="M315.1,157.9v-11.6"/>
			<text transform="matrix(-1.836970e-16 -1 1 -1.836970e-16 315.123 136.9707)" class="st9 st2 st7">2</text>
			<text transform="matrix(-1.836970e-16 -1 1 -1.836970e-16 305.8096 165.957)" class="st9 st2 st7">2</text>
			<circle class="st10" cx="315.1" cy="153.3" r="7"/>
			<path class="st11" d="M322.1,146.3l-7-7l-7,7"/>
		</g>
		<line id="gge7712" class="st0" x1="303.5" y1="95.1" x2="326.8" y2="83.4"/>
		<line id="gge7713" class="st0" x1="303.5" y1="116" x2="326.8" y2="106.7"/>
		<line id="gge7714" class="st0" x1="326.8" y1="106.7" x2="303.5" y2="95.1"/>
		<line id="gge7715" class="st0" x1="326.8" y1="83.4" x2="315.1" y2="76.4"/>
		<g id="gge7716">
			<circle class="st8" cx="315.1" cy="64.8" r="4.7"/>
			<path class="st0" d="M315.1,64.8v11.6"/>
			<text transform="matrix(-1.836970e-16 -1 1 -1.836970e-16 315.123 96.1094)" class="st9 st2 st7">1</text>
			<text transform="matrix(-1.836970e-16 -1 1 -1.836970e-16 305.8096 67.1211)" class="st9 st2 st7">1</text>
			<circle class="st10" cx="315.1" cy="69.4" r="7"/>
			<path class="st11" d="M308.1,76.4l7,7l7-7"/>
		</g>
	</g>
	<g id="gge7724">
		<g id="gge7726" class="st4">
			<text transform="matrix(1 0 0 1 329.8623 268.2861)" class="st5 st6 st7">1m</text>
		</g>
		<g id="gge7728" class="st4">
			<text transform="matrix(1 0 0 1 329.8623 246.959)" class="st5 st6 st7">L13</text>
		</g>
		<g id="gge7730">
			<circle class="st8" cx="315.1" cy="286" r="4.7"/>
			<path class="st0" d="M315.1,286v-7"/>
			<text transform="matrix(-1.836970e-16 -1 1 -1.836970e-16 315.123 269.6836)" class="st9 st2 st7">2</text>
			<text transform="matrix(-1.836970e-16 -1 1 -1.836970e-16 305.8096 298.6699)" class="st9 st2 st7">2</text>
			<circle class="st10" cx="315.1" cy="286" r="7"/>
			<path class="st11" d="M322.1,279l-7-7l-7,7"/>
		</g>
		<g id="gge7737">
			<circle class="st8" cx="315.1" cy="192.8" r="4.7"/>
			<path class="st0" d="M315.1,192.8v7"/>
			<text transform="matrix(-1.836970e-16 -1 1 -1.836970e-16 315.123 219.5078)" class="st9 st2 st7">1</text>
			<text transform="matrix(-1.836970e-16 -1 1 -1.836970e-16 305.8096 190.5215)" class="st9 st2 st7">1</text>
			<circle class="st10" cx="315.1" cy="192.8" r="7"/>
			<path class="st11" d="M308.1,199.8l7,7l7-7"/>
		</g>
		<path id="gge7744" class="st0" d="M315.3,200.1c5-0.5,9.4,3.3,9.9,8.4c0.5,5.1-3.2,9.7-8.2,10.1c-0.6,0.1-1.1,0.1-1.7,0"/>
		<path id="gge7745" class="st0" d="M315.3,219.9c5-0.5,9.4,3.3,9.9,8.4s-3.2,9.7-8.2,10.1c-0.6,0.1-1.1,0.1-1.7,0"/>
		<path id="gge7746" class="st0" d="M315.3,239.6c5-0.5,9.4,3.3,9.9,8.4c0.5,5.1-3.2,9.7-8.2,10.1c-0.6,0.1-1.1,0.1-1.7,0"/>
		<path id="gge7747" class="st0" d="M315.3,259.7c5-0.5,9.4,3.3,9.9,8.4c0.5,5.1-3.2,9.7-8.2,10.1c-0.6,0.1-1.1,0.1-1.7,0"/>
	</g>
	<g id="gge7749">
		<g id="gge7751" class="st4">
			<text transform="matrix(1 0 0 1 436.1963 268.2168)" class="st5 st6 st7">1k</text>
		</g>
		<g id="gge7753" class="st4">
			<text transform="matrix(1 0 0 1 436.1963 246.75)" class="st5 st6 st7">R118</text>
		</g>
		<line id="gge7755" class="st0" x1="419.9" y1="274.3" x2="408.3" y2="267.4"/>
		<line id="gge7756" class="st0" x1="431.5" y1="255.7" x2="408.3" y2="244.1"/>
		<line id="gge7757" class="st0" x1="408.3" y1="267.4" x2="431.5" y2="255.7"/>
		<g id="gge7758">
			<circle class="st8" cx="419.9" cy="286" r="4.7"/>
			<path class="st0" d="M419.9,286v-11.6"/>
			<text transform="matrix(-1.836970e-16 -1 1 -1.836970e-16 419.8965 265.0273)" class="st9 st2 st7">2</text>
			<text transform="matrix(-1.836970e-16 -1 1 -1.836970e-16 410.583 294.0137)" class="st9 st2 st7">2</text>
			<circle class="st10" cx="419.9" cy="281.3" r="7"/>
			<path class="st11" d="M426.9,274.3l-7-7l-7,7"/>
		</g>
		<line id="gge7765" class="st0" x1="408.3" y1="223.1" x2="431.5" y2="211.5"/>
		<line id="gge7766" class="st0" x1="408.3" y1="244.1" x2="431.5" y2="234.8"/>
		<line id="gge7767" class="st0" x1="431.5" y1="234.8" x2="408.3" y2="223.1"/>
		<line id="gge7768" class="st0" x1="431.5" y1="211.5" x2="419.9" y2="204.5"/>
		<g id="gge7769">
			<circle class="st8" cx="419.9" cy="192.8" r="4.7"/>
			<path class="st0" d="M419.9,192.8v11.6"/>
			<text transform="matrix(-1.836970e-16 -1 1 -1.836970e-16 419.8965 224.166)" class="st9 st2 st7">1</text>
			<text transform="matrix(-1.836970e-16 -1 1 -1.836970e-16 410.583 195.1777)" class="st9 st2 st7">1</text>
			<circle class="st10" cx="419.9" cy="197.5" r="7"/>
			<path class="st11" d="M412.9,204.5l7,7l7-7"/>
		</g>
	</g>
	<g id="gge7777">
		<g id="gge7779" class="st4">
			<text transform="matrix(1 0 0 1 529.3281 140.1602)" class="st5 st6 st7">1k</text>
		</g>
		<g id="gge7781" class="st4">
			<text transform="matrix(1 0 0 1 529.3281 118.6934)" class="st5 st6 st7">R119</text>
		</g>
		<line id="gge7783" class="st0" x1="513" y1="146.3" x2="501.4" y2="139.3"/>
		<line id="gge7784" class="st0" x1="524.7" y1="127.7" x2="501.4" y2="116"/>
		<line id="gge7785" class="st0" x1="501.4" y1="139.3" x2="524.7" y2="127.7"/>
		<g id="gge7786">
			<circle class="st8" cx="513" cy="157.9" r="4.7"/>
			<path class="st0" d="M513,157.9v-11.6"/>
			<text transform="matrix(-1.836970e-16 -1 1 -1.836970e-16 513.0283 136.9707)" class="st9 st2 st7">2</text>
			<text transform="matrix(-1.836970e-16 -1 1 -1.836970e-16 503.7158 165.957)" class="st9 st2 st7">2</text>
			<circle class="st10" cx="513" cy="153.3" r="7"/>
			<path class="st11" d="M520,146.3l-7-7l-7,7"/>
		</g>
		<line id="gge7793" class="st0" x1="501.4" y1="95.1" x2="524.7" y2="83.4"/>
		<line id="gge7794" class="st0" x1="501.4" y1="116" x2="524.7" y2="106.7"/>
		<line id="gge7795" class="st0" x1="524.7" y1="106.7" x2="501.4" y2="95.1"/>
		<line id="gge7796" class="st0" x1="524.7" y1="83.4" x2="513" y2="76.4"/>
		<g id="gge7797">
			<circle class="st8" cx="513" cy="64.8" r="4.7"/>
			<path class="st0" d="M513,64.8v11.6"/>
			<text transform="matrix(-1.836970e-16 -1 1 -1.836970e-16 513.0283 96.1094)" class="st9 st2 st7">1</text>
			<text transform="matrix(-1.836970e-16 -1 1 -1.836970e-16 503.7158 67.1211)" class="st9 st2 st7">1</text>
			<circle class="st10" cx="513" cy="69.4" r="7"/>
			<path class="st11" d="M506,76.4l7,7l7-7"/>
		</g>
	</g>
	<g id="gge7805">
		<g id="gge7807" class="st4">
			<text transform="matrix(1 0 0 1 443.1807 140.1602)" class="st5 st6 st7">1u</text>
		</g>
		<g id="gge7809" class="st4">
			<text transform="matrix(1 0 0 1 443.1807 118.6934)" class="st5 st6 st7">C14</text>
		</g>
		<line id="gge7811" class="st0" x1="438.5" y1="116" x2="401.3" y2="116"/>
		<g id="gge7812">
			<circle class="st8" cx="419.9" cy="157.9" r="4.7"/>
			<path class="st0" d="M419.9,134.6v23.3"/>
			<text transform="matrix(-1.836970e-16 -1 1 -1.836970e-16 419.8965 125.3281)" class="st9 st2 st7">1</text>
			<text transform="matrix(-1.836970e-16 -1 1 -1.836970e-16 410.583 154.3164)" class="st9 st2 st7">1</text>
			<circle class="st10" cx="419.9" cy="188.2" r="7"/>
			<path class="st11" d="M426.9,181.2l-7-7l-7,7"/>
		</g>
		<line id="gge7819" class="st0" x1="419.9" y1="88.1" x2="419.9" y2="106.7"/>
		<line id="gge7820" class="st0" x1="401.3" y1="106.7" x2="438.5" y2="106.7"/>
		<g id="gge7821">
			<circle class="st8" cx="419.9" cy="64.8" r="4.7"/>
			<path class="st0" d="M419.9,88.1V64.8"/>
			<text transform="matrix(-1.836970e-16 -1 1 -1.836970e-16 419.8965 107.75)" class="st9 st2 st7">2</text>
			<text transform="matrix(-1.836970e-16 -1 1 -1.836970e-16 410.583 78.7617)" class="st9 st2 st7">2</text>
			<circle class="st10" cx="419.9" cy="34.5" r="7"/>
			<path class="st11" d="M412.9,41.5l7,7l7-7"/>
		</g>
		<line id="gge7828" class="st0" x1="419.9" y1="116" x2="419.9" y2="134.6"/>
	</g>
	<g id="gge7830">
		<g id="gge7832" class="st4">
			<text transform="matrix(1 0 0 1 527.7676 268.2861)" class="st5 st6 st7">1m</text>
		</g>
		<g id="gge7834" class="st4">
			<text transform="matrix(1 0 0 1 527.7676 246.959)" class="st5 st6 st7">L14</text>
		</g>
		<g id="gge7836">
			<circle class="st8" cx="513" cy="286" r="4.7"/>
			<path class="st0" d="M513,286v-7"/>
			<text transform="matrix(-1.836970e-16 -1 1 -1.836970e-16 513.0283 269.6836)" class="st9 st2 st7">2</text>
			<text transform="matrix(-1.836970e-16 -1 1 -1.836970e-16 503.7158 298.6699)" class="st9 st2 st7">2</text>
			<circle class="st10" cx="513" cy="286" r="7"/>
			<path class="st11" d="M520,279l-7-7l-7,7"/>
		</g>
		<g id="gge7843">
			<circle class="st8" cx="513" cy="192.8" r="4.7"/>
			<path class="st0" d="M513,192.8v7"/>
			<text transform="matrix(-1.836970e-16 -1 1 -1.836970e-16 513.0283 219.5078)" class="st9 st2 st7">1</text>
			<text transform="matrix(-1.836970e-16 -1 1 -1.836970e-16 503.7158 190.5215)" class="st9 st2 st7">1</text>
			<circle class="st10" cx="513" cy="192.8" r="7"/>
			<path class="st11" d="M506,199.8l7,7l7-7"/>
		</g>
		<path id="gge7850" class="st0" d="M513.2,200.1c5-0.5,9.4,3.3,9.9,8.4c0.5,5.1-3.2,9.7-8.2,10.1c-0.6,0.1-1.1,0.1-1.7,0"/>
		<path id="gge7851" class="st0" d="M513.2,219.9c5-0.5,9.4,3.3,9.9,8.4s-3.2,9.7-8.2,10.1c-0.6,0.1-1.1,0.1-1.7,0"/>
		<path id="gge7852" class="st0" d="M513.2,239.6c5-0.5,9.4,3.3,9.9,8.4c0.5,5.1-3.2,9.7-8.2,10.1c-0.6,0.1-1.1,0.1-1.7,0"/>
		<path id="gge7853" class="st0" d="M513.2,259.7c5-0.5,9.4,3.3,9.9,8.4c0.5,5.1-3.2,9.7-8.2,10.1c-0.6,0.1-1.1,0.1-1.7,0"/>
	</g>
	<g id="gge7855">
		<g id="gge7857" class="st4">
			<text transform="matrix(1 0 0 1 149.4424 11.2422)" class="st5 st6 st7">1k</text>
		</g>
		<g id="gge7859" class="st4">
			<text transform="matrix(1 0 0 1 149.4424 -10.2246)" class="st5 st6 st7">R120</text>
		</g>
		<line id="gge7861" class="st0" x1="210.3" y1="29.9" x2="203.4" y2="41.5"/>
		<line id="gge7862" class="st0" x1="191.7" y1="18.2" x2="180.1" y2="41.5"/>
		<line id="gge7863" class="st0" x1="203.4" y1="41.5" x2="191.7" y2="18.2"/>
		<g id="gge7864">
			<circle class="st8" cx="222" cy="29.9" r="4.7"/>
			<path class="st0" d="M222,29.9h-11.6"/>
			<text transform="matrix(1 0 0 1 190.6758 29.8682)" class="st9 st2 st7">2</text>
			<text transform="matrix(1 0 0 1 219.6641 20.5547)" class="st9 st2 st7">2</text>
			<circle class="st10" cx="217.3" cy="29.9" r="7"/>
			<path class="st11" d="M210.3,22.9l-7,7l7,7"/>
		</g>
		<line id="gge7871" class="st0" x1="159.1" y1="41.5" x2="147.5" y2="18.2"/>
		<line id="gge7872" class="st0" x1="180.1" y1="41.5" x2="170.8" y2="18.2"/>
		<line id="gge7873" class="st0" x1="170.8" y1="18.2" x2="159.1" y2="41.5"/>
		<line id="gge7874" class="st0" x1="147.5" y1="18.2" x2="140.5" y2="29.9"/>
		<g id="gge7875">
			<circle class="st8" cx="128.9" cy="29.9" r="4.7"/>
			<path class="st0" d="M128.9,29.9h11.6"/>
			<text transform="matrix(1 0 0 1 149.8145 29.8682)" class="st9 st2 st7">1</text>
			<text transform="matrix(1 0 0 1 120.8271 20.5547)" class="st9 st2 st7">1</text>
			<circle class="st10" cx="133.5" cy="29.9" r="7"/>
			<path class="st11" d="M140.5,36.9l7-7l-7-7"/>
		</g>
	</g>
	<g id="gge7883">
		<g id="gge7885" class="st4">
			<text transform="matrix(1 0 0 1 149.4424 127.6572)" class="st5 st6 st7">1k</text>
		</g>
		<g id="gge7887" class="st4">
			<text transform="matrix(1 0 0 1 149.4424 106.1904)" class="st5 st6 st7">R121</text>
		</g>
		<line id="gge7889" class="st0" x1="210.3" y1="146.3" x2="203.4" y2="157.9"/>
		<line id="gge7890" class="st0" x1="191.7" y1="134.6" x2="180.1" y2="157.9"/>
		<line id="gge7891" class="st0" x1="203.4" y1="157.9" x2="191.7" y2="134.6"/>
		<g id="gge7892">
			<circle class="st8" cx="222" cy="146.3" r="4.7"/>
			<path class="st0" d="M222,146.3h-11.6"/>
			<text transform="matrix(1 0 0 1 190.6758 146.2832)" class="st9 st2 st7">2</text>
			<text transform="matrix(1 0 0 1 219.6641 136.9697)" class="st9 st2 st7">2</text>
			<circle class="st10" cx="217.3" cy="146.3" r="7"/>
			<path class="st11" d="M210.3,139.3l-7,7l7,7"/>
		</g>
		<line id="gge7899" class="st0" x1="159.1" y1="157.9" x2="147.5" y2="134.6"/>
		<line id="gge7900" class="st0" x1="180.1" y1="157.9" x2="170.8" y2="134.6"/>
		<line id="gge7901" class="st0" x1="170.8" y1="134.6" x2="159.1" y2="157.9"/>
		<line id="gge7902" class="st0" x1="147.5" y1="134.6" x2="140.5" y2="146.3"/>
		<g id="gge7903">
			<circle class="st8" cx="128.9" cy="146.3" r="4.7"/>
			<path class="st0" d="M128.9,146.3h11.6"/>
			<text transform="matrix(1 0 0 1 149.8145 146.2832)" class="st9 st2 st7">1</text>
			<text transform="matrix(1 0 0 1 120.8271 136.9697)" class="st9 st2 st7">1</text>
			<circle class="st10" cx="133.5" cy="146.3" r="7"/>
			<path class="st11" d="M140.5,153.3l7-7l-7-7"/>
		</g>
	</g>
	<polyline id="gge7910" class="st0" points="222,146.3 256.9,146.3 256.9,29.9 222,29.9 	"/>
	<g id="gge7912">
		<text transform="matrix(1 0 0 1 338.4072 262.6982)" class="st12 st3">j2Ω</text>
	</g>
	<polyline id="gge7914" class="st0" points="315.1,286 315.1,320.9 513,320.9 513,286 	"/>
	<line id="gge7915" class="st0" x1="513" y1="192.8" x2="513" y2="157.9"/>
	<polyline id="gge7916" class="st0" points="513,64.8 513,29.9 315.1,29.9 315.1,64.8 	"/>
	<line id="gge7917" class="st0" x1="315.1" y1="157.9" x2="315.1" y2="192.8"/>
	<line id="gge7918" class="st0" x1="419.9" y1="157.9" x2="419.9" y2="192.8"/>
	<line id="gge7919" class="st0" x1="419.9" y1="286" x2="419.9" y2="320.9"/>
	<line id="gge7921" class="st0" x1="419.9" y1="64.8" x2="419.9" y2="29.9"/>
	<line id="gge7923" class="st0" x1="256.9" y1="29.9" x2="315.1" y2="29.9"/>
	<polyline id="gge7926" class="st0" points="128.9,146.3 93.9,146.3 93.9,29.9 128.9,29.9 	"/>
	<line id="gge7927" class="st0" x1="47.4" y1="320.9" x2="315.1" y2="320.9"/>
	<line id="gge7929" class="st0" x1="47.4" y1="146.3" x2="93.9" y2="146.3"/>
	<g id="gge7932">
		<text transform="matrix(1 0 0 1 443.1807 262.6982)" class="st12 st3">2Ω</text>
	</g>
	<g id="gge7935">
		<text transform="matrix(1 0 0 1 536.3125 262.6982)" class="st12 st3">j2Ω</text>
	</g>
	<g id="gge7938">
		<text transform="matrix(1 0 0 1 536.3125 123)" class="st12 st3">2Ω</text>
	</g>
	<g id="gge7941">
		<text transform="matrix(1 0 0 1 443.1807 123)" class="st12 st3">-j2Ω</text>
	</g>
	<g id="gge7944">
		<text transform="matrix(1 0 0 1 338.4072 123)" class="st12 st3">4Ω</text>
	</g>
	<g id="gge7947">
		<text transform="matrix(1 0 0 1 163.7842 181.208)" class="st13 st2 st3">R2</text>
	</g>
	<g id="gge7950">
		<text transform="matrix(1 0 0 1 163.7842 64.793)" class="st13 st2 st3">R1</text>
	</g>
	<g id="gge7928">
		<circle class="st8" cx="315.1" cy="320.9" r="4.7"/>
		<circle cx="315.1" cy="320.9" r="5.8"/>
	</g>
	<g id="gge7924">
		<circle class="st8" cx="256.9" cy="29.9" r="4.7"/>
		<circle cx="256.9" cy="29.9" r="5.8"/>
	</g>
	<g id="gge7925">
		<circle class="st8" cx="315.1" cy="29.9" r="4.7"/>
		<circle cx="315.1" cy="29.9" r="5.8"/>
	</g>
	<g id="gge7920">
		<circle class="st8" cx="419.9" cy="320.9" r="4.7"/>
		<circle cx="419.9" cy="320.9" r="5.8"/>
	</g>
	<g id="gge7922">
		<circle class="st8" cx="419.9" cy="29.9" r="4.7"/>
		<circle cx="419.9" cy="29.9" r="5.8"/>
	</g>
	<g id="gge7930">
		<circle class="st8" cx="93.9" cy="146.3" r="4.7"/>
		<circle cx="93.9" cy="146.3" r="5.8"/>
	</g>
	<g id="gge7953">
		<path d="M59,157.9l-9.3,4.7l9.3-11.6l9.3,11.6L59,157.9z"/>
	</g>
	<g id="gge7954">
		<path d="M59,309.3l9.3-4.7L59,316.2l-9.3-11.6L59,309.3z"/>
	</g>
</g>
<g>
	<g id="ni34a4_1_">
		
			<image style="overflow:visible;" width="1200" height="423" id="ni34a4_00000114052095137766275830000010247063283131300264_" xlink:href="9A85F3570BC8B199.png"  transform="matrix(3.635557e-02 0 0 3.635557e-02 525.998 342.6412)">
		</image>
	</g>
	<g>
		<text transform="matrix(1 0 0 1 525.8057 365.9828)" class="st14 st15">UBC Engineering</text>
	</g>
</g>
</svg>
