<?xml version="1.0" encoding="utf-8"?>
<!-- Generator: Adobe Illustrator 26.3.1, SVG Export Plug-In . SVG Version: 6.00 Build 0)  -->
<svg version="1.1" id="Layer_1" xmlns="http://www.w3.org/2000/svg" xmlns:xlink="http://www.w3.org/1999/xlink" x="0px" y="0px"
	 viewBox="0 0 577.5 440" style="enable-background:new 0 0 577.5 440;" xml:space="preserve">
<style type="text/css">
	.st0{fill:none;stroke:#000000;stroke-width:2.8125;}
	.st1{font-family:'Helvetica';}
	.st2{font-size:21.0938px;}
	.st3{fill:none;stroke:#000000;stroke-width:2.8125;stroke-linecap:round;stroke-linejoin:round;}
	.st4{display:none;}
	.st5{display:inline;}
	.st6{font-family:'ArialMT';}
	.st7{font-size:19.6875px;}
	.st8{fill:none;}
	.st9{display:none;enable-background:new    ;}
	.st10{font-family:'Verdana';}
	.st11{display:none;fill:none;stroke:#000000;stroke-width:2.8125;}
	.st12{display:none;fill:none;stroke:#000000;stroke-width:2.8125;stroke-linecap:round;stroke-linejoin:round;}
	.st13{fill:#0066CC;}
	.st14{fill:#FF3366;}
	.st15{font-family:'Folio-Medium';}
	.st16{font-size:5.504px;}
</style>
<g id="g1">
	<ellipse id="gge5257" class="st0" cx="255.6" cy="146.8" rx="7" ry="7"/>
	<ellipse id="gge5258" class="st0" cx="171.2" cy="146.8" rx="7" ry="7"/>
	<g id="gge5259">
		<text transform="matrix(1 0 0 1 185.3125 200.9189)" class="st1 st2">t = 0</text>
	</g>
	<line id="gge5261" class="st3" x1="213.4" y1="174.9" x2="213.4" y2="118.6"/>
	<g id="gge5489">
		<g id="gge5491" class="st4">
			<text transform="matrix(1 0 0 1 148.75 280.0625)" class="st5 st6 st7">SIN(0 1 50) AC 1 0</text>
		</g>
		<g id="gge5493" class="st4">
			<text transform="matrix(1 0 0 1 148.75 254.2998)" class="st5 st6 st7">V13</text>
		</g>
		<ellipse id="gge5495" class="st0" cx="115" cy="245.2" rx="28.1" ry="28.1"/>
		<g id="gge5496">
			<circle class="st8" cx="115" cy="188.9" r="5.6"/>
			<path class="st3" d="M115,217.1v-28.1"/>
			<text transform="matrix(-1.836970e-16 -1 1 -1.836970e-16 115 235.2031)" class="st9 st10 st7">1</text>
			<text transform="matrix(-1.836970e-16 -1 1 -1.836970e-16 103.75 205.8125)" class="st9 st10 st7">1</text>
			<circle class="st11" cx="115" cy="152.4" r="8.4"/>
			<path class="st12" d="M106.6,160.8l8.4,8.4l8.4-8.4"/>
		</g>
		<line id="gge5503" class="st3" x1="109.4" y1="228.3" x2="120.6" y2="228.3"/>
		<line id="gge5504" class="st3" x1="115" y1="222.7" x2="115" y2="233.9"/>
		<g id="gge5505">
			<circle class="st8" cx="115" cy="301.4" r="5.6"/>
			<path class="st3" d="M115,273.3v28.1"/>
			<text transform="matrix(-1.836970e-16 -1 1 -1.836970e-16 115 262.0625)" class="st9 st10 st7">2</text>
			<text transform="matrix(-1.836970e-16 -1 1 -1.836970e-16 103.75 297.0781)" class="st9 st10 st7">2</text>
			<circle class="st11" cx="115" cy="338" r="8.4"/>
			<path class="st12" d="M123.4,329.6l-8.4-8.4l-8.4,8.4"/>
		</g>
		<line id="gge5512" class="st3" x1="120.6" y1="262.1" x2="109.4" y2="262.1"/>
	</g>
	<g id="gge5544">
		<text transform="matrix(1 0 0 1 30.625 259.7842)" class="st10 st2">24V</text>
	</g>
	<g id="gge5548">
		<g id="gge5550" class="st4">
			<text transform="matrix(1 0 0 1 331.5625 280.0625)" class="st5 st6 st7">1k</text>
		</g>
		<g id="gge5552" class="st4">
			<text transform="matrix(1 0 0 1 331.5625 254.2998)" class="st5 st6 st7">R85</text>
		</g>
		<line id="gge5554" class="st3" x1="311.9" y1="203" x2="325.9" y2="211.4"/>
		<line id="gge5555" class="st3" x1="297.8" y1="225.5" x2="325.9" y2="239.6"/>
		<line id="gge5556" class="st3" x1="325.9" y1="211.4" x2="297.8" y2="225.5"/>
		<g id="gge5557">
			<circle class="st8" cx="311.9" cy="188.9" r="5.6"/>
			<path class="st3" d="M311.9,188.9V203"/>
			<text transform="matrix(-1.836970e-16 -1 1 -1.836970e-16 311.875 226.7656)" class="st9 st10 st7">2</text>
			<text transform="matrix(-1.836970e-16 -1 1 -1.836970e-16 300.625 191.75)" class="st9 st10 st7">2</text>
			<circle class="st11" cx="311.9" cy="194.6" r="8.4"/>
			<path class="st12" d="M303.4,203l8.4,8.4l8.4-8.4"/>
		</g>
		<line id="gge5564" class="st3" x1="325.9" y1="264.9" x2="297.8" y2="278.9"/>
		<line id="gge5565" class="st3" x1="325.9" y1="239.6" x2="297.8" y2="250.8"/>
		<line id="gge5566" class="st3" x1="297.8" y1="250.8" x2="325.9" y2="264.9"/>
		<line id="gge5567" class="st3" x1="297.8" y1="278.9" x2="311.9" y2="287.4"/>
		<g id="gge5568">
			<circle class="st8" cx="311.9" cy="301.4" r="5.6"/>
			<path class="st3" d="M311.9,301.4v-14.1"/>
			<text transform="matrix(-1.836970e-16 -1 1 -1.836970e-16 311.875 276.125)" class="st9 st10 st7">1</text>
			<text transform="matrix(-1.836970e-16 -1 1 -1.836970e-16 300.625 311.1406)" class="st9 st10 st7">1</text>
			<circle class="st11" cx="311.9" cy="295.8" r="8.4"/>
			<path class="st12" d="M320.3,287.4l-8.4-8.4l-8.4,8.4"/>
		</g>
	</g>
	<polyline id="gge5577" class="st3" points="115,188.9 115,146.8 311.9,146.8 311.9,188.9 	"/>
	<polyline id="gge5578" class="st3" points="311.9,301.4 311.9,343.6 115,343.6 115,301.4 	"/>
	<g id="gge5580">
		<g id="gge5582" class="st4">
			<text transform="matrix(1 0 0 1 386.2373 321.125)" class="st5 st6 st7">1k</text>
		</g>
		<g id="gge5584" class="st4">
			<text transform="matrix(1 0 0 1 386.2373 295.3623)" class="st5 st6 st7">R86</text>
		</g>
		<line id="gge5586" class="st3" x1="368.1" y1="343.6" x2="376.6" y2="329.6"/>
		<line id="gge5587" class="st3" x1="390.6" y1="357.7" x2="404.7" y2="329.6"/>
		<line id="gge5588" class="st3" x1="376.6" y1="329.6" x2="390.6" y2="357.7"/>
		<g id="gge5589">
			<circle class="st8" cx="354.1" cy="343.6" r="5.6"/>
			<path class="st3" d="M354.1,343.6h14.1"/>
			<text transform="matrix(1 0 0 1 379.375 343.625)" class="st9 st10 st7">2</text>
			<text transform="matrix(1 0 0 1 344.3584 332.375)" class="st9 st10 st7">2</text>
			<circle class="st11" cx="359.7" cy="343.6" r="8.4"/>
			<path class="st12" d="M368.1,352.1l8.4-8.4l-8.4-8.4"/>
		</g>
		<line id="gge5596" class="st3" x1="430" y1="329.6" x2="444.1" y2="357.7"/>
		<line id="gge5597" class="st3" x1="404.7" y1="329.6" x2="415.9" y2="357.7"/>
		<line id="gge5598" class="st3" x1="415.9" y1="357.7" x2="430" y2="329.6"/>
		<line id="gge5599" class="st3" x1="444.1" y1="357.7" x2="452.5" y2="343.6"/>
		<g id="gge5600">
			<circle class="st8" cx="466.6" cy="343.6" r="5.6"/>
			<path class="st3" d="M466.6,343.6h-14.1"/>
			<text transform="matrix(1 0 0 1 428.7334 343.625)" class="st9 st10 st7">1</text>
			<text transform="matrix(1 0 0 1 463.75 332.375)" class="st9 st10 st7">1</text>
			<circle class="st11" cx="460.9" cy="343.6" r="8.4"/>
			<path class="st12" d="M452.5,335.2l-8.4,8.4l8.4,8.4"/>
		</g>
	</g>
	<g id="gge5608">
		<g id="gge5610" class="st4">
			<text transform="matrix(1 0 0 1 386.2373 39.875)" class="st5 st6 st7">1k</text>
		</g>
		<g id="gge5612" class="st4">
			<text transform="matrix(1 0 0 1 386.2373 14.1123)" class="st5 st6 st7">R87</text>
		</g>
		<line id="gge5614" class="st3" x1="368.1" y1="62.4" x2="376.6" y2="48.3"/>
		<line id="gge5615" class="st3" x1="390.6" y1="76.4" x2="404.7" y2="48.3"/>
		<line id="gge5616" class="st3" x1="376.6" y1="48.3" x2="390.6" y2="76.4"/>
		<g id="gge5617">
			<circle class="st8" cx="354.1" cy="62.4" r="5.6"/>
			<path class="st3" d="M354.1,62.4h14.1"/>
			<text transform="matrix(1 0 0 1 379.375 62.375)" class="st9 st10 st7">2</text>
			<text transform="matrix(1 0 0 1 344.3584 51.125)" class="st9 st10 st7">2</text>
			<circle class="st11" cx="359.7" cy="62.4" r="8.4"/>
			<path class="st12" d="M368.1,70.8l8.4-8.4l-8.4-8.4"/>
		</g>
		<line id="gge5624" class="st3" x1="430" y1="48.3" x2="444.1" y2="76.4"/>
		<line id="gge5625" class="st3" x1="404.7" y1="48.3" x2="415.9" y2="76.4"/>
		<line id="gge5626" class="st3" x1="415.9" y1="76.4" x2="430" y2="48.3"/>
		<line id="gge5627" class="st3" x1="444.1" y1="76.4" x2="452.5" y2="62.4"/>
		<g id="gge5628">
			<circle class="st8" cx="466.6" cy="62.4" r="5.6"/>
			<path class="st3" d="M466.6,62.4h-14.1"/>
			<text transform="matrix(1 0 0 1 428.7334 62.375)" class="st9 st10 st7">1</text>
			<text transform="matrix(1 0 0 1 463.75 51.125)" class="st9 st10 st7">1</text>
			<circle class="st11" cx="460.9" cy="62.4" r="8.4"/>
			<path class="st12" d="M452.5,53.9l-8.4,8.4l8.4,8.4"/>
		</g>
	</g>
	<g id="gge5636">
		<text transform="matrix(1 0 0 1 382.1875 34.25)" class="st1 st2">12kΩ</text>
	</g>
	<g id="gge5639">
		<text transform="matrix(1 0 0 1 382.1875 385.8125)" class="st1 st2">12kΩ</text>
	</g>
	<g id="gge5642">
		<text transform="matrix(1 0 0 1 227.5 259.25)" class="st1 st2">12kΩ</text>
	</g>
	<g id="gge5645">
		<g id="gge5647" class="st4">
			<text transform="matrix(1 0 0 1 393.5215 115.8125)" class="st5 st6 st7">1u</text>
		</g>
		<g id="gge5649" class="st4">
			<text transform="matrix(1 0 0 1 393.5215 90.0498)" class="st5 st6 st7">C5</text>
		</g>
		<line id="gge5651" class="st3" x1="415.9" y1="124.2" x2="415.9" y2="169.2"/>
		<g id="gge5652">
			<circle class="st8" cx="466.6" cy="146.8" r="5.6"/>
			<path class="st3" d="M438.4,146.8h28.1"/>
			<text transform="matrix(1 0 0 1 414.6709 146.75)" class="st9 st10 st7">1</text>
			<text transform="matrix(1 0 0 1 449.6875 135.5)" class="st9 st10 st7">1</text>
			<circle class="st11" cx="503.1" cy="146.8" r="8.4"/>
			<path class="st12" d="M494.7,138.3l-8.4,8.4l8.4,8.4"/>
		</g>
		<line id="gge5659" class="st3" x1="382.2" y1="146.8" x2="404.7" y2="146.8"/>
		<line id="gge5660" class="st3" x1="404.7" y1="169.2" x2="404.7" y2="124.2"/>
		<g id="gge5661">
			<circle class="st8" cx="354.1" cy="146.8" r="5.6"/>
			<path class="st3" d="M382.2,146.8h-28.1"/>
			<text transform="matrix(1 0 0 1 393.4375 146.75)" class="st9 st10 st7">2</text>
			<text transform="matrix(1 0 0 1 358.4209 135.5)" class="st9 st10 st7">2</text>
			<circle class="st11" cx="317.5" cy="146.8" r="8.4"/>
			<path class="st12" d="M325.9,155.2l8.4-8.4l-8.4-8.4"/>
		</g>
		<line id="gge5668" class="st3" x1="415.9" y1="146.8" x2="438.4" y2="146.8"/>
	</g>
	<line id="gge5672" class="st3" x1="354.1" y1="343.6" x2="311.9" y2="343.6"/>
	<g id="gge5678">
		<text transform="matrix(1 0 0 1 410.3125 203)" class="st13 st10 st2">C</text>
	</g>
	<polyline id="gge5683" class="st3" points="354.1,62.4 311.9,62.4 311.9,146.8 	"/>
	<polyline id="gge5685" class="st3" points="466.6,62.4 508.8,62.4 508.8,343.6 466.6,343.6 	"/>
	<line id="gge5686" class="st3" x1="466.6" y1="146.8" x2="508.8" y2="146.8"/>
	<line id="gge5688" class="st3" x1="354.1" y1="146.8" x2="311.9" y2="146.8"/>
	<g id="gge5699">
		<text transform="matrix(1 0 0 1 311.875 371.75)" class="st14 st10 st2">D</text>
	</g>
	<g id="gge5702">
		<text transform="matrix(1 0 0 1 522.8125 174.875)" class="st14 st10 st2">E</text>
	</g>
	<g id="gge5687">
		<circle class="st8" cx="508.8" cy="146.8" r="5.6"/>
		<circle cx="508.8" cy="146.8" r="7"/>
	</g>
	<g id="gge5684">
		<circle class="st8" cx="311.9" cy="146.8" r="5.6"/>
		<circle cx="311.9" cy="146.8" r="7"/>
	</g>
	<g id="gge5673">
		<circle class="st8" cx="311.9" cy="343.6" r="5.6"/>
		<circle cx="311.9" cy="343.6" r="7"/>
	</g>
	<g id="gge5690">
		<path d="M241.6,146.7l-5.6-11.2l14.1,11.2L235.9,158L241.6,146.7z"/>
	</g>
	<g id="gge5691">
		<path d="M213.4,118.6l-11.2,5.6l11.2-14.1l11.2,14.1L213.4,118.6z"/>
	</g>
</g>
<g>
	<g id="ni34a4_1_">
		
			<image style="overflow:visible;" width="1200" height="423" id="ni34a4_00000114052095137766275830000010247063283131300264_" xlink:href="9A53710AAF72B7E3.png"  transform="matrix(3.635557e-02 0 0 3.635557e-02 33.4355 395.6412)">
		</image>
	</g>
	<g>
		<text transform="matrix(1 0 0 1 33.2432 418.9828)" class="st15 st16">UBC Engineering</text>
	</g>
</g>
</svg>
