<?xml version="1.0" encoding="utf-8"?>
<!-- Generator: Adobe Illustrator 26.3.1, SVG Export Plug-In . SVG Version: 6.00 Build 0)  -->
<svg version="1.1" id="Layer_1" xmlns="http://www.w3.org/2000/svg" xmlns:xlink="http://www.w3.org/1999/xlink" x="0px" y="0px"
	 viewBox="0 0 646.1 336.2" style="enable-background:new 0 0 646.1 336.2;" xml:space="preserve">
<style type="text/css">
	.st0{fill:#0066CC;}
	.st1{font-family:'Verdana';}
	.st2{font-size:27.3123px;}
	.st3{display:none;}
	.st4{display:inline;}
	.st5{font-family:'ArialMT';}
	.st6{font-size:21.2429px;}
	.st7{fill:none;stroke:#000000;stroke-width:3.0347;stroke-linecap:round;stroke-linejoin:round;}
	.st8{fill:none;}
	.st9{display:none;enable-background:new    ;}
	.st10{display:none;fill:none;stroke:#000000;stroke-width:3.0347;}
	.st11{display:none;fill:none;stroke:#000000;stroke-width:3.0347;stroke-linecap:round;stroke-linejoin:round;}
	.st12{font-family:'Helvetica';}
	.st13{fill:none;stroke:#000000;stroke-width:3.0347;}
	.st14{fill:none;stroke:#000000;stroke-width:3.0347;stroke-linecap:round;}
	.st15{font-size:22.7602px;}
	.st16{fill:#FF3366;}
	.st17{font-family:'Folio-Medium';}
	.st18{font-size:5.504px;}
</style>
<g id="g1">
	<g id="gge333">
		<text transform="matrix(1 0 0 1 197.5625 201.663)" class="st0 st1 st2">R</text>
	</g>
	<g id="gge430">
		<g id="gge432" class="st3">
			<text transform="matrix(1 0 0 1 264.3252 224.0283)" class="st4 st5 st6">1k</text>
		</g>
		<g id="gge434" class="st3">
			<text transform="matrix(1 0 0 1 264.3252 196.0497)" class="st4 st5 st6">R5</text>
		</g>
		<line id="gge436" class="st7" x1="243.1" y1="141" x2="258.3" y2="150.1"/>
		<line id="gge437" class="st7" x1="227.9" y1="165.2" x2="258.3" y2="180.4"/>
		<line id="gge438" class="st7" x1="258.3" y1="150.1" x2="227.9" y2="165.2"/>
		<g id="gge439">
			<circle class="st8" cx="243.1" cy="125.8" r="6.1"/>
			<path class="st7" d="M243.1,125.8V141"/>
			<text transform="matrix(-1.836970e-16 -1 1 -1.836970e-16 243.0801 166.6122)" class="st9 st1 st6">2</text>
			<text transform="matrix(-1.836970e-16 -1 1 -1.836970e-16 230.9414 128.829)" class="st9 st1 st6">2</text>
			<circle class="st10" cx="243.1" cy="131.9" r="9.1"/>
			<path class="st11" d="M234,141l9.1,9.1l9.1-9.1"/>
		</g>
		<line id="gge446" class="st7" x1="258.3" y1="207.7" x2="227.9" y2="222.9"/>
		<line id="gge447" class="st7" x1="258.3" y1="180.4" x2="227.9" y2="192.6"/>
		<line id="gge448" class="st7" x1="227.9" y1="192.6" x2="258.3" y2="207.7"/>
		<line id="gge449" class="st7" x1="227.9" y1="222.9" x2="243.1" y2="232"/>
		<g id="gge450">
			<circle class="st8" cx="243.1" cy="247.2" r="6.1"/>
			<path class="st7" d="M243.1,247.2V232"/>
			<text transform="matrix(-1.836970e-16 -1 1 -1.836970e-16 243.0801 219.8701)" class="st9 st1 st6">1</text>
			<text transform="matrix(-1.836970e-16 -1 1 -1.836970e-16 230.9414 257.6533)" class="st9 st1 st6">1</text>
			<circle class="st10" cx="243.1" cy="241.1" r="9.1"/>
			<path class="st11" d="M252.2,232l-9.1-9.1L234,232"/>
		</g>
	</g>
	<g id="gge458">
		<text transform="matrix(1 0 0 1 15.4805 201.663)" class="st12 st2">1A</text>
	</g>
	<g id="gge464">
		<g id="gge466" class="st3">
			<text transform="matrix(1 0 0 1 142.9375 224.0283)" class="st4 st5 st6">SIN(0 1 50)</text>
		</g>
		<g id="gge468" class="st3">
			<text transform="matrix(1 0 0 1 142.9375 196.0497)" class="st4 st5 st6">I2</text>
		</g>
		<ellipse id="gge470" class="st13" cx="106.5" cy="186.5" rx="30.3" ry="30.3"/>
		<g id="gge471">
			<circle class="st8" cx="106.5" cy="125.8" r="6.1"/>
			<path class="st7" d="M106.5,156.1v-30.3"/>
			<text transform="matrix(-1.836970e-16 -1 1 -1.836970e-16 106.5195 181.7861)" class="st9 st1 st6">2</text>
			<text transform="matrix(-1.836970e-16 -1 1 -1.836970e-16 94.3809 144.0029)" class="st9 st1 st6">2</text>
			<circle class="st10" cx="106.5" cy="86.3" r="9.1"/>
			<path class="st11" d="M97.4,95.4l9.1,9.1l9.1-9.1"/>
		</g>
		<line id="gge478" class="st7" x1="106.5" y1="162.2" x2="112.6" y2="168.3"/>
		<line id="gge479" class="st7" x1="106.5" y1="162.2" x2="100.5" y2="168.3"/>
		<g id="gge480">
			<circle class="st8" cx="106.5" cy="247.2" r="6.1"/>
			<path class="st7" d="M106.5,216.8v30.3"/>
			<text transform="matrix(-1.836970e-16 -1 1 -1.836970e-16 106.5195 210.7665)" class="st9 st1 st6">1</text>
			<text transform="matrix(-1.836970e-16 -1 1 -1.836970e-16 94.3809 242.4794)" class="st9 st1 st6">1</text>
			<circle class="st10" cx="106.5" cy="286.6" r="9.1"/>
			<path class="st11" d="M115.6,277.5l-9.1-9.1l-9.1,9.1"/>
		</g>
		<line id="gge487" class="st7" x1="106.5" y1="162.2" x2="106.5" y2="210.8"/>
	</g>
	<g id="gge513">
		<g id="gge515" class="st3">
			<text transform="matrix(1 0 0 1 409.9912 224.0283)" class="st4 st5 st6">1u</text>
		</g>
		<g id="gge517" class="st3">
			<text transform="matrix(1 0 0 1 409.9912 196.0497)" class="st4 st5 st6">C1</text>
		</g>
		<line id="gge519" class="st7" x1="403.9" y1="192.6" x2="355.4" y2="192.6"/>
		<g id="gge520">
			<circle class="st8" cx="379.6" cy="247.2" r="6.1"/>
			<path class="st7" d="M379.6,216.8v30.3"/>
			<text transform="matrix(-1.836970e-16 -1 1 -1.836970e-16 379.6426 204.6982)" class="st9 st1 st6">1</text>
			<text transform="matrix(-1.836970e-16 -1 1 -1.836970e-16 367.5039 242.4794)" class="st9 st1 st6">1</text>
			<circle class="st10" cx="379.6" cy="286.6" r="9.1"/>
			<path class="st11" d="M388.7,277.5l-9.1-9.1l-9.1,9.1"/>
		</g>
		<line id="gge527" class="st7" x1="379.6" y1="156.1" x2="379.6" y2="180.4"/>
		<line id="gge528" class="st7" x1="355.4" y1="180.4" x2="403.9" y2="180.4"/>
		<g id="gge529">
			<circle class="st8" cx="379.6" cy="125.8" r="6.1"/>
			<path class="st7" d="M379.6,156.1v-30.3"/>
			<text transform="matrix(-1.836970e-16 -1 1 -1.836970e-16 379.6426 181.7861)" class="st9 st1 st6">2</text>
			<text transform="matrix(-1.836970e-16 -1 1 -1.836970e-16 367.5039 144.0029)" class="st9 st1 st6">2</text>
			<circle class="st10" cx="379.6" cy="86.3" r="9.1"/>
			<path class="st11" d="M370.5,95.4l9.1,9.1l9.1-9.1"/>
		</g>
		<line id="gge536" class="st7" x1="379.6" y1="192.6" x2="379.6" y2="216.8"/>
	</g>
	<g id="gge537">
		<g id="gge539" class="st3">
			<text transform="matrix(1 0 0 1 573.8643 224.0283)" class="st4 st5 st6">1m</text>
		</g>
		<g id="gge541" class="st3">
			<text transform="matrix(1 0 0 1 573.8643 196.0497)" class="st4 st5 st6">L1</text>
		</g>
		<g id="gge543">
			<circle class="st8" cx="561.7" cy="125.8" r="6.1"/>
			<path class="st7" d="M561.7,125.8v9.1"/>
			<text transform="matrix(-1.836970e-16 -1 1 -1.836970e-16 561.7227 160.5439)" class="st9 st1 st6">2</text>
			<text transform="matrix(-1.836970e-16 -1 1 -1.836970e-16 549.584 122.7607)" class="st9 st1 st6">2</text>
			<circle class="st10" cx="561.7" cy="125.8" r="9.1"/>
			<path class="st11" d="M552.6,134.9l9.1,9.1l9.1-9.1"/>
		</g>
		<g id="gge550">
			<circle class="st8" cx="561.7" cy="247.2" r="6.1"/>
			<path class="st7" d="M561.7,247.2v-9.1"/>
			<text transform="matrix(-1.836970e-16 -1 1 -1.836970e-16 561.7227 225.9404)" class="st9 st1 st6">1</text>
			<text transform="matrix(-1.836970e-16 -1 1 -1.836970e-16 549.584 263.7236)" class="st9 st1 st6">1</text>
			<circle class="st10" cx="561.7" cy="247.2" r="9.1"/>
			<path class="st11" d="M570.8,238.1l-9.1-9.1l-9.1,9.1"/>
		</g>
		<path id="gge557" class="st7" d="M561.5,237.7c-6.5,0.6-12.3-4.3-12.9-11c-0.6-6.7,4.2-12.6,10.7-13.2c0.7-0.1,1.5-0.1,2.2,0"/>
		<path id="gge558" class="st7" d="M561.5,212c-6.5,0.6-12.3-4.3-12.9-11s4.2-12.6,10.7-13.2c0.7-0.1,1.5-0.1,2.2,0"/>
		<path id="gge559" class="st7" d="M561.5,186.3c-6.5,0.6-12.3-4.3-12.9-11c-0.6-6.7,4.2-12.6,10.7-13.2c0.7-0.1,1.5-0.1,2.2,0"/>
		<path id="gge560" class="st7" d="M561.5,160.1c-6.5,0.6-12.3-4.3-12.9-11c-0.6-6.7,4.2-12.6,10.7-13.2c0.7-0.1,1.5-0.1,2.2,0"/>
	</g>
	<polyline id="gge563" class="st7" points="106.5,125.8 106.5,80.3 425.2,80.3 	"/>
	<polyline id="gge564" class="st7" points="561.7,247.2 561.7,292.7 440.3,292.7 106.5,292.7 106.5,247.2 	"/>
	<line id="gge567" class="st7" x1="243.1" y1="125.8" x2="243.1" y2="80.3"/>
	<line id="gge569" class="st7" x1="243.1" y1="247.2" x2="243.1" y2="292.7"/>
	<g id="gge589">
		<text transform="matrix(1 0 0 1 318.9502 201.663)" class="st0 st1 st2">C</text>
	</g>
	<g id="gge592">
		<text transform="matrix(1 0 0 1 516.2051 201.663)" class="st0 st1 st2">L</text>
	</g>
	<line id="gge608" class="st7" x1="379.6" y1="125.8" x2="379.6" y2="80.3"/>
	<line id="gge610" class="st7" x1="379.6" y1="247.2" x2="379.6" y2="292.7"/>
	<ellipse id="gge614" class="st13" cx="425.2" cy="80.3" rx="7.6" ry="7.6"/>
	<ellipse id="gge616" class="st13" cx="501" cy="80.3" rx="7.6" ry="7.6"/>
	<g id="gge617">
		<circle class="st8" cx="425.2" cy="80.3" r="6.1"/>
		<circle class="st8" cx="455.5" cy="49.9" r="6.1"/>
		<line class="st14" x1="425.2" y1="80.3" x2="455.5" y2="49.9"/>
	</g>
	<g id="gge621">
		<circle class="st8" cx="455.5" cy="49.9" r="6.1"/>
		<circle class="st8" cx="485.9" cy="19.6" r="6.1"/>
		<line class="st14" x1="455.5" y1="49.9" x2="485.9" y2="19.6"/>
	</g>
	<line id="gge629" class="st7" x1="470.7" y1="65.1" x2="470.7" y2="4.4"/>
	<polyline id="gge630" class="st7" points="561.7,125.8 561.7,80.3 501,80.3 501,80.3 	"/>
	<g id="gge636">
		<text transform="matrix(1 0 0 1 440.3379 125.7958)" class="st12 st15">t = 0</text>
	</g>
	<g id="gge639">
		<text transform="matrix(1 0 0 1 576.8994 110.622)" class="st16 st1 st2">iL(t)</text>
	</g>
	<g id="gge613">
		<circle class="st8" cx="379.6" cy="292.7" r="6.1"/>
		<circle cx="379.6" cy="292.7" r="7.6"/>
	</g>
	<g id="gge612">
		<circle class="st8" cx="379.6" cy="80.3" r="6.1"/>
		<circle cx="379.6" cy="80.3" r="7.6"/>
	</g>
	<g id="gge607">
		<circle class="st8" cx="243.1" cy="292.7" r="6.1"/>
		<circle cx="243.1" cy="292.7" r="7.6"/>
	</g>
	<g id="gge606">
		<circle class="st8" cx="243.1" cy="80.3" r="6.1"/>
		<circle cx="243.1" cy="80.3" r="7.6"/>
	</g>
	<g id="gge626">
		<path d="M485.9,19.6L473,15.3l19.3-2.1l-2.1,19.3L485.9,19.6z"/>
	</g>
	<g id="gge628">
		<path d="M470.7,65.1l12.1-6.1l-12.1,15.2L458.5,59L470.7,65.1z"/>
	</g>
	<g id="gge634">
		<path d="M561.7,125.8l12.1-6.1l-12.1,15.2l-12.1-15.2L561.7,125.8z"/>
	</g>
</g>
<g>
	<g id="ni34a4_1_">
		
			<image style="overflow:visible;" width="1200" height="423" id="ni34a4_00000114052095137766275830000010247063283131300264_" xlink:href="9D94D6F6A2FD501C.png"  transform="matrix(3.635557e-02 0 0 3.635557e-02 15.6072 301.8925)">
		</image>
	</g>
	<g>
		<text transform="matrix(1 0 0 1 15.4149 325.2341)" class="st17 st18">UBC Engineering</text>
	</g>
</g>
</svg>
