<?xml version="1.0" encoding="utf-8"?>
<!-- Generator: Adobe Illustrator 26.3.1, SVG Export Plug-In . SVG Version: 6.00 Build 0)  -->
<svg version="1.1" id="Layer_1" xmlns="http://www.w3.org/2000/svg" xmlns:xlink="http://www.w3.org/1999/xlink" x="0px" y="0px"
	 viewBox="0 0 435 377.8" style="enable-background:new 0 0 435 377.8;" xml:space="preserve">
<style type="text/css">
	.st0{fill:#FF3366;}
	.st1{font-family:'Verdana';}
	.st2{font-size:14.1667px;}
	.st3{display:none;}
	.st4{display:inline;}
	.st5{font-family:'ArialMT';}
	.st6{font-size:13.2222px;}
	.st7{fill:none;stroke:#000000;stroke-width:1.8889;}
	.st8{fill:none;}
	.st9{fill:none;stroke:#000000;stroke-width:1.8889;stroke-linecap:round;stroke-linejoin:round;}
	.st10{display:none;enable-background:new    ;}
	.st11{display:none;fill:none;stroke:#000000;stroke-width:1.8889;}
	.st12{display:none;fill:none;stroke:#000000;stroke-width:1.8889;stroke-linecap:round;stroke-linejoin:round;}
	.st13{font-family:'Helvetica';}
	.st14{font-size:12.2778px;}
	.st15{fill:#0066CC;}
	.st16{font-family:'Folio-Medium';}
	.st17{font-size:5.504px;}
</style>
<g id="g1">
	<g id="gge2882">
		<text transform="matrix(1 0 0 1 288.333 29.8751)" class="st0 st1 st2">Vo</text>
	</g>
	<g id="gge2915">
		<g id="gge2917" class="st3">
			<text transform="matrix(1 0 0 1 224.3184 250.8751)" class="st4 st5 st6">SIN(0 1 50)</text>
		</g>
		<g id="gge2919" class="st3">
			<text transform="matrix(1 0 0 1 224.3184 233.6671)" class="st4 st5 st6">I3</text>
		</g>
		<ellipse id="gge2921" class="st7" cx="231.7" cy="275.4" rx="18.9" ry="18.9"/>
		<g id="gge2922">
			<circle class="st8" cx="269.4" cy="275.4" r="3.8"/>
			<path class="st9" d="M250.6,275.4h18.9"/>
			<text transform="matrix(1 0 0 1 234.5938 275.4308)" class="st10 st1 st6">2</text>
			<text transform="matrix(1 0 0 1 258.1113 267.8752)" class="st10 st1 st6">2</text>
			<circle class="st11" cx="294" cy="275.4" r="5.7"/>
			<path class="st12" d="M288.3,269.8l-5.7,5.7l5.7,5.7"/>
		</g>
		<line id="gge2929" class="st9" x1="246.8" y1="275.4" x2="243" y2="279.2"/>
		<line id="gge2930" class="st9" x1="246.8" y1="275.4" x2="243" y2="271.7"/>
		<g id="gge2931">
			<circle class="st8" cx="193.9" cy="275.4" r="3.8"/>
			<path class="st9" d="M212.8,275.4h-18.9"/>
			<text transform="matrix(1 0 0 1 216.5552 275.4308)" class="st10 st1 st6">1</text>
			<text transform="matrix(1 0 0 1 196.8159 267.8752)" class="st10 st1 st6">1</text>
			<circle class="st11" cx="169.3" cy="275.4" r="5.7"/>
			<path class="st12" d="M175,281.1l5.7-5.7l-5.7-5.7"/>
		</g>
		<line id="gge2938" class="st9" x1="246.8" y1="275.4" x2="216.6" y2="275.4"/>
	</g>
	<g id="gge2940">
		<g id="gge2942" class="st3">
			<text transform="matrix(1 0 0 1 122.1108 185.5011)" class="st4 st5 st6">SIN(0 1 50) AC 1 0</text>
		</g>
		<g id="gge2944" class="st3">
			<text transform="matrix(1 0 0 1 127.7773 169.0485)" class="st4 st5 st6">V5</text>
		</g>
		<ellipse id="gge2946" class="st7" cx="99.4" cy="162.1" rx="18.9" ry="18.9"/>
		<g id="gge2947">
			<circle class="st8" cx="99.4" cy="124.3" r="3.8"/>
			<path class="st9" d="M99.4,143.2v-18.9"/>
			<text transform="matrix(-1.836970e-16 -1 1 -1.836970e-16 99.4438 155.3937)" class="st10 st1 st6">1</text>
			<text transform="matrix(-1.836970e-16 -1 1 -1.836970e-16 91.8887 135.6554)" class="st10 st1 st6">1</text>
			<circle class="st11" cx="99.4" cy="99.8" r="5.7"/>
			<path class="st12" d="M93.8,105.4l5.7,5.7l5.7-5.7"/>
		</g>
		<line id="gge2954" class="st9" x1="95.7" y1="150.8" x2="103.2" y2="150.8"/>
		<line id="gge2955" class="st9" x1="99.4" y1="147" x2="99.4" y2="154.5"/>
		<g id="gge2956">
			<circle class="st8" cx="99.4" cy="199.9" r="3.8"/>
			<path class="st9" d="M99.4,181v18.9"/>
			<text transform="matrix(-1.836970e-16 -1 1 -1.836970e-16 99.4438 173.4328)" class="st10 st1 st6">2</text>
			<text transform="matrix(-1.836970e-16 -1 1 -1.836970e-16 91.8887 196.9484)" class="st10 st1 st6">2</text>
			<circle class="st11" cx="99.4" cy="224.4" r="5.7"/>
			<path class="st12" d="M105.1,218.8l-5.7-5.7l-5.7,5.7"/>
		</g>
		<line id="gge2963" class="st9" x1="103.2" y1="173.4" x2="95.7" y2="173.4"/>
	</g>
	<g id="gge2965">
		<g id="gge2967" class="st3">
			<text transform="matrix(1 0 0 1 154.2974 80.8751)" class="st4 st5 st6">1k</text>
		</g>
		<g id="gge2969" class="st3">
			<text transform="matrix(1 0 0 1 154.2974 63.6671)" class="st4 st5 st6">R49</text>
		</g>
		<line id="gge2971" class="st9" x1="193.9" y1="96" x2="188.2" y2="105.4"/>
		<line id="gge2972" class="st9" x1="178.8" y1="86.5" x2="169.3" y2="105.4"/>
		<line id="gge2973" class="st9" x1="188.2" y1="105.4" x2="178.8" y2="86.5"/>
		<g id="gge2974">
			<circle class="st8" cx="203.3" cy="96" r="3.8"/>
			<path class="st9" d="M203.3,96h-9.4"/>
			<text transform="matrix(1 0 0 1 177.9268 95.986)" class="st10 st1 st6">2</text>
			<text transform="matrix(1 0 0 1 201.4438 88.4308)" class="st10 st1 st6">2</text>
			<circle class="st11" cx="199.6" cy="96" r="5.7"/>
			<path class="st12" d="M193.9,90.3l-5.7,5.7l5.7,5.7"/>
		</g>
		<line id="gge2981" class="st9" x1="152.3" y1="105.4" x2="142.9" y2="86.5"/>
		<line id="gge2982" class="st9" x1="169.3" y1="105.4" x2="161.8" y2="86.5"/>
		<line id="gge2983" class="st9" x1="161.8" y1="86.5" x2="152.3" y2="105.4"/>
		<line id="gge2984" class="st9" x1="142.9" y1="86.5" x2="137.2" y2="96"/>
		<g id="gge2985">
			<circle class="st8" cx="127.8" cy="96" r="3.8"/>
			<path class="st9" d="M127.8,96h9.4"/>
			<text transform="matrix(1 0 0 1 144.7773 95.986)" class="st10 st1 st6">1</text>
			<text transform="matrix(1 0 0 1 121.2603 88.4308)" class="st10 st1 st6">1</text>
			<circle class="st11" cx="131.6" cy="96" r="5.7"/>
			<path class="st12" d="M137.2,101.7l5.7-5.7l-5.7-5.7"/>
		</g>
	</g>
	<g id="gge2993">
		<g id="gge2995" class="st3">
			<text transform="matrix(1 0 0 1 286.5195 80.8751)" class="st4 st5 st6">1k</text>
		</g>
		<g id="gge2997" class="st3">
			<text transform="matrix(1 0 0 1 286.5195 63.6671)" class="st4 st5 st6">R50</text>
		</g>
		<line id="gge2999" class="st9" x1="326.1" y1="96" x2="320.4" y2="105.4"/>
		<line id="gge3000" class="st9" x1="311" y1="86.5" x2="301.6" y2="105.4"/>
		<line id="gge3001" class="st9" x1="320.4" y1="105.4" x2="311" y2="86.5"/>
		<g id="gge3002">
			<circle class="st8" cx="335.6" cy="96" r="3.8"/>
			<path class="st9" d="M335.6,96h-9.4"/>
			<text transform="matrix(1 0 0 1 310.1494 95.986)" class="st10 st1 st6">2</text>
			<text transform="matrix(1 0 0 1 333.666 88.4308)" class="st10 st1 st6">2</text>
			<circle class="st11" cx="331.8" cy="96" r="5.7"/>
			<path class="st12" d="M326.1,90.3l-5.7,5.7l5.7,5.7"/>
		</g>
		<line id="gge3009" class="st9" x1="284.6" y1="105.4" x2="275.1" y2="86.5"/>
		<line id="gge3010" class="st9" x1="301.6" y1="105.4" x2="294" y2="86.5"/>
		<line id="gge3011" class="st9" x1="294" y1="86.5" x2="284.6" y2="105.4"/>
		<line id="gge3012" class="st9" x1="275.1" y1="86.5" x2="269.4" y2="96"/>
		<g id="gge3013">
			<circle class="st8" cx="260" cy="96" r="3.8"/>
			<path class="st9" d="M260,96h9.4"/>
			<text transform="matrix(1 0 0 1 277 95.986)" class="st10 st1 st6">1</text>
			<text transform="matrix(1 0 0 1 253.4824 88.4308)" class="st10 st1 st6">1</text>
			<circle class="st11" cx="263.8" cy="96" r="5.7"/>
			<path class="st12" d="M269.4,101.7l5.7-5.7l-5.7-5.7"/>
		</g>
	</g>
	<g id="gge3021">
		<g id="gge3023" class="st3">
			<text transform="matrix(1 0 0 1 244.8887 185.5011)" class="st4 st5 st6">1k</text>
		</g>
		<g id="gge3025" class="st3">
			<text transform="matrix(1 0 0 1 244.8887 168.3117)" class="st4 st5 st6">R51</text>
		</g>
		<line id="gge3027" class="st9" x1="231.7" y1="133.8" x2="241.1" y2="139.4"/>
		<line id="gge3028" class="st9" x1="222.2" y1="148.9" x2="241.1" y2="158.3"/>
		<line id="gge3029" class="st9" x1="241.1" y1="139.4" x2="222.2" y2="148.9"/>
		<g id="gge3030">
			<circle class="st8" cx="231.7" cy="124.3" r="3.8"/>
			<path class="st9" d="M231.7,124.3v9.4"/>
			<text transform="matrix(-1.836970e-16 -1 1 -1.836970e-16 231.666 149.7277)" class="st10 st1 st6">2</text>
			<text transform="matrix(-1.836970e-16 -1 1 -1.836970e-16 224.1113 126.2101)" class="st10 st1 st6">2</text>
			<circle class="st11" cx="231.7" cy="128.1" r="5.7"/>
			<path class="st12" d="M226,133.8l5.7,5.7l5.7-5.7"/>
		</g>
		<line id="gge3037" class="st9" x1="241.1" y1="175.3" x2="222.2" y2="184.8"/>
		<line id="gge3038" class="st9" x1="241.1" y1="158.3" x2="222.2" y2="165.9"/>
		<line id="gge3039" class="st9" x1="222.2" y1="165.9" x2="241.1" y2="175.3"/>
		<line id="gge3040" class="st9" x1="222.2" y1="184.8" x2="231.7" y2="190.4"/>
		<g id="gge3041">
			<circle class="st8" cx="231.7" cy="199.9" r="3.8"/>
			<path class="st9" d="M231.7,199.9v-9.4"/>
			<text transform="matrix(-1.836970e-16 -1 1 -1.836970e-16 231.666 182.8761)" class="st10 st1 st6">1</text>
			<text transform="matrix(-1.836970e-16 -1 1 -1.836970e-16 224.1113 206.3937)" class="st10 st1 st6">1</text>
			<circle class="st11" cx="231.7" cy="196.1" r="5.7"/>
			<path class="st12" d="M237.3,190.4l-5.7-5.7l-5.7,5.7"/>
		</g>
	</g>
	<g id="gge3049">
		<g id="gge3051" class="st3">
			<text transform="matrix(1 0 0 1 377.1113 185.5011)" class="st4 st5 st6">1k</text>
		</g>
		<g id="gge3053" class="st3">
			<text transform="matrix(1 0 0 1 377.1113 168.3117)" class="st4 st5 st6">R52</text>
		</g>
		<line id="gge3055" class="st9" x1="363.9" y1="133.8" x2="373.3" y2="139.4"/>
		<line id="gge3056" class="st9" x1="354.4" y1="148.9" x2="373.3" y2="158.3"/>
		<line id="gge3057" class="st9" x1="373.3" y1="139.4" x2="354.4" y2="148.9"/>
		<g id="gge3058">
			<circle class="st8" cx="363.9" cy="124.3" r="3.8"/>
			<path class="st9" d="M363.9,124.3v9.4"/>
			<text transform="matrix(-1.836970e-16 -1 1 -1.836970e-16 363.8887 149.7277)" class="st10 st1 st6">2</text>
			<text transform="matrix(-1.836970e-16 -1 1 -1.836970e-16 356.333 126.2101)" class="st10 st1 st6">2</text>
			<circle class="st11" cx="363.9" cy="128.1" r="5.7"/>
			<path class="st12" d="M358.2,133.8l5.7,5.7l5.7-5.7"/>
		</g>
		<line id="gge3065" class="st9" x1="373.3" y1="175.3" x2="354.4" y2="184.8"/>
		<line id="gge3066" class="st9" x1="373.3" y1="158.3" x2="354.4" y2="165.9"/>
		<line id="gge3067" class="st9" x1="354.4" y1="165.9" x2="373.3" y2="175.3"/>
		<line id="gge3068" class="st9" x1="354.4" y1="184.8" x2="363.9" y2="190.4"/>
		<g id="gge3069">
			<circle class="st8" cx="363.9" cy="199.9" r="3.8"/>
			<path class="st9" d="M363.9,199.9v-9.4"/>
			<text transform="matrix(-1.836970e-16 -1 1 -1.836970e-16 363.8887 182.8761)" class="st10 st1 st6">1</text>
			<text transform="matrix(-1.836970e-16 -1 1 -1.836970e-16 356.333 206.3937)" class="st10 st1 st6">1</text>
			<circle class="st11" cx="363.9" cy="196.1" r="5.7"/>
			<path class="st12" d="M369.6,190.4l-5.7-5.7l-5.7,5.7"/>
		</g>
	</g>
	<polyline id="gge3076" class="st9" points="231.7,199.9 231.7,228.2 99.4,228.2 99.4,199.9 	"/>
	<polyline id="gge3077" class="st9" points="127.8,96 99.4,96 99.4,124.3 	"/>
	<line id="gge3078" class="st9" x1="203.3" y1="96" x2="260" y2="96"/>
	<line id="gge3079" class="st9" x1="231.7" y1="124.3" x2="231.7" y2="96"/>
	<polyline id="gge3081" class="st9" points="335.6,96 363.9,96 363.9,124.3 	"/>
	<polyline id="gge3082" class="st9" points="363.9,199.9 363.9,228.2 231.7,228.2 	"/>
	<polyline id="gge3084" class="st9" points="193.9,275.4 33.3,275.4 33.3,96 99.4,96 	"/>
	<polyline id="gge3086" class="st9" points="269.4,275.4 401.7,275.4 401.7,96 363.9,96 	"/>
	<g id="gge3100">
		<text transform="matrix(1 0 0 1 146.666 77.0973)" class="st13 st2">3k立</text>
	</g>
	<g id="gge3103">
		<text transform="matrix(1 0 0 1 278.8887 77.0973)" class="st13 st2">3k立</text>
	</g>
	<g id="gge3106">
		<text transform="matrix(1 0 0 1 184.4438 171.5416)" class="st13 st2">3k立</text>
	</g>
	<g id="gge3109">
		<text transform="matrix(1 0 0 1 316.666 171.5416)" class="st13 st2">6k立</text>
	</g>
	<line id="gge3111" class="st9" x1="231.7" y1="39.3" x2="231.7" y2="96"/>
	<line id="gge3113" class="st9" x1="363.9" y1="39.3" x2="363.9" y2="96"/>
	<g id="gge3121">
		<text transform="matrix(1 0 0 1 363.8887 39.3195)" class="st1 st14">+</text>
	</g>
	<g id="gge3124">
		<text transform="matrix(1 0 0 1 222.2217 39.3195)" class="st1 st14">-</text>
	</g>
	<line id="gge3126" class="st9" x1="354.4" y1="39.3" x2="241.1" y2="39.3"/>
	<g id="gge3128">
		<text transform="matrix(1 0 0 1 222.2217 313.2082)" class="st15 st1 st2">Io</text>
	</g>
	<g id="gge3131">
		<text transform="matrix(1 0 0 1 42.7773 171.5416)" class="st1 st2">24V</text>
	</g>
	<g id="gge3087">
		<circle class="st8" cx="363.9" cy="96" r="3.8"/>
		<circle cx="363.9" cy="96" r="4.7"/>
	</g>
	<g id="gge3083">
		<circle class="st8" cx="231.7" cy="228.2" r="3.8"/>
		<circle cx="231.7" cy="228.2" r="4.7"/>
	</g>
	<g id="gge3080">
		<circle class="st8" cx="231.7" cy="96" r="3.8"/>
		<circle cx="231.7" cy="96" r="4.7"/>
	</g>
	<g id="gge3085">
		<circle class="st8" cx="99.4" cy="96" r="3.8"/>
		<circle cx="99.4" cy="96" r="4.7"/>
	</g>
	<g id="rep2">
		<path d="M241.1,39.3l3.8,7.6l-9.4-7.6l9.4-7.6L241.1,39.3z"/>
	</g>
	<g id="gge3137">
		<path d="M354.4,39.3l-3.8-7.6l9.4,7.6l-9.4,7.6L354.4,39.3z"/>
	</g>
</g>
<g>
	<g id="ni34a4_1_">
		
			<image style="overflow:visible;" width="1200" height="423" id="ni34a4_00000114052095137766275830000010247063283131300264_" xlink:href="993DA466B399DA78.png"  transform="matrix(3.635557e-02 0 0 3.635557e-02 356.6855 335.8279)">
		</image>
	</g>
	<g>
		<text transform="matrix(1 0 0 1 356.4932 359.1695)" class="st16 st17">UBC Engineering</text>
	</g>
</g>
</svg>
