<?xml version="1.0" encoding="utf-8"?>
<!-- Generator: Adobe Illustrator 26.3.1, SVG Export Plug-In . SVG Version: 6.00 Build 0)  -->
<svg version="1.1" id="Layer_1" xmlns="http://www.w3.org/2000/svg" xmlns:xlink="http://www.w3.org/1999/xlink" x="0px" y="0px"
	 viewBox="0 0 575.1 366" style="enable-background:new 0 0 575.1 366;" xml:space="preserve">
<style type="text/css">
	.st0{display:none;}
	.st1{display:inline;}
	.st2{font-family:'ArialMT';}
	.st3{font-size:19.9182px;}
	.st4{fill:none;stroke:#000000;stroke-width:2.8455;}
	.st5{fill:none;}
	.st6{fill:none;stroke:#000000;stroke-width:2.8455;stroke-linecap:round;stroke-linejoin:round;}
	.st7{display:none;enable-background:new    ;}
	.st8{font-family:'Verdana';}
	.st9{display:none;fill:none;stroke:#000000;stroke-width:2.8455;}
	.st10{display:none;fill:none;stroke:#000000;stroke-width:2.8455;stroke-linecap:round;stroke-linejoin:round;}
	.st11{font-size:18.4955px;}
	.st12{fill:#0066CC;}
	.st13{font-size:25.6091px;}
	.st14{fill:#FF3366;}
	.st15{font-family:'Folio-Medium';}
	.st16{font-size:5.504px;}
</style>
<g id="g1">
	<g id="gge912">
		<g id="gge914" class="st0">
			<text transform="matrix(1 0 0 1 371.4142 47.0082)" class="st1 st2 st3">SIN(0 1 50) AC 1 0</text>
		</g>
		<g id="gge916" class="st0">
			<text transform="matrix(1 0 0 1 371.4142 21.0863)" class="st1 st2 st3">V1</text>
		</g>
		<ellipse id="gge918" class="st4" cx="387.7" cy="84" rx="28.5" ry="28.5"/>
		<g id="gge919">
			<circle class="st5" cx="444.6" cy="84" r="5.7"/>
			<path class="st6" d="M416.1,84h28.5"/>
			<text transform="matrix(1 0 0 1 397.7628 83.9994)" class="st7 st8 st3">1</text>
			<text transform="matrix(1 0 0 1 427.4982 72.6175)" class="st7 st8 st3">1</text>
			<circle class="st9" cx="481.6" cy="84" r="8.5"/>
			<path class="st10" d="M473,75.5l-8.5,8.5l8.5,8.5"/>
		</g>
		<line id="gge926" class="st6" x1="404.7" y1="78.3" x2="404.7" y2="89.7"/>
		<line id="gge927" class="st6" x1="410.4" y1="84" x2="399" y2="84"/>
		<g id="gge928">
			<circle class="st5" cx="330.8" cy="84" r="5.7"/>
			<path class="st6" d="M359.2,84h-28.5"/>
			<text transform="matrix(1 0 0 1 370.589 83.9994)" class="st7 st8 st3">2</text>
			<text transform="matrix(1 0 0 1 335.1623 72.6175)" class="st7 st8 st3">2</text>
			<circle class="st9" cx="293.8" cy="84" r="8.5"/>
			<path class="st10" d="M302.3,92.5l8.5-8.5l-8.5-8.5"/>
		</g>
		<line id="gge935" class="st6" x1="370.6" y1="89.7" x2="370.6" y2="78.3"/>
	</g>
	<g id="gge937">
		<g id="gge939" class="st0">
			<text transform="matrix(1 0 0 1 507.1711 218.7884)" class="st1 st2 st3">1k</text>
		</g>
		<g id="gge941" class="st0">
			<text transform="matrix(1 0 0 1 507.1711 192.5531)" class="st1 st2 st3">R3</text>
		</g>
		<line id="gge943" class="st6" x1="487.3" y1="140.9" x2="501.5" y2="149.4"/>
		<line id="gge944" class="st6" x1="473" y1="163.7" x2="501.5" y2="177.9"/>
		<line id="gge945" class="st6" x1="501.5" y1="149.4" x2="473" y2="163.7"/>
		<g id="gge946">
			<circle class="st5" cx="487.3" cy="126.7" r="5.7"/>
			<path class="st6" d="M487.3,126.7v14.2"/>
			<text transform="matrix(-1.836970e-16 -1 1 -1.836970e-16 487.2521 164.9535)" class="st7 st8 st3">2</text>
			<text transform="matrix(-1.836970e-16 -1 1 -1.836970e-16 475.8703 129.5277)" class="st7 st8 st3">2</text>
			<circle class="st9" cx="487.3" cy="132.4" r="8.5"/>
			<path class="st10" d="M478.7,140.9l8.5,8.5l8.5-8.5"/>
		</g>
		<line id="gge953" class="st6" x1="501.5" y1="203.5" x2="473" y2="217.7"/>
		<line id="gge954" class="st6" x1="501.5" y1="177.9" x2="473" y2="189.3"/>
		<line id="gge955" class="st6" x1="473" y1="189.3" x2="501.5" y2="203.5"/>
		<line id="gge956" class="st6" x1="473" y1="217.7" x2="487.3" y2="226.3"/>
		<g id="gge957">
			<circle class="st5" cx="487.3" cy="240.5" r="5.7"/>
			<path class="st6" d="M487.3,240.5v-14.2"/>
			<text transform="matrix(-1.836970e-16 -1 1 -1.836970e-16 487.2521 214.891)" class="st7 st8 st3">1</text>
			<text transform="matrix(-1.836970e-16 -1 1 -1.836970e-16 475.8703 250.3187)" class="st7 st8 st3">1</text>
			<circle class="st9" cx="487.3" cy="234.8" r="8.5"/>
			<path class="st10" d="M495.8,226.3l-8.5-8.5l-8.5,8.5"/>
		</g>
	</g>
	<g id="gge971">
		<g id="gge973" class="st0">
			<text transform="matrix(1 0 0 1 322.216 218.8451)" class="st1 st2 st3">SIN(0 1 50)</text>
		</g>
		<g id="gge975" class="st0">
			<text transform="matrix(1 0 0 1 322.216 192.9515)" class="st1 st2 st3">I1</text>
		</g>
		<ellipse id="gge977" class="st4" cx="288.1" cy="183.6" rx="28.5" ry="28.5"/>
		<g id="gge978">
			<circle class="st5" cx="288.1" cy="240.5" r="5.7"/>
			<path class="st6" d="M288.1,212v28.5"/>
			<text transform="matrix(-1.836970e-16 -1 1 -1.836970e-16 288.0705 200.6644)" class="st7 st8 st3">2</text>
			<text transform="matrix(-1.836970e-16 -1 1 -1.836970e-16 276.6886 236.0902)" class="st7 st8 st3">2</text>
			<circle class="st9" cx="288.1" cy="277.5" r="8.5"/>
			<path class="st10" d="M296.6,269l-8.5-8.5l-8.5,8.5"/>
		</g>
		<line id="gge985" class="st6" x1="288.1" y1="206.4" x2="282.4" y2="200.7"/>
		<line id="gge986" class="st6" x1="288.1" y1="206.4" x2="293.8" y2="200.7"/>
		<g id="gge987">
			<circle class="st5" cx="288.1" cy="126.7" r="5.7"/>
			<path class="st6" d="M288.1,155.1v-28.5"/>
			<text transform="matrix(-1.836970e-16 -1 1 -1.836970e-16 288.0705 173.4906)" class="st7 st8 st3">1</text>
			<text transform="matrix(-1.836970e-16 -1 1 -1.836970e-16 276.6886 143.7543)" class="st7 st8 st3">1</text>
			<circle class="st9" cx="288.1" cy="89.7" r="8.5"/>
			<path class="st10" d="M279.5,98.2l8.5,8.5l8.5-8.5"/>
		</g>
		<line id="gge994" class="st6" x1="288.1" y1="206.4" x2="288.1" y2="160.8"/>
	</g>
	<g id="gge996">
		<g id="gge998" class="st0">
			<text transform="matrix(1 0 0 1 171.5206 61.2357)" class="st1 st2 st3">1k</text>
		</g>
		<g id="gge1000" class="st0">
			<text transform="matrix(1 0 0 1 171.5206 35.3138)" class="st1 st2 st3">R4</text>
		</g>
		<line id="gge1002" class="st6" x1="145.8" y1="84" x2="154.3" y2="69.8"/>
		<line id="gge1003" class="st6" x1="168.6" y1="98.2" x2="182.8" y2="69.8"/>
		<line id="gge1004" class="st6" x1="154.3" y1="69.8" x2="168.6" y2="98.2"/>
		<g id="gge1005">
			<circle class="st5" cx="131.6" cy="84" r="5.7"/>
			<path class="st6" d="M131.6,84h14.2"/>
			<text transform="matrix(1 0 0 1 157.1798 83.9994)" class="st7 st8 st3">2</text>
			<text transform="matrix(1 0 0 1 121.7531 72.6175)" class="st7 st8 st3">2</text>
			<circle class="st9" cx="137.3" cy="84" r="8.5"/>
			<path class="st10" d="M145.8,92.5l8.5-8.5l-8.5-8.5"/>
		</g>
		<line id="gge1012" class="st6" x1="208.4" y1="69.8" x2="222.6" y2="98.2"/>
		<line id="gge1013" class="st6" x1="182.8" y1="69.8" x2="194.2" y2="98.2"/>
		<line id="gge1014" class="st6" x1="194.2" y1="98.2" x2="208.4" y2="69.8"/>
		<line id="gge1015" class="st6" x1="222.6" y1="98.2" x2="231.2" y2="84"/>
		<g id="gge1016">
			<circle class="st5" cx="245.4" cy="84" r="5.7"/>
			<path class="st6" d="M245.4,84h-14.2"/>
			<text transform="matrix(1 0 0 1 207.1173 83.9994)" class="st7 st8 st3">1</text>
			<text transform="matrix(1 0 0 1 242.5431 72.6175)" class="st7 st8 st3">1</text>
			<circle class="st9" cx="239.7" cy="84" r="8.5"/>
			<path class="st10" d="M231.2,75.5l-8.5,8.5l8.5,8.5"/>
		</g>
	</g>
	<g id="gge1024">
		<g id="gge1026" class="st0">
			<text transform="matrix(1 0 0 1 108.8068 218.8451)" class="st1 st2 st3">1k</text>
		</g>
		<g id="gge1028" class="st0">
			<text transform="matrix(1 0 0 1 108.8068 192.9515)" class="st1 st2 st3">R6</text>
		</g>
		<line id="gge1030" class="st6" x1="88.9" y1="226.3" x2="74.7" y2="217.7"/>
		<line id="gge1031" class="st6" x1="103.1" y1="203.5" x2="74.7" y2="189.3"/>
		<line id="gge1032" class="st6" x1="74.7" y1="217.7" x2="103.1" y2="203.5"/>
		<g id="gge1033">
			<circle class="st5" cx="88.9" cy="240.5" r="5.7"/>
			<path class="st6" d="M88.9,240.5v-14.2"/>
			<text transform="matrix(-1.836970e-16 -1 1 -1.836970e-16 88.8888 214.891)" class="st7 st8 st3">2</text>
			<text transform="matrix(-1.836970e-16 -1 1 -1.836970e-16 77.507 250.3187)" class="st7 st8 st3">2</text>
			<circle class="st9" cx="88.9" cy="234.8" r="8.5"/>
			<path class="st10" d="M97.4,226.3l-8.5-8.5l-8.5,8.5"/>
		</g>
		<line id="gge1040" class="st6" x1="74.7" y1="163.7" x2="103.1" y2="149.4"/>
		<line id="gge1041" class="st6" x1="74.7" y1="189.3" x2="103.1" y2="177.9"/>
		<line id="gge1042" class="st6" x1="103.1" y1="177.9" x2="74.7" y2="163.7"/>
		<line id="gge1043" class="st6" x1="103.1" y1="149.4" x2="88.9" y2="140.9"/>
		<g id="gge1044">
			<circle class="st5" cx="88.9" cy="126.7" r="5.7"/>
			<path class="st6" d="M88.9,126.7v14.2"/>
			<text transform="matrix(-1.836970e-16 -1 1 -1.836970e-16 88.8888 164.9535)" class="st7 st8 st3">1</text>
			<text transform="matrix(-1.836970e-16 -1 1 -1.836970e-16 77.507 129.5277)" class="st7 st8 st3">1</text>
			<circle class="st9" cx="88.9" cy="132.4" r="8.5"/>
			<path class="st10" d="M80.4,140.9l8.5,8.5l8.5-8.5"/>
		</g>
	</g>
	<polyline id="gge1051" class="st6" points="88.9,240.5 88.9,283.2 487.3,283.2 487.3,240.5 	"/>
	<polyline id="gge1052" class="st6" points="487.3,126.7 487.3,84 444.6,84 	"/>
	<line id="gge1053" class="st6" x1="330.8" y1="84" x2="245.4" y2="84"/>
	<polyline id="gge1054" class="st6" points="131.6,84 88.9,84 88.9,126.7 	"/>
	<line id="gge1055" class="st6" x1="288.1" y1="126.7" x2="288.1" y2="84"/>
	<line id="gge1057" class="st6" x1="288.1" y1="240.5" x2="288.1" y2="283.2"/>
	<g id="gge1073">
		<text transform="matrix(1 0 0 1 60.4347 140.9086)" class="st8 st11">-</text>
	</g>
	<g id="gge1076">
		<text transform="matrix(1 0 0 1 188.4796 197.8177)" class="st12 st8 st13">IS2</text>
	</g>
	<g id="gge1079">
		<text transform="matrix(1 0 0 1 117.3439 331.8666)" class="st12 st8 st13">Ia</text>
	</g>
	<g id="gge1082">
		<text transform="matrix(1 0 0 1 501.4796 112.4535)" class="st12 st8 st13">Ib</text>
	</g>
	<g id="gge1085">
		<text transform="matrix(1 0 0 1 344.9796 41.3177)" class="st14 st8 st13">VS1</text>
	</g>
	<g id="gge1088">
		<text transform="matrix(1 0 0 1 160.0255 55.5443)" class="st12 st8 st13">V2</text>
	</g>
	<g id="gge1091">
		<text transform="matrix(1 0 0 1 17.7531 197.8177)" class="st12 st8 st13">V1</text>
	</g>
	<g id="gge1094">
		<text transform="matrix(1 0 0 1 515.7072 197.8177)" class="st12 st8 st13">V3</text>
	</g>
	<g id="gge1097">
		<text transform="matrix(1 0 0 1 330.7531 197.8177)" class="st12 st8 st13">VS2</text>
	</g>
	<g id="gge1100">
		<text transform="matrix(1 0 0 1 316.5255 155.1351)" class="st8 st11">-</text>
	</g>
	<g id="gge1103">
		<text transform="matrix(1 0 0 1 316.5255 226.2718)" class="st8 st11">+</text>
	</g>
	<g id="gge1106">
		<text transform="matrix(1 0 0 1 501.4796 140.9086)" class="st8 st11">-</text>
	</g>
	<g id="gge1109">
		<text transform="matrix(1 0 0 1 501.4796 240.4994)" class="st8 st11">+</text>
	</g>
	<g id="gge1112">
		<text transform="matrix(1 0 0 1 60.4347 254.7259)" class="st8 st11">+</text>
	</g>
	<g id="gge1115">
		<text transform="matrix(1 0 0 1 117.3439 69.7718)" class="st8 st11">+</text>
	</g>
	<g id="gge1118">
		<text transform="matrix(1 0 0 1 231.1622 69.7718)" class="st8 st11">-</text>
	</g>
	<g id="gge1058">
		<circle class="st5" cx="288.1" cy="283.2" r="5.7"/>
		<circle cx="288.1" cy="283.2" r="7.1"/>
	</g>
	<g id="gge1056">
		<circle class="st5" cx="288.1" cy="84" r="5.7"/>
		<circle cx="288.1" cy="84" r="7.1"/>
	</g>
	<g id="gge1060">
		<path d="M117.3,283.2l5.7,11.4l-14.2-11.4l14.2-11.4L117.3,283.2z"/>
	</g>
	<g id="gge1069">
		<path d="M487.3,98.2l-11.4,5.7l11.4-14.2l11.4,14.2L487.3,98.2z"/>
	</g>
</g>
<g>
	<g id="ni34a4_1_">
		
			<image style="overflow:visible;" width="1200" height="423" id="ni34a4_00000114052095137766275830000010247063283131300264_" xlink:href="9F74ACCC102E145F.png"  transform="matrix(3.635557e-02 0 0 3.635557e-02 508.257 330.6412)">
		</image>
	</g>
	<g>
		<text transform="matrix(1 0 0 1 508.0646 353.9828)" class="st15 st16">UBC Engineering</text>
	</g>
</g>
</svg>
