<?xml version="1.0" encoding="utf-8"?>
<!-- Generator: Adobe Illustrator 26.3.1, SVG Export Plug-In . SVG Version: 6.00 Build 0)  -->
<svg version="1.1" id="Layer_1" xmlns="http://www.w3.org/2000/svg" xmlns:xlink="http://www.w3.org/1999/xlink" x="0px" y="0px"
	 viewBox="0 0 627.5 283" style="enable-background:new 0 0 627.5 283;" xml:space="preserve">
<style type="text/css">
	.st0{font-family:'Helvetica';}
	.st1{font-size:18.1471px;}
	.st2{display:none;}
	.st3{display:inline;}
	.st4{font-family:'ArialMT';}
	.st5{font-size:16.9373px;}
	.st6{fill:none;stroke:#000000;stroke-width:2.4196;}
	.st7{fill:none;}
	.st8{fill:none;stroke:#000000;stroke-width:2.4196;stroke-linecap:round;stroke-linejoin:round;}
	.st9{display:none;enable-background:new    ;}
	.st10{font-family:'Verdana';}
	.st11{display:none;fill:none;stroke:#000000;stroke-width:2.4196;}
	.st12{display:none;fill:none;stroke:#000000;stroke-width:2.4196;stroke-linecap:round;stroke-linejoin:round;}
	.st13{fill:#0066CC;}
	.st14{fill:#FF3366;}
	.st15{font-family:'Folio-Medium';}
	.st16{font-size:5.504px;}
</style>
<g id="g1">
	<g id="gge3988">
		<text transform="matrix(1 0 0 1 538.5753 152.9551)" class="st0 st1">2mA</text>
	</g>
	<g id="gge4036">
		<g id="gge4038" class="st2">
			<text transform="matrix(1 0 0 1 531.3165 172.6504)" class="st3 st4 st5">SIN(0 1 50)</text>
		</g>
		<g id="gge4040" class="st2">
			<text transform="matrix(1 0 0 1 531.3165 150.4863)" class="st3 st4 st5">I8</text>
		</g>
		<ellipse id="gge4042" class="st6" cx="502.3" cy="142.6" rx="24.2" ry="24.2"/>
		<g id="gge4043">
			<circle class="st7" cx="502.3" cy="94.3" r="4.8"/>
			<path class="st8" d="M502.3,118.5V94.3"/>
			<text transform="matrix(-1.836970e-16 -1 1 -1.836970e-16 502.2804 138.8965)" class="st9 st10 st5">2</text>
			<text transform="matrix(-1.836970e-16 -1 1 -1.836970e-16 492.6027 108.7715)" class="st9 st10 st5">2</text>
			<circle class="st11" cx="502.3" cy="62.8" r="7.3"/>
			<path class="st12" d="M495,70.1l7.3,7.3l7.3-7.3"/>
		</g>
		<line id="gge4050" class="st8" x1="502.3" y1="123.3" x2="507.1" y2="128.1"/>
		<line id="gge4051" class="st8" x1="502.3" y1="123.3" x2="497.4" y2="128.1"/>
		<g id="gge4052">
			<circle class="st7" cx="502.3" cy="191" r="4.8"/>
			<path class="st8" d="M502.3,166.8V191"/>
			<text transform="matrix(-1.836970e-16 -1 1 -1.836970e-16 502.2804 162.0039)" class="st9 st10 st5">1</text>
			<text transform="matrix(-1.836970e-16 -1 1 -1.836970e-16 492.6027 187.2891)" class="st9 st10 st5">1</text>
			<circle class="st11" cx="502.3" cy="222.5" r="7.3"/>
			<path class="st12" d="M509.5,215.2l-7.3-7.3l-7.3,7.3"/>
		</g>
		<line id="gge4059" class="st8" x1="502.3" y1="123.3" x2="502.3" y2="162"/>
	</g>
	<g id="gge4061">
		<g id="gge4063" class="st2">
			<text transform="matrix(1 0 0 1 132.0812 172.6504)" class="st3 st4 st5">SIN(0 1 50) AC 1 0</text>
		</g>
		<g id="gge4065" class="st2">
			<text transform="matrix(1 0 0 1 132.0812 150.4863)" class="st3 st4 st5">V10</text>
		</g>
		<ellipse id="gge4067" class="st6" cx="103" cy="142.6" rx="24.2" ry="24.2"/>
		<g id="gge4068">
			<circle class="st7" cx="103" cy="94.3" r="4.8"/>
			<path class="st8" d="M103,118.5V94.3"/>
			<text transform="matrix(-1.836970e-16 -1 1 -1.836970e-16 103.0451 134.0566)" class="st9 st10 st5">1</text>
			<text transform="matrix(-1.836970e-16 -1 1 -1.836970e-16 93.3673 108.7715)" class="st9 st10 st5">1</text>
			<circle class="st11" cx="103" cy="62.8" r="7.3"/>
			<path class="st12" d="M95.8,70.1l7.3,7.3l7.3-7.3"/>
		</g>
		<line id="gge4075" class="st8" x1="98.2" y1="128.1" x2="107.9" y2="128.1"/>
		<line id="gge4076" class="st8" x1="103" y1="123.3" x2="103" y2="133"/>
		<g id="gge4077">
			<circle class="st7" cx="103" cy="191" r="4.8"/>
			<path class="st8" d="M103,166.8V191"/>
			<text transform="matrix(-1.836970e-16 -1 1 -1.836970e-16 103.0451 157.1641)" class="st9 st10 st5">2</text>
			<text transform="matrix(-1.836970e-16 -1 1 -1.836970e-16 93.3673 187.2891)" class="st9 st10 st5">2</text>
			<circle class="st11" cx="103" cy="222.5" r="7.3"/>
			<path class="st12" d="M110.3,215.2L103,208l-7.3,7.3"/>
		</g>
		<line id="gge4084" class="st8" x1="107.9" y1="157.2" x2="98.2" y2="157.2"/>
	</g>
	<g id="gge4086">
		<text transform="matrix(1 0 0 1 42.5558 155.2051)" class="st13 st10 st1">Vs</text>
	</g>
	<g id="gge4089">
		<text transform="matrix(1 0 0 1 163.5363 33.7646)" class="st0 st1">6kΩ</text>
	</g>
	<g id="gge4092">
		<g id="gge4094" class="st2">
			<text transform="matrix(1 0 0 1 167.0197 38.6045)" class="st3 st4 st5">1k</text>
		</g>
		<g id="gge4096" class="st2">
			<text transform="matrix(1 0 0 1 167.0197 16.4404)" class="st3 st4 st5">R63</text>
		</g>
		<line id="gge4098" class="st8" x1="151.4" y1="58" x2="158.7" y2="45.9"/>
		<line id="gge4099" class="st8" x1="170.8" y1="70.1" x2="182.9" y2="45.9"/>
		<line id="gge4100" class="st8" x1="158.7" y1="45.9" x2="170.8" y2="70.1"/>
		<g id="gge4101">
			<circle class="st7" cx="139.3" cy="58" r="4.8"/>
			<path class="st8" d="M139.3,58h12.1"/>
			<text transform="matrix(1 0 0 1 161.1163 57.9609)" class="st9 st10 st5">2</text>
			<text transform="matrix(1 0 0 1 130.9913 48.2822)" class="st9 st10 st5">2</text>
			<circle class="st11" cx="144.2" cy="58" r="7.3"/>
			<path class="st12" d="M151.4,65.2l7.3-7.3l-7.3-7.3"/>
		</g>
		<line id="gge4108" class="st8" x1="204.7" y1="45.9" x2="216.8" y2="70.1"/>
		<line id="gge4109" class="st8" x1="182.9" y1="45.9" x2="192.6" y2="70.1"/>
		<line id="gge4110" class="st8" x1="192.6" y1="70.1" x2="204.7" y2="45.9"/>
		<line id="gge4111" class="st8" x1="216.8" y1="70.1" x2="224" y2="58"/>
		<g id="gge4112">
			<circle class="st7" cx="236.1" cy="58" r="4.8"/>
			<path class="st8" d="M236.1,58H224"/>
			<text transform="matrix(1 0 0 1 203.5802 57.9609)" class="st9 st10 st5">1</text>
			<text transform="matrix(1 0 0 1 233.7042 48.2822)" class="st9 st10 st5">1</text>
			<circle class="st11" cx="231.3" cy="58" r="7.3"/>
			<path class="st12" d="M224,50.7l-7.3,7.3l7.3,7.3"/>
		</g>
	</g>
	<g id="gge4120">
		<g id="gge4122" class="st2">
			<text transform="matrix(1 0 0 1 289.3556 172.6504)" class="st3 st4 st5">1k</text>
		</g>
		<g id="gge4124" class="st2">
			<text transform="matrix(1 0 0 1 289.3556 150.4863)" class="st3 st4 st5">R68</text>
		</g>
		<line id="gge4126" class="st8" x1="272.4" y1="178.9" x2="260.3" y2="171.7"/>
		<line id="gge4127" class="st8" x1="284.5" y1="159.6" x2="260.3" y2="147.5"/>
		<line id="gge4128" class="st8" x1="260.3" y1="171.7" x2="284.5" y2="159.6"/>
		<g id="gge4129">
			<circle class="st7" cx="272.4" cy="191" r="4.8"/>
			<path class="st8" d="M272.4,191v-12.1"/>
			<text transform="matrix(-1.836970e-16 -1 1 -1.836970e-16 272.4181 169.2617)" class="st9 st10 st5">2</text>
			<text transform="matrix(-1.836970e-16 -1 1 -1.836970e-16 262.7394 199.3867)" class="st9 st10 st5">2</text>
			<circle class="st11" cx="272.4" cy="186.2" r="7.3"/>
			<path class="st12" d="M279.7,178.9l-7.3-7.3l-7.3,7.3"/>
		</g>
		<line id="gge4136" class="st8" x1="260.3" y1="125.7" x2="284.5" y2="113.6"/>
		<line id="gge4137" class="st8" x1="260.3" y1="147.5" x2="284.5" y2="137.8"/>
		<line id="gge4138" class="st8" x1="284.5" y1="137.8" x2="260.3" y2="125.7"/>
		<line id="gge4139" class="st8" x1="284.5" y1="113.6" x2="272.4" y2="106.4"/>
		<g id="gge4140">
			<circle class="st7" cx="272.4" cy="94.3" r="4.8"/>
			<path class="st8" d="M272.4,94.3v12.1"/>
			<text transform="matrix(-1.836970e-16 -1 1 -1.836970e-16 272.4181 126.7988)" class="st9 st10 st5">1</text>
			<text transform="matrix(-1.836970e-16 -1 1 -1.836970e-16 262.7394 96.6738)" class="st9 st10 st5">1</text>
			<circle class="st11" cx="272.4" cy="99.1" r="7.3"/>
			<path class="st12" d="M265.2,106.4l7.3,7.3l7.3-7.3"/>
		</g>
	</g>
	<g id="gge4148">
		<g id="gge4150" class="st2">
			<text transform="matrix(1 0 0 1 410.3361 172.6504)" class="st3 st4 st5">1k</text>
		</g>
		<g id="gge4152" class="st2">
			<text transform="matrix(1 0 0 1 410.3361 150.4863)" class="st3 st4 st5">R69</text>
		</g>
		<line id="gge4154" class="st8" x1="393.4" y1="178.9" x2="381.3" y2="171.7"/>
		<line id="gge4155" class="st8" x1="405.5" y1="159.6" x2="381.3" y2="147.5"/>
		<line id="gge4156" class="st8" x1="381.3" y1="171.7" x2="405.5" y2="159.6"/>
		<g id="gge4157">
			<circle class="st7" cx="393.4" cy="191" r="4.8"/>
			<path class="st8" d="M393.4,191v-12.1"/>
			<text transform="matrix(-1.836970e-16 -1 1 -1.836970e-16 393.3986 169.2617)" class="st9 st10 st5">2</text>
			<text transform="matrix(-1.836970e-16 -1 1 -1.836970e-16 383.7198 199.3867)" class="st9 st10 st5">2</text>
			<circle class="st11" cx="393.4" cy="186.2" r="7.3"/>
			<path class="st12" d="M400.7,178.9l-7.3-7.3l-7.3,7.3"/>
		</g>
		<line id="gge4164" class="st8" x1="381.3" y1="125.7" x2="405.5" y2="113.6"/>
		<line id="gge4165" class="st8" x1="381.3" y1="147.5" x2="405.5" y2="137.8"/>
		<line id="gge4166" class="st8" x1="405.5" y1="137.8" x2="381.3" y2="125.7"/>
		<line id="gge4167" class="st8" x1="405.5" y1="113.6" x2="393.4" y2="106.4"/>
		<g id="gge4168">
			<circle class="st7" cx="393.4" cy="94.3" r="4.8"/>
			<path class="st8" d="M393.4,94.3v12.1"/>
			<text transform="matrix(-1.836970e-16 -1 1 -1.836970e-16 393.3986 126.7988)" class="st9 st10 st5">1</text>
			<text transform="matrix(-1.836970e-16 -1 1 -1.836970e-16 383.7198 96.6738)" class="st9 st10 st5">1</text>
			<circle class="st11" cx="393.4" cy="99.1" r="7.3"/>
			<path class="st12" d="M386.1,106.4l7.3,7.3l7.3-7.3"/>
		</g>
	</g>
	<g id="gge4176">
		<text transform="matrix(1 0 0 1 284.5157 154.7451)" class="st14 st0 st1">4kΩ</text>
	</g>
	<g id="gge4179">
		<text transform="matrix(1 0 0 1 405.4962 154.7451)" class="st0 st1">12kΩ</text>
	</g>
	<polyline id="gge4182" class="st8" points="103,191 103,227.3 502.3,227.3 502.3,191 	"/>
	<polyline id="gge4183" class="st8" points="502.3,94.3 502.3,58 236.1,58 	"/>
	<polyline id="gge4184" class="st8" points="139.3,58 103,58 103,94.3 	"/>
	<line id="gge4185" class="st8" x1="272.4" y1="94.3" x2="272.4" y2="58"/>
	<line id="gge4187" class="st8" x1="272.4" y1="191" x2="272.4" y2="227.3"/>
	<line id="gge4189" class="st8" x1="393.4" y1="191" x2="393.4" y2="227.3"/>
	<line id="gge4191" class="st8" x1="393.4" y1="94.3" x2="393.4" y2="58"/>
	<g id="gge4192">
		<circle class="st7" cx="393.4" cy="58" r="4.8"/>
		<circle cx="393.4" cy="58" r="6"/>
	</g>
	<g id="gge4188">
		<circle class="st7" cx="272.4" cy="227.3" r="4.8"/>
		<circle cx="272.4" cy="227.3" r="6"/>
	</g>
	<g id="gge4186">
		<circle class="st7" cx="272.4" cy="58" r="4.8"/>
		<circle cx="272.4" cy="58" r="6"/>
	</g>
	<g id="gge4190">
		<circle class="st7" cx="393.4" cy="227.3" r="4.8"/>
		<circle cx="393.4" cy="227.3" r="6"/>
	</g>
</g>
<g>
	<g id="ni34a4_1_">
		
			<image style="overflow:visible;" width="1200" height="423" id="ni34a4_00000114052095137766275830000010247063283131300264_" xlink:href="997026B30FEFD42E.png"  transform="matrix(3.635557e-02 0 0 3.635557e-02 544.9464 244.6412)">
		</image>
	</g>
	<g>
		<text transform="matrix(1 0 0 1 544.754 267.9828)" class="st15 st16">UBC Engineering</text>
	</g>
</g>
</svg>
