<?xml version="1.0" encoding="utf-8"?>
<!-- Generator: Adobe Illustrator 26.3.1, SVG Export Plug-In . SVG Version: 6.00 Build 0)  -->
<svg version="1.1" id="Layer_1" xmlns="http://www.w3.org/2000/svg" xmlns:xlink="http://www.w3.org/1999/xlink" x="0px" y="0px"
	 viewBox="0 0 552.7 360.5" style="enable-background:new 0 0 552.7 360.5;" xml:space="preserve">
<style type="text/css">
	.st0{fill:#0066CC;}
	.st1{font-family:'Verdana';}
	.st2{font-size:21.7048px;}
	.st3{display:none;}
	.st4{display:inline;}
	.st5{font-family:'ArialMT';}
	.st6{font-size:16.8815px;}
	.st7{fill:none;stroke:#000000;stroke-width:2.4116;stroke-linecap:round;stroke-linejoin:round;}
	.st8{fill:none;}
	.st9{display:none;enable-background:new    ;}
	.st10{display:none;fill:none;stroke:#000000;stroke-width:2.4116;}
	.st11{display:none;fill:none;stroke:#000000;stroke-width:2.4116;stroke-linecap:round;stroke-linejoin:round;}
	.st12{fill:#FF3366;}
	.st13{font-size:18.0873px;}
	.st14{font-family:'Folio-Medium';}
	.st15{font-size:5.504px;}
</style>
<g id="g1">
	<g id="gge1323">
		<text transform="matrix(1 0 0 1 336.6548 66.0963)" class="st0 st1 st2">R5</text>
	</g>
	<g id="gge1326">
		<g id="gge1328" class="st3">
			<text transform="matrix(1 0 0 1 418.7231 95.0358)" class="st4 st5 st6">1k</text>
		</g>
		<g id="gge1330" class="st3">
			<text transform="matrix(1 0 0 1 418.7231 72.8004)" class="st4 st5 st6">R7</text>
		</g>
		<line id="gge1332" class="st7" x1="469.3" y1="114.3" x2="462.1" y2="126.4"/>
		<line id="gge1333" class="st7" x1="450" y1="102.3" x2="437.9" y2="126.4"/>
		<line id="gge1334" class="st7" x1="462.1" y1="126.4" x2="450" y2="102.3"/>
		<g id="gge1335">
			<circle class="st8" cx="481.4" cy="114.3" r="4.8"/>
			<path class="st7" d="M481.4,114.3h-12.1"/>
			<text transform="matrix(1 0 0 1 448.9165 114.3287)" class="st9 st1 st6">2</text>
			<text transform="matrix(1 0 0 1 478.9419 104.6822)" class="st9 st1 st6">2</text>
			<circle class="st10" cx="476.5" cy="114.3" r="7.2"/>
			<path class="st11" d="M469.3,107.1l-7.2,7.2l7.2,7.2"/>
		</g>
		<line id="gge1342" class="st7" x1="416.2" y1="126.4" x2="404.2" y2="102.3"/>
		<line id="gge1343" class="st7" x1="437.9" y1="126.4" x2="428.3" y2="102.3"/>
		<line id="gge1344" class="st7" x1="428.3" y1="102.3" x2="416.2" y2="126.4"/>
		<line id="gge1345" class="st7" x1="404.2" y1="102.3" x2="396.9" y2="114.3"/>
		<g id="gge1346">
			<circle class="st8" cx="384.9" cy="114.3" r="4.8"/>
			<path class="st7" d="M384.9,114.3h12.1"/>
			<text transform="matrix(1 0 0 1 406.5933 114.3287)" class="st9 st1 st6">1</text>
			<text transform="matrix(1 0 0 1 376.5679 104.6822)" class="st9 st1 st6">1</text>
			<circle class="st10" cx="389.7" cy="114.3" r="7.2"/>
			<path class="st11" d="M396.9,121.6l7.2-7.2l-7.2-7.2"/>
		</g>
	</g>
	<g id="gge1354">
		<g id="gge1356" class="st3">
			<text transform="matrix(1 0 0 1 365.5952 228.569)" class="st4 st5 st6">1k</text>
		</g>
		<g id="gge1358" class="st3">
			<text transform="matrix(1 0 0 1 365.5952 206.3336)" class="st4 st5 st6">R8</text>
		</g>
		<line id="gge1360" class="st7" x1="348.7" y1="162.6" x2="360.8" y2="169.8"/>
		<line id="gge1361" class="st7" x1="336.7" y1="181.9" x2="360.8" y2="193.9"/>
		<line id="gge1362" class="st7" x1="360.8" y1="169.8" x2="336.7" y2="181.9"/>
		<g id="gge1363">
			<circle class="st8" cx="348.7" cy="150.5" r="4.8"/>
			<path class="st7" d="M348.7,150.5v12.1"/>
			<text transform="matrix(-1.836970e-16 -1 1 -1.836970e-16 348.7124 182.941)" class="st9 st1 st6">2</text>
			<text transform="matrix(-1.836970e-16 -1 1 -1.836970e-16 339.0659 152.9156)" class="st9 st1 st6">2</text>
			<circle class="st10" cx="348.7" cy="155.3" r="7.2"/>
			<path class="st11" d="M341.5,162.6l7.2,7.2l7.2-7.2"/>
		</g>
		<line id="gge1370" class="st7" x1="360.8" y1="215.6" x2="336.7" y2="227.7"/>
		<line id="gge1371" class="st7" x1="360.8" y1="193.9" x2="336.7" y2="203.6"/>
		<line id="gge1372" class="st7" x1="336.7" y1="203.6" x2="360.8" y2="215.6"/>
		<line id="gge1373" class="st7" x1="336.7" y1="227.7" x2="348.7" y2="234.9"/>
		<g id="gge1374">
			<circle class="st8" cx="348.7" cy="247" r="4.8"/>
			<path class="st7" d="M348.7,247v-12.1"/>
			<text transform="matrix(-1.836970e-16 -1 1 -1.836970e-16 348.7124 225.2652)" class="st9 st1 st6">1</text>
			<text transform="matrix(-1.836970e-16 -1 1 -1.836970e-16 339.0659 255.2906)" class="st9 st1 st6">1</text>
			<circle class="st10" cx="348.7" cy="242.1" r="7.2"/>
			<path class="st11" d="M355.9,234.9l-7.2-7.2l-7.2,7.2"/>
		</g>
	</g>
	<g id="gge1382">
		<g id="gge1384" class="st3">
			<text transform="matrix(1 0 0 1 243.6626 95.0358)" class="st4 st5 st6">1k</text>
		</g>
		<g id="gge1386" class="st3">
			<text transform="matrix(1 0 0 1 243.6626 72.8004)" class="st4 st5 st6">R10</text>
		</g>
		<line id="gge1388" class="st7" x1="228.1" y1="114.3" x2="235.4" y2="102.3"/>
		<line id="gge1389" class="st7" x1="247.4" y1="126.4" x2="259.5" y2="102.3"/>
		<line id="gge1390" class="st7" x1="235.4" y1="102.3" x2="247.4" y2="126.4"/>
		<g id="gge1391">
			<circle class="st8" cx="216.1" cy="114.3" r="4.8"/>
			<path class="st7" d="M216.1,114.3h12.1"/>
			<text transform="matrix(1 0 0 1 237.7778 114.3287)" class="st9 st1 st6">2</text>
			<text transform="matrix(1 0 0 1 207.7524 104.6822)" class="st9 st1 st6">2</text>
			<circle class="st10" cx="220.9" cy="114.3" r="7.2"/>
			<path class="st11" d="M228.1,121.6l7.2-7.2l-7.2-7.2"/>
		</g>
		<line id="gge1398" class="st7" x1="281.2" y1="102.3" x2="293.2" y2="126.4"/>
		<line id="gge1399" class="st7" x1="259.5" y1="102.3" x2="269.1" y2="126.4"/>
		<line id="gge1400" class="st7" x1="269.1" y1="126.4" x2="281.2" y2="102.3"/>
		<line id="gge1401" class="st7" x1="293.2" y1="126.4" x2="300.5" y2="114.3"/>
		<g id="gge1402">
			<circle class="st8" cx="312.5" cy="114.3" r="4.8"/>
			<path class="st7" d="M312.5,114.3h-12.1"/>
			<text transform="matrix(1 0 0 1 280.1021 114.3287)" class="st9 st1 st6">1</text>
			<text transform="matrix(1 0 0 1 310.1274 104.6822)" class="st9 st1 st6">1</text>
			<circle class="st10" cx="307.7" cy="114.3" r="7.2"/>
			<path class="st11" d="M300.5,107.1l-7.2,7.2l7.2,7.2"/>
		</g>
	</g>
	<g id="gge1410">
		<g id="gge1412" class="st3">
			<text transform="matrix(1 0 0 1 196.7798 228.569)" class="st4 st5 st6">1k</text>
		</g>
		<g id="gge1414" class="st3">
			<text transform="matrix(1 0 0 1 196.7798 206.3336)" class="st4 st5 st6">R11</text>
		</g>
		<line id="gge1416" class="st7" x1="179.9" y1="234.9" x2="167.8" y2="227.7"/>
		<line id="gge1417" class="st7" x1="192" y1="215.6" x2="167.8" y2="203.6"/>
		<line id="gge1418" class="st7" x1="167.8" y1="227.7" x2="192" y2="215.6"/>
		<g id="gge1419">
			<circle class="st8" cx="179.9" cy="247" r="4.8"/>
			<path class="st7" d="M179.9,247v-12.1"/>
			<text transform="matrix(-1.836970e-16 -1 1 -1.836970e-16 179.897 225.2652)" class="st9 st1 st6">2</text>
			<text transform="matrix(-1.836970e-16 -1 1 -1.836970e-16 170.2505 255.2906)" class="st9 st1 st6">2</text>
			<circle class="st10" cx="179.9" cy="242.1" r="7.2"/>
			<path class="st11" d="M187.1,234.9l-7.2-7.2l-7.2,7.2"/>
		</g>
		<line id="gge1426" class="st7" x1="167.8" y1="181.9" x2="192" y2="169.8"/>
		<line id="gge1427" class="st7" x1="167.8" y1="203.6" x2="192" y2="193.9"/>
		<line id="gge1428" class="st7" x1="192" y1="193.9" x2="167.8" y2="181.9"/>
		<line id="gge1429" class="st7" x1="192" y1="169.8" x2="179.9" y2="162.6"/>
		<g id="gge1430">
			<circle class="st8" cx="179.9" cy="150.5" r="4.8"/>
			<path class="st7" d="M179.9,150.5v12.1"/>
			<text transform="matrix(-1.836970e-16 -1 1 -1.836970e-16 179.897 182.941)" class="st9 st1 st6">1</text>
			<text transform="matrix(-1.836970e-16 -1 1 -1.836970e-16 170.2505 152.9156)" class="st9 st1 st6">1</text>
			<circle class="st10" cx="179.9" cy="155.3" r="7.2"/>
			<path class="st11" d="M172.7,162.6l7.2,7.2l7.2-7.2"/>
		</g>
	</g>
	<g id="gge1438">
		<g id="gge1440" class="st3">
			<text transform="matrix(1 0 0 1 328.0698 10.6285)" class="st4 st5 st6">1k</text>
		</g>
		<g id="gge1442" class="st3">
			<text transform="matrix(1 0 0 1 328.0698 -11.6068)" class="st4 st5 st6">R12</text>
		</g>
		<line id="gge1444" class="st7" x1="312.5" y1="29.9" x2="319.8" y2="17.9"/>
		<line id="gge1445" class="st7" x1="331.8" y1="42" x2="343.9" y2="17.9"/>
		<line id="gge1446" class="st7" x1="319.8" y1="17.9" x2="331.8" y2="42"/>
		<g id="gge1447">
			<circle class="st8" cx="300.5" cy="29.9" r="4.8"/>
			<path class="st7" d="M300.5,29.9h12.1"/>
			<text transform="matrix(1 0 0 1 322.1851 29.9215)" class="st9 st1 st6">2</text>
			<text transform="matrix(1 0 0 1 292.1597 20.275)" class="st9 st1 st6">2</text>
			<circle class="st10" cx="305.3" cy="29.9" r="7.2"/>
			<path class="st11" d="M312.5,37.2l7.2-7.2l-7.2-7.2"/>
		</g>
		<line id="gge1454" class="st7" x1="365.6" y1="17.9" x2="377.7" y2="42"/>
		<line id="gge1455" class="st7" x1="343.9" y1="17.9" x2="353.5" y2="42"/>
		<line id="gge1456" class="st7" x1="353.5" y1="42" x2="365.6" y2="17.9"/>
		<line id="gge1457" class="st7" x1="377.7" y1="42" x2="384.9" y2="29.9"/>
		<g id="gge1458">
			<circle class="st8" cx="396.9" cy="29.9" r="4.8"/>
			<path class="st7" d="M396.9,29.9h-12.1"/>
			<text transform="matrix(1 0 0 1 364.5093 29.9215)" class="st9 st1 st6">1</text>
			<text transform="matrix(1 0 0 1 394.5347 20.275)" class="st9 st1 st6">1</text>
			<circle class="st10" cx="392.1" cy="29.9" r="7.2"/>
			<path class="st11" d="M384.9,22.7l-7.2,7.2l7.2,7.2"/>
		</g>
	</g>
	<polyline id="gge1465" class="st7" points="517.5,150.5 517.5,283.1 179.9,283.1 179.9,247 	"/>
	<polyline id="gge1466" class="st7" points="179.9,150.5 179.9,114.3 216.1,114.3 	"/>
	<line id="gge1467" class="st7" x1="312.5" y1="114.3" x2="384.9" y2="114.3"/>
	<polyline id="gge1468" class="st7" points="481.4,114.3 517.5,114.3 517.5,150.5 	"/>
	<line id="gge1469" class="st7" x1="348.7" y1="150.5" x2="348.7" y2="114.3"/>
	<line id="gge1471" class="st7" x1="348.7" y1="247" x2="348.7" y2="283.1"/>
	<polyline id="gge1473" class="st7" points="396.9,29.9 517.5,29.9 517.5,114.3 	"/>
	<polyline id="gge1475" class="st7" points="300.5,29.9 179.9,29.9 179.9,114.3 	"/>
	<g id="gge1478">
		<text transform="matrix(1 0 0 1 252.2476 150.5035)" class="st0 st1 st2">R2</text>
	</g>
	<g id="gge1481">
		<text transform="matrix(1 0 0 1 421.063 150.5035)" class="st0 st1 st2">R4</text>
	</g>
	<g id="gge1484">
		<text transform="matrix(1 0 0 1 360.772 210.7945)" class="st0 st1 st2">R3</text>
	</g>
	<g id="gge1487">
		<text transform="matrix(1 0 0 1 191.9565 210.7945)" class="st0 st1 st2">R1</text>
	</g>
	<line id="gge1490" class="st7" x1="95.5" y1="283.1" x2="179.9" y2="283.1"/>
	<line id="gge1491" class="st7" x1="179.9" y1="114.3" x2="95.5" y2="114.3"/>
	<line id="gge1493" class="st7" x1="107.5" y1="126.4" x2="107.5" y2="273.6"/>
	<g id="gge1499">
		<text transform="matrix(1 0 0 1 95.4907 102.2711)" class="st12 st1 st13">A</text>
	</g>
	<g id="gge1502">
		<text transform="matrix(1 0 0 1 95.4907 307.2604)" class="st12 st1 st13">B</text>
	</g>
	<g id="gge1505">
		<text transform="matrix(1 0 0 1 35.1997 210.7945)" class="st12 st1 st2">RAB</text>
	</g>
	<g id="gge1476">
		<circle class="st8" cx="179.9" cy="114.3" r="4.8"/>
		<circle cx="179.9" cy="114.3" r="6"/>
	</g>
	<g id="gge1472">
		<circle class="st8" cx="348.7" cy="283.1" r="4.8"/>
		<circle cx="348.7" cy="283.1" r="6"/>
	</g>
	<g id="gge1470">
		<circle class="st8" cx="348.7" cy="114.3" r="4.8"/>
		<circle cx="348.7" cy="114.3" r="6"/>
	</g>
	<g id="gge1474">
		<circle class="st8" cx="517.5" cy="114.3" r="4.8"/>
		<circle cx="517.5" cy="114.3" r="6"/>
	</g>
	<g id="gge1495">
		<path d="M107.5,126.4l-9.6,4.8l9.6-12.1l9.6,12.1L107.5,126.4z"/>
	</g>
	<g id="gge1497">
		<path d="M107.5,273.6l9.6-4.8l-9.6,12.1l-9.6-12.1L107.5,273.6z"/>
	</g>
</g>
<g>
	<g id="ni34a4_1_">
		
			<image style="overflow:visible;" width="1200" height="423" id="ni34a4_00000114052095137766275830000010247063283131300264_" xlink:href="9F9658FEF8676583.png"  transform="matrix(3.635557e-02 0 0 3.635557e-02 477.1819 324.1728)">
		</image>
	</g>
	<g>
		<text transform="matrix(1 0 0 1 476.9896 347.5143)" class="st14 st15">UBC Engineering</text>
	</g>
</g>
</svg>
