<?xml version="1.0" encoding="utf-8"?>
<!-- Generator: Adobe Illustrator 26.3.1, SVG Export Plug-In . SVG Version: 6.00 Build 0)  -->
<svg version="1.1" id="Layer_1" xmlns="http://www.w3.org/2000/svg" xmlns:xlink="http://www.w3.org/1999/xlink" x="0px" y="0px"
	 viewBox="0 0 294 392.5" style="enable-background:new 0 0 294 392.5;" xml:space="preserve">
<style type="text/css">
	.st0{fill:#FF3366;}
	.st1{font-family:'Verdana';}
	.st2{font-size:19.485px;}
	.st3{display:none;}
	.st4{display:inline;}
	.st5{font-family:'ArialMT';}
	.st6{font-size:18.186px;}
	.st7{fill:none;}
	.st8{fill:none;stroke:#000000;stroke-width:2.598;stroke-linecap:round;stroke-linejoin:round;}
	.st9{display:none;enable-background:new    ;}
	.st10{display:none;fill:none;stroke:#000000;stroke-width:2.598;}
	.st11{display:none;fill:none;stroke:#000000;stroke-width:2.598;stroke-linecap:round;stroke-linejoin:round;}
	.st12{font-family:'Folio-Medium';}
	.st13{font-size:5.504px;}
</style>
<g id="g1">
	<g id="gge4662">
		<text transform="matrix(1 0 0 1 43.0801 30.1196)" class="st0 st1 st2">A</text>
	</g>
	<g id="gge4665">
		<text transform="matrix(1 0 0 1 237.9307 29.6255)" class="st0 st1 st2">B</text>
	</g>
	<g id="gge4667">
		<g id="gge4669" class="st3">
			<text transform="matrix(1 0 0 1 185.4766 114.5024)" class="st4 st5 st6">1m</text>
		</g>
		<g id="gge4671" class="st3">
			<text transform="matrix(1 0 0 1 185.4766 90.7046)" class="st4 st5 st6">L1</text>
		</g>
		<g id="gge4673">
			<circle class="st7" cx="250.9" cy="133.5" r="5.2"/>
			<path class="st8" d="M250.9,133.5h-7.8"/>
			<text transform="matrix(1 0 0 1 221.1729 133.5454)" class="st9 st1 st6">2</text>
			<text transform="matrix(1 0 0 1 253.5186 123.1538)" class="st9 st1 st6">2</text>
			<circle class="st10" cx="250.9" cy="133.5" r="7.8"/>
			<path class="st11" d="M243.1,125.8l-7.8,7.8l7.8,7.8"/>
		</g>
		<g id="gge4680">
			<circle class="st7" cx="147" cy="133.5" r="5.2"/>
			<path class="st8" d="M147,133.5h7.8"/>
			<text transform="matrix(1 0 0 1 165.1865 133.5454)" class="st9 st1 st6">1</text>
			<text transform="matrix(1 0 0 1 132.8408 123.1538)" class="st9 st1 st6">1</text>
			<circle class="st10" cx="147" cy="133.5" r="7.8"/>
			<path class="st11" d="M154.8,141.3l7.8-7.8l-7.8-7.8"/>
		</g>
		<path id="gge4687" class="st8" d="M155.1,133.4c-0.5-5.6,3.7-10.5,9.4-11c5.7-0.5,10.8,3.6,11.3,9.1c0.1,0.6,0.1,1.3,0,1.9"/>
		<path id="gge4688" class="st8" d="M177.1,133.4c-0.5-5.6,3.7-10.5,9.4-11c5.7-0.5,10.8,3.6,11.3,9.1c0.1,0.6,0.1,1.3,0,1.9"/>
		<path id="gge4689" class="st8" d="M199.1,133.4c-0.5-5.6,3.7-10.5,9.4-11c5.7-0.5,10.8,3.6,11.3,9.1c0.1,0.6,0.1,1.3,0,1.9"/>
		<path id="gge4690" class="st8" d="M221.6,133.4c-0.5-5.6,3.7-10.5,9.4-11c5.7-0.5,10.8,3.6,11.3,9.1c0.1,0.6,0.1,1.3,0,1.9"/>
	</g>
	<g id="gge4695">
		<g id="gge4697" class="st3">
			<text transform="matrix(1 0 0 1 267.3662 217.7212)" class="st4 st5 st6">1m</text>
		</g>
		<g id="gge4699" class="st3">
			<text transform="matrix(1 0 0 1 267.3662 193.9233)" class="st4 st5 st6">L2</text>
		</g>
		<g id="gge4701">
			<circle class="st7" cx="250.9" cy="237.5" r="5.2"/>
			<path class="st8" d="M250.9,237.5v-7.8"/>
			<text transform="matrix(-1.836970e-16 -1 1 -1.836970e-16 250.9209 219.2778)" class="st9 st1 st6">2</text>
			<text transform="matrix(-1.836970e-16 -1 1 -1.836970e-16 240.5293 251.6235)" class="st9 st1 st6">2</text>
			<circle class="st10" cx="250.9" cy="237.5" r="7.8"/>
			<path class="st11" d="M258.7,229.7l-7.8-7.8l-7.8,7.8"/>
		</g>
		<g id="gge4708">
			<circle class="st7" cx="250.9" cy="133.5" r="5.2"/>
			<path class="st8" d="M250.9,133.5v7.8"/>
			<text transform="matrix(-1.836970e-16 -1 1 -1.836970e-16 250.9209 163.2915)" class="st9 st1 st6">1</text>
			<text transform="matrix(-1.836970e-16 -1 1 -1.836970e-16 240.5293 130.9458)" class="st9 st1 st6">1</text>
			<circle class="st10" cx="250.9" cy="133.5" r="7.8"/>
			<path class="st11" d="M243.1,141.3l7.8,7.8l7.8-7.8"/>
		</g>
		<path id="gge4715" class="st8" d="M251.1,141.6c5.6-0.5,10.5,3.7,11,9.4c0.5,5.7-3.6,10.8-9.1,11.3c-0.6,0.1-1.3,0.1-1.9,0"/>
		<path id="gge4716" class="st8" d="M251.1,163.7c5.6-0.5,10.5,3.7,11,9.4c0.5,5.7-3.6,10.8-9.1,11.3c-0.6,0.1-1.3,0.1-1.9,0"/>
		<path id="gge4717" class="st8" d="M251.1,185.7c5.6-0.5,10.5,3.7,11,9.4c0.5,5.7-3.6,10.8-9.1,11.3c-0.6,0.1-1.3,0.1-1.9,0"/>
		<path id="gge4718" class="st8" d="M251.1,208.1c5.6-0.5,10.5,3.7,11,9.4c0.5,5.7-3.6,10.8-9.1,11.3c-0.6,0.1-1.3,0.1-1.9,0"/>
	</g>
	<g id="gge4720">
		<g id="gge4722" class="st3">
			<text transform="matrix(1 0 0 1 157.3926 217.7212)" class="st4 st5 st6">1m</text>
		</g>
		<g id="gge4724" class="st3">
			<text transform="matrix(1 0 0 1 157.3926 193.9233)" class="st4 st5 st6">L3</text>
		</g>
		<g id="gge4726">
			<circle class="st7" cx="147" cy="133.5" r="5.2"/>
			<path class="st8" d="M147,133.5v7.8"/>
			<text transform="matrix(-1.836970e-16 -1 1 -1.836970e-16 147.001 163.2915)" class="st9 st1 st6">2</text>
			<text transform="matrix(-1.836970e-16 -1 1 -1.836970e-16 136.6094 130.9458)" class="st9 st1 st6">2</text>
			<circle class="st10" cx="147" cy="133.5" r="7.8"/>
			<path class="st11" d="M139.2,141.3l7.8,7.8l7.8-7.8"/>
		</g>
		<g id="gge4733">
			<circle class="st7" cx="147" cy="237.5" r="5.2"/>
			<path class="st8" d="M147,237.5v-7.8"/>
			<text transform="matrix(-1.836970e-16 -1 1 -1.836970e-16 147.001 219.2778)" class="st9 st1 st6">1</text>
			<text transform="matrix(-1.836970e-16 -1 1 -1.836970e-16 136.6094 251.6235)" class="st9 st1 st6">1</text>
			<circle class="st10" cx="147" cy="237.5" r="7.8"/>
			<path class="st11" d="M154.8,229.7l-7.8-7.8l-7.8,7.8"/>
		</g>
		<path id="gge4740" class="st8" d="M146.8,229.4c-5.6,0.5-10.5-3.7-11-9.4s3.6-10.8,9.1-11.3c0.6-0.1,1.3-0.1,1.9,0"/>
		<path id="gge4741" class="st8" d="M146.8,207.3c-5.6,0.5-10.5-3.7-11-9.4c-0.5-5.7,3.6-10.8,9.1-11.3c0.6-0.1,1.3-0.1,1.9,0"/>
		<path id="gge4742" class="st8" d="M146.8,185.3c-5.6,0.5-10.5-3.7-11-9.4c-0.5-5.7,3.6-10.8,9.1-11.3c0.6-0.1,1.3-0.1,1.9,0"/>
		<path id="gge4743" class="st8" d="M146.8,162.9c-5.6,0.5-10.5-3.7-11-9.4s3.6-10.8,9.1-11.3c0.6-0.1,1.3-0.1,1.9,0"/>
	</g>
	<g id="gge4745">
		<g id="gge4747" class="st3">
			<text transform="matrix(1 0 0 1 81.5566 218.4223)" class="st4 st5 st6">1m</text>
		</g>
		<g id="gge4749" class="st3">
			<text transform="matrix(1 0 0 1 81.5566 194.6245)" class="st4 st5 st6">L4</text>
		</g>
		<g id="gge4751">
			<circle class="st7" cx="147" cy="237.5" r="5.2"/>
			<path class="st8" d="M147,237.5h-7.8"/>
			<text transform="matrix(1 0 0 1 117.2529 237.4663)" class="st9 st1 st6">2</text>
			<text transform="matrix(1 0 0 1 149.5986 227.0737)" class="st9 st1 st6">2</text>
			<circle class="st10" cx="147" cy="237.5" r="7.8"/>
			<path class="st11" d="M139.2,229.7l-7.8,7.8l7.8,7.8"/>
		</g>
		<g id="gge4758">
			<circle class="st7" cx="43.1" cy="237.5" r="5.2"/>
			<path class="st8" d="M43.1,237.5h7.8"/>
			<text transform="matrix(1 0 0 1 61.2666 237.4663)" class="st9 st1 st6">1</text>
			<text transform="matrix(1 0 0 1 28.9209 227.0737)" class="st9 st1 st6">1</text>
			<circle class="st10" cx="43.1" cy="237.5" r="7.8"/>
			<path class="st11" d="M50.9,245.3l7.8-7.8l-7.8-7.8"/>
		</g>
		<path id="gge4765" class="st8" d="M51.2,237.3c-0.5-5.6,3.7-10.5,9.4-11c5.7-0.5,10.8,3.6,11.3,9.1c0.1,0.6,0.1,1.3,0,1.9"/>
		<path id="gge4766" class="st8" d="M73.2,237.3c-0.5-5.6,3.7-10.5,9.4-11c5.7-0.5,10.8,3.6,11.3,9.1c0.1,0.6,0.1,1.3,0,1.9"/>
		<path id="gge4767" class="st8" d="M95.2,237.3c-0.5-5.6,3.7-10.5,9.4-11c5.7-0.5,10.8,3.6,11.3,9.1c0.1,0.6,0.1,1.3,0,1.9"/>
		<path id="gge4768" class="st8" d="M117.6,237.3c-0.5-5.6,3.7-10.5,9.4-11c5.7-0.5,10.8,3.6,11.3,9.1c0.1,0.6,0.1,1.3,0,1.9"/>
	</g>
	<g id="gge4770">
		<g id="gge4772" class="st3">
			<text transform="matrix(1 0 0 1 157.3926 321.6411)" class="st4 st5 st6">1m</text>
		</g>
		<g id="gge4774" class="st3">
			<text transform="matrix(1 0 0 1 157.3926 297.8432)" class="st4 st5 st6">L5</text>
		</g>
		<g id="gge4776">
			<circle class="st7" cx="147" cy="237.5" r="5.2"/>
			<path class="st8" d="M147,237.5v7.8"/>
			<text transform="matrix(-1.836970e-16 -1 1 -1.836970e-16 147.001 267.2133)" class="st9 st1 st6">2</text>
			<text transform="matrix(-1.836970e-16 -1 1 -1.836970e-16 136.6094 234.8677)" class="st9 st1 st6">2</text>
			<circle class="st10" cx="147" cy="237.5" r="7.8"/>
			<path class="st11" d="M139.2,245.3l7.8,7.8l7.8-7.8"/>
		</g>
		<g id="gge4783">
			<circle class="st7" cx="147" cy="341.4" r="5.2"/>
			<path class="st8" d="M147,341.4v-7.8"/>
			<text transform="matrix(-1.836970e-16 -1 1 -1.836970e-16 147.001 323.1997)" class="st9 st1 st6">1</text>
			<text transform="matrix(-1.836970e-16 -1 1 -1.836970e-16 136.6094 355.5454)" class="st9 st1 st6">1</text>
			<circle class="st10" cx="147" cy="341.4" r="7.8"/>
			<path class="st11" d="M154.8,333.6l-7.8-7.8l-7.8,7.8"/>
		</g>
		<path id="gge4790" class="st8" d="M146.8,333.3c-5.6,0.5-10.5-3.7-11-9.4c-0.5-5.7,3.6-10.8,9.1-11.3c0.6-0.1,1.3-0.1,1.9,0"/>
		<path id="gge4791" class="st8" d="M146.8,311.2c-5.6,0.5-10.5-3.7-11-9.4c-0.5-5.7,3.6-10.8,9.1-11.3c0.6-0.1,1.3-0.1,1.9,0"/>
		<path id="gge4792" class="st8" d="M146.8,289.3c-5.6,0.5-10.5-3.7-11-9.4c-0.5-5.7,3.6-10.8,9.1-11.3c0.6-0.1,1.3-0.1,1.9,0"/>
		<path id="gge4793" class="st8" d="M146.8,266.8c-5.6,0.5-10.5-3.7-11-9.4c-0.5-5.7,3.6-10.8,9.1-11.3c0.6-0.1,1.3-0.1,1.9,0"/>
	</g>
	<g id="gge4797">
		<g id="gge4799" class="st3">
			<text transform="matrix(1 0 0 1 185.4766 328.396)" class="st4 st5 st6">1m</text>
		</g>
		<g id="gge4801" class="st3">
			<text transform="matrix(1 0 0 1 185.4766 304.5981)" class="st4 st5 st6">L6</text>
		</g>
		<g id="gge4803">
			<circle class="st7" cx="147" cy="341.4" r="5.2"/>
			<path class="st8" d="M147,341.4h7.8"/>
			<text transform="matrix(1 0 0 1 165.1865 341.3862)" class="st9 st1 st6">2</text>
			<text transform="matrix(1 0 0 1 132.8408 330.9936)" class="st9 st1 st6">2</text>
			<circle class="st10" cx="147" cy="341.4" r="7.8"/>
			<path class="st11" d="M154.8,349.2l7.8-7.8l-7.8-7.8"/>
		</g>
		<g id="gge4810">
			<circle class="st7" cx="250.9" cy="341.4" r="5.2"/>
			<path class="st8" d="M250.9,341.4h-7.8"/>
			<text transform="matrix(1 0 0 1 221.1729 341.3862)" class="st9 st1 st6">1</text>
			<text transform="matrix(1 0 0 1 253.5186 330.9936)" class="st9 st1 st6">1</text>
			<circle class="st10" cx="250.9" cy="341.4" r="7.8"/>
			<path class="st11" d="M243.1,333.6l-7.8,7.8l7.8,7.8"/>
		</g>
		<path id="gge4817" class="st8" d="M242.8,341.6c0.5,5.6-3.7,10.5-9.4,11c-5.7,0.5-10.8-3.6-11.3-9.1c-0.1-0.6-0.1-1.3,0-1.9"/>
		<path id="gge4818" class="st8" d="M220.8,341.6c0.5,5.6-3.7,10.5-9.4,11c-5.7,0.5-10.8-3.6-11.3-9.1c-0.1-0.6-0.1-1.3,0-1.9"/>
		<path id="gge4819" class="st8" d="M198.8,341.6c0.5,5.6-3.7,10.5-9.4,11c-5.7,0.5-10.8-3.6-11.3-9.1c-0.1-0.6-0.1-1.3,0-1.9"/>
		<path id="gge4820" class="st8" d="M176.4,341.6c0.5,5.6-3.7,10.5-9.4,11c-5.7,0.5-10.8-3.6-11.3-9.1c-0.1-0.6-0.1-1.3,0-1.9"/>
	</g>
	<polyline id="gge4821" class="st8" points="250.9,341.4 250.9,237.5 147,237.5 	"/>
	<polyline id="gge4824" class="st8" points="147,133.5 43.1,133.5 43.1,237.5 43.1,341.4 147,341.4 	"/>
	<line id="gge4829" class="st8" x1="43.1" y1="42.6" x2="43.1" y2="133.5"/>
	<line id="gge4831" class="st8" x1="250.9" y1="133.5" x2="250.9" y2="42.6"/>
	<g id="gge4830">
		<circle class="st7" cx="43.1" cy="133.5" r="5.2"/>
		<circle cx="43.1" cy="133.5" r="6.5"/>
	</g>
	<g id="gge4828">
		<circle class="st7" cx="43.1" cy="237.5" r="5.2"/>
		<circle cx="43.1" cy="237.5" r="6.5"/>
	</g>
	<g id="gge4827">
		<circle class="st7" cx="147" cy="133.5" r="5.2"/>
		<circle cx="147" cy="133.5" r="6.5"/>
	</g>
	<g id="gge4795">
		<circle class="st7" cx="147" cy="237.5" r="5.2"/>
		<circle cx="147" cy="237.5" r="6.5"/>
	</g>
	<g id="gge4823">
		<circle class="st7" cx="250.9" cy="237.5" r="5.2"/>
		<circle cx="250.9" cy="237.5" r="6.5"/>
	</g>
	<g id="gge4825">
		<circle class="st7" cx="147" cy="341.4" r="5.2"/>
		<circle cx="147" cy="341.4" r="6.5"/>
	</g>
	<g id="gge4832">
		<circle class="st7" cx="250.9" cy="133.5" r="5.2"/>
		<circle cx="250.9" cy="133.5" r="6.5"/>
	</g>
</g>
<g>
	<g id="ni34a4_1_">
		
			<image style="overflow:visible;" width="1200" height="423" id="ni34a4_00000114052095137766275830000010247063283131300264_" xlink:href="998967D93E1AD10B.png"  transform="matrix(3.635557e-02 0 0 3.635557e-02 41.6855 357.7862)">
		</image>
	</g>
	<g>
		<text transform="matrix(1 0 0 1 41.4932 381.1278)" class="st12 st13">UBC Engineering</text>
	</g>
</g>
</svg>
