<?xml version="1.0" encoding="utf-8"?>
<!-- Generator: Adobe Illustrator 26.3.1, SVG Export Plug-In . SVG Version: 6.00 Build 0)  -->
<svg version="1.1" id="Layer_1" xmlns="http://www.w3.org/2000/svg" xmlns:xlink="http://www.w3.org/1999/xlink" x="0px" y="0px"
	 viewBox="0 0 516.9 327" style="enable-background:new 0 0 516.9 327;" xml:space="preserve">
<style type="text/css">
	.st0{fill:#0066CC;}
	.st1{font-family:'Verdana';}
	.st2{font-size:15.949px;}
	.st3{display:none;}
	.st4{display:inline;}
	.st5{font-family:'ArialMT';}
	.st6{font-size:14.8857px;}
	.st7{fill:none;stroke:#000000;stroke-width:2.1265;}
	.st8{fill:none;}
	.st9{fill:none;stroke:#000000;stroke-width:2.1265;stroke-linecap:round;stroke-linejoin:round;}
	.st10{display:none;enable-background:new    ;}
	.st11{display:none;fill:none;stroke:#000000;stroke-width:2.1265;}
	.st12{display:none;fill:none;stroke:#000000;stroke-width:2.1265;stroke-linecap:round;stroke-linejoin:round;}
	.st13{font-family:'Helvetica';}
	.st14{font-size:13.8224px;}
	.st15{fill:#FF3366;}
	.st16{font-family:'Folio-Medium';}
	.st17{font-size:5.504px;}
</style>
<g id="g1">
	<g id="gge1921">
		<text transform="matrix(1 0 0 1 29.8339 203.2881)" class="st0 st1 st2">Vs</text>
	</g>
	<g id="gge1923">
		<g id="gge1925" class="st3">
			<text transform="matrix(1 0 0 1 108.5156 218.4502)" class="st4 st5 st6">SIN(0 1 50) AC 1 0</text>
		</g>
		<g id="gge1927" class="st3">
			<text transform="matrix(1 0 0 1 114.8954 199.9287)" class="st4 st5 st6">V3</text>
		</g>
		<ellipse id="gge1929" class="st7" cx="83" cy="192.1" rx="21.3" ry="21.3"/>
		<g id="gge1930">
			<circle class="st8" cx="83" cy="149.6" r="4.3"/>
			<path class="st9" d="M83,170.8v-21.3"/>
			<text transform="matrix(-1.836970e-16 -1 1 -1.836970e-16 82.997 184.5527)" class="st10 st1 st6">1</text>
			<text transform="matrix(-1.836970e-16 -1 1 -1.836970e-16 74.4911 162.3301)" class="st10 st1 st6">1</text>
			<circle class="st11" cx="83" cy="121.9" r="6.4"/>
			<path class="st12" d="M76.6,128.3l6.4,6.4l6.4-6.4"/>
		</g>
		<line id="gge1937" class="st9" x1="78.7" y1="179.3" x2="87.2" y2="179.3"/>
		<line id="gge1938" class="st9" x1="83" y1="175.1" x2="83" y2="183.6"/>
		<g id="gge1939">
			<circle class="st8" cx="83" cy="234.6" r="4.3"/>
			<path class="st9" d="M83,213.4v21.3"/>
			<text transform="matrix(-1.836970e-16 -1 1 -1.836970e-16 82.997 204.8613)" class="st10 st1 st6">2</text>
			<text transform="matrix(-1.836970e-16 -1 1 -1.836970e-16 74.4911 231.3379)" class="st10 st1 st6">2</text>
			<circle class="st11" cx="83" cy="262.3" r="6.4"/>
			<path class="st12" d="M89.4,255.9l-6.4-6.4l-6.4,6.4"/>
		</g>
		<line id="gge1946" class="st9" x1="87.2" y1="204.9" x2="78.7" y2="204.9"/>
	</g>
	<g id="gge2638">
		<g id="gge2640" class="st3">
			<text transform="matrix(1 0 0 1 144.7519 100.6621)" class="st4 st5 st6">1k</text>
		</g>
		<g id="gge2642" class="st3">
			<text transform="matrix(1 0 0 1 144.7519 81.2891)" class="st4 st5 st6">R33</text>
		</g>
		<line id="gge2644" class="st9" x1="189.3" y1="117.7" x2="182.9" y2="128.3"/>
		<line id="gge2645" class="st9" x1="172.3" y1="107" x2="161.7" y2="128.3"/>
		<line id="gge2646" class="st9" x1="182.9" y1="128.3" x2="172.3" y2="107"/>
		<g id="gge2647">
			<circle class="st8" cx="200" cy="117.7" r="4.3"/>
			<path class="st9" d="M200,117.7h-10.6"/>
			<text transform="matrix(1 0 0 1 171.3544 117.6738)" class="st10 st1 st6">2</text>
			<text transform="matrix(1 0 0 1 197.83 109.168)" class="st10 st1 st6">2</text>
			<circle class="st11" cx="195.7" cy="117.7" r="6.4"/>
			<path class="st12" d="M189.3,111.3l-6.4,6.4l6.4,6.4"/>
		</g>
		<line id="gge2654" class="st9" x1="142.5" y1="128.3" x2="131.9" y2="107"/>
		<line id="gge2655" class="st9" x1="161.7" y1="128.3" x2="153.2" y2="107"/>
		<line id="gge2656" class="st9" x1="153.2" y1="107" x2="142.5" y2="128.3"/>
		<line id="gge2657" class="st9" x1="131.9" y1="107" x2="125.5" y2="117.7"/>
		<g id="gge2658">
			<circle class="st8" cx="114.9" cy="117.7" r="4.3"/>
			<path class="st9" d="M114.9,117.7h10.6"/>
			<text transform="matrix(1 0 0 1 134.0341 117.6738)" class="st10 st1 st6">1</text>
			<text transform="matrix(1 0 0 1 107.5585 109.168)" class="st10 st1 st6">1</text>
			<circle class="st11" cx="119.1" cy="117.7" r="6.4"/>
			<path class="st12" d="M125.5,124.1l6.4-6.4l-6.4-6.4"/>
		</g>
	</g>
	<g id="gge2666">
		<g id="gge2668" class="st3">
			<text transform="matrix(1 0 0 1 246.7402 218.4502)" class="st4 st5 st6">1k</text>
		</g>
		<g id="gge2670" class="st3">
			<text transform="matrix(1 0 0 1 246.7402 199.0986)" class="st4 st5 st6">R37</text>
		</g>
		<line id="gge2672" class="st9" x1="231.9" y1="160.2" x2="242.5" y2="166.6"/>
		<line id="gge2673" class="st9" x1="221.2" y1="177.2" x2="242.5" y2="187.8"/>
		<line id="gge2674" class="st9" x1="242.5" y1="166.6" x2="221.2" y2="177.2"/>
		<g id="gge2675">
			<circle class="st8" cx="231.9" cy="149.6" r="4.3"/>
			<path class="st9" d="M231.9,149.6v10.6"/>
			<text transform="matrix(-1.836970e-16 -1 1 -1.836970e-16 231.8544 178.1738)" class="st10 st1 st6">2</text>
			<text transform="matrix(-1.836970e-16 -1 1 -1.836970e-16 223.3476 151.6973)" class="st10 st1 st6">2</text>
			<circle class="st11" cx="231.9" cy="153.8" r="6.4"/>
			<path class="st12" d="M225.5,160.2l6.4,6.4l6.4-6.4"/>
		</g>
		<line id="gge2682" class="st9" x1="242.5" y1="207" x2="221.2" y2="217.6"/>
		<line id="gge2683" class="st9" x1="242.5" y1="187.8" x2="221.2" y2="196.4"/>
		<line id="gge2684" class="st9" x1="221.2" y1="196.4" x2="242.5" y2="207"/>
		<line id="gge2685" class="st9" x1="221.2" y1="217.6" x2="231.9" y2="224"/>
		<g id="gge2686">
			<circle class="st8" cx="231.9" cy="234.6" r="4.3"/>
			<path class="st9" d="M231.9,234.6V224"/>
			<text transform="matrix(-1.836970e-16 -1 1 -1.836970e-16 231.8544 215.4941)" class="st10 st1 st6">1</text>
			<text transform="matrix(-1.836970e-16 -1 1 -1.836970e-16 223.3476 241.9688)" class="st10 st1 st6">1</text>
			<circle class="st11" cx="231.9" cy="230.4" r="6.4"/>
			<path class="st12" d="M238.2,224l-6.4-6.4l-6.4,6.4"/>
		</g>
	</g>
	<g id="gge2722">
		<g id="gge2724" class="st3">
			<text transform="matrix(1 0 0 1 288.08 100.6621)" class="st4 st5 st6">1k</text>
		</g>
		<g id="gge2726" class="st3">
			<text transform="matrix(1 0 0 1 288.08 81.2891)" class="st4 st5 st6">R40</text>
		</g>
		<line id="gge2728" class="st9" x1="274.4" y1="117.7" x2="280.8" y2="107"/>
		<line id="gge2729" class="st9" x1="291.4" y1="128.3" x2="302" y2="107"/>
		<line id="gge2730" class="st9" x1="280.8" y1="107" x2="291.4" y2="128.3"/>
		<g id="gge2731">
			<circle class="st8" cx="263.8" cy="117.7" r="4.3"/>
			<path class="st9" d="M263.8,117.7h10.6"/>
			<text transform="matrix(1 0 0 1 282.8906 117.6738)" class="st10 st1 st6">2</text>
			<text transform="matrix(1 0 0 1 256.415 109.168)" class="st10 st1 st6">2</text>
			<circle class="st11" cx="268" cy="117.7" r="6.4"/>
			<path class="st12" d="M274.4,124.1l6.4-6.4l-6.4-6.4"/>
		</g>
		<line id="gge2738" class="st9" x1="321.2" y1="107" x2="331.8" y2="128.3"/>
		<line id="gge2739" class="st9" x1="302" y1="107" x2="310.5" y2="128.3"/>
		<line id="gge2740" class="st9" x1="310.5" y1="128.3" x2="321.2" y2="107"/>
		<line id="gge2741" class="st9" x1="331.8" y1="128.3" x2="338.2" y2="117.7"/>
		<g id="gge2742">
			<circle class="st8" cx="348.8" cy="117.7" r="4.3"/>
			<path class="st9" d="M348.8,117.7h-10.6"/>
			<text transform="matrix(1 0 0 1 320.2109 117.6738)" class="st10 st1 st6">1</text>
			<text transform="matrix(1 0 0 1 346.6865 109.168)" class="st10 st1 st6">1</text>
			<circle class="st11" cx="344.6" cy="117.7" r="6.4"/>
			<path class="st12" d="M338.2,111.3l-6.4,6.4l6.4,6.4"/>
		</g>
	</g>
	<g id="gge2750">
		<g id="gge2752" class="st3">
			<text transform="matrix(1 0 0 1 395.5976 218.4502)" class="st4 st5 st6">1k</text>
		</g>
		<g id="gge2754" class="st3">
			<text transform="matrix(1 0 0 1 395.5976 199.0986)" class="st4 st5 st6">R41</text>
		</g>
		<line id="gge2756" class="st9" x1="380.7" y1="224" x2="370.1" y2="217.6"/>
		<line id="gge2757" class="st9" x1="391.3" y1="207" x2="370.1" y2="196.4"/>
		<line id="gge2758" class="st9" x1="370.1" y1="217.6" x2="391.3" y2="207"/>
		<g id="gge2759">
			<circle class="st8" cx="380.7" cy="234.6" r="4.3"/>
			<path class="st9" d="M380.7,234.6V224"/>
			<text transform="matrix(-1.836970e-16 -1 1 -1.836970e-16 380.7109 215.4941)" class="st10 st1 st6">2</text>
			<text transform="matrix(-1.836970e-16 -1 1 -1.836970e-16 372.205 241.9688)" class="st10 st1 st6">2</text>
			<circle class="st11" cx="380.7" cy="230.4" r="6.4"/>
			<path class="st12" d="M387.1,224l-6.4-6.4l-6.4,6.4"/>
		</g>
		<line id="gge2766" class="st9" x1="370.1" y1="177.2" x2="391.3" y2="166.6"/>
		<line id="gge2767" class="st9" x1="370.1" y1="196.4" x2="391.3" y2="187.8"/>
		<line id="gge2768" class="st9" x1="391.3" y1="187.8" x2="370.1" y2="177.2"/>
		<line id="gge2769" class="st9" x1="391.3" y1="166.6" x2="380.7" y2="160.2"/>
		<g id="gge2770">
			<circle class="st8" cx="380.7" cy="149.6" r="4.3"/>
			<path class="st9" d="M380.7,149.6v10.6"/>
			<text transform="matrix(-1.836970e-16 -1 1 -1.836970e-16 380.7109 178.1738)" class="st10 st1 st6">1</text>
			<text transform="matrix(-1.836970e-16 -1 1 -1.836970e-16 372.205 151.6973)" class="st10 st1 st6">1</text>
			<circle class="st11" cx="380.7" cy="153.8" r="6.4"/>
			<path class="st12" d="M374.3,160.2l6.4,6.4l6.4-6.4"/>
		</g>
	</g>
	<line id="gge2777" class="st9" x1="263.8" y1="117.7" x2="200" y2="117.7"/>
	<line id="gge2778" class="st9" x1="231.9" y1="149.6" x2="231.9" y2="117.7"/>
	<polyline id="gge2780" class="st9" points="231.9,255.9 231.9,245.3 231.9,234.6 	"/>
	<polyline id="gge2781" class="st9" points="231.9,255.9 231.9,266.5 114.9,266.5 	"/>
	<polyline id="gge2783" class="st9" points="83,234.6 83,266.5 114.9,266.5 	"/>
	<polyline id="gge2784" class="st9" points="83,149.6 83,117.7 114.9,117.7 	"/>
	<polyline id="gge2785" class="st9" points="380.7,234.6 380.7,266.5 231.9,266.5 	"/>
	<polyline id="gge2787" class="st9" points="348.8,117.7 380.7,117.7 380.7,149.6 	"/>
	<g id="gge2788">
		<g id="gge2790" class="st3">
			<text transform="matrix(1 0 0 1 223.582 4.9678)" class="st4 st5 st6">SIN(0 1 50)</text>
		</g>
		<g id="gge2792" class="st3">
			<text transform="matrix(1 0 0 1 223.582 -14.4043)" class="st4 st5 st6">I2</text>
		</g>
		<ellipse id="gge2794" class="st7" cx="231.9" cy="32.6" rx="21.3" ry="21.3"/>
		<g id="gge2795">
			<circle class="st8" cx="274.4" cy="32.6" r="4.3"/>
			<path class="st9" d="M253.1,32.6h21.3"/>
			<text transform="matrix(1 0 0 1 235.1503 32.6133)" class="st10 st1 st6">2</text>
			<text transform="matrix(1 0 0 1 261.6259 24.1064)" class="st10 st1 st6">2</text>
			<circle class="st11" cx="302" cy="32.6" r="6.4"/>
			<path class="st12" d="M295.6,26.2l-6.4,6.4l6.4,6.4"/>
		</g>
		<line id="gge2802" class="st9" x1="248.9" y1="32.6" x2="244.6" y2="36.9"/>
		<line id="gge2803" class="st9" x1="248.9" y1="32.6" x2="244.6" y2="28.4"/>
		<g id="gge2804">
			<circle class="st8" cx="189.3" cy="32.6" r="4.3"/>
			<path class="st9" d="M210.6,32.6h-21.3"/>
			<text transform="matrix(1 0 0 1 214.8417 32.6133)" class="st10 st1 st6">1</text>
			<text transform="matrix(1 0 0 1 192.6191 24.1064)" class="st10 st1 st6">1</text>
			<circle class="st11" cx="161.7" cy="32.6" r="6.4"/>
			<path class="st12" d="M168.1,39l6.4-6.4l-6.4-6.4"/>
		</g>
		<line id="gge2811" class="st9" x1="248.9" y1="32.6" x2="214.8" y2="32.6"/>
	</g>
	<polyline id="gge2833" class="st9" points="189.3,32.6 83,32.6 83,117.7 	"/>
	<polyline id="gge2835" class="st9" points="274.4,32.6 380.7,32.6 380.7,117.7 	"/>
	<line id="gge2840" class="st9" x1="380.7" y1="117.7" x2="455.1" y2="117.7"/>
	<line id="gge2841" class="st9" x1="380.7" y1="266.5" x2="455.1" y2="266.5"/>
	<g id="gge2854">
		<text transform="matrix(1 0 0 1 136.1601 94.7285)" class="st13 st2">2k立</text>
	</g>
	<g id="gge2857">
		<text transform="matrix(1 0 0 1 285.0175 96.4092)" class="st13 st2">1k立</text>
	</g>
	<g id="gge2860">
		<text transform="matrix(1 0 0 1 242.4872 202.7354)" class="st13 st2">2k立</text>
	</g>
	<g id="gge2863">
		<text transform="matrix(1 0 0 1 327.5478 202.7354)" class="st13 st2">4k立</text>
	</g>
	<line id="gge2871" class="st9" x1="455.1" y1="128.3" x2="455.1" y2="255.9"/>
	<g id="gge2873">
		<text transform="matrix(1 0 0 1 455.1396 117.6738)" class="st1 st14">+</text>
	</g>
	<g id="gge2876">
		<text transform="matrix(1 0 0 1 455.1396 277.1641)" class="st1 st14">-</text>
	</g>
	<g id="gge2879">
		<text transform="matrix(1 0 0 1 210.5888 75.1436)" class="st13 st2">2mA</text>
	</g>
	<g id="gge2882">
		<text transform="matrix(1 0 0 1 465.7724 202.7354)" class="st15 st1 st2">Vo</text>
	</g>
	<g id="gge2834">
		<circle class="st8" cx="83" cy="117.7" r="4.3"/>
		<circle cx="83" cy="117.7" r="5.3"/>
	</g>
	<g id="gge2786">
		<circle class="st8" cx="231.9" cy="266.5" r="4.3"/>
		<circle cx="231.9" cy="266.5" r="5.3"/>
	</g>
	<g id="gge2779">
		<circle class="st8" cx="231.9" cy="117.7" r="4.3"/>
		<circle cx="231.9" cy="117.7" r="5.3"/>
	</g>
	<g id="gge2836">
		<circle class="st8" cx="380.7" cy="117.7" r="4.3"/>
		<circle cx="380.7" cy="117.7" r="5.3"/>
	</g>
	<g id="gge2867">
		<path d="M455.1,255.9l8.5-4.3l-8.5,10.6l-8.5-10.6L455.1,255.9z"/>
	</g>
	<g id="gge2870">
		<path d="M455.1,128.3l-8.5,4.3l8.5-10.6l8.5,10.6L455.1,128.3z"/>
	</g>
</g>
<g>
	<g id="ni34a4_1_">
		
			<image style="overflow:visible;" width="1200" height="423" id="ni34a4_00000114052095137766275830000010247063283131300264_" xlink:href="9884714EB65E9C32.png"  transform="matrix(3.635557e-02 0 0 3.635557e-02 28.621 288.6412)">
		</image>
	</g>
	<g>
		<text transform="matrix(1 0 0 1 28.4286 311.9828)" class="st16 st17">UBC Engineering</text>
	</g>
</g>
</svg>
