<?xml version="1.0" encoding="utf-8"?>
<!-- Generator: Adobe Illustrator 26.3.1, SVG Export Plug-In . SVG Version: 6.00 Build 0)  -->
<svg version="1.1" id="Layer_1" xmlns="http://www.w3.org/2000/svg" xmlns:xlink="http://www.w3.org/1999/xlink" x="0px" y="0px"
	 viewBox="0 0 804 336" style="enable-background:new 0 0 804 336;" xml:space="preserve">
<style type="text/css">
	.st0{display:none;}
	.st1{display:inline;}
	.st2{font-family:'ArialMT';}
	.st3{font-size:17.5px;}
	.st4{fill:none;stroke:#000000;stroke-width:2.5;}
	.st5{fill:none;}
	.st6{fill:none;stroke:#000000;stroke-width:2.5;stroke-linecap:round;stroke-linejoin:round;}
	.st7{display:none;enable-background:new    ;}
	.st8{font-family:'Verdana';}
	.st9{display:none;fill:none;stroke:#000000;stroke-width:2.5;}
	.st10{display:none;fill:none;stroke:#000000;stroke-width:2.5;stroke-linecap:round;stroke-linejoin:round;}
	.st11{fill:#0066CC;}
	.st12{font-size:18.75px;}
	.st13{font-family:'Helvetica';}
	.st14{font-size:16.25px;}
	.st15{fill:#FF3366;}
	.st16{font-family:'TimesNewRomanPSMT';}
	.st17{display:none;fill:#000080;enable-background:new    ;}
	.st18{font-size:22.5px;}
	.st19{font-family:'Folio-Medium';}
	.st20{font-size:5.504px;}
</style>
<g id="g1">
	<g id="gge6146">
		<g id="gge6148" class="st0">
			<text transform="matrix(1 0 0 1 113.25 186.9248)" class="st1 st2 st3">SIN(0 1 50) AC 1 0</text>
		</g>
		<g id="gge6150" class="st0">
			<text transform="matrix(1 0 0 1 113.25 163.9502)" class="st1 st2 st3">V16</text>
		</g>
		<ellipse id="gge6152" class="st4" cx="83.2" cy="156" rx="25" ry="25"/>
		<g id="gge6153">
			<circle class="st5" cx="83.2" cy="106" r="5"/>
			<path class="st6" d="M83.2,131v-25"/>
			<text transform="matrix(-1.836970e-16 -1 1 -1.836970e-16 83.25 147.125)" class="st7 st8 st3">1</text>
			<text transform="matrix(-1.836970e-16 -1 1 -1.836970e-16 73.25 121)" class="st7 st8 st3">1</text>
			<circle class="st9" cx="83.2" cy="73.5" r="7.5"/>
			<path class="st10" d="M75.8,81l7.5,7.5l7.5-7.5"/>
		</g>
		<line id="gge6160" class="st6" x1="78.2" y1="141" x2="88.2" y2="141"/>
		<line id="gge6161" class="st6" x1="83.2" y1="136" x2="83.2" y2="146"/>
		<g id="gge6162">
			<circle class="st5" cx="83.2" cy="206" r="5"/>
			<path class="st6" d="M83.2,181v25"/>
			<text transform="matrix(-1.836970e-16 -1 1 -1.836970e-16 83.25 171)" class="st7 st8 st3">2</text>
			<text transform="matrix(-1.836970e-16 -1 1 -1.836970e-16 73.25 202.125)" class="st7 st8 st3">2</text>
			<circle class="st9" cx="83.2" cy="238.5" r="7.5"/>
			<path class="st10" d="M90.8,231l-7.5-7.5l-7.5,7.5"/>
		</g>
		<line id="gge6169" class="st6" x1="88.2" y1="171" x2="78.2" y2="171"/>
	</g>
	<g id="gge6171">
		<text transform="matrix(1 0 0 1 583.25 193.5)" class="st11 st8 st12">R1</text>
	</g>
	<g id="gge6174">
		<g id="gge6176" class="st0">
			<text transform="matrix(1 0 0 1 249.3438 36)" class="st1 st2 st3">1k</text>
		</g>
		<g id="gge6178" class="st0">
			<text transform="matrix(1 0 0 1 249.3496 13.2998)" class="st1 st2 st3">R88</text>
		</g>
		<line id="gge6180" class="st6" x1="308.2" y1="56" x2="300.8" y2="68.5"/>
		<line id="gge6181" class="st6" x1="288.2" y1="43.5" x2="275.8" y2="68.5"/>
		<line id="gge6182" class="st6" x1="300.8" y1="68.5" x2="288.2" y2="43.5"/>
		<g id="gge6183">
			<circle class="st5" cx="320.8" cy="56" r="5"/>
			<path class="st6" d="M320.8,56h-12.5"/>
			<text transform="matrix(1 0 0 1 287.125 56)" class="st7 st8 st3">2</text>
			<text transform="matrix(1 0 0 1 318.25 46)" class="st7 st8 st3">2</text>
			<circle class="st9" cx="315.8" cy="56" r="7.5"/>
			<path class="st10" d="M308.2,48.5l-7.5,7.5l7.5,7.5"/>
		</g>
		<line id="gge6190" class="st6" x1="253.2" y1="68.5" x2="240.8" y2="43.5"/>
		<line id="gge6191" class="st6" x1="275.8" y1="68.5" x2="265.8" y2="43.5"/>
		<line id="gge6192" class="st6" x1="265.8" y1="43.5" x2="253.2" y2="68.5"/>
		<line id="gge6193" class="st6" x1="240.8" y1="43.5" x2="233.2" y2="56"/>
		<g id="gge6194">
			<circle class="st5" cx="220.8" cy="56" r="5"/>
			<path class="st6" d="M220.8,56h12.5"/>
			<text transform="matrix(1 0 0 1 243.25 56)" class="st7 st8 st3">1</text>
			<text transform="matrix(1 0 0 1 212.125 46)" class="st7 st8 st3">1</text>
			<circle class="st9" cx="225.8" cy="56" r="7.5"/>
			<path class="st10" d="M233.2,63.5l7.5-7.5l-7.5-7.5"/>
		</g>
	</g>
	<g id="gge6202">
		<text transform="matrix(1 0 0 1 233.25 206)" class="st13 st12">150kΩ</text>
	</g>
	<g id="gge6205">
		<text transform="matrix(-1.836970e-16 -1 1 -1.836970e-16 770.75 93.5)" class="st8 st14">+</text>
	</g>
	<g id="gge6207">
		<text transform="matrix(1 0 0 1 758.25 256)" class="st8 st14">-</text>
	</g>
	<g id="gge6210">
		<text transform="matrix(1 0 0 1 758.25 181)" class="st15 st8 st12">Vo</text>
	</g>
	<g id="gge6362">
		<g id="gge6364" class="st0">
			<text transform="matrix(1 0 0 1 338.25 224.5498)" class="st1 st2 st3">1k</text>
		</g>
		<g id="gge6366" class="st0">
			<text transform="matrix(1 0 0 1 338.25 201.8252)" class="st1 st2 st3">R92</text>
		</g>
		<line id="gge6368" class="st6" x1="320.8" y1="156" x2="333.2" y2="163.5"/>
		<line id="gge6369" class="st6" x1="308.2" y1="176" x2="333.2" y2="188.5"/>
		<line id="gge6370" class="st6" x1="333.2" y1="163.5" x2="308.2" y2="176"/>
		<g id="gge6371">
			<circle class="st5" cx="320.8" cy="143.5" r="5"/>
			<path class="st6" d="M320.8,143.5V156"/>
			<text transform="matrix(-1.836970e-16 -1 1 -1.836970e-16 320.75 177.125)" class="st7 st8 st3">2</text>
			<text transform="matrix(-1.836970e-16 -1 1 -1.836970e-16 310.75 146)" class="st7 st8 st3">2</text>
			<circle class="st9" cx="320.8" cy="148.5" r="7.5"/>
			<path class="st10" d="M313.2,156l7.5,7.5l7.5-7.5"/>
		</g>
		<line id="gge6378" class="st6" x1="333.2" y1="211" x2="308.2" y2="223.5"/>
		<line id="gge6379" class="st6" x1="333.2" y1="188.5" x2="308.2" y2="198.5"/>
		<line id="gge6380" class="st6" x1="308.2" y1="198.5" x2="333.2" y2="211"/>
		<line id="gge6381" class="st6" x1="308.2" y1="223.5" x2="320.8" y2="231"/>
		<g id="gge6382">
			<circle class="st5" cx="320.8" cy="243.5" r="5"/>
			<path class="st6" d="M320.8,243.5V231"/>
			<text transform="matrix(-1.836970e-16 -1 1 -1.836970e-16 320.75 221)" class="st7 st8 st3">1</text>
			<text transform="matrix(-1.836970e-16 -1 1 -1.836970e-16 310.75 252.125)" class="st7 st8 st3">1</text>
			<circle class="st9" cx="320.8" cy="238.5" r="7.5"/>
			<path class="st10" d="M328.2,231l-7.5-7.5l-7.5,7.5"/>
		</g>
	</g>
	<g id="gge6418">
		<g id="gge6420" class="st0">
			<text transform="matrix(1 0 0 1 574.3438 136)" class="st1 st2 st3">1k</text>
		</g>
		<g id="gge6422" class="st0">
			<text transform="matrix(1 0 0 1 574.3438 113.2998)" class="st1 st2 st3">R94</text>
		</g>
		<line id="gge6424" class="st6" x1="558.2" y1="156" x2="565.8" y2="143.5"/>
		<line id="gge6425" class="st6" x1="578.2" y1="168.5" x2="590.8" y2="143.5"/>
		<line id="gge6426" class="st6" x1="565.8" y1="143.5" x2="578.2" y2="168.5"/>
		<g id="gge6427">
			<circle class="st5" cx="545.8" cy="156" r="5"/>
			<path class="st6" d="M545.8,156h12.5"/>
			<text transform="matrix(1 0 0 1 568.25 156)" class="st7 st8 st3">2</text>
			<text transform="matrix(1 0 0 1 537.125 146)" class="st7 st8 st3">2</text>
			<circle class="st9" cx="550.8" cy="156" r="7.5"/>
			<path class="st10" d="M558.2,163.5l7.5-7.5l-7.5-7.5"/>
		</g>
		<line id="gge6434" class="st6" x1="613.2" y1="143.5" x2="625.8" y2="168.5"/>
		<line id="gge6435" class="st6" x1="590.8" y1="143.5" x2="600.8" y2="168.5"/>
		<line id="gge6436" class="st6" x1="600.8" y1="168.5" x2="613.2" y2="143.5"/>
		<line id="gge6437" class="st6" x1="625.8" y1="168.5" x2="633.2" y2="156"/>
		<g id="gge6438">
			<circle class="st5" cx="645.8" cy="156" r="5"/>
			<path class="st6" d="M645.8,156h-12.5"/>
			<text transform="matrix(1 0 0 1 612.125 156)" class="st7 st8 st3">1</text>
			<text transform="matrix(1 0 0 1 643.25 146)" class="st7 st8 st3">1</text>
			<circle class="st9" cx="640.8" cy="156" r="7.5"/>
			<path class="st10" d="M633.2,148.5l-7.5,7.5l7.5,7.5"/>
		</g>
	</g>
	<polyline id="gge6445" class="st6" points="83.2,206 83.2,256 320.8,256 320.8,243.5 	"/>
	<line id="gge6446" class="st6" x1="320.8" y1="143.5" x2="320.8" y2="56"/>
	<line id="gge6449" class="st6" x1="508.2" y1="56" x2="320.8" y2="56"/>
	<polyline id="gge6456" class="st6" points="745.8,256 433.2,256 320.8,256 	"/>
	<polyline id="gge6462" class="st6" points="745.8,81 708.2,81 708.2,156 645.8,156 	"/>
	<g id="gge6467">
		<text transform="matrix(1 0 0 1 20.75 168.5)" class="st8 st12">Vs</text>
	</g>
	<g id="gge6473">
		<g id="gge6475" class="st0">
			<text transform="matrix(1 0 0 1 249.3438 123.5)" class="st1 st2 st3">1k</text>
		</g>
		<g id="gge6477" class="st0">
			<text transform="matrix(1 0 0 1 249.3496 100.7998)" class="st1 st2 st3">R95</text>
		</g>
		<line id="gge6479" class="st6" x1="308.2" y1="143.5" x2="300.8" y2="156"/>
		<line id="gge6480" class="st6" x1="288.2" y1="131" x2="275.8" y2="156"/>
		<line id="gge6481" class="st6" x1="300.8" y1="156" x2="288.2" y2="131"/>
		<g id="gge6482">
			<circle class="st5" cx="320.8" cy="143.5" r="5"/>
			<path class="st6" d="M320.8,143.5h-12.5"/>
			<text transform="matrix(1 0 0 1 287.125 143.5)" class="st7 st8 st3">2</text>
			<text transform="matrix(1 0 0 1 318.25 133.5)" class="st7 st8 st3">2</text>
			<circle class="st9" cx="315.8" cy="143.5" r="7.5"/>
			<path class="st10" d="M308.2,136l-7.5,7.5l7.5,7.5"/>
		</g>
		<line id="gge6489" class="st6" x1="253.2" y1="156" x2="240.8" y2="131"/>
		<line id="gge6490" class="st6" x1="275.8" y1="156" x2="265.8" y2="131"/>
		<line id="gge6491" class="st6" x1="265.8" y1="131" x2="253.2" y2="156"/>
		<line id="gge6492" class="st6" x1="240.8" y1="131" x2="233.2" y2="143.5"/>
		<g id="gge6493">
			<circle class="st5" cx="220.8" cy="143.5" r="5"/>
			<path class="st6" d="M220.8,143.5h12.5"/>
			<text transform="matrix(1 0 0 1 243.25 143.5)" class="st7 st8 st3">1</text>
			<text transform="matrix(1 0 0 1 212.125 133.5)" class="st7 st8 st3">1</text>
			<circle class="st9" cx="225.8" cy="143.5" r="7.5"/>
			<path class="st10" d="M233.2,151l7.5-7.5l-7.5-7.5"/>
		</g>
	</g>
	<g id="gge6504">
		<g id="gge6506" class="st0">
			<text transform="matrix(1 0 0 1 149.3438 36)" class="st1 st2 st3">1k</text>
		</g>
		<g id="gge6508" class="st0">
			<text transform="matrix(1 0 0 1 149.3496 13.2998)" class="st1 st2 st3">R96</text>
		</g>
		<line id="gge6510" class="st6" x1="208.2" y1="56" x2="200.8" y2="68.5"/>
		<line id="gge6511" class="st6" x1="188.2" y1="43.5" x2="175.8" y2="68.5"/>
		<line id="gge6512" class="st6" x1="200.8" y1="68.5" x2="188.2" y2="43.5"/>
		<g id="gge6513">
			<circle class="st5" cx="220.8" cy="56" r="5"/>
			<path class="st6" d="M220.8,56h-12.5"/>
			<text transform="matrix(1 0 0 1 187.125 56)" class="st7 st8 st3">2</text>
			<text transform="matrix(1 0 0 1 218.25 46)" class="st7 st8 st3">2</text>
			<circle class="st9" cx="215.8" cy="56" r="7.5"/>
			<path class="st10" d="M208.2,48.5l-7.5,7.5l7.5,7.5"/>
		</g>
		<line id="gge6520" class="st6" x1="153.2" y1="68.5" x2="140.8" y2="43.5"/>
		<line id="gge6521" class="st6" x1="175.8" y1="68.5" x2="165.8" y2="43.5"/>
		<line id="gge6522" class="st6" x1="165.8" y1="43.5" x2="153.2" y2="68.5"/>
		<line id="gge6523" class="st6" x1="140.8" y1="43.5" x2="133.2" y2="56"/>
		<g id="gge6524">
			<circle class="st5" cx="120.8" cy="56" r="5"/>
			<path class="st6" d="M120.8,56h12.5"/>
			<text transform="matrix(1 0 0 1 143.25 56)" class="st7 st8 st3">1</text>
			<text transform="matrix(1 0 0 1 112.125 46)" class="st7 st8 st3">1</text>
			<circle class="st9" cx="125.8" cy="56" r="7.5"/>
			<path class="st10" d="M133.2,63.5l7.5-7.5l-7.5-7.5"/>
		</g>
	</g>
	<polyline id="gge6531" class="st6" points="83.2,106 83.2,56 120.8,56 	"/>
	<g id="gge6534">
		<text transform="matrix(1 0 0 1 245.75 118.5)" class="st13 st12">50kΩ</text>
	</g>
	<g id="gge6537">
		<text transform="matrix(1 0 0 1 245.75 31)" class="st13 st12">50kΩ</text>
	</g>
	<g id="gge6540">
		<text transform="matrix(1 0 0 1 145.75 31)" class="st13 st12">25kΩ</text>
	</g>
	<line id="gge6542" class="st6" x1="220.8" y1="143.5" x2="220.8" y2="56"/>
	<g id="gge6545">
		<text transform="matrix(1 0 0 1 520.75 241.6504)" class="st13 st12">6kΩ</text>
	</g>
	<line id="gge6552" class="st6" x1="745.8" y1="93.5" x2="745.8" y2="243.5"/>
	<g id="gge6597">
		<g id="gge6598" class="st0">
			<text transform="matrix(1 0 0 1 608.25 156)" class="st1 st16 st3">none</text>
		</g>
		<g id="gge6600" class="st0">
			<text transform="matrix(1 0 0 1 608.25 18.5)" class="st1 st16 st3">AAAAA</text>
		</g>
		<polyline id="gge6572" class="st6" points="558.2,131 658.2,81 558.2,31 558.2,131 		"/>
		<line id="gge6573" class="st6" x1="570.8" y1="106" x2="585.8" y2="106"/>
		<line id="gge6574" class="st6" x1="570.8" y1="56" x2="585.8" y2="56"/>
		<line id="gge6575" class="st6" x1="578.2" y1="48.5" x2="578.2" y2="63.5"/>
		<g id="gge6576">
			<circle class="st5" cx="508.2" cy="56" r="5"/>
			<path class="st6" d="M508.2,56h50"/>
			<text transform="matrix(1 0 0 1 565.75 63.5)" class="st7 st8 st3">IN-</text>
			<text transform="matrix(1 0 0 1 532.125 53.5)" class="st7 st8 st3">2</text>
			<circle class="st9" cx="550.8" cy="56" r="7.5"/>
			<path class="st10" d="M558.2,63.5l7.5-7.5l-7.5-7.5"/>
		</g>
		<g id="gge6583">
			<circle class="st5" cx="508.2" cy="106" r="5"/>
			<path class="st6" d="M508.2,106h50"/>
			<text transform="matrix(1 0 0 1 565.75 113.5)" class="st7 st8 st3">IN+</text>
			<text transform="matrix(1 0 0 1 532.125 103.5)" class="st7 st8 st3">3</text>
			<circle class="st9" cx="550.8" cy="106" r="7.5"/>
			<path class="st10" d="M558.2,113.5l7.5-7.5l-7.5-7.5"/>
		</g>
		<g id="gge6590">
			<circle class="st5" cx="708.2" cy="81" r="5"/>
			<path class="st6" d="M708.2,81h-50"/>
			<text transform="matrix(1 0 0 1 613.3828 88.5)" class="st7 st8 st3">OUT</text>
			<text transform="matrix(1 0 0 1 673.25 78.5)" class="st7 st8 st3">6</text>
			<circle class="st9" cx="665.8" cy="81" r="7.5"/>
			<path class="st10" d="M658.2,73.5l-7.5,7.5l7.5,7.5"/>
		</g>
	</g>
	<g id="gge6645">
		<g id="gge6647" class="st0">
			<text transform="matrix(1 0 0 1 525.75 237.0498)" class="st1 st2 st3">1k</text>
		</g>
		<g id="gge6649" class="st0">
			<text transform="matrix(1 0 0 1 525.75 214.3252)" class="st1 st2 st3">R93</text>
		</g>
		<line id="gge6651" class="st6" x1="508.2" y1="168.5" x2="520.8" y2="176"/>
		<line id="gge6652" class="st6" x1="495.8" y1="188.5" x2="520.8" y2="201"/>
		<line id="gge6653" class="st6" x1="520.8" y1="176" x2="495.8" y2="188.5"/>
		<g id="gge6654">
			<circle class="st5" cx="508.2" cy="156" r="5"/>
			<path class="st6" d="M508.2,156v12.5"/>
			<text transform="matrix(-1.836970e-16 -1 1 -1.836970e-16 508.25 189.625)" class="st7 st8 st3">2</text>
			<text transform="matrix(-1.836970e-16 -1 1 -1.836970e-16 498.25 158.5)" class="st7 st8 st3">2</text>
			<circle class="st9" cx="508.2" cy="161" r="7.5"/>
			<path class="st10" d="M500.8,168.5l7.5,7.5l7.5-7.5"/>
		</g>
		<line id="gge6661" class="st6" x1="520.8" y1="223.5" x2="495.8" y2="236"/>
		<line id="gge6662" class="st6" x1="520.8" y1="201" x2="495.8" y2="211"/>
		<line id="gge6663" class="st6" x1="495.8" y1="211" x2="520.8" y2="223.5"/>
		<line id="gge6664" class="st6" x1="495.8" y1="236" x2="508.2" y2="243.5"/>
		<g id="gge6665">
			<circle class="st5" cx="508.2" cy="256" r="5"/>
			<path class="st6" d="M508.2,256v-12.5"/>
			<text transform="matrix(-1.836970e-16 -1 1 -1.836970e-16 508.25 233.5)" class="st7 st8 st3">1</text>
			<text transform="matrix(-1.836970e-16 -1 1 -1.836970e-16 498.25 264.625)" class="st7 st8 st3">1</text>
			<circle class="st9" cx="508.2" cy="251" r="7.5"/>
			<path class="st10" d="M515.8,243.5l-7.5-7.5l-7.5,7.5"/>
		</g>
	</g>
	<g id="gge6677">
		<g id="gge6679" class="st0">
			<text transform="matrix(1 0 0 1 450.75 212.0498)" class="st1 st2 st3">1k</text>
		</g>
		<g id="gge6681" class="st0">
			<text transform="matrix(1 0 0 1 450.75 189.3252)" class="st1 st2 st3">R97</text>
		</g>
		<line id="gge6683" class="st6" x1="433.2" y1="143.5" x2="445.8" y2="151"/>
		<line id="gge6684" class="st6" x1="420.8" y1="163.5" x2="445.8" y2="176"/>
		<line id="gge6685" class="st6" x1="445.8" y1="151" x2="420.8" y2="163.5"/>
		<g id="gge6686">
			<circle class="st5" cx="433.2" cy="131" r="5"/>
			<path class="st6" d="M433.2,131v12.5"/>
			<text transform="matrix(-1.836970e-16 -1 1 -1.836970e-16 433.25 164.625)" class="st7 st8 st3">2</text>
			<text transform="matrix(-1.836970e-16 -1 1 -1.836970e-16 423.25 133.5)" class="st7 st8 st3">2</text>
			<circle class="st9" cx="433.2" cy="136" r="7.5"/>
			<path class="st10" d="M425.8,143.5l7.5,7.5l7.5-7.5"/>
		</g>
		<line id="gge6693" class="st6" x1="445.8" y1="198.5" x2="420.8" y2="211"/>
		<line id="gge6694" class="st6" x1="445.8" y1="176" x2="420.8" y2="186"/>
		<line id="gge6695" class="st6" x1="420.8" y1="186" x2="445.8" y2="198.5"/>
		<line id="gge6696" class="st6" x1="420.8" y1="211" x2="433.2" y2="218.5"/>
		<g id="gge6697">
			<circle class="st5" cx="433.2" cy="231" r="5"/>
			<path class="st6" d="M433.2,231v-12.5"/>
			<text transform="matrix(-1.836970e-16 -1 1 -1.836970e-16 433.25 208.5)" class="st7 st8 st3">1</text>
			<text transform="matrix(-1.836970e-16 -1 1 -1.836970e-16 423.25 239.625)" class="st7 st8 st3">1</text>
			<circle class="st9" cx="433.2" cy="226" r="7.5"/>
			<path class="st10" d="M440.8,218.5l-7.5-7.5l-7.5,7.5"/>
		</g>
	</g>
	<polyline id="gge6705" class="st6" points="433.2,131 433.2,106 508.2,106 508.2,156 545.8,156 	"/>
	<line id="gge6714" class="st6" x1="433.2" y1="231" x2="433.2" y2="256"/>
	<g id="gge6717">
		<text transform="matrix(1 0 0 1 370.75 143.5)" class="st13 st12">12kΩ</text>
	</g>
	<g id="gge6731">
		<circle class="st5" cx="433.2" cy="256" r="5"/>
		<text transform="matrix(1 0 0 1 405.75 223.5)" class="st17 st16 st18">GND</text>
		<line id="gge6734" class="st6" x1="433.2" y1="281" x2="433.2" y2="256"/>
		<line id="gge6735" class="st6" x1="408.2" y1="281" x2="455.8" y2="281"/>
		<line id="gge6736" class="st6" x1="418.2" y1="286" x2="450.8" y2="286"/>
		<line id="gge6737" class="st6" x1="423.2" y1="291" x2="440.8" y2="291"/>
		<line id="gge6738" class="st6" x1="430.8" y1="296" x2="435.8" y2="296"/>
	</g>
	<g id="gge6715">
		<circle class="st5" cx="433.2" cy="256" r="5"/>
		<circle cx="433.2" cy="256" r="6.2"/>
	</g>
	<g id="gge6713">
		<circle class="st5" cx="508.2" cy="106" r="5"/>
		<circle cx="508.2" cy="106" r="6.2"/>
	</g>
	<g id="gge6709">
		<circle class="st5" cx="508.2" cy="156" r="5"/>
		<circle cx="508.2" cy="156" r="6.2"/>
	</g>
	<g id="gge6502">
		<circle class="st5" cx="320.8" cy="56" r="5"/>
		<circle cx="320.8" cy="56" r="6.2"/>
	</g>
	<g id="gge6635">
		<circle class="st5" cx="708.2" cy="81" r="5"/>
		<circle cx="708.2" cy="81" r="6.2"/>
	</g>
	<g id="gge6543">
		<circle class="st5" cx="220.8" cy="56" r="5"/>
		<circle cx="220.8" cy="56" r="6.2"/>
	</g>
	<g id="gge6501">
		<circle class="st5" cx="320.8" cy="143.5" r="5"/>
		<circle cx="320.8" cy="143.5" r="6.2"/>
	</g>
	<g id="gge6673">
		<circle class="st5" cx="320.8" cy="256" r="5"/>
		<circle cx="320.8" cy="256" r="6.2"/>
	</g>
	<g id="gge6704">
		<circle class="st5" cx="508.2" cy="256" r="5"/>
		<circle cx="508.2" cy="256" r="6.2"/>
	</g>
	<g id="rep2">
		<path d="M745.8,243.5l10-5l-10,12.5l-10-12.5L745.8,243.5z"/>
	</g>
</g>
<g>
	<g id="ni34a4_1_">
		
			<image style="overflow:visible;" width="1200" height="423" id="ni34a4_00000114052095137766275830000010247063283131300264_" xlink:href="9A6CB230DD9DB4BC.png"  transform="matrix(3.635557e-02 0 0 3.635557e-02 22.1855 298.6412)">
		</image>
	</g>
	<g>
		<text transform="matrix(1 0 0 1 21.9932 321.9828)" class="st19 st20">UBC Engineering</text>
	</g>
</g>
</svg>
