<?xml version="1.0" encoding="utf-8"?>
<!-- Generator: Adobe Illustrator 26.3.1, SVG Export Plug-In . SVG Version: 6.00 Build 0)  -->
<svg version="1.1" id="Layer_1" xmlns="http://www.w3.org/2000/svg" xmlns:xlink="http://www.w3.org/1999/xlink" x="0px" y="0px"
	 viewBox="0 0 509.4 332.2" style="enable-background:new 0 0 509.4 332.2;" xml:space="preserve">
<style type="text/css">
	.st0{font-family:'Verdana';}
	.st1{font-size:15.3279px;}
	.st2{fill:none;stroke:#000000;stroke-width:2.3581;stroke-linecap:round;stroke-linejoin:round;}
	.st3{fill:#FF3366;}
	.st4{font-size:17.686px;}
	.st5{display:none;}
	.st6{display:inline;}
	.st7{font-family:'ArialMT';}
	.st8{font-size:16.507px;}
	.st9{fill:none;stroke:#000000;stroke-width:2.3581;}
	.st10{fill:none;}
	.st11{display:none;enable-background:new    ;}
	.st12{display:none;fill:none;stroke:#000000;stroke-width:2.3581;}
	.st13{display:none;fill:none;stroke:#000000;stroke-width:2.3581;stroke-linecap:round;stroke-linejoin:round;}
	.st14{font-family:'Helvetica';}
	.st15{fill:#0066CC;}
	.st16{font-family:'Folio-Medium';}
	.st17{font-size:5.504px;}
</style>
<g id="g1">
	<g id="gge3572">
		<text transform="matrix(-1.836970e-16 -1 1 -1.836970e-16 449.2642 41.2207)" class="st0 st1">+</text>
	</g>
	<g id="gge3574">
		<text transform="matrix(1 0 0 1 260.6138 41.2188)" class="st0 st1">-</text>
	</g>
	<line id="gge3576" class="st2" x1="284.2" y1="41.2" x2="425.7" y2="41.2"/>
	<g id="gge3584">
		<text transform="matrix(1 0 0 1 331.3579 29.4287)" class="st3 st0 st4">VAB</text>
	</g>
	<g id="gge3602">
		<g id="gge3604" class="st5">
			<text transform="matrix(1 0 0 1 135.6323 223.7861)" class="st6 st7 st8">SIN(0 1 50) AC 1 0</text>
		</g>
		<g id="gge3606" class="st5">
			<text transform="matrix(1 0 0 1 135.6323 202.3506)" class="st6 st7 st8">V6</text>
		</g>
		<ellipse id="gge3608" class="st9" cx="107.3" cy="194.5" rx="23.6" ry="23.6"/>
		<g id="gge3609">
			<circle class="st10" cx="107.3" cy="241.7" r="4.7"/>
			<path class="st2" d="M107.3,218.1v23.6"/>
			<text transform="matrix(-1.836970e-16 -1 1 -1.836970e-16 107.3345 213.3633)" class="st11 st0 st8">1</text>
			<text transform="matrix(-1.836970e-16 -1 1 -1.836970e-16 97.9019 238.0078)" class="st11 st0 st8">1</text>
			<circle class="st12" cx="107.3" cy="272.3" r="7.1"/>
			<path class="st13" d="M114.4,265.2l-7.1-7.1l-7.1,7.1"/>
		</g>
		<line id="gge3616" class="st2" x1="112.1" y1="208.6" x2="102.6" y2="208.6"/>
		<line id="gge3617" class="st2" x1="107.3" y1="213.4" x2="107.3" y2="203.9"/>
		<g id="gge3618">
			<circle class="st10" cx="107.3" cy="147.3" r="4.7"/>
			<path class="st2" d="M107.3,170.9v-23.6"/>
			<text transform="matrix(-1.836970e-16 -1 1 -1.836970e-16 107.3345 190.8438)" class="st11 st0 st8">2</text>
			<text transform="matrix(-1.836970e-16 -1 1 -1.836970e-16 97.9019 161.4844)" class="st11 st0 st8">2</text>
			<circle class="st12" cx="107.3" cy="116.7" r="7.1"/>
			<path class="st13" d="M100.3,123.8l7.1,7.1l7.1-7.1"/>
		</g>
		<line id="gge3625" class="st2" x1="102.6" y1="180.3" x2="112.1" y2="180.3"/>
	</g>
	<g id="gge3627">
		<g id="gge3629" class="st5">
			<text transform="matrix(1 0 0 1 300.7017 223.7861)" class="st6 st7 st8">SIN(0 1 50)</text>
		</g>
		<g id="gge3631" class="st5">
			<text transform="matrix(1 0 0 1 300.7017 202.3506)" class="st6 st7 st8">I5</text>
		</g>
		<ellipse id="gge3633" class="st9" cx="272.4" cy="194.5" rx="23.6" ry="23.6"/>
		<g id="gge3634">
			<circle class="st10" cx="272.4" cy="147.3" r="4.7"/>
			<path class="st2" d="M272.4,170.9v-23.6"/>
			<text transform="matrix(-1.836970e-16 -1 1 -1.836970e-16 272.4038 190.8438)" class="st11 st0 st8">2</text>
			<text transform="matrix(-1.836970e-16 -1 1 -1.836970e-16 262.9712 161.4844)" class="st11 st0 st8">2</text>
			<circle class="st12" cx="272.4" cy="116.7" r="7.1"/>
			<path class="st13" d="M265.3,123.8l7.1,7.1l7.1-7.1"/>
		</g>
		<line id="gge3641" class="st2" x1="272.4" y1="175.6" x2="277.1" y2="180.3"/>
		<line id="gge3642" class="st2" x1="272.4" y1="175.6" x2="267.7" y2="180.3"/>
		<g id="gge3643">
			<circle class="st10" cx="272.4" cy="241.7" r="4.7"/>
			<path class="st2" d="M272.4,218.1v23.6"/>
			<text transform="matrix(-1.836970e-16 -1 1 -1.836970e-16 272.4038 213.3633)" class="st11 st0 st8">1</text>
			<text transform="matrix(-1.836970e-16 -1 1 -1.836970e-16 262.9712 238.0078)" class="st11 st0 st8">1</text>
			<circle class="st12" cx="272.4" cy="272.3" r="7.1"/>
			<path class="st13" d="M279.5,265.2l-7.1-7.1l-7.1,7.1"/>
		</g>
		<line id="gge3650" class="st2" x1="272.4" y1="175.6" x2="272.4" y2="213.4"/>
	</g>
	<g id="gge3655">
		<g id="gge3657" class="st5">
			<text transform="matrix(1 0 0 1 175.8149 93.0986)" class="st6 st7 st8">1k</text>
		</g>
		<g id="gge3659" class="st5">
			<text transform="matrix(1 0 0 1 175.8149 71.6152)" class="st6 st7 st8">R57</text>
		</g>
		<line id="gge3661" class="st2" x1="225.2" y1="112" x2="218.2" y2="123.8"/>
		<line id="gge3662" class="st2" x1="206.4" y1="100.2" x2="194.6" y2="123.8"/>
		<line id="gge3663" class="st2" x1="218.2" y1="123.8" x2="206.4" y2="100.2"/>
		<g id="gge3664">
			<circle class="st10" cx="237" cy="112" r="4.7"/>
			<path class="st2" d="M237,112h-11.8"/>
			<text transform="matrix(1 0 0 1 205.3149 111.9629)" class="st11 st0 st8">2</text>
			<text transform="matrix(1 0 0 1 234.6743 102.5303)" class="st11 st0 st8">2</text>
			<circle class="st12" cx="232.3" cy="112" r="7.1"/>
			<path class="st13" d="M225.2,104.9l-7.1,7.1l7.1,7.1"/>
		</g>
		<line id="gge3671" class="st2" x1="173.4" y1="123.8" x2="161.6" y2="100.2"/>
		<line id="gge3672" class="st2" x1="194.6" y1="123.8" x2="185.2" y2="100.2"/>
		<line id="gge3673" class="st2" x1="185.2" y1="100.2" x2="173.4" y2="123.8"/>
		<line id="gge3674" class="st2" x1="161.6" y1="100.2" x2="154.5" y2="112"/>
		<g id="gge3675">
			<circle class="st10" cx="142.7" cy="112" r="4.7"/>
			<path class="st2" d="M142.7,112h11.8"/>
			<text transform="matrix(1 0 0 1 163.9302 111.9629)" class="st11 st0 st8">1</text>
			<text transform="matrix(1 0 0 1 134.5708 102.5303)" class="st11 st0 st8">1</text>
			<circle class="st12" cx="147.4" cy="112" r="7.1"/>
			<path class="st13" d="M154.5,119l7.1-7.1l-7.1-7.1"/>
		</g>
	</g>
	<polyline id="gge3683" class="st2" points="107.3,147.3 107.3,112 142.7,112 	"/>
	<polyline id="gge3684" class="st2" points="237,112 272.4,112 272.4,147.3 	"/>
	<polyline id="gge3685" class="st2" points="272.4,241.7 272.4,277 107.3,277 107.3,241.7 	"/>
	<g id="gge3687">
		<g id="gge3689" class="st5">
			<text transform="matrix(1 0 0 1 340.8853 93.0986)" class="st6 st7 st8">1k</text>
		</g>
		<g id="gge3691" class="st5">
			<text transform="matrix(1 0 0 1 340.8853 71.6152)" class="st6 st7 st8">R61</text>
		</g>
		<line id="gge3693" class="st2" x1="390.3" y1="112" x2="383.2" y2="123.8"/>
		<line id="gge3694" class="st2" x1="371.4" y1="100.2" x2="359.7" y2="123.8"/>
		<line id="gge3695" class="st2" x1="383.2" y1="123.8" x2="371.4" y2="100.2"/>
		<g id="gge3696">
			<circle class="st10" cx="402.1" cy="112" r="4.7"/>
			<path class="st2" d="M402.1,112h-11.8"/>
			<text transform="matrix(1 0 0 1 370.3843 111.9629)" class="st11 st0 st8">2</text>
			<text transform="matrix(1 0 0 1 399.7437 102.5303)" class="st11 st0 st8">2</text>
			<circle class="st12" cx="397.4" cy="112" r="7.1"/>
			<path class="st13" d="M390.3,104.9l-7.1,7.1l7.1,7.1"/>
		</g>
		<line id="gge3703" class="st2" x1="338.4" y1="123.8" x2="326.6" y2="100.2"/>
		<line id="gge3704" class="st2" x1="359.7" y1="123.8" x2="350.2" y2="100.2"/>
		<line id="gge3705" class="st2" x1="350.2" y1="100.2" x2="338.4" y2="123.8"/>
		<line id="gge3706" class="st2" x1="326.6" y1="100.2" x2="319.6" y2="112"/>
		<g id="gge3707">
			<circle class="st10" cx="307.8" cy="112" r="4.7"/>
			<path class="st2" d="M307.8,112h11.8"/>
			<text transform="matrix(1 0 0 1 328.9995 111.9629)" class="st11 st0 st8">1</text>
			<text transform="matrix(1 0 0 1 299.6401 102.5303)" class="st11 st0 st8">1</text>
			<circle class="st12" cx="312.5" cy="112" r="7.1"/>
			<path class="st13" d="M319.6,119l7.1-7.1l-7.1-7.1"/>
		</g>
	</g>
	<g id="gge3715">
		<g id="gge3717" class="st5">
			<text transform="matrix(1 0 0 1 453.981 223.7393)" class="st6 st7 st8">1k</text>
		</g>
		<g id="gge3719" class="st5">
			<text transform="matrix(1 0 0 1 453.981 202.1387)" class="st6 st7 st8">R62</text>
		</g>
		<line id="gge3721" class="st2" x1="437.5" y1="159.1" x2="449.3" y2="166.2"/>
		<line id="gge3722" class="st2" x1="425.7" y1="178" x2="449.3" y2="189.8"/>
		<line id="gge3723" class="st2" x1="449.3" y1="166.2" x2="425.7" y2="178"/>
		<g id="gge3724">
			<circle class="st10" cx="437.5" cy="147.3" r="4.7"/>
			<path class="st2" d="M437.5,147.3v11.8"/>
			<text transform="matrix(-1.836970e-16 -1 1 -1.836970e-16 437.4741 179.0527)" class="st11 st0 st8">2</text>
			<text transform="matrix(-1.836970e-16 -1 1 -1.836970e-16 428.0415 149.6934)" class="st11 st0 st8">2</text>
			<circle class="st12" cx="437.5" cy="152.1" r="7.1"/>
			<path class="st13" d="M430.4,159.1l7.1,7.1l7.1-7.1"/>
		</g>
		<line id="gge3731" class="st2" x1="449.3" y1="211" x2="425.7" y2="222.8"/>
		<line id="gge3732" class="st2" x1="449.3" y1="189.8" x2="425.7" y2="199.2"/>
		<line id="gge3733" class="st2" x1="425.7" y1="199.2" x2="449.3" y2="211"/>
		<line id="gge3734" class="st2" x1="425.7" y1="222.8" x2="437.5" y2="229.9"/>
		<g id="gge3735">
			<circle class="st10" cx="437.5" cy="241.7" r="4.7"/>
			<path class="st2" d="M437.5,241.7v-11.8"/>
			<text transform="matrix(-1.836970e-16 -1 1 -1.836970e-16 437.4741 220.4395)" class="st11 st0 st8">1</text>
			<text transform="matrix(-1.836970e-16 -1 1 -1.836970e-16 428.0415 249.7969)" class="st11 st0 st8">1</text>
			<circle class="st12" cx="437.5" cy="236.9" r="7.1"/>
			<path class="st13" d="M444.5,229.9l-7.1-7.1l-7.1,7.1"/>
		</g>
	</g>
	<polyline id="gge3742" class="st2" points="437.5,241.7 437.5,277 272.4,277 	"/>
	<line id="gge3744" class="st2" x1="307.8" y1="112" x2="272.4" y2="112"/>
	<polyline id="gge3746" class="st2" points="402.1,112 437.5,112 437.5,147.3 	"/>
	<line id="gge3747" class="st2" x1="437.5" y1="41.2" x2="437.5" y2="112"/>
	<line id="gge3749" class="st2" x1="272.4" y1="41.2" x2="272.4" y2="112"/>
	<g id="gge3753">
		<text transform="matrix(1 0 0 1 449.2651 100.1729)" class="st3 st0 st4">B</text>
	</g>
	<g id="gge3756">
		<text transform="matrix(1 0 0 1 248.8228 100.6211)" class="st3 st0 st4">A</text>
	</g>
	<g id="gge3762">
		<text transform="matrix(1 0 0 1 166.2886 88.3818)" class="st14 st4">3kΩ</text>
	</g>
	<g id="gge3768">
		<text transform="matrix(1 0 0 1 36.5903 206.2891)" class="st0 st4">24V</text>
	</g>
	<g id="gge3781">
		<text transform="matrix(1 0 0 1 295.9858 206.2891)" class="st14 st4">12mA</text>
	</g>
	<g id="gge3784">
		<text transform="matrix(1 0 0 1 331.3579 88.3818)" class="st15 st0 st4">R1</text>
	</g>
	<g id="gge3787">
		<text transform="matrix(1 0 0 1 449.2651 206.2891)" class="st15 st0 st4">R2</text>
	</g>
	<g id="gge3743">
		<circle class="st10" cx="272.4" cy="277" r="4.7"/>
		<circle cx="272.4" cy="277" r="5.9"/>
	</g>
	<g id="gge3745">
		<circle class="st10" cx="272.4" cy="112" r="4.7"/>
		<circle cx="272.4" cy="112" r="5.9"/>
	</g>
	<g id="gge3748">
		<circle class="st10" cx="437.5" cy="112" r="4.7"/>
		<circle cx="437.5" cy="112" r="5.9"/>
	</g>
	<g id="gge3772">
		<path d="M284.2,41.2l4.7,9.4l-11.8-9.4l11.8-9.4L284.2,41.2z"/>
	</g>
	<g id="gge3773">
		<path d="M425.7,41.2l-4.7-9.4l11.8,9.4L421,50.7L425.7,41.2z"/>
	</g>
</g>
<g>
	<g id="ni34a4_1_">
		
			<image style="overflow:visible;" width="1200" height="423" id="ni34a4_00000114052095137766275830000010247063283131300264_" xlink:href="995F50999BD32B9C.png"  transform="matrix(3.635557e-02 0 0 3.635557e-02 32.9038 298.6412)">
		</image>
	</g>
	<g>
		<text transform="matrix(1 0 0 1 32.7114 321.9828)" class="st16 st17">UBC Engineering</text>
	</g>
</g>
</svg>
