<?xml version="1.0" encoding="utf-8"?>
<!-- Generator: Adobe Illustrator 26.3.1, SVG Export Plug-In . SVG Version: 6.00 Build 0)  -->
<svg version="1.1" id="Layer_1" xmlns="http://www.w3.org/2000/svg" xmlns:xlink="http://www.w3.org/1999/xlink" x="0px" y="0px"
	 viewBox="0 0 594.2 385.4" style="enable-background:new 0 0 594.2 385.4;" xml:space="preserve">
<style type="text/css">
	.st0{display:none;}
	.st1{display:inline;}
	.st2{font-family:'ArialMT';}
	.st3{font-size:17.4111px;}
	.st4{fill:none;stroke:#000000;stroke-width:2.4873;}
	.st5{fill:none;}
	.st6{fill:none;stroke:#000000;stroke-width:2.4873;stroke-linecap:round;stroke-linejoin:round;}
	.st7{display:none;enable-background:new    ;}
	.st8{font-family:'Verdana';}
	.st9{display:none;fill:none;stroke:#000000;stroke-width:2.4873;}
	.st10{display:none;fill:none;stroke:#000000;stroke-width:2.4873;stroke-linecap:round;stroke-linejoin:round;}
	.st11{font-size:16.1675px;}
	.st12{fill:#FF3366;}
	.st13{font-size:18.6548px;}
	.st14{font-family:'TimesNewRomanPSMT';}
	.st15{font-family:'Helvetica';}
	.st16{fill:#0066CC;}
	.st17{display:none;fill:#000080;enable-background:new    ;}
	.st18{font-size:22.3857px;}
	.st19{font-family:'Folio-Medium';}
	.st20{font-size:5.504px;}
</style>
<g id="g1">
	<g id="gge6146">
		<g id="gge6148" class="st0">
			<text transform="matrix(1 0 0 1 121.7344 267.4932)" class="st1 st2 st3">SIN(0 1 50) AC 1 0</text>
		</g>
		<g id="gge6150" class="st0">
			<text transform="matrix(1 0 0 1 121.7344 244.6357)" class="st1 st2 st3">V16</text>
		</g>
		<ellipse id="gge6152" class="st4" cx="91.9" cy="236.7" rx="24.9" ry="24.9"/>
		<g id="gge6153">
			<circle class="st5" cx="91.9" cy="187" r="5"/>
			<path class="st6" d="M91.9,211.9V187"/>
			<text transform="matrix(-1.836970e-16 -1 1 -1.836970e-16 91.8867 227.8975)" class="st7 st8 st3">1</text>
			<text transform="matrix(-1.836970e-16 -1 1 -1.836970e-16 81.9375 201.9043)" class="st7 st8 st3">1</text>
			<circle class="st9" cx="91.9" cy="154.6" r="7.5"/>
			<path class="st10" d="M84.4,162.1l7.5,7.5l7.5-7.5"/>
		</g>
		<line id="gge6160" class="st6" x1="86.9" y1="221.8" x2="96.9" y2="221.8"/>
		<line id="gge6161" class="st6" x1="91.9" y1="216.8" x2="91.9" y2="226.8"/>
		<g id="gge6162">
			<circle class="st5" cx="91.9" cy="286.5" r="5"/>
			<path class="st6" d="M91.9,261.6v24.9"/>
			<text transform="matrix(-1.836970e-16 -1 1 -1.836970e-16 91.8867 251.6514)" class="st7 st8 st3">2</text>
			<text transform="matrix(-1.836970e-16 -1 1 -1.836970e-16 81.9375 282.6172)" class="st7 st8 st3">2</text>
			<circle class="st9" cx="91.9" cy="318.8" r="7.5"/>
			<path class="st10" d="M99.3,311.3l-7.5-7.5l-7.5,7.5"/>
		</g>
		<line id="gge6169" class="st6" x1="96.9" y1="251.6" x2="86.9" y2="251.6"/>
	</g>
	<g id="gge6205">
		<text transform="matrix(-1.836970e-16 -1 1 -1.836970e-16 564.4746 174.5444)" class="st8 st11">+</text>
	</g>
	<g id="gge6207">
		<text transform="matrix(1 0 0 1 552.0371 323.7812)" class="st8 st11">-</text>
	</g>
	<g id="gge6210">
		<text transform="matrix(1 0 0 1 552.0371 249.1621)" class="st12 st8 st13">Vo</text>
	</g>
	<g id="gge6467">
		<text transform="matrix(1 0 0 1 17.2676 249.1621)" class="st8 st13">20V</text>
	</g>
	<line id="gge6552" class="st6" x1="539.6" y1="174.5" x2="539.6" y2="311.3"/>
	<g id="gge6603">
		<g id="gge6605" class="st0">
			<text transform="matrix(1 0 0 1 402.7988 236.7256)" class="st1 st14 st3">none</text>
		</g>
		<g id="gge6607" class="st0">
			<text transform="matrix(1 0 0 1 402.7988 99.9248)" class="st1 st14 st3">AAAA1</text>
		</g>
		<polyline id="gge6609" class="st6" points="353.1,211.9 452.5,162.1 353.1,112.4 353.1,211.9 		"/>
		<line id="gge6610" class="st6" x1="363" y1="137.2" x2="377.9" y2="137.2"/>
		<line id="gge6611" class="st6" x1="363" y1="187" x2="377.9" y2="187"/>
		<line id="gge6612" class="st6" x1="370.5" y1="179.5" x2="370.5" y2="194.4"/>
		<g id="gge6613">
			<circle class="st5" cx="303.3" cy="137.2" r="5"/>
			<path class="st6" d="M303.3,137.2h49.7"/>
			<text transform="matrix(1 0 0 1 360.5146 144.6958)" class="st7 st8 st3">IN-</text>
			<text transform="matrix(1 0 0 1 327.0605 134.7466)" class="st7 st8 st3">2</text>
			<circle class="st9" cx="345.6" cy="137.2" r="7.5"/>
			<path class="st10" d="M353.1,144.7l7.5-7.5l-7.5-7.5"/>
		</g>
		<g id="gge6620">
			<circle class="st5" cx="303.3" cy="187" r="5"/>
			<path class="st6" d="M303.3,187h49.7"/>
			<text transform="matrix(1 0 0 1 360.5146 194.4414)" class="st7 st8 st3">IN+</text>
			<text transform="matrix(1 0 0 1 327.0605 184.4927)" class="st7 st8 st3">3</text>
			<circle class="st9" cx="345.6" cy="187" r="7.5"/>
			<path class="st10" d="M353.1,194.4l7.5-7.5l-7.5-7.5"/>
		</g>
		<g id="gge6627">
			<circle class="st5" cx="502.3" cy="162.1" r="5"/>
			<path class="st6" d="M502.3,162.1h-49.7"/>
			<text transform="matrix(1 0 0 1 407.9062 169.5684)" class="st7 st8 st3">OUT</text>
			<text transform="matrix(1 0 0 1 467.4697 159.6191)" class="st7 st8 st3">6</text>
			<circle class="st9" cx="460" cy="162.1" r="7.5"/>
			<path class="st10" d="M452.5,154.6l-7.5,7.5l7.5,7.5"/>
		</g>
	</g>
	<g id="gge6693">
		<g id="gge6695" class="st0">
			<text transform="matrix(1 0 0 1 157.6509 167.0811)" class="st1 st2 st3">1k</text>
		</g>
		<g id="gge6697" class="st0">
			<text transform="matrix(1 0 0 1 157.6509 144.1484)" class="st1 st2 st3">R100</text>
		</g>
		<line id="gge6699" class="st6" x1="141.6" y1="187" x2="149.1" y2="174.5"/>
		<line id="gge6700" class="st6" x1="161.5" y1="199.4" x2="174" y2="174.5"/>
		<line id="gge6701" class="st6" x1="149.1" y1="174.5" x2="161.5" y2="199.4"/>
		<g id="gge6702">
			<circle class="st5" cx="129.2" cy="187" r="5"/>
			<path class="st6" d="M129.2,187h12.4"/>
			<text transform="matrix(1 0 0 1 151.582 186.9795)" class="st7 st8 st3">2</text>
			<text transform="matrix(1 0 0 1 120.6143 177.0303)" class="st7 st8 st3">2</text>
			<circle class="st9" cx="134.2" cy="187" r="7.5"/>
			<path class="st10" d="M141.6,194.4l7.5-7.5l-7.5-7.5"/>
		</g>
		<line id="gge6709" class="st6" x1="196.4" y1="174.5" x2="208.8" y2="199.4"/>
		<line id="gge6710" class="st6" x1="174" y1="174.5" x2="183.9" y2="199.4"/>
		<line id="gge6711" class="st6" x1="183.9" y1="199.4" x2="196.4" y2="174.5"/>
		<line id="gge6712" class="st6" x1="208.8" y1="199.4" x2="216.3" y2="187"/>
		<g id="gge6713">
			<circle class="st5" cx="228.7" cy="187" r="5"/>
			<path class="st6" d="M228.7,187h-12.4"/>
			<text transform="matrix(1 0 0 1 195.2339 186.9795)" class="st7 st8 st3">1</text>
			<text transform="matrix(1 0 0 1 226.2007 177.0303)" class="st7 st8 st3">1</text>
			<circle class="st9" cx="223.7" cy="187" r="7.5"/>
			<path class="st10" d="M216.3,179.5l-7.5,7.5l7.5,7.5"/>
		</g>
	</g>
	<g id="gge6721">
		<g id="gge6723" class="st0">
			<text transform="matrix(1 0 0 1 151.1836 42.7163)" class="st1 st2 st3">1k</text>
		</g>
		<g id="gge6725" class="st0">
			<text transform="matrix(1 0 0 1 151.1836 19.7832)" class="st1 st2 st3">R101</text>
		</g>
		<line id="gge6727" class="st6" x1="216.3" y1="62.6" x2="208.8" y2="75.1"/>
		<line id="gge6728" class="st6" x1="196.4" y1="50.2" x2="183.9" y2="75.1"/>
		<line id="gge6729" class="st6" x1="208.8" y1="75.1" x2="196.4" y2="50.2"/>
		<g id="gge6730">
			<circle class="st5" cx="228.7" cy="62.6" r="5"/>
			<path class="st6" d="M228.7,62.6h-12.4"/>
			<text transform="matrix(1 0 0 1 195.2339 62.6147)" class="st7 st8 st3">2</text>
			<text transform="matrix(1 0 0 1 226.2007 52.6655)" class="st7 st8 st3">2</text>
			<circle class="st9" cx="223.7" cy="62.6" r="7.5"/>
			<path class="st10" d="M216.3,55.2l-7.5,7.5l7.5,7.5"/>
		</g>
		<line id="gge6737" class="st6" x1="161.5" y1="75.1" x2="149.1" y2="50.2"/>
		<line id="gge6738" class="st6" x1="183.9" y1="75.1" x2="174" y2="50.2"/>
		<line id="gge6739" class="st6" x1="174" y1="50.2" x2="161.5" y2="75.1"/>
		<line id="gge6740" class="st6" x1="149.1" y1="50.2" x2="141.6" y2="62.6"/>
		<g id="gge6741">
			<circle class="st5" cx="129.2" cy="62.6" r="5"/>
			<path class="st6" d="M129.2,62.6h12.4"/>
			<text transform="matrix(1 0 0 1 151.582 62.6147)" class="st7 st8 st3">1</text>
			<text transform="matrix(1 0 0 1 120.6143 52.6655)" class="st7 st8 st3">1</text>
			<circle class="st9" cx="134.2" cy="62.6" r="7.5"/>
			<path class="st10" d="M141.6,70.1l7.5-7.5l-7.5-7.5"/>
		</g>
	</g>
	<g id="gge6749">
		<g id="gge6751" class="st0">
			<text transform="matrix(1 0 0 1 283.4092 267.4932)" class="st1 st2 st3">1k</text>
		</g>
		<g id="gge6753" class="st0">
			<text transform="matrix(1 0 0 1 283.4092 244.5605)" class="st1 st2 st3">R99</text>
		</g>
		<line id="gge6755" class="st6" x1="266" y1="274" x2="253.6" y2="266.6"/>
		<line id="gge6756" class="st6" x1="278.4" y1="254.1" x2="253.6" y2="241.7"/>
		<line id="gge6757" class="st6" x1="253.6" y1="266.6" x2="278.4" y2="254.1"/>
		<g id="gge6758">
			<circle class="st5" cx="266" cy="286.5" r="5"/>
			<path class="st6" d="M266,286.5V274"/>
			<text transform="matrix(-1.836970e-16 -1 1 -1.836970e-16 265.9976 264.0859)" class="st7 st8 st3">2</text>
			<text transform="matrix(-1.836970e-16 -1 1 -1.836970e-16 256.0483 295.0547)" class="st7 st8 st3">2</text>
			<circle class="st9" cx="266" cy="281.5" r="7.5"/>
			<path class="st10" d="M273.5,274l-7.5-7.5l-7.5,7.5"/>
		</g>
		<line id="gge6765" class="st6" x1="253.6" y1="219.3" x2="278.4" y2="206.9"/>
		<line id="gge6766" class="st6" x1="253.6" y1="241.7" x2="278.4" y2="231.8"/>
		<line id="gge6767" class="st6" x1="278.4" y1="231.8" x2="253.6" y2="219.3"/>
		<line id="gge6768" class="st6" x1="278.4" y1="206.9" x2="266" y2="199.4"/>
		<g id="gge6769">
			<circle class="st5" cx="266" cy="187" r="5"/>
			<path class="st6" d="M266,187v12.4"/>
			<text transform="matrix(-1.836970e-16 -1 1 -1.836970e-16 265.9976 220.4346)" class="st7 st8 st3">1</text>
			<text transform="matrix(-1.836970e-16 -1 1 -1.836970e-16 256.0483 189.4668)" class="st7 st8 st3">1</text>
			<circle class="st9" cx="266" cy="192" r="7.5"/>
			<path class="st10" d="M258.5,199.4l7.5,7.5l7.5-7.5"/>
		</g>
	</g>
	<polyline id="gge6776" class="st6" points="91.9,286.5 91.9,323.8 266,323.8 266,286.5 	"/>
	<line id="gge6777" class="st6" x1="228.7" y1="187" x2="303.3" y2="187"/>
	<polyline id="gge6781" class="st6" points="91.9,187 91.9,124.8 129.2,124.8 129.2,187 	"/>
	<line id="gge6782" class="st6" x1="129.2" y1="62.6" x2="129.2" y2="124.8"/>
	<g id="gge6785">
		<g id="gge6787" class="st0">
			<text transform="matrix(1 0 0 1 325.2949 42.7163)" class="st1 st2 st3">1k</text>
		</g>
		<g id="gge6789" class="st0">
			<text transform="matrix(1 0 0 1 325.2949 19.7832)" class="st1 st2 st3">R102</text>
		</g>
		<line id="gge6791" class="st6" x1="315.7" y1="62.6" x2="323.2" y2="50.2"/>
		<line id="gge6792" class="st6" x1="335.6" y1="75.1" x2="348.1" y2="50.2"/>
		<line id="gge6793" class="st6" x1="323.2" y1="50.2" x2="335.6" y2="75.1"/>
		<g id="gge6794">
			<circle class="st5" cx="303.3" cy="62.6" r="5"/>
			<path class="st6" d="M303.3,62.6h12.4"/>
			<text transform="matrix(1 0 0 1 325.6934 62.6147)" class="st7 st8 st3">2</text>
			<text transform="matrix(1 0 0 1 294.7251 52.6655)" class="st7 st8 st3">2</text>
			<circle class="st9" cx="308.3" cy="62.6" r="7.5"/>
			<path class="st10" d="M315.7,70.1l7.5-7.5l-7.5-7.5"/>
		</g>
		<line id="gge6801" class="st6" x1="370.5" y1="50.2" x2="382.9" y2="75.1"/>
		<line id="gge6802" class="st6" x1="348.1" y1="50.2" x2="358" y2="75.1"/>
		<line id="gge6803" class="st6" x1="358" y1="75.1" x2="370.5" y2="50.2"/>
		<line id="gge6804" class="st6" x1="382.9" y1="75.1" x2="390.4" y2="62.6"/>
		<g id="gge6805">
			<circle class="st5" cx="402.8" cy="62.6" r="5"/>
			<path class="st6" d="M402.8,62.6h-12.4"/>
			<text transform="matrix(1 0 0 1 369.3447 62.6147)" class="st7 st8 st3">1</text>
			<text transform="matrix(1 0 0 1 400.3115 52.6655)" class="st7 st8 st3">1</text>
			<circle class="st9" cx="397.8" cy="62.6" r="7.5"/>
			<path class="st10" d="M390.4,55.2l-7.5,7.5l7.5,7.5"/>
		</g>
	</g>
	<g id="gge6813">
		<g id="gge6815" class="st0">
			<text transform="matrix(1 0 0 1 424.7871 42.7163)" class="st1 st2 st3">1k</text>
		</g>
		<g id="gge6817" class="st0">
			<text transform="matrix(1 0 0 1 424.7871 19.7832)" class="st1 st2 st3">R103</text>
		</g>
		<line id="gge6819" class="st6" x1="415.2" y1="62.6" x2="422.7" y2="50.2"/>
		<line id="gge6820" class="st6" x1="435.1" y1="75.1" x2="447.6" y2="50.2"/>
		<line id="gge6821" class="st6" x1="422.7" y1="50.2" x2="435.1" y2="75.1"/>
		<g id="gge6822">
			<circle class="st5" cx="402.8" cy="62.6" r="5"/>
			<path class="st6" d="M402.8,62.6h12.4"/>
			<text transform="matrix(1 0 0 1 425.1855 62.6147)" class="st7 st8 st3">2</text>
			<text transform="matrix(1 0 0 1 394.2178 52.6655)" class="st7 st8 st3">2</text>
			<circle class="st9" cx="407.8" cy="62.6" r="7.5"/>
			<path class="st10" d="M415.2,70.1l7.5-7.5l-7.5-7.5"/>
		</g>
		<line id="gge6829" class="st6" x1="470" y1="50.2" x2="482.4" y2="75.1"/>
		<line id="gge6830" class="st6" x1="447.6" y1="50.2" x2="457.5" y2="75.1"/>
		<line id="gge6831" class="st6" x1="457.5" y1="75.1" x2="470" y2="50.2"/>
		<line id="gge6832" class="st6" x1="482.4" y1="75.1" x2="489.9" y2="62.6"/>
		<g id="gge6833">
			<circle class="st5" cx="502.3" cy="62.6" r="5"/>
			<path class="st6" d="M502.3,62.6h-12.4"/>
			<text transform="matrix(1 0 0 1 468.8359 62.6147)" class="st7 st8 st3">1</text>
			<text transform="matrix(1 0 0 1 499.8047 52.6655)" class="st7 st8 st3">1</text>
			<circle class="st9" cx="497.3" cy="62.6" r="7.5"/>
			<path class="st10" d="M489.9,55.2l-7.5,7.5l7.5,7.5"/>
		</g>
	</g>
	<line id="gge6840" class="st6" x1="228.7" y1="62.6" x2="303.3" y2="62.6"/>
	<polyline id="gge6842" class="st6" points="539.6,162.1 502.3,162.1 502.3,62.6 	"/>
	<line id="gge6845" class="st6" x1="539.6" y1="323.8" x2="266" y2="323.8"/>
	<g id="gge6848">
		<text transform="matrix(1 0 0 1 154.0689 37.7412)" class="st15 st13">10k立</text>
	</g>
	<g id="gge6851">
		<text transform="matrix(1 0 0 1 154.0689 162.1069)" class="st15 st13">10k立</text>
	</g>
	<g id="gge6854">
		<text transform="matrix(1 0 0 1 278.4341 249.1621)" class="st15 st13">10k立</text>
	</g>
	<polyline id="gge6856" class="st6" points="303.3,137.2 266,137.2 266,62.6 	"/>
	<g id="gge6859">
		<text transform="matrix(1 0 0 1 315.7441 37.7412)" class="st15 st13">10k立</text>
	</g>
	<g id="gge6862">
		<text transform="matrix(1 0 0 1 440.1084 37.7412)" class="st16 st8 st13">R</text>
	</g>
	<g id="gge6916">
		<circle class="st5" cx="266" cy="323.8" r="5"/>
		<text transform="matrix(1 0 0 1 238.6372 291.4463)" class="st17 st14 st18">GND</text>
		<line id="gge6919" class="st6" x1="266" y1="348.7" x2="266" y2="323.8"/>
		<line id="gge6920" class="st6" x1="241.1" y1="348.7" x2="288.4" y2="348.7"/>
		<line id="gge6921" class="st6" x1="251.1" y1="353.6" x2="283.4" y2="353.6"/>
		<line id="gge6922" class="st6" x1="256" y1="358.6" x2="273.5" y2="358.6"/>
		<line id="gge6923" class="st6" x1="263.5" y1="363.6" x2="268.5" y2="363.6"/>
	</g>
	<g id="gge6857">
		<circle class="st5" cx="266" cy="62.6" r="5"/>
		<circle cx="266" cy="62.6" r="6.2"/>
	</g>
	<g id="gge6846">
		<circle class="st5" cx="266" cy="323.8" r="5"/>
		<circle cx="266" cy="323.8" r="6.2"/>
	</g>
	<g id="gge6844">
		<circle class="st5" cx="502.3" cy="162.1" r="5"/>
		<circle cx="502.3" cy="162.1" r="6.2"/>
	</g>
	<g id="gge6778">
		<circle class="st5" cx="266" cy="187" r="5"/>
		<circle cx="266" cy="187" r="6.2"/>
	</g>
	<g id="gge6783">
		<circle class="st5" cx="129.2" cy="124.8" r="5"/>
		<circle cx="129.2" cy="124.8" r="6.2"/>
	</g>
	<g id="gge6903">
		<path d="M539.6,174.5l-9.9,5l9.9-12.4l9.9,12.4L539.6,174.5z"/>
	</g>
	<g id="gge6904">
		<path d="M539.6,311.3l9.9-5l-9.9,12.4l-9.9-12.4L539.6,311.3z"/>
	</g>
</g>
<g>
	<g id="ni34a4_1_">
		
			<image style="overflow:visible;" width="1200" height="423" id="ni34a4_00000114052095137766275830000010247063283131300264_" xlink:href="9A751D3D97AC0907.png"  transform="matrix(3.635557e-02 0 0 3.635557e-02 19.2744 354.6412)">
		</image>
	</g>
	<g>
		<text transform="matrix(1 0 0 1 19.082 377.9828)" class="st19 st20">UBC Engineering</text>
	</g>
</g>
</svg>
