<?xml version="1.0" encoding="utf-8"?>
<!-- Generator: Adobe Illustrator 26.3.1, SVG Export Plug-In . SVG Version: 6.00 Build 0)  -->
<svg version="1.1" id="Layer_1" xmlns="http://www.w3.org/2000/svg" xmlns:xlink="http://www.w3.org/1999/xlink" x="0px" y="0px"
	 viewBox="0 0 516 533.2" style="enable-background:new 0 0 516 533.2;" xml:space="preserve">
<style type="text/css">
	.st0{fill:#FF3366;}
	.st1{font-family:'Verdana';}
	.st2{font-size:26.4423px;}
	.st3{display:none;}
	.st4{display:inline;}
	.st5{font-family:'ArialMT';}
	.st6{font-size:24.6795px;}
	.st7{fill:none;stroke:#000000;stroke-width:3.5256;stroke-linecap:round;stroke-linejoin:round;}
	.st8{fill:none;}
	.st9{display:none;enable-background:new    ;}
	.st10{display:none;fill:none;stroke:#000000;stroke-width:3.5256;}
	.st11{display:none;fill:none;stroke:#000000;stroke-width:3.5256;stroke-linecap:round;stroke-linejoin:round;}
	.st12{font-family:'Folio-Medium';}
	.st13{font-size:5.504px;}
</style>
<g id="g1">
	<g id="gge4404">
		<text transform="matrix(1 0 0 1 415.6543 39.0922)" class="st0 st1 st2">b</text>
	</g>
	<g id="gge4407">
		<text transform="matrix(1 0 0 1 27.832 162.4906)" class="st0 st1 st2">a</text>
	</g>
	<g id="gge4409">
		<g id="gge4411" class="st3">
			<text transform="matrix(1 0 0 1 218.3242 139.8559)" class="st4 st5 st6">1u</text>
		</g>
		<g id="gge4413" class="st3">
			<text transform="matrix(1 0 0 1 218.3242 107.8422)" class="st4 st5 st6">C1</text>
		</g>
		<line id="gge4415" class="st7" x1="246.4" y1="150.4" x2="246.4" y2="206.8"/>
		<g id="gge4416">
			<circle class="st8" cx="309.9" cy="178.6" r="7.1"/>
			<path class="st7" d="M274.6,178.6h35.3"/>
			<text transform="matrix(1 0 0 1 244.8359 178.6371)" class="st9 st1 st6">1</text>
			<text transform="matrix(1 0 0 1 288.7305 164.5356)" class="st9 st1 st6">1</text>
			<circle class="st10" cx="355.7" cy="178.6" r="10.6"/>
			<path class="st11" d="M345.1,168.1l-10.6,10.6l10.6,10.6"/>
		</g>
		<line id="gge4423" class="st7" x1="204.1" y1="178.6" x2="232.3" y2="178.6"/>
		<line id="gge4424" class="st7" x1="232.3" y1="206.8" x2="232.3" y2="150.4"/>
		<g id="gge4425">
			<circle class="st8" cx="168.9" cy="178.6" r="7.1"/>
			<path class="st7" d="M204.1,178.6h-35.3"/>
			<text transform="matrix(1 0 0 1 218.2168 178.6371)" class="st9 st1 st6">2</text>
			<text transform="matrix(1 0 0 1 174.3223 164.5356)" class="st9 st1 st6">2</text>
			<circle class="st10" cx="123" cy="178.6" r="10.6"/>
			<path class="st11" d="M133.6,189.2l10.6-10.6l-10.6-10.6"/>
		</g>
		<line id="gge4432" class="st7" x1="246.4" y1="178.6" x2="274.6" y2="178.6"/>
	</g>
	<g id="gge4483">
		<g id="gge4485" class="st3">
			<text transform="matrix(1 0 0 1 359.3496 280.8813)" class="st4 st5 st6">1u</text>
		</g>
		<g id="gge4487" class="st3">
			<text transform="matrix(1 0 0 1 359.3496 248.8676)" class="st4 st5 st6">C3</text>
		</g>
		<line id="gge4489" class="st7" x1="373.3" y1="347.9" x2="373.3" y2="291.5"/>
		<g id="gge4490">
			<circle class="st8" cx="309.9" cy="319.7" r="7.1"/>
			<path class="st7" d="M345.1,319.7h-35.3"/>
			<text transform="matrix(1 0 0 1 359.2441 319.6625)" class="st9 st1 st6">1</text>
			<text transform="matrix(1 0 0 1 315.3477 305.5609)" class="st9 st1 st6">1</text>
			<circle class="st10" cx="264.1" cy="319.7" r="10.6"/>
			<path class="st11" d="M274.6,330.2l10.6-10.6l-10.6-10.6"/>
		</g>
		<line id="gge4497" class="st7" x1="415.7" y1="319.7" x2="387.4" y2="319.7"/>
		<line id="gge4498" class="st7" x1="387.4" y1="291.5" x2="387.4" y2="347.9"/>
		<g id="gge4499">
			<circle class="st8" cx="450.9" cy="319.7" r="7.1"/>
			<path class="st7" d="M415.7,319.7h35.3"/>
			<text transform="matrix(1 0 0 1 385.8613 319.6625)" class="st9 st1 st6">2</text>
			<text transform="matrix(1 0 0 1 429.7559 305.5609)" class="st9 st1 st6">2</text>
			<circle class="st10" cx="496.7" cy="319.7" r="10.6"/>
			<path class="st11" d="M486.2,309.1l-10.6,10.6l10.6,10.6"/>
		</g>
		<line id="gge4506" class="st7" x1="373.3" y1="319.7" x2="345.1" y2="319.7"/>
	</g>
	<g id="gge4508">
		<g id="gge4510" class="st3">
			<text transform="matrix(1 0 0 1 486.166 292.9398)" class="st4 st5 st6">1u</text>
		</g>
		<g id="gge4512" class="st3">
			<text transform="matrix(1 0 0 1 486.166 260.891)" class="st4 st5 st6">C4</text>
		</g>
		<line id="gge4514" class="st7" x1="479.1" y1="256.2" x2="422.7" y2="256.2"/>
		<g id="gge4515">
			<circle class="st8" cx="450.9" cy="319.7" r="7.1"/>
			<path class="st7" d="M450.9,284.4v35.3"/>
			<text transform="matrix(-1.836970e-16 -1 1 -1.836970e-16 450.9102 270.3051)" class="st9 st1 st6">1</text>
			<text transform="matrix(-1.836970e-16 -1 1 -1.836970e-16 436.8066 314.1996)" class="st9 st1 st6">1</text>
			<circle class="st10" cx="450.9" cy="365.5" r="10.6"/>
			<path class="st11" d="M461.5,354.9l-10.6-10.6l-10.6,10.6"/>
		</g>
		<line id="gge4522" class="st7" x1="450.9" y1="213.9" x2="450.9" y2="242.1"/>
		<line id="gge4523" class="st7" x1="422.7" y1="242.1" x2="479.1" y2="242.1"/>
		<g id="gge4524">
			<circle class="st8" cx="450.9" cy="178.6" r="7.1"/>
			<path class="st7" d="M450.9,213.9v-35.3"/>
			<text transform="matrix(-1.836970e-16 -1 1 -1.836970e-16 450.9102 243.6879)" class="st9 st1 st6">2</text>
			<text transform="matrix(-1.836970e-16 -1 1 -1.836970e-16 436.8066 199.7934)" class="st9 st1 st6">2</text>
			<circle class="st10" cx="450.9" cy="132.8" r="10.6"/>
			<path class="st11" d="M440.3,143.4l10.6,10.6l10.6-10.6"/>
		</g>
		<line id="gge4531" class="st7" x1="450.9" y1="256.2" x2="450.9" y2="284.4"/>
	</g>
	<g id="gge4559">
		<g id="gge4561" class="st3">
			<text transform="matrix(1 0 0 1 486.166 151.9125)" class="st4 st5 st6">1u</text>
		</g>
		<g id="gge4563" class="st3">
			<text transform="matrix(1 0 0 1 486.166 119.8656)" class="st4 st5 st6">C6</text>
		</g>
		<line id="gge4565" class="st7" x1="422.7" y1="101.1" x2="479.1" y2="101.1"/>
		<g id="gge4566">
			<circle class="st8" cx="450.9" cy="37.6" r="7.1"/>
			<path class="st7" d="M450.9,72.9V37.6"/>
			<text transform="matrix(-1.836970e-16 -1 1 -1.836970e-16 450.9102 102.6605)" class="st9 st1 st6">1</text>
			<text transform="matrix(-1.836970e-16 -1 1 -1.836970e-16 436.8066 58.766)" class="st9 st1 st6">1</text>
			<circle class="st10" cx="450.9" cy="-8.2" r="10.6"/>
			<path class="st11" d="M440.3,2.4l10.6,10.6l10.6-10.6"/>
		</g>
		<line id="gge4573" class="st7" x1="450.9" y1="143.4" x2="450.9" y2="115.2"/>
		<line id="gge4574" class="st7" x1="479.1" y1="115.2" x2="422.7" y2="115.2"/>
		<g id="gge4575">
			<circle class="st8" cx="450.9" cy="178.6" r="7.1"/>
			<path class="st7" d="M450.9,143.4v35.3"/>
			<text transform="matrix(-1.836970e-16 -1 1 -1.836970e-16 450.9102 129.2816)" class="st9 st1 st6">2</text>
			<text transform="matrix(-1.836970e-16 -1 1 -1.836970e-16 436.8066 173.1762)" class="st9 st1 st6">2</text>
			<circle class="st10" cx="450.9" cy="224.5" r="10.6"/>
			<path class="st11" d="M461.5,213.9l-10.6-10.6l-10.6,10.6"/>
		</g>
		<line id="gge4582" class="st7" x1="450.9" y1="101.1" x2="450.9" y2="72.9"/>
	</g>
	<g id="gge4585">
		<g id="gge4587" class="st3">
			<text transform="matrix(1 0 0 1 486.166 433.9652)" class="st4 st5 st6">1u</text>
		</g>
		<g id="gge4589" class="st3">
			<text transform="matrix(1 0 0 1 486.166 401.9164)" class="st4 st5 st6">C7</text>
		</g>
		<line id="gge4591" class="st7" x1="422.7" y1="383.1" x2="479.1" y2="383.1"/>
		<g id="gge4592">
			<circle class="st8" cx="450.9" cy="319.7" r="7.1"/>
			<path class="st7" d="M450.9,354.9v-35.3"/>
			<text transform="matrix(-1.836970e-16 -1 1 -1.836970e-16 450.9102 384.7113)" class="st9 st1 st6">1</text>
			<text transform="matrix(-1.836970e-16 -1 1 -1.836970e-16 436.8066 340.8168)" class="st9 st1 st6">1</text>
			<circle class="st10" cx="450.9" cy="273.8" r="10.6"/>
			<path class="st11" d="M440.3,284.4l10.6,10.6l10.6-10.6"/>
		</g>
		<line id="gge4599" class="st7" x1="450.9" y1="425.4" x2="450.9" y2="397.2"/>
		<line id="gge4600" class="st7" x1="479.1" y1="397.2" x2="422.7" y2="397.2"/>
		<g id="gge4601">
			<circle class="st8" cx="450.9" cy="460.7" r="7.1"/>
			<path class="st7" d="M450.9,425.4v35.3"/>
			<text transform="matrix(-1.836970e-16 -1 1 -1.836970e-16 450.9102 411.3324)" class="st9 st1 st6">2</text>
			<text transform="matrix(-1.836970e-16 -1 1 -1.836970e-16 436.8066 455.227)" class="st9 st1 st6">2</text>
			<circle class="st10" cx="450.9" cy="506.5" r="10.6"/>
			<path class="st11" d="M461.5,495.9l-10.6-10.6l-10.6,10.6"/>
		</g>
		<line id="gge4608" class="st7" x1="450.9" y1="383.1" x2="450.9" y2="354.9"/>
	</g>
	<g id="gge4611">
		<g id="gge4613" class="st3">
			<text transform="matrix(1 0 0 1 345.1406 433.9652)" class="st4 st5 st6">1u</text>
		</g>
		<g id="gge4615" class="st3">
			<text transform="matrix(1 0 0 1 345.1406 401.9164)" class="st4 st5 st6">C8</text>
		</g>
		<line id="gge4617" class="st7" x1="281.7" y1="383.1" x2="338.1" y2="383.1"/>
		<g id="gge4618">
			<circle class="st8" cx="309.9" cy="319.7" r="7.1"/>
			<path class="st7" d="M309.9,354.9v-35.3"/>
			<text transform="matrix(-1.836970e-16 -1 1 -1.836970e-16 309.8848 384.7113)" class="st9 st1 st6">1</text>
			<text transform="matrix(-1.836970e-16 -1 1 -1.836970e-16 295.7812 340.8168)" class="st9 st1 st6">1</text>
			<circle class="st10" cx="309.9" cy="273.8" r="10.6"/>
			<path class="st11" d="M299.3,284.4l10.6,10.6l10.6-10.6"/>
		</g>
		<line id="gge4625" class="st7" x1="309.9" y1="425.4" x2="309.9" y2="397.2"/>
		<line id="gge4626" class="st7" x1="338.1" y1="397.2" x2="281.7" y2="397.2"/>
		<g id="gge4627">
			<circle class="st8" cx="309.9" cy="460.7" r="7.1"/>
			<path class="st7" d="M309.9,425.4v35.3"/>
			<text transform="matrix(-1.836970e-16 -1 1 -1.836970e-16 309.8848 411.3324)" class="st9 st1 st6">2</text>
			<text transform="matrix(-1.836970e-16 -1 1 -1.836970e-16 295.7812 455.227)" class="st9 st1 st6">2</text>
			<circle class="st10" cx="309.9" cy="506.5" r="10.6"/>
			<path class="st11" d="M320.5,495.9l-10.6-10.6l-10.6,10.6"/>
		</g>
		<line id="gge4634" class="st7" x1="309.9" y1="383.1" x2="309.9" y2="354.9"/>
	</g>
	<polyline id="gge4636" class="st7" points="45.5,178.6 45.5,178.6 168.9,178.6 168.9,460.7 309.9,460.7 450.9,460.7 	"/>
	<polyline id="gge4639" class="st7" points="450.9,178.6 309.9,178.6 309.9,319.7 	"/>
	<g id="gge4640">
		<circle class="st8" cx="309.9" cy="319.7" r="7.1"/>
		<circle cx="309.9" cy="319.7" r="8.8"/>
	</g>
	<g id="gge4638">
		<circle class="st8" cx="309.9" cy="460.7" r="7.1"/>
		<circle cx="309.9" cy="460.7" r="8.8"/>
	</g>
	<g id="gge4609">
		<circle class="st8" cx="450.9" cy="319.7" r="7.1"/>
		<circle cx="450.9" cy="319.7" r="8.8"/>
	</g>
	<g id="gge4642">
		<circle class="st8" cx="450.9" cy="178.6" r="7.1"/>
		<circle cx="450.9" cy="178.6" r="8.8"/>
	</g>
	<g id="gge4643">
		<circle class="st8" cx="309.9" cy="178.6" r="7.1"/>
		<circle cx="309.9" cy="178.6" r="8.8"/>
	</g>
	<g id="gge4646">
		<circle class="st8" cx="168.9" cy="178.6" r="7.1"/>
		<circle cx="168.9" cy="178.6" r="8.8"/>
	</g>
</g>
<g>
	<g id="ni34a4_1_">
		
			<image style="overflow:visible;" width="1200" height="423" id="ni34a4_00000114052095137766275830000010247063283131300264_" xlink:href="9980FCCC840C7CC0.png"  transform="matrix(3.635557e-02 0 0 3.635557e-02 27.6855 494.7412)">
		</image>
	</g>
	<g>
		<text transform="matrix(1 0 0 1 27.4932 518.0828)" class="st12 st13">UBC Engineering</text>
	</g>
</g>
</svg>
