<?xml version="1.0" encoding="utf-8"?>
<!-- Generator: Adobe Illustrator 26.3.1, SVG Export Plug-In . SVG Version: 6.00 Build 0)  -->
<svg version="1.1" id="Layer_1" xmlns="http://www.w3.org/2000/svg" xmlns:xlink="http://www.w3.org/1999/xlink" x="0px" y="0px"
	 viewBox="0 0 224.5 350.3" style="enable-background:new 0 0 224.5 350.3;" xml:space="preserve">
<style type="text/css">
	.st0{display:none;}
	.st1{display:inline;}
	.st2{font-family:'ArialMT';}
	.st3{font-size:12.2489px;}
	.st4{fill:none;stroke:#000000;stroke-width:1.7498;}
	.st5{fill:none;}
	.st6{fill:none;stroke:#000000;stroke-width:1.7498;stroke-linecap:round;stroke-linejoin:round;}
	.st7{display:none;enable-background:new    ;}
	.st8{font-family:'Verdana';}
	.st9{display:none;fill:none;stroke:#000000;stroke-width:1.7498;}
	.st10{display:none;fill:none;stroke:#000000;stroke-width:1.7498;stroke-linecap:round;stroke-linejoin:round;}
	.st11{fill:#0066CC;}
	.st12{font-size:13.1239px;}
	.st13{fill:none;stroke:#000000;stroke-width:1.7498;stroke-linecap:round;}
	.st14{font-family:'TimesNewRomanPSMT';}
	.st15{font-family:'Helvetica';}
	.st16{fill:#FF3366;}
	.st17{font-size:11.374px;}
	.st18{font-family:'Folio-Medium';}
	.st19{font-size:5.504px;}
</style>
<g id="g1">
	<g id="gge4204">
		<g id="gge4206" class="st0">
			<text transform="matrix(1 0 0 1 119.9198 279.2595)" class="st1 st2 st3">SIN(0 1 50) AC 1 0</text>
		</g>
		<g id="gge4208" class="st0">
			<text transform="matrix(1 0 0 1 119.9198 263.2312)" class="st1 st2 st3">V11</text>
		</g>
		<ellipse id="gge4210" class="st4" cx="133.8" cy="302" rx="17.5" ry="17.5"/>
		<g id="gge4211">
			<circle class="st5" cx="98.9" cy="302" r="3.5"/>
			<path class="st6" d="M116.3,302H98.9"/>
			<text transform="matrix(1 0 0 1 119.8495 302.0076)" class="st7 st8 st3">1</text>
			<text transform="matrix(1 0 0 1 101.5629 295.0085)" class="st7 st8 st3">1</text>
			<circle class="st9" cx="76.1" cy="302" r="5.2"/>
			<path class="st10" d="M81.4,307.3l5.2-5.2l-5.2-5.2"/>
		</g>
		<line id="gge4218" class="st6" x1="123.3" y1="305.5" x2="123.3" y2="298.5"/>
		<line id="gge4219" class="st6" x1="119.8" y1="302" x2="126.8" y2="302"/>
		<g id="gge4220">
			<circle class="st5" cx="168.8" cy="302" r="3.5"/>
			<path class="st6" d="M151.3,302h17.5"/>
			<text transform="matrix(1 0 0 1 136.5604 302.0076)" class="st7 st8 st3">2</text>
			<text transform="matrix(1 0 0 1 158.3456 295.0085)" class="st7 st8 st3">2</text>
			<circle class="st9" cx="191.6" cy="302" r="5.2"/>
			<path class="st10" d="M186.3,296.8l-5.2,5.2l5.2,5.2"/>
		</g>
		<line id="gge4227" class="st6" x1="144.3" y1="298.5" x2="144.3" y2="305.5"/>
	</g>
	<g id="gge4232">
		<text transform="matrix(1 0 0 1 125.0995 276.0925)" class="st11 st8 st12">Vs</text>
	</g>
	<g id="gge4263">
		<circle class="st5" cx="133.8" cy="197" r="3.5"/>
		<circle class="st5" cx="116.3" cy="179.5" r="3.5"/>
		<line class="st13" x1="133.8" y1="197" x2="116.3" y2="179.5"/>
	</g>
	<g id="gge4267">
		<circle class="st5" cx="133.8" cy="162" r="3.5"/>
		<circle class="st5" cx="116.3" cy="179.5" r="3.5"/>
		<line class="st13" x1="133.8" y1="162" x2="116.3" y2="179.5"/>
	</g>
	<g id="gge4271">
		<circle class="st5" cx="151.3" cy="179.5" r="3.5"/>
		<circle class="st5" cx="133.8" cy="197" r="3.5"/>
		<line class="st13" x1="151.3" y1="179.5" x2="133.8" y2="197"/>
	</g>
	<g id="gge4275">
		<circle class="st5" cx="133.8" cy="162" r="3.5"/>
		<circle class="st5" cx="151.3" cy="179.5" r="3.5"/>
		<line class="st13" x1="133.8" y1="162" x2="151.3" y2="179.5"/>
	</g>
	<g id="gge4279">
		<g id="gge4281" class="st0">
			<text transform="matrix(1 0 0 1 111.6776 170.7688)" class="st1 st14 st3">none</text>
		</g>
		<g id="gge4283" class="st0">
			<text transform="matrix(1 0 0 1 111.6776 154.74)" class="st1 st14 st3">DVS1</text>
		</g>
		<line id="gge4285" class="st6" x1="123.3" y1="183" x2="123.3" y2="176"/>
		<line id="gge4286" class="st6" x1="119.8" y1="179.5" x2="126.8" y2="179.5"/>
		<line id="gge4287" class="st6" x1="144.3" y1="176" x2="144.3" y2="183"/>
	</g>
	<g id="gge4289">
		<g id="gge4291" class="st0">
			<text transform="matrix(1 0 0 1 84.8524 262.4607)" class="st1 st2 st3">1k</text>
		</g>
		<g id="gge4293" class="st0">
			<text transform="matrix(1 0 0 1 84.8524 246.4324)" class="st1 st2 st3">R71</text>
		</g>
		<line id="gge4295" class="st6" x1="72.6" y1="267" x2="63.9" y2="261.8"/>
		<line id="gge4296" class="st6" x1="81.4" y1="253" x2="63.9" y2="244.3"/>
		<line id="gge4297" class="st6" x1="63.9" y1="261.8" x2="81.4" y2="253"/>
		<g id="gge4298">
			<circle class="st5" cx="72.6" cy="275.8" r="3.5"/>
			<path class="st6" d="M72.6,275.8V267"/>
			<text transform="matrix(-1.836970e-16 -1 1 -1.836970e-16 72.6034 260.0105)" class="st7 st8 st3">2</text>
			<text transform="matrix(-1.836970e-16 -1 1 -1.836970e-16 65.6039 281.7976)" class="st7 st8 st3">2</text>
			<circle class="st9" cx="72.6" cy="272.3" r="5.2"/>
			<path class="st10" d="M77.9,267l-5.2-5.2l-5.2,5.2"/>
		</g>
		<line id="gge4305" class="st6" x1="63.9" y1="228.5" x2="81.4" y2="219.8"/>
		<line id="gge4306" class="st6" x1="63.9" y1="244.3" x2="81.4" y2="237.3"/>
		<line id="gge4307" class="st6" x1="81.4" y1="237.3" x2="63.9" y2="228.5"/>
		<line id="gge4308" class="st6" x1="81.4" y1="219.8" x2="72.6" y2="214.5"/>
		<g id="gge4309">
			<circle class="st5" cx="72.6" cy="205.8" r="3.5"/>
			<path class="st6" d="M72.6,205.8v8.7"/>
			<text transform="matrix(-1.836970e-16 -1 1 -1.836970e-16 72.6034 229.3015)" class="st7 st8 st3">1</text>
			<text transform="matrix(-1.836970e-16 -1 1 -1.836970e-16 65.6039 207.5144)" class="st7 st8 st3">1</text>
			<circle class="st9" cx="72.6" cy="209.3" r="5.2"/>
			<path class="st10" d="M67.4,214.5l5.2,5.2l5.2-5.2"/>
		</g>
	</g>
	<g id="gge4317">
		<g id="gge4319" class="st0">
			<text transform="matrix(1 0 0 1 84.8524 139.9715)" class="st1 st2 st3">1k</text>
		</g>
		<g id="gge4321" class="st0">
			<text transform="matrix(1 0 0 1 84.8524 123.9426)" class="st1 st2 st3">R72</text>
		</g>
		<line id="gge4323" class="st6" x1="72.6" y1="144.5" x2="63.9" y2="139.3"/>
		<line id="gge4324" class="st6" x1="81.4" y1="130.5" x2="63.9" y2="121.8"/>
		<line id="gge4325" class="st6" x1="63.9" y1="139.3" x2="81.4" y2="130.5"/>
		<g id="gge4326">
			<circle class="st5" cx="72.6" cy="153.3" r="3.5"/>
			<path class="st6" d="M72.6,153.3v-8.7"/>
			<text transform="matrix(-1.836970e-16 -1 1 -1.836970e-16 72.6034 137.5222)" class="st7 st8 st3">2</text>
			<text transform="matrix(-1.836970e-16 -1 1 -1.836970e-16 65.6039 159.3074)" class="st7 st8 st3">2</text>
			<circle class="st9" cx="72.6" cy="149.8" r="5.2"/>
			<path class="st10" d="M77.9,144.5l-5.2-5.2l-5.2,5.2"/>
		</g>
		<line id="gge4333" class="st6" x1="63.9" y1="106" x2="81.4" y2="97.3"/>
		<line id="gge4334" class="st6" x1="63.9" y1="121.8" x2="81.4" y2="114.8"/>
		<line id="gge4335" class="st6" x1="81.4" y1="114.8" x2="63.9" y2="106"/>
		<line id="gge4336" class="st6" x1="81.4" y1="97.3" x2="72.6" y2="92"/>
		<g id="gge4337">
			<circle class="st5" cx="72.6" cy="83.3" r="3.5"/>
			<path class="st6" d="M72.6,83.3V92"/>
			<text transform="matrix(-1.836970e-16 -1 1 -1.836970e-16 72.6034 106.8113)" class="st7 st8 st3">1</text>
			<text transform="matrix(-1.836970e-16 -1 1 -1.836970e-16 65.6039 85.0261)" class="st7 st8 st3">1</text>
			<circle class="st9" cx="72.6" cy="86.8" r="5.2"/>
			<path class="st10" d="M67.4,92l5.2,5.2l5.2-5.2"/>
		</g>
	</g>
	<g id="gge4345">
		<g id="gge4347" class="st0">
			<text transform="matrix(1 0 0 1 118.869 43.03)" class="st1 st2 st3">1k</text>
		</g>
		<g id="gge4349" class="st0">
			<text transform="matrix(1 0 0 1 118.869 27.0012)" class="st1 st2 st3">R73</text>
		</g>
		<line id="gge4351" class="st6" x1="160.1" y1="57" x2="154.8" y2="65.8"/>
		<line id="gge4352" class="st6" x1="146.1" y1="48.3" x2="137.3" y2="65.8"/>
		<line id="gge4353" class="st6" x1="154.8" y1="65.8" x2="146.1" y2="48.3"/>
		<g id="gge4354">
			<circle class="st5" cx="168.8" cy="57" r="3.5"/>
			<path class="st6" d="M168.8,57h-8.7"/>
			<text transform="matrix(1 0 0 1 145.3094 57.0286)" class="st7 st8 st3">2</text>
			<text transform="matrix(1 0 0 1 167.0956 50.0291)" class="st7 st8 st3">2</text>
			<circle class="st9" cx="165.3" cy="57" r="5.2"/>
			<path class="st10" d="M160.1,51.8l-5.2,5.2l5.2,5.2"/>
		</g>
		<line id="gge4361" class="st6" x1="121.6" y1="65.8" x2="112.8" y2="48.3"/>
		<line id="gge4362" class="st6" x1="137.3" y1="65.8" x2="130.3" y2="48.3"/>
		<line id="gge4363" class="st6" x1="130.3" y1="48.3" x2="121.6" y2="65.8"/>
		<line id="gge4364" class="st6" x1="112.8" y1="48.3" x2="107.6" y2="57"/>
		<g id="gge4365">
			<circle class="st5" cx="98.9" cy="57" r="3.5"/>
			<path class="st6" d="M98.9,57h8.7"/>
			<text transform="matrix(1 0 0 1 114.5995 57.0286)" class="st7 st8 st3">1</text>
			<text transform="matrix(1 0 0 1 92.8138 50.0291)" class="st7 st8 st3">1</text>
			<circle class="st9" cx="102.4" cy="57" r="5.2"/>
			<path class="st10" d="M107.6,62.3l5.2-5.2l-5.2-5.2"/>
		</g>
	</g>
	<polyline id="gge4372" class="st6" points="168.8,57 195.1,57 195.1,302 168.8,302 	"/>
	<polyline id="gge4373" class="st6" points="98.9,302 72.6,302 72.6,275.8 	"/>
	<line id="gge4374" class="st6" x1="72.6" y1="205.8" x2="72.6" y2="153.3"/>
	<polyline id="gge4375" class="st6" points="72.6,83.3 72.6,57 98.9,57 	"/>
	<line id="gge4376" class="st6" x1="116.3" y1="179.5" x2="72.6" y2="179.5"/>
	<line id="gge4379" class="st6" x1="151.3" y1="179.5" x2="195.1" y2="179.5"/>
	<g id="gge4383">
		<text transform="matrix(1 0 0 1 28.8573 249.5125)" class="st15 st12">6kΩ</text>
	</g>
	<g id="gge4386">
		<text transform="matrix(1 0 0 1 20.1078 127.0227)" class="st15 st12">12kΩ</text>
	</g>
	<g id="gge4389">
		<text transform="matrix(1 0 0 1 125.0995 39.53)" class="st16 st15 st12">RA</text>
	</g>
	<g id="gge4392">
		<text transform="matrix(1 0 0 1 116.3495 153.2703)" class="st8 st12">2Vx</text>
	</g>
	<g id="gge4395">
		<text transform="matrix(-1.836970e-16 -1 1 -1.836970e-16 90.1019 214.5144)" class="st8 st17">+</text>
	</g>
	<g id="gge4398">
		<text transform="matrix(-1.836970e-16 -1 1 -1.836970e-16 90.1019 275.7585)" class="st8 st17">-</text>
	</g>
	<g id="gge4401">
		<text transform="matrix(1 0 0 1 90.1019 249.5125)" class="st8 st12">Vx</text>
	</g>
	<g id="gge4381">
		<circle class="st5" cx="195.1" cy="179.5" r="3.5"/>
		<circle cx="195.1" cy="179.5" r="4.4"/>
	</g>
	<g id="gge4378">
		<circle class="st5" cx="72.6" cy="179.5" r="3.5"/>
		<circle cx="72.6" cy="179.5" r="4.4"/>
	</g>
</g>
<g>
	<g id="ni34a4_1_">
		
			<image style="overflow:visible;" width="1200" height="423" id="ni34a4_00000114052095137766275830000010247063283131300264_" xlink:href="997891BFC9FE2879.png"  transform="matrix(3.635557e-02 0 0 3.635557e-02 28.3069 321.6117)">
		</image>
	</g>
	<g>
		<text transform="matrix(1 0 0 1 28.1146 344.9532)" class="st18 st19">UBC Engineering</text>
	</g>
</g>
</svg>
