<?xml version="1.0" encoding="utf-8"?>
<!-- Generator: Adobe Illustrator 26.3.1, SVG Export Plug-In . SVG Version: 6.00 Build 0)  -->
<svg version="1.1" id="Layer_1" xmlns="http://www.w3.org/2000/svg" xmlns:xlink="http://www.w3.org/1999/xlink" x="0px" y="0px"
	 viewBox="0 0 534 267" style="enable-background:new 0 0 534 267;" xml:space="preserve">
<style type="text/css">
	.st0{display:none;}
	.st1{display:inline;}
	.st2{font-family:'ArialMT';}
	.st3{font-size:15.5928px;}
	.st4{fill:none;stroke:#000000;stroke-width:2.2275;}
	.st5{fill:none;}
	.st6{fill:none;stroke:#000000;stroke-width:2.2275;stroke-linecap:round;stroke-linejoin:round;}
	.st7{display:none;enable-background:new    ;}
	.st8{font-family:'Verdana';}
	.st9{display:none;fill:none;stroke:#000000;stroke-width:2.2275;}
	.st10{display:none;fill:none;stroke:#000000;stroke-width:2.2275;stroke-linecap:round;stroke-linejoin:round;}
	.st11{font-size:14.479px;}
	.st12{fill:#FF3366;}
	.st13{font-size:16.7065px;}
	.st14{font-family:'Helvetica';}
	.st15{fill:#0066CC;}
	.st16{font-family:'Folio-Medium';}
	.st17{font-size:5.504px;}
</style>
<g id="g1">
	<g id="gge3426">
		<g id="gge3428" class="st0">
			<text transform="matrix(1 0 0 1 333.8029 155.8462)" class="st1 st2 st3">SIN(0 1 50)</text>
		</g>
		<g id="gge3430" class="st0">
			<text transform="matrix(1 0 0 1 333.8029 135.5972)" class="st1 st2 st3">I6</text>
		</g>
		<ellipse id="gge3432" class="st4" cx="307.1" cy="128.2" rx="22.3" ry="22.3"/>
		<g id="gge3433">
			<circle class="st5" cx="307.1" cy="83.6" r="4.5"/>
			<path class="st6" d="M307.1,105.9V83.6"/>
			<text transform="matrix(-1.836970e-16 -1 1 -1.836970e-16 307.0724 124.7271)" class="st7 st8 st3">2</text>
			<text transform="matrix(-1.836970e-16 -1 1 -1.836970e-16 298.1623 96.9946)" class="st7 st8 st3">2</text>
			<circle class="st9" cx="307.1" cy="54.7" r="6.7"/>
			<path class="st10" d="M300.4,61.4l6.7,6.7l6.7-6.7"/>
		</g>
		<line id="gge3440" class="st6" x1="307.1" y1="110.4" x2="311.5" y2="114.8"/>
		<line id="gge3441" class="st6" x1="307.1" y1="110.4" x2="302.6" y2="114.8"/>
		<g id="gge3442">
			<circle class="st5" cx="307.1" cy="172.7" r="4.5"/>
			<path class="st6" d="M307.1,150.5v22.3"/>
			<text transform="matrix(-1.836970e-16 -1 1 -1.836970e-16 307.0724 146.0005)" class="st7 st8 st3">1</text>
			<text transform="matrix(-1.836970e-16 -1 1 -1.836970e-16 298.1623 169.2778)" class="st7 st8 st3">1</text>
			<circle class="st9" cx="307.1" cy="201.7" r="6.7"/>
			<path class="st10" d="M313.8,195l-6.7-6.7l-6.7,6.7"/>
		</g>
		<line id="gge3449" class="st6" x1="307.1" y1="110.4" x2="307.1" y2="146"/>
	</g>
	<g id="gge3451">
		<g id="gge3453" class="st0">
			<text transform="matrix(1 0 0 1 489.7306 155.8462)" class="st1 st2 st3">SIN(0 1 50) AC 1 0</text>
		</g>
		<g id="gge3455" class="st0">
			<text transform="matrix(1 0 0 1 489.7306 135.5972)" class="st1 st2 st3">V8</text>
		</g>
		<ellipse id="gge3457" class="st4" cx="463" cy="128.2" rx="22.3" ry="22.3"/>
		<g id="gge3458">
			<circle class="st5" cx="463" cy="172.7" r="4.5"/>
			<path class="st6" d="M463,150.5v22.3"/>
			<text transform="matrix(-1.836970e-16 -1 1 -1.836970e-16 463.0002 146.0005)" class="st7 st8 st3">1</text>
			<text transform="matrix(-1.836970e-16 -1 1 -1.836970e-16 454.09 169.2778)" class="st7 st8 st3">1</text>
			<circle class="st9" cx="463" cy="201.7" r="6.7"/>
			<path class="st10" d="M469.7,195l-6.7-6.7l-6.7,6.7"/>
		</g>
		<line id="gge3465" class="st6" x1="467.5" y1="141.5" x2="458.5" y2="141.5"/>
		<line id="gge3466" class="st6" x1="463" y1="146" x2="463" y2="137.1"/>
		<g id="gge3467">
			<circle class="st5" cx="463" cy="83.6" r="4.5"/>
			<path class="st6" d="M463,105.9V83.6"/>
			<text transform="matrix(-1.836970e-16 -1 1 -1.836970e-16 463.0002 124.7271)" class="st7 st8 st3">2</text>
			<text transform="matrix(-1.836970e-16 -1 1 -1.836970e-16 454.09 96.9946)" class="st7 st8 st3">2</text>
			<circle class="st9" cx="463" cy="54.7" r="6.7"/>
			<path class="st10" d="M456.3,61.4L463,68l6.7-6.7"/>
		</g>
		<line id="gge3474" class="st6" x1="458.5" y1="114.8" x2="467.5" y2="114.8"/>
	</g>
	<g id="gge3476">
		<g id="gge3478" class="st0">
			<text transform="matrix(1 0 0 1 371.7599 32.396)" class="st1 st2 st3">1k</text>
		</g>
		<g id="gge3480" class="st0">
			<text transform="matrix(1 0 0 1 371.7599 12.103)" class="st1 st2 st3">R58</text>
		</g>
		<line id="gge3482" class="st6" x1="418.4" y1="50.2" x2="411.8" y2="61.4"/>
		<line id="gge3483" class="st6" x1="400.6" y1="39.1" x2="389.5" y2="61.4"/>
		<line id="gge3484" class="st6" x1="411.8" y1="61.4" x2="400.6" y2="39.1"/>
		<g id="gge3485">
			<circle class="st5" cx="429.6" cy="50.2" r="4.5"/>
			<path class="st6" d="M429.6,50.2h-11.1"/>
			<text transform="matrix(1 0 0 1 399.6261 50.2163)" class="st7 st8 st3">2</text>
			<text transform="matrix(1 0 0 1 427.3595 41.3062)" class="st7 st8 st3">2</text>
			<circle class="st9" cx="425.1" cy="50.2" r="6.7"/>
			<path class="st10" d="M418.4,43.5l-6.7,6.7l6.7,6.7"/>
		</g>
		<line id="gge3492" class="st6" x1="369.4" y1="61.4" x2="358.3" y2="39.1"/>
		<line id="gge3493" class="st6" x1="389.5" y1="61.4" x2="380.6" y2="39.1"/>
		<line id="gge3494" class="st6" x1="380.6" y1="39.1" x2="369.4" y2="61.4"/>
		<line id="gge3495" class="st6" x1="358.3" y1="39.1" x2="351.6" y2="50.2"/>
		<g id="gge3496">
			<circle class="st5" cx="340.5" cy="50.2" r="4.5"/>
			<path class="st6" d="M340.5,50.2h11.1"/>
			<text transform="matrix(1 0 0 1 360.5334 50.2163)" class="st7 st8 st3">1</text>
			<text transform="matrix(1 0 0 1 332.8 41.3062)" class="st7 st8 st3">1</text>
			<circle class="st9" cx="344.9" cy="50.2" r="6.7"/>
			<path class="st10" d="M351.6,56.9l6.7-6.7l-6.7-6.7"/>
		</g>
	</g>
	<g id="gge3504">
		<g id="gge3506" class="st0">
			<text transform="matrix(1 0 0 1 215.8322 32.396)" class="st1 st2 st3">1k</text>
		</g>
		<g id="gge3508" class="st0">
			<text transform="matrix(1 0 0 1 215.8322 12.103)" class="st1 st2 st3">R59</text>
		</g>
		<line id="gge3510" class="st6" x1="262.5" y1="50.2" x2="255.8" y2="61.4"/>
		<line id="gge3511" class="st6" x1="244.7" y1="39.1" x2="233.6" y2="61.4"/>
		<line id="gge3512" class="st6" x1="255.8" y1="61.4" x2="244.7" y2="39.1"/>
		<g id="gge3513">
			<circle class="st5" cx="273.7" cy="50.2" r="4.5"/>
			<path class="st6" d="M273.7,50.2h-11.1"/>
			<text transform="matrix(1 0 0 1 243.6984 50.2163)" class="st7 st8 st3">2</text>
			<text transform="matrix(1 0 0 1 271.4318 41.3062)" class="st7 st8 st3">2</text>
			<circle class="st9" cx="269.2" cy="50.2" r="6.7"/>
			<path class="st10" d="M262.5,43.5l-6.7,6.7l6.7,6.7"/>
		</g>
		<line id="gge3520" class="st6" x1="213.5" y1="61.4" x2="202.4" y2="39.1"/>
		<line id="gge3521" class="st6" x1="233.6" y1="61.4" x2="224.7" y2="39.1"/>
		<line id="gge3522" class="st6" x1="224.7" y1="39.1" x2="213.5" y2="61.4"/>
		<line id="gge3523" class="st6" x1="202.4" y1="39.1" x2="195.7" y2="50.2"/>
		<g id="gge3524">
			<circle class="st5" cx="184.6" cy="50.2" r="4.5"/>
			<path class="st6" d="M184.6,50.2h11.1"/>
			<text transform="matrix(1 0 0 1 204.6056 50.2163)" class="st7 st8 st3">1</text>
			<text transform="matrix(1 0 0 1 176.8722 41.3062)" class="st7 st8 st3">1</text>
			<circle class="st9" cx="189" cy="50.2" r="6.7"/>
			<path class="st10" d="M195.7,56.9l6.7-6.7l-6.7-6.7"/>
		</g>
	</g>
	<g id="gge3532">
		<g id="gge3534" class="st0">
			<text transform="matrix(1 0 0 1 166.7375 155.8462)" class="st1 st2 st3">1k</text>
		</g>
		<g id="gge3536" class="st0">
			<text transform="matrix(1 0 0 1 166.7375 135.5972)" class="st1 st2 st3">R60</text>
		</g>
		<line id="gge3538" class="st6" x1="151.1" y1="94.8" x2="162.3" y2="101.4"/>
		<line id="gge3539" class="st6" x1="140" y1="112.6" x2="162.3" y2="123.7"/>
		<line id="gge3540" class="st6" x1="162.3" y1="101.4" x2="140" y2="112.6"/>
		<g id="gge3541">
			<circle class="st5" cx="151.1" cy="83.6" r="4.5"/>
			<path class="st6" d="M151.1,83.6v11.1"/>
			<text transform="matrix(-1.836970e-16 -1 1 -1.836970e-16 151.1447 113.5903)" class="st7 st8 st3">2</text>
			<text transform="matrix(-1.836970e-16 -1 1 -1.836970e-16 142.2345 85.856)" class="st7 st8 st3">2</text>
			<circle class="st9" cx="151.1" cy="88.1" r="6.7"/>
			<path class="st10" d="M144.5,94.8l6.7,6.7l6.7-6.7"/>
		</g>
		<line id="gge3548" class="st6" x1="162.3" y1="143.8" x2="140" y2="154.9"/>
		<line id="gge3549" class="st6" x1="162.3" y1="123.7" x2="140" y2="132.6"/>
		<line id="gge3550" class="st6" x1="140" y1="132.6" x2="162.3" y2="143.8"/>
		<line id="gge3551" class="st6" x1="140" y1="154.9" x2="151.1" y2="161.6"/>
		<g id="gge3552">
			<circle class="st5" cx="151.1" cy="172.7" r="4.5"/>
			<path class="st6" d="M151.1,172.7v-11.1"/>
			<text transform="matrix(-1.836970e-16 -1 1 -1.836970e-16 151.1447 152.6821)" class="st7 st8 st3">1</text>
			<text transform="matrix(-1.836970e-16 -1 1 -1.836970e-16 142.2345 180.4165)" class="st7 st8 st3">1</text>
			<circle class="st9" cx="151.1" cy="168.3" r="6.7"/>
			<path class="st10" d="M157.8,161.6l-6.7-6.7l-6.7,6.7"/>
		</g>
	</g>
	<polyline id="gge3559" class="st6" points="151.1,172.7 151.1,206.1 307.1,206.1 307.1,172.7 	"/>
	<polyline id="gge3560" class="st6" points="463,172.7 463,206.1 307.1,206.1 	"/>
	<polyline id="gge3562" class="st6" points="463,83.6 463,50.2 429.6,50.2 	"/>
	<line id="gge3563" class="st6" x1="340.5" y1="50.2" x2="273.7" y2="50.2"/>
	<line id="gge3564" class="st6" x1="307.1" y1="83.6" x2="307.1" y2="50.2"/>
	<polyline id="gge3566" class="st6" points="184.6,50.2 151.1,50.2 151.1,83.6 	"/>
	<g id="gge3572">
		<text transform="matrix(-1.836970e-16 -1 1 -1.836970e-16 73.1808 50.2153)" class="st8 st11">+</text>
	</g>
	<g id="gge3574">
		<text transform="matrix(1 0 0 1 61.3751 220.3335)" class="st8 st11">-</text>
	</g>
	<line id="gge3576" class="st6" x1="73.2" y1="61.4" x2="73.2" y2="195"/>
	<line id="gge3579" class="st6" x1="73.2" y1="50.2" x2="151.1" y2="50.2"/>
	<line id="gge3581" class="st6" x1="73.2" y1="206.1" x2="151.1" y2="206.1"/>
	<g id="gge3584">
		<text transform="matrix(1 0 0 1 39.7677 128.1802)" class="st12 st8 st13">Vo</text>
	</g>
	<g id="gge3587">
		<text transform="matrix(1 0 0 1 95.4562 128.1802)" class="st14 st13">8kΩ</text>
	</g>
	<g id="gge3590">
		<text transform="matrix(1 0 0 1 195.6955 27.9409)" class="st14 st13">16kΩ</text>
	</g>
	<g id="gge3593">
		<text transform="matrix(1 0 0 1 362.7609 27.9409)" class="st14 st13">12kΩ</text>
	</g>
	<g id="gge3596">
		<text transform="matrix(1 0 0 1 251.3839 128.1802)" class="st15 st8 st13">Is</text>
	</g>
	<g id="gge3599">
		<text transform="matrix(1 0 0 1 407.3117 128.1802)" class="st15 st8 st13">Vs</text>
	</g>
	<g id="gge3582">
		<circle class="st5" cx="151.1" cy="206.1" r="4.5"/>
		<circle cx="151.1" cy="206.1" r="5.6"/>
	</g>
	<g id="gge3561">
		<circle class="st5" cx="307.1" cy="206.1" r="4.5"/>
		<circle cx="307.1" cy="206.1" r="5.6"/>
	</g>
	<g id="gge3565">
		<circle class="st5" cx="307.1" cy="50.2" r="4.5"/>
		<circle cx="307.1" cy="50.2" r="5.6"/>
	</g>
	<g id="gge3580">
		<circle class="st5" cx="151.1" cy="50.2" r="4.5"/>
		<circle cx="151.1" cy="50.2" r="5.6"/>
	</g>
	<g id="gge3569">
		<path d="M73.2,61.4l-8.9,4.5l8.9-11.1l8.9,11.1L73.2,61.4z"/>
	</g>
	<g id="gge3571">
		<path d="M73.2,195l8.9-4.5l-8.9,11.1l-8.9-11.1L73.2,195z"/>
	</g>
</g>
<g>
	<g id="ni34a4_1_">
		
			<image style="overflow:visible;" width="1200" height="423" id="ni34a4_00000114052095137766275830000010247063283131300264_" xlink:href="9956E58CE1C4D755.png"  transform="matrix(3.635557e-02 0 0 3.635557e-02 448.6855 234.6412)">
		</image>
	</g>
	<g>
		<text transform="matrix(1 0 0 1 448.4932 257.9828)" class="st16 st17">UBC Engineering</text>
	</g>
</g>
</svg>
